<svg id="Capa_1" data-name="Capa 1" xmlns="http://www.w3.org/2000/svg" viewBox="0 0 200 200"><defs><style>.cls-1{fill:#5d5ff0;}</style></defs><path class="cls-1" d="M72.32,120.63l44.9,61.81q2.1,3.56,26,.82t23.74-8.07l-1.42-65ZM27.88,192.44Q28,197,51.44,194.31t23.39-7.26l-1.45-66.27-46.95,5.44Z"/><path class="cls-1" d="M171.1,7.4l2.22,102.13L88,119.39l-6.75.77L34.25,125.6,32,22.12Q31.91,18.31,52,16a141.21,141.21,0,0,1,18.42-.72Q81,15.49,83.32,19l42.31,73.47L123.9,12.84Q123.79,8,147.39,5.31T171.1,7.4Z"/></svg>