<svg width="1956" height="156" viewBox="0 0 1956 156" fill="none" xmlns="http://www.w3.org/2000/svg">
<g clip-path="url(#clip0_202_1421)">
<g filter="url(#filter0_d_202_1421)">
<path fill-rule="evenodd" clip-rule="evenodd" d="M1957.27 92.4813C1960.6 91.7341 1963.7 90.3062 1966.37 87.9478C1965.76 85.3671 1960.63 79.9943 1954.83 73.9056C1946.56 65.2377 1936.91 55.1191 1936.92 49.5399C1932.02 50.7539 1929.78 52.3817 1928.33 53.4357C1926.66 54.6509 1926.04 55.1035 1923.59 53.2804C1918.6 50.9933 1916.7 52.5007 1914.62 54.1592C1912.7 55.6864 1910.61 57.3419 1905.81 56.2813C1901.41 53.9373 1896.54 54.6654 1891.86 55.3669C1888.64 55.8476 1885.51 56.3158 1882.68 55.7749C1880.72 55.2793 1879.13 53.9302 1877.61 52.6399C1875.07 50.4804 1872.72 48.4858 1869.16 50.9336C1860.51 53.1623 1852.52 51.5092 1844.62 49.8747C1843.34 49.6113 1842.07 49.3483 1840.8 49.1021C1835.37 47.2125 1828.09 47.4882 1820.89 47.7608C1811.32 48.1232 1801.89 48.48 1797.17 43.7333C1797.44 45.0888 1797.04 44.0871 1796.08 41.6685C1795.49 40.1917 1794.69 38.1867 1793.71 35.8675C1791.97 31.0619 1790.67 28.4396 1788.92 31.0527C1786.95 33.6545 1785.98 31.6331 1784.53 28.6214C1784.03 27.6012 1783.49 26.4673 1782.83 25.361C1776.32 13.5585 1765.83 15.7087 1757.97 18.3033C1755.54 16.3446 1752.96 17.2485 1750.47 18.12C1748.51 18.8077 1746.61 19.4752 1744.88 18.7001C1740.61 19.9999 1737.33 18.8346 1733.37 17.4264C1732.07 16.9622 1730.69 16.4715 1729.17 16.0342C1725.84 16.0241 1722.47 15.5816 1719.07 15.137C1712.24 14.2415 1705.34 13.3373 1698.62 15.9417C1694.51 16.4654 1690.33 15.8177 1686.13 15.168C1680.08 14.2314 1674.01 13.2904 1668.07 15.8492C1665.1 16.0147 1662.14 15.7614 1659.17 15.508C1654.72 15.128 1650.27 14.7479 1645.82 15.7818C1632.67 7.35979 1620.57 14.6395 1609.57 21.259C1608.54 21.8767 1607.52 22.4887 1606.51 23.0816C1601.25 30.4845 1599.07 31.3507 1591.65 30.4554C1590.44 34.0584 1589.11 32.4944 1587.79 30.9462C1586.72 29.6845 1585.66 28.4332 1584.67 29.9979C1583.06 26.2127 1581.43 28.7763 1579.91 31.1763C1578.97 32.6552 1578.07 34.0719 1577.24 33.903C1575.97 33.5817 1574.64 35.3379 1573.29 37.115C1570.93 40.2245 1568.52 43.3978 1566.32 35.6155C1562.95 39.9248 1560.25 39.8815 1557.49 39.8372C1555.22 39.8008 1552.91 39.7638 1550.16 42.1126C1547.67 42.2516 1545.13 41.1113 1542.58 39.9637C1537.52 37.6935 1532.41 35.3949 1527.46 42.9167C1524.61 44.0807 1522.07 46.3388 1519.62 48.5302C1515.67 52.0476 1511.92 55.3929 1507.35 53.7658C1505.56 55.5484 1503.59 54.979 1501.61 54.4048C1499.23 53.7178 1496.84 53.0241 1494.69 56.3459C1493.25 57.0589 1491.91 58.1968 1490.61 59.2941C1487.96 61.5343 1485.52 63.6053 1482.89 61.5469C1481.09 61.9414 1479.2 61.7858 1477.25 61.6262C1474.96 61.4374 1472.6 61.2429 1470.23 61.945C1469.82 62.1141 1469.41 62.2886 1468.99 62.464C1464.1 64.5349 1458.9 66.7386 1454.08 61.8961C1446.65 70.5841 1441.44 64.9354 1435.79 58.8227L1435.76 58.7859C1433.79 57.704 1433.15 56.6261 1432.65 55.7909C1431.94 54.5935 1431.52 53.8949 1427.92 54.3981C1426.47 55.1179 1424.87 54.4103 1423.22 53.6775C1420.89 52.644 1418.44 51.5604 1416.14 54.3624C1413.5 54.3545 1410.86 55.2793 1408.24 56.1984C1403.05 58.0194 1397.92 59.8178 1393 54.2924C1390.01 60.0162 1388.47 58.5146 1387 57.0648C1385.66 55.7556 1384.37 54.4886 1382.08 58.6234C1380.12 63.903 1378.53 63.1544 1376.61 62.2537C1375.52 61.7415 1374.33 61.18 1372.91 61.6504C1370.93 61.3398 1369.16 60.6577 1367.44 59.9934C1364.23 58.754 1361.18 57.576 1357.2 58.9844C1353.4 55.4134 1349.14 56.8774 1345.03 58.2864C1342.09 59.2959 1339.24 60.2772 1336.69 59.3587C1334.97 61.9184 1333.37 61.966 1331.76 62.0135C1330.09 62.0629 1328.42 62.1123 1326.63 65.0015C1324.76 65.7745 1323.45 65.8267 1322.33 65.871C1320.33 65.9509 1318.96 66.0051 1316.14 70.2065C1308.27 75.8559 1302.6 76.265 1292.57 71.8706C1287.91 68.9361 1284.4 70.1137 1280.37 71.4688C1278.38 72.1386 1276.26 72.8519 1273.8 73.1332C1271.53 73.1263 1269.21 72.1462 1266.87 71.1594C1262.04 69.1176 1257.14 67.0467 1252.41 73.5048C1249.04 74.9376 1246.48 72.1702 1243.91 69.394C1241.81 67.1325 1239.71 64.8652 1237.17 64.8575C1233.21 74.0099 1226.66 74.4265 1223.21 62.6332L1223.21 62.6316C1219.74 55.6403 1219.74 55.6401 1216.69 52.5763C1215.56 54.6524 1213.74 54.2051 1211.69 53.7012C1208.14 52.8305 1203.91 51.7907 1201.38 63.3131C1196.35 61.465 1191.31 62.1428 1186.26 62.8205C1181.7 63.4338 1177.14 64.047 1172.58 62.7895C1165.67 55.2105 1158.74 58.5396 1151.96 61.79C1149.35 63.0438 1146.76 64.2859 1144.21 64.8856C1141.64 64.3645 1138.87 64.5808 1136.09 64.7985C1131.77 65.136 1127.41 65.4766 1123.7 63.0779C1121.27 65.2735 1118.97 61.7979 1116.66 58.3207C1114.41 54.9097 1112.15 51.4972 1109.76 53.4349C1106.05 48.1985 1105.5 49.3556 1103.5 53.6164C1103.16 54.3376 1102.78 55.1477 1102.34 56.0308C1096.65 61.2504 1093.59 61.2411 1087.05 60.7849C1080.94 58.148 1074.4 57.2554 1067.41 58.1071C1060.85 64.1968 1055.6 67.6721 1050.36 69.8383C1045.93 76.162 1041.7 75.528 1037.2 74.8542C1034.57 74.4608 1031.86 74.0538 1028.96 75.0103C1024.26 74.6603 1023.2 73.6675 1020.19 70.8351C1019.29 69.9859 1018.21 68.9713 1016.8 67.759C1016.8 66.8862 1005.85 67.0851 1005.4 71.4478C1004.12 69.0845 1002.94 68.6191 1001.71 68.134C1000.44 67.6322 999.111 67.1092 997.566 64.4416C987.516 68.3388 976.614 65.251 965.284 59.5435C960.943 59.8642 956.662 61.1431 952.445 62.403C945.638 64.4363 938.999 66.42 932.538 64.2448C930.33 64.1154 928.157 63.8138 926 63.5142C920.481 62.7481 915.061 61.9957 909.407 64.1747C901.135 57.6037 891.541 54.9562 884.096 63.6617C879.739 61.0301 877.56 60.1507 871.89 58.8243C870.952 59.3259 870.18 59.7923 869.522 60.1899C866.196 62.2004 865.777 62.4533 861.422 56.6107C858.194 56.3201 854.876 55.7131 851.497 55.0949C844.373 53.7915 836.976 52.4382 829.571 53.8958C821.25 47.6162 812.106 50.0987 802.926 52.5908C802.498 52.7069 802.07 52.8231 801.642 52.9385C796.53 57.0953 791.553 57.1896 786.961 57.2767C782.907 57.3535 779.153 57.4247 775.871 60.2793C774.077 59.6754 772.459 61.3516 770.773 63.0981C768.77 65.1725 766.672 67.3461 764.07 65.9167C762.11 67.333 760.442 65.2741 758.826 63.2793C756.474 60.3772 754.233 57.6108 751.363 65.8782C744.663 71.4265 739.397 69.0841 732.071 65.8251C730.785 65.2531 729.435 64.6528 728.003 64.0619C721.909 58.8067 715.375 54.8593 708.801 64.0038C707.194 64.7008 705.278 65.699 703.233 66.7646C696.377 70.337 688.064 74.6685 685.05 70.962C683.229 67.9054 682.897 67.6031 681.524 66.3516C680.933 65.8131 680.15 65.0987 678.972 63.9135C675.928 59.9767 671.129 59.5257 667.627 63.0063C665.549 62.3602 663.526 63.0629 661.519 63.7601C658.049 64.965 654.627 66.1536 651.051 60.3378C644.279 56.6433 637.306 58.6218 630.388 60.585C626.624 61.6533 622.875 62.7171 619.184 62.8597C616.806 61.4918 615.42 61.1876 614.279 60.9371C612.492 60.5449 611.306 60.2846 607.856 56.2794C606.12 55.6225 604.49 55.7227 602.807 55.8262C601.108 55.9307 599.355 56.0384 597.385 55.3749C583.207 62.6114 569.436 59.3556 555.346 56.0243C554.232 55.7608 553.115 55.4968 551.996 55.2375C549.385 54.7686 546.5 55.5432 543.592 56.3238C538.241 57.7605 532.812 59.218 528.872 52.9855C526.267 48.6136 523.655 46.4236 519.729 45.539C515.145 43.0761 513.121 45.9893 510.508 49.7502C509.396 51.3508 508.177 53.105 506.609 54.6636C503.114 60.2181 499.921 57.4571 496.564 54.5541C495.709 53.8147 494.843 53.0661 493.959 52.4433C490.221 46.7995 485.79 47.6605 481.812 48.4333C480.242 48.7383 478.743 49.0296 477.385 48.902C475.68 41.643 473.95 42.5861 472.653 43.2929C472.312 43.4791 472 43.6489 471.727 43.648C470.886 43.6455 470.043 44.0487 469.2 44.4519C467.42 45.3032 465.641 46.1545 463.873 43.1879C460.71 45.1208 458.64 43.2742 456.373 41.2524C454.566 39.6404 452.634 37.917 449.923 37.9088C446.664 33.7355 442.984 35.0327 439.45 36.278C437.798 36.8601 436.179 37.4308 434.65 37.4262C430.751 27.8136 429.006 27.3719 425.504 30.8525C416.409 25.1302 402.339 26.3287 391.073 27.2884C389.389 27.4318 387.768 27.5699 386.235 27.6788C383.566 26.3342 380.89 27.3285 378.214 28.3228C374.773 29.6011 371.332 30.8794 367.906 27.1869C366.873 27.8282 365.878 28.4792 364.911 29.1116C359.331 32.7619 354.694 35.7958 349.123 32.8033C346.284 35.06 343.377 33.0702 340.458 31.073C336.63 28.4531 332.783 25.8202 329.047 32.7425C324.228 32.0047 320.594 35.6646 316.76 39.5255C313.653 42.6543 310.415 45.9152 306.309 47.0748C295.388 50.533 284.471 52.6819 272.68 54.8282C271.37 55.4782 270.114 56.4006 268.885 57.3029C265.193 60.0134 261.748 62.543 257.835 56.9653C248.622 62.9489 240.293 60.9121 231.431 58.7448C229.357 58.2375 227.253 57.723 225.102 57.3026C212.455 54.2095 201.967 58.5417 191.027 68.1094C186.518 69.1199 181.914 69.4572 177.259 69.7981C171.997 70.1836 166.669 70.5739 161.338 71.9472C151.32 65.3708 140.861 60.5387 131.255 61.8189C130.393 62.2469 129.5 62.6985 128.584 63.1622C118.359 68.337 105.148 75.0228 96.7602 67.3876C87.6203 59.0683 80.6401 58.1744 69.2943 57.7037C62.6964 64.6255 58.2676 62.3775 52.9083 59.6571C51.8662 59.1282 50.7889 58.5814 49.6537 58.0806C43.1271 51.5149 36.1363 54.1121 29.5793 57.5834C25.3584 53.9032 22.0324 55.8792 18.3206 58.0845C16.2906 59.2905 14.1453 60.5651 11.6752 61.0204C9.12256 63.5574 4.65155 62.5273 0.501027 61.571C-2.46622 60.8873 -5.26967 60.2414 -7.09125 60.9636C-7.48888 61.1213 -7.79204 61.3296 -8.04397 61.5028C-8.76334 61.9971 -9.06498 62.2045 -9.95573 60.1244L-10.004 76.0804L-10.0044 76.1886L-10.0527 92.1446C-10.0555 93.0893 -10.0478 93.9376 -10.0335 94.7194C-10.0426 94.8622 -10.0521 95.0069 -10.0618 95.1533C-10.0496 95.1456 -10.0374 95.1378 -10.0252 95.1299C-9.99898 96.3351 -9.95794 97.3863 -9.91824 98.4033C-9.7908 101.668 -9.67708 104.581 -10.1101 111.109C-9.63599 110.808 -9.13932 110.422 -8.60589 110.007C-5.54614 107.628 -1.2769 104.309 6.88 110.651C9.60778 112.772 11.9523 113.635 14.5696 114.079C15.8722 116.265 18.0478 118.454 19.3676 114.967C21.7262 114.974 23.9516 116.021 26.1474 117.054C29.6398 118.698 33.0573 120.306 36.8168 117.638L37.069 117.63C50.0511 117.236 60.8761 116.908 69.0822 127.773C75.1657 136.519 88.252 138.741 98.7368 135.281C100.002 134.654 101.269 133.624 102.535 132.593C105.644 130.065 108.752 127.537 111.843 130.957C115.702 134.54 119.372 133.251 123.116 131.936C124.862 131.323 126.624 130.704 128.428 130.571C128.645 130.537 128.861 130.503 129.074 130.47C139.606 128.821 146.085 127.806 155.525 117.997C158.187 114.362 162.846 115.006 166.655 115.533C167.864 115.701 168.988 115.856 169.934 115.859C174.632 111.524 179.311 113.088 183.991 114.652C185.415 115.129 186.839 115.605 188.264 115.914C191.755 115.227 195.119 115.531 198.491 115.836C201.447 116.103 204.408 116.371 207.467 115.973C211.869 119.417 215.736 117.492 219.671 115.532C222.743 114.003 225.855 112.453 229.296 113.42C234.141 115.745 238.996 114.768 243.851 113.79C248.167 112.922 252.483 112.053 256.791 113.503C270.77 109.182 277.762 106.148 289.127 100.509C293.643 93.9516 296.215 95.8855 299.69 98.4987C300.6 99.1827 301.571 99.9133 302.656 100.55C307.437 107.111 310.051 108.428 314.422 106.259C315.796 106.263 317.518 105.879 319.395 105.46C323.479 104.549 328.3 103.473 331.881 105.876C334.635 102.227 337.373 103.846 340.112 105.465C342.601 106.937 345.091 108.409 347.592 105.923C350.06 107.279 352.418 106.667 354.78 106.055C357.004 105.478 359.232 104.9 361.558 105.965C362.402 105.313 363.125 104.581 363.771 103.927C366.14 101.528 367.467 100.185 369.845 107.736C372.449 112.544 373.751 114.73 377.244 114.305C380.054 117.903 381.824 116.677 383.779 115.322C385.151 114.371 386.615 113.357 388.593 113.903C392.091 111.513 395.254 111.959 398.417 112.405C401.58 112.851 404.742 113.297 408.241 110.907C409.698 110.288 411.255 109.471 412.851 108.633C417.959 105.953 423.478 103.057 427.46 105.729C431.923 101.293 432.908 100.942 437.39 99.3438C438.184 99.0609 439.087 98.7389 440.139 98.3482C443.727 95.9718 447.394 97.5859 451.11 99.2217C455.546 101.174 460.052 103.158 464.579 98.4222C466.691 99.7755 469.575 98.7556 472.511 97.717C476.234 96.4002 480.043 95.0532 482.472 98.4763C485.191 98.6788 486.093 99.481 487.026 100.311C488.189 101.346 489.401 102.425 494.244 102.44C497.578 103.075 501.015 102.416 504.505 101.747C508.32 101.016 512.197 100.273 516.069 101.196C521.701 97.1554 525.526 99.8076 529.799 102.771C531.5 103.95 533.272 105.179 535.258 106.055C538.858 107.147 541.866 107.642 545.752 108.282C546.572 108.417 547.431 108.558 548.343 108.713C555.741 110.885 563.019 110.05 570.308 109.213C576.336 108.521 582.373 107.828 588.494 108.835C591.958 112.856 595.603 111.471 599.21 110.101C601.49 109.234 603.755 108.374 605.951 108.887C610.023 107.401 613.978 109.694 617.879 111.956C621.933 114.306 625.929 116.622 629.938 114.633C630.609 115.534 630.468 117.24 630.291 119.399C630.123 121.436 629.922 123.874 630.338 126.417C631.492 126.305 632.662 126.178 633.841 126.05C641.586 125.209 649.771 124.319 656.958 127.371C656.613 132.311 661.508 132.045 665.805 131.811C667.2 131.735 668.532 131.663 669.601 131.773C671.946 131.65 674.33 131.138 676.742 130.621C682.413 129.404 688.234 128.155 694.041 131.847C699.545 131.049 704.95 131.582 710.348 132.114C716.513 132.722 722.669 133.329 728.955 131.953C731.054 131.628 733.405 130.885 735.874 130.105C743.164 127.801 751.475 125.175 757.323 132.038C759.332 131.877 761.209 132.871 763.13 133.887C766.218 135.522 769.42 137.217 773.464 134.269C776.817 135.57 779.419 132.592 781.889 129.765C783.594 127.813 785.237 125.933 787.02 125.582C789.704 122.915 791.134 120.357 792.241 118.379C793.3 116.484 794.063 115.121 795.345 114.698C796.305 113.744 797.319 113.722 798.498 113.697C800.548 113.653 803.094 113.598 806.711 108.622C807.443 108.367 808.243 108.073 809.097 107.759C816.912 104.889 829.289 100.343 835.954 107.838C840.496 111.494 841.46 111.762 844.559 112.622C845.916 112.999 847.682 113.489 850.337 114.428C853.068 112.392 855.079 114.018 857.058 115.617C858.882 117.091 860.678 118.543 862.985 117.084C867.478 120.314 873.354 118.808 879.151 117.323C885.154 115.784 891.071 114.268 895.278 118.055C896.979 119.253 898.08 120.783 899.102 122.203C900.697 124.418 902.099 126.367 905.291 126.377C906.987 126.382 908.792 126.605 910.647 126.835C914.044 127.255 917.612 127.697 921.001 126.861C933.206 131.698 946.742 129.557 958.97 126.976C961.288 127.292 963.489 129.687 965.679 132.07C969.671 136.414 973.622 140.712 978.157 132.271C980.795 133.6 983.442 132.317 986.088 131.035C989.561 129.352 993.034 127.669 996.489 131.89C1002.59 135.399 1009.14 134.546 1015.25 131.947C1016.56 129.091 1017.86 130.572 1019.15 132.052C1020.03 133.057 1020.91 134.062 1021.8 133.712C1023.16 134.17 1024.2 134.155 1025.19 134.14C1027.05 134.113 1028.7 134.089 1031.82 137.234C1035.07 137.406 1038.56 138.668 1042.13 139.961C1048.16 142.14 1054.42 144.405 1060.18 141.683C1068.71 137.619 1077.77 138.348 1086.94 139.087C1089.51 139.295 1092.08 139.502 1094.66 139.606C1098.01 139.087 1101.22 137.644 1104.32 136.253C1108.89 134.196 1113.22 132.251 1117.38 133.565C1119.68 130.254 1121.83 129.779 1124.18 129.259C1125.85 128.89 1127.62 128.499 1129.62 127.056C1132.33 128.426 1135.32 127.455 1138.38 126.463C1142.17 125.229 1146.07 123.962 1149.69 127.117C1150.03 126.781 1150.43 125.868 1150.85 124.89C1152.08 122.066 1153.54 118.701 1154.49 127.131C1156.5 126.936 1157.13 126.737 1157.59 126.922C1158.14 127.139 1158.48 127.881 1160.59 129.768C1167.13 134.588 1171.93 134.603 1179.35 132.443C1183.76 130.624 1188 132.114 1192.18 133.584C1197.96 135.614 1203.63 137.606 1209.47 130.789C1214.14 130.803 1218.74 128.97 1223.36 127.131C1230.4 124.327 1237.47 121.51 1244.84 125.223C1248.53 129.553 1258.63 128.572 1268.14 127.648C1278.81 126.611 1288.74 125.647 1288.02 132.336C1298.06 133.239 1308.11 129.342 1317.72 125.007C1324.89 121.055 1332.19 123.214 1339.37 125.334C1344.02 126.706 1348.61 128.062 1353.07 127.732C1355.27 126.42 1357.36 126.99 1359.39 127.546C1361.39 128.093 1363.34 128.626 1365.29 127.333C1367.78 125.268 1369.68 124.776 1371.45 124.316C1373.42 123.807 1375.23 123.338 1377.53 120.824C1379.14 120.829 1380.95 120.94 1382.87 121.056C1387.72 121.352 1393.22 121.686 1397.6 120.449C1398.69 119.96 1399.77 119.249 1400.85 118.541C1404.56 116.112 1408.21 113.721 1411.57 120.491C1416.86 118.106 1420.95 119.943 1425.22 121.867C1428.73 123.44 1432.35 125.07 1436.87 124.495C1437.75 124.061 1438.62 123.385 1439.5 122.709C1441.25 121.356 1442.99 120.004 1444.74 120.591C1448.43 123.971 1450.33 120.584 1452.41 116.86C1453.03 115.76 1453.66 114.631 1454.36 113.638C1458.54 107.618 1464.58 109.635 1471.04 111.792C1478.13 114.161 1485.72 116.697 1491.91 108.951C1496.51 107.652 1501.55 108.22 1506.52 108.783C1511.47 109.341 1516.36 109.894 1520.71 108.602C1527.47 107.316 1534.43 107.552 1541.51 107.791C1548.62 108.031 1555.83 108.275 1563.05 106.985C1564.95 106.279 1566.34 105.861 1567.46 105.523C1570.46 104.617 1571.59 104.278 1575.73 100.477C1576.74 100.403 1577.92 100.301 1579.23 100.19C1585.27 99.6736 1593.84 98.941 1598.86 99.6742C1600.34 99.1881 1601.81 100.111 1603.25 101.02C1605.66 102.537 1608.01 104.014 1610.21 98.8358C1613.59 93.9559 1620.09 96.3631 1625.19 98.2485C1627.36 99.0551 1629.29 99.7663 1630.59 99.7703C1643.27 92.8263 1647.76 94.0171 1660.84 98.4207C1670.89 93.2144 1676.96 95.1102 1685.67 100.81C1686.65 100.672 1688.55 100.038 1690.72 99.3155C1695.26 97.7968 1700.99 95.8865 1701.87 97.3677C1702.42 98.2969 1702.43 98.357 1702.45 98.656C1702.48 99.0603 1702.54 99.9015 1704.03 103.92C1708.38 108.734 1725.84 109.223 1730.21 104.872C1735.46 109.488 1738.25 106.922 1741.55 103.889C1742.63 102.894 1743.77 101.848 1745.06 100.99C1750.75 97.0792 1755.56 95.3482 1761.66 97.1123C1763.15 96.9683 1765.29 97.3823 1767.64 97.8368C1772.19 98.7179 1777.54 99.7512 1780.43 97.1691C1781.96 101.434 1782.48 101.228 1783.49 100.825C1783.62 100.774 1783.76 100.72 1783.91 100.671C1785.27 101.356 1786.1 101.508 1787.44 101.753C1787.81 101.821 1788.23 101.897 1788.7 101.995C1792.99 100.009 1797.08 102.506 1801.11 104.965C1803.23 106.263 1805.34 107.551 1807.45 108.161C1811.21 109.427 1815.13 108.412 1819.1 107.382C1824.79 105.904 1830.61 104.396 1836.25 109.557C1845.46 109.939 1853.52 106.872 1862.07 103.621C1864.06 102.865 1866.07 102.098 1868.14 101.362C1875.96 98.7812 1884.54 99.4146 1893.2 100.053C1900.5 100.592 1907.85 101.134 1914.84 99.758C1916.24 99.7623 1919.16 100.862 1922.98 102.305C1934.6 106.69 1954.63 114.25 1966.32 103.904C1965.8 101.701 1961.99 97.4625 1957.27 92.4813Z" fill="white"/>
</g>
</g>
<defs>
<filter id="filter0_d_202_1421" x="-20.1104" y="-8.01611" width="1996.48" height="150.947" filterUnits="userSpaceOnUse" color-interpolation-filters="sRGB">
<feFlood flood-opacity="0" result="BackgroundImageFix"/>
<feColorMatrix in="SourceAlpha" type="matrix" values="0 0 0 0 0 0 0 0 0 0 0 0 0 0 0 0 0 0 127 0" result="hardAlpha"/>
<feOffset dy="-10"/>
<feGaussianBlur stdDeviation="5"/>
<feComposite in2="hardAlpha" operator="out"/>
<feColorMatrix type="matrix" values="0 0 0 0 0 0 0 0 0 0 0 0 0 0 0 0 0 0 0.15 0"/>
<feBlend mode="normal" in2="BackgroundImageFix" result="effect1_dropShadow_202_1421"/>
<feBlend mode="normal" in="SourceGraphic" in2="effect1_dropShadow_202_1421" result="shape"/>
</filter>
<clipPath id="clip0_202_1421">
<rect width="1956" height="156" fill="white"/>
</clipPath>
</defs>
</svg>
