<svg width="1920" height="64" viewBox="0 0 1920 64" fill="none" xmlns="http://www.w3.org/2000/svg">
<g clip-path="url(#clip0_261_1584)">
<path d="M1920 -27.1514H0V36.8486H1920V-27.1514Z" fill="white"/>
<path d="M1932 7.97656H0V163.369H1932V7.97656Z" fill="#1B4E65"/>
<path d="M1976.9 17.1802C1961.37 30.9775 1931.01 13.1903 1925.33 13.1903C1910.02 16.2451 1892.98 10.1355 1878.55 14.9359C1867.62 18.8635 1858.01 23.6639 1846.64 23.2275C1837.03 14.4995 1826.97 24.9731 1817.79 21.9183C1811.67 20.1727 1805.55 12.754 1799 15.8087C1796.81 15.3723 1795.93 15.3723 1794.19 14.4995C1792.88 14.9359 1792.43 15.8087 1790.69 11.0084C1786.32 14.936 1776.26 10.572 1771.89 11.0084C1765.77 9.26283 1760.96 11.0084 1755.29 14.9359C1750.04 18.4271 1747.41 24.9731 1740.42 18.8635C1736.04 23.2275 1718.57 22.7911 1714.19 17.9907C1711.57 11.0084 1713.32 13.6268 1712.01 11.4448C1710.69 9.26283 1698.85 14.4995 1695.79 14.9359C1687.05 9.26283 1680.97 7.38533 1670.91 12.622C1657.8 8.25813 1653.3 7.08083 1640.62 14.0632C1636.26 14.0632 1625.02 6.20803 1620.21 13.1904C1616.71 21.4819 1612.78 12.754 1608.84 14.0632C1602.72 13.1904 1591.35 14.4996 1585.67 14.936C1580 20.1727 1580 18.8635 1572.99 21.4819C1558.57 24.1003 1544.15 20.6091 1530.6 23.2275C1521.85 25.8459 1510.93 21.0455 1501.75 23.6639C1489.94 38.5015 1472.89 15.8088 1464.15 28.4643C1461.1 32.8283 1459.34 39.8107 1454.54 35.4467C1451.91 34.5739 1449.29 38.0651 1446.67 39.3743C1436.62 40.6835 1430.93 31.0827 1421.31 35.4467C1416.95 26.7187 1412.14 33.2647 1407.33 35.4467C1401.21 37.1923 1392.9 35.8831 1387.22 35.8831C1382.85 40.6835 1380.23 38.0651 1374.98 42.4291C1371.04 45.0475 1367.12 40.2471 1362.74 42.8655C1351.37 43.7383 1339.13 33.7011 1327.33 40.2471C1317.72 44.6111 1307.66 48.5386 1297.6 47.6659C1298.92 35.0103 1262.2 49.8479 1254.34 40.6835C1242.1 34.5739 1230.73 46.3567 1218.93 46.3567C1208.87 58.1395 1199.26 43.7383 1188.76 48.1023C1181.33 50.2843 1176.52 50.2843 1169.96 45.4839C1166.03 41.9927 1168.22 42.4291 1163.84 42.8655C1162.54 31.5191 1160.35 41.5563 1159.03 42.8655C1152.48 37.1923 1145.05 45.9203 1138.93 42.8655C1134.12 46.3567 1130.63 43.7383 1126.69 49.4115C1119.7 47.2295 1112.27 54.2118 1103.96 55.521C1092.16 55.0846 1080.36 52.4662 1069.43 57.7035C1060.25 62.0675 1049.76 53.7754 1041.01 53.339C1036.21 48.5387 1034.89 51.1571 1030.96 49.8479C1028.78 50.7207 1026.59 43.3019 1024.4 48.1023C1018.28 50.7207 1011.73 51.5935 1005.61 48.1023C999.488 40.6835 993.366 51.5935 987.246 48.5387C980.252 61.6305 974.569 44.1747 968.012 43.3019C955.773 45.9203 942.222 48.1023 929.982 43.3019C924.736 44.6111 919.054 42.8655 914.245 42.8655C909 42.8655 908.562 37.6287 904.191 34.5739C895.886 27.1552 881.023 40.2471 871.844 33.7011C867.035 36.7559 864.413 27.1552 859.167 31.0828C850.424 28.028 851.299 29.7736 844.742 24.5368C837.31 16.2452 822.885 22.7912 815.455 25.4096C809.771 33.2648 806.712 28.9008 804.089 31.5192C801.466 32.392 801.029 37.1923 795.783 42.4291C791.412 43.3019 787.916 53.3391 782.232 51.1571C775.676 55.9575 771.304 48.5387 766.059 48.9751C758.19 39.8107 745.951 47.6659 737.645 48.9751C725.842 51.5935 714.477 47.2295 702.675 48.9751C694.369 43.7383 686.064 48.5387 678.196 48.9751C673.824 48.5387 665.082 51.1571 665.519 44.6111C657.214 41.1199 647.596 42.8655 638.854 43.7383C637.98 38.5016 639.729 33.7012 638.417 31.9556C630.549 35.8832 622.681 23.2276 614.375 26.2824C608.692 24.9732 602.572 32.8284 596.89 26.2824C583.339 24.1004 570.225 30.21 556.674 26.2824C551.429 25.4096 547.931 24.9732 543.56 23.664C536.566 20.6092 532.195 13.1905 524.327 18.8636C516.896 17.1181 509.464 21.482 502.471 20.1728C493.728 20.1728 496.788 16.6816 490.668 16.2452C486.297 10.1357 477.554 19.3 472.745 16.2452C464.44 24.9732 456.135 11.0085 448.266 16.2452C441.272 18.8636 440.835 18.4272 435.59 23.664C430.343 20.1728 422.476 26.2824 416.356 28.9008C409.362 33.7012 403.679 27.1552 396.685 31.9556C391.877 30.6464 390.128 38.5016 385.32 32.392C381.823 32.8284 380.511 30.6464 377.889 25.846C374.829 16.2453 373.518 21.0457 369.583 24.1004C364.775 21.9184 360.404 26.7188 355.595 24.1004C350.35 29.3372 345.104 17.1181 339.858 24.1004C334.613 20.6093 326.744 24.5368 322.373 24.5368C318.002 26.7188 315.379 25.4096 310.571 18.8637C305.325 15.8089 302.703 10.5721 297.02 18.8637C285.654 24.5368 278.66 27.5916 264.672 31.9556C255.492 28.9008 246.313 36.3196 237.133 31.9556C229.265 29.7736 223.146 40.6836 215.277 34.574C208.719 35.4468 202.6 33.2648 196.043 34.574C189.923 33.2648 183.804 28.9008 177.684 34.574C173.75 34.574 166.755 31.9556 163.259 36.756C153.642 46.7932 147.085 47.666 136.157 49.4116C130.474 49.848 125.228 55.0847 119.546 49.8479C115.174 45.0476 110.803 52.0299 106.432 54.2119C95.9407 57.7035 82.8268 55.5211 76.707 46.7932C68.4016 35.8832 57.4733 36.3196 44.3595 36.756C38.2397 41.12 32.9941 34.1376 26.8744 34.1376C25.563 37.6288 23.3773 35.4468 22.0659 33.2648C19.4432 32.8284 17.0922 31.9721 14.3537 29.8595C4.73686 22.4407 0.530355 28.3296 -2.66211 30.3695C-2.02361 20.2974 -2.66211 18.8312 -2.66211 11.4047C-2.66211 0.153332 -2.66211 -3.35037 -2.66211 -4.65957C-1.44898 -1.85467 -1.32418 -3.21657 0.209493 -3.82897C4.58077 -5.57457 14.6347 0.535032 19.006 -3.82897C26.0001 -5.13817 30.3714 -12.9934 36.9283 -7.32017C43.4852 -10.8114 50.4793 -13.4298 57.0362 -6.88377C64.0302 -3.82897 68.8387 0.971333 76.707 -7.32017C88.0723 -6.88377 95.0664 -6.01097 104.246 2.28053C113.425 10.5721 128.288 1.84413 138.779 -3.39257C148.396 -4.70177 158.887 0.0986314 168.941 6.64453C178.995 4.02613 189.049 4.89893 198.665 2.71693C209.594 -6.88377 220.086 -11.2478 232.762 -8.19297C244.127 -6.01097 254.181 -1.21067 265.546 -8.62937C270.792 -1.21067 275.164 -8.19297 280.409 -10.8114C292.211 -12.9934 303.139 -15.1754 314.068 -18.6666C323.247 -21.285 328.056 -34.3769 336.798 -33.0677C343.356 -45.2868 350.35 -27.8309 356.906 -33.0677C363.464 -29.5765 368.709 -34.3769 375.703 -38.7409C381.823 -32.1949 387.943 -41.3593 394.063 -38.3045C405.864 -39.1773 422.913 -41.7957 433.404 -35.2497C436.901 -38.7409 438.65 -38.3045 442.584 -28.7037C447.392 -28.7037 453.075 -34.3769 457.883 -28.2674C464.003 -28.2674 466.189 -19.5394 471.871 -23.0306C474.494 -18.6666 477.117 -22.5942 479.739 -22.5942C481.05 -22.5942 483.237 -26.5218 485.422 -17.3574C490.23 -16.921 496.788 -21.7214 502.033 -13.8662C506.404 -10.8115 510.338 -4.70187 514.71 -11.6843C519.956 -16.921 521.267 -24.3398 527.823 -20.8486C531.757 -19.9758 534.381 -17.7938 537.004 -13.4298C543.124 -3.82907 552.74 -12.557 560.171 -11.2478C575.47 -7.75657 590.333 -3.39267 605.632 -11.2478C609.567 -9.93857 612.627 -11.6842 616.123 -10.3751C621.806 -3.82907 621.37 -7.32027 627.489 -3.82907C637.98 -4.26547 648.909 -12.1206 659.399 -6.44747C665.082 2.71693 670.328 -5.57467 676.01 -3.82907C679.507 -7.32027 684.316 -6.88387 687.376 -2.95627C691.309 0.971332 690.863 -0.29017 693.486 4.07383C697.419 8.87423 710.259 0.0985317 717.253 -2.95627C723.809 -12.1207 730.367 -8.19307 736.486 -2.95627C746.103 0.971332 752.02 5.33533 759.889 -1.21067C764.696 -15.1755 767.807 2.28053 772.616 -1.21067C777.424 1.40773 780.484 -8.19307 784.418 -6.88387C791.412 -12.9934 800.592 -6.44747 810.209 -14.3027C819.825 -16.9211 829.442 -19.9758 838.185 -13.4298C849.113 -15.6118 860.042 -11.6843 870.096 -10.8115C875.341 -3.82907 874.903 -5.57467 880.587 -8.62947C886.269 -7.32027 888.455 -6.44747 892.826 -3.82907C900.257 -12.5571 909.874 -9.93867 918.18 -3.39267C926.048 -6.44747 933.479 -3.82907 941.348 -3.39267C951.838 0.0985303 962.767 -7.32027 974.132 -8.19307C985.497 -2.51987 996.426 0.53493 1006.48 -3.39267C1009.53 1.84413 1011.73 -1.21067 1014.35 3.58973C1014.78 -0.774271 1025.76 -1.00637 1025.76 -0.133568C1031.88 5.10323 1031.83 6.64443 1037.95 7.08083C1045.82 4.46243 1052.37 11.8812 1059.37 1.84413C1064.62 -0.337868 1069.86 -3.82907 1076.42 -9.93867C1083.41 -10.8115 1089.97 -9.93867 1096.09 -7.32027C1102.64 -6.88387 1105.71 -6.88387 1111.39 -12.1207C1114.45 -18.2303 1114.45 -20.8487 1118.82 -14.7391C1123.63 -18.6667 1128 -0.774268 1132.81 -5.13827C1138.93 -1.21067 1146.79 -4.70187 1153.35 -3.39267C1162.54 -5.57467 1172.15 -16.0483 1181.77 -5.57467C1191.38 -2.95627 1201 -8.62947 1210.62 -5.13827C1214.55 -23.3402 1222.86 -10.2483 1225.92 -15.9214C1228.97 -12.8666 1228.97 -12.8667 1232.47 -5.88427C1235.98 5.89853 1242.53 5.46213 1246.46 -3.70227C1252.14 -3.70227 1255.65 7.51723 1261.77 4.89883C1268.76 -4.70187 1276.19 4.46243 1283.18 4.46243C1290.61 3.58963 1294.98 -1.22087 1301.98 3.14313C1312.03 7.50713 1317.72 7.08083 1325.58 1.40763C1329.96 -5.13827 1330.83 -1.64717 1336.08 -3.82907C1339.57 -9.50227 1342.63 -4.26557 1346.13 -9.50227C1352.25 -7.32027 1360.11 -16.0483 1366.67 -9.93867C1372.79 -12.1207 1376.73 -8.19307 1382.41 -7.32037C1386.35 -8.62947 1388.53 -2.08357 1391.59 -10.3751C1396.4 -19.1031 1396.83 -3.82917 1402.52 -14.7391C1409.95 -6.44747 1417.82 -14.7391 1425.69 -14.7391C1429.62 -19.5395 1433.99 -12.9935 1437.49 -14.7391C1443.61 -15.6119 1440.55 -12.9935 1445.36 -10.3751C1451.04 -4.26547 1456.29 1.40763 1463.72 -7.32037C1468.96 -2.08357 1474.65 -5.13837 1479.89 -7.32037C1484.26 -8.62957 1488.63 -6.88397 1492.57 -7.75667C1496.5 -4.70197 1500 -10.8115 1504.36 -12.9935C1508.3 -19.1031 1513.11 -11.6843 1517.05 -15.6119C1524.48 -12.9935 1529.73 -23.4671 1537.16 -26.5219C1544.59 -37.8682 1552.45 -26.9583 1559.88 -27.3947C1566 -32.6315 1569.94 -26.0855 1576.06 -33.9406C1579.55 -21.7215 1583.49 -36.559 1586.99 -35.6862C1589.17 -35.2498 1591.79 -45.7234 1594.42 -39.6138C1596.6 -43.105 1599.23 -32.6314 1601.41 -39.1774C1608.84 -38.3046 1611.03 -39.1774 1616.27 -46.5962C1628.07 -53.5786 1641.19 -63.1793 1655.62 -54.015C1663.05 -55.7606 1670.48 -53.5786 1677.91 -54.015C1687.96 -58.379 1698.45 -52.7057 1708.51 -54.015C1718.57 -57.9426 1729.05 -54.015 1739.11 -54.015C1745.23 -52.2694 1749.17 -49.651 1754.84 -51.3966C1758.78 -49.651 1763.59 -55.3242 1767.96 -51.833C1775.83 -54.4514 1786.32 -56.6334 1792.88 -44.8506C1795.5 -40.4866 1796.37 -35.6862 1799 -39.1774C1800.74 -41.7958 1802.05 -39.1774 1803.8 -34.377C1806.43 -28.2675 1807.74 -24.3399 1807.3 -26.5219C1815.6 -18.2303 1838.34 -25.6491 1851.01 -21.2851C1860.19 -19.5395 1869.37 -16.9211 1879.42 -19.5395C1885.11 -23.4671 1887.73 -16.0483 1892.98 -14.7392C1899.97 -13.43 1908.71 -18.2303 1916.14 -14.3028C1926.2 -12.1208 1924.33 -21.7215 1933.95 -17.3575C1938.55 -13.9668 1936.73 -18.4929 1947.29 -21.1384C1947.29 -11.6401 1975.4 10.9302 1976.9 17.1802Z" fill="white"/>
</g>
<defs>
<clipPath id="clip0_261_1584">
<rect width="1920" height="64" fill="white"/>
</clipPath>
</defs>
</svg>
