<svg width="1956" height="156" viewBox="0 0 1956 156" fill="none" xmlns="http://www.w3.org/2000/svg">
<g clip-path="url(#clip0_260_1596)">
<path fill-rule="evenodd" clip-rule="evenodd" d="M1985.38 -43H-54.2773V89.4725H-10.0506L-10.0527 90.1446C-10.0555 91.0893 -10.0478 91.9376 -10.0335 92.7194C-10.0426 92.8622 -10.0521 93.0069 -10.0618 93.1533L-10.0252 93.1299C-9.99898 94.3351 -9.95794 95.3863 -9.91824 96.4033C-9.7908 99.6681 -9.67708 102.581 -10.1101 109.109C-9.63601 108.808 -9.13935 108.422 -8.60594 108.007L-8.60589 108.007C-5.54614 105.628 -1.2769 102.309 6.88 108.651C9.60779 110.772 11.9523 111.635 14.5696 112.079C15.8722 114.265 18.0478 116.454 19.3676 112.967C21.7262 112.974 23.9516 114.021 26.1474 115.054C29.6398 116.698 33.0573 118.306 36.8168 115.638L37.069 115.63C50.0511 115.236 60.8761 114.908 69.0822 125.773C75.1657 134.519 88.252 136.741 98.7368 133.281C100.002 132.654 101.269 131.624 102.535 130.593C105.644 128.065 108.752 125.537 111.843 128.957C115.702 132.54 119.372 131.251 123.116 129.936C124.862 129.323 126.624 128.704 128.428 128.571L129.074 128.47C139.606 126.821 146.085 125.806 155.525 115.997C158.187 112.362 162.846 113.006 166.655 113.533C167.864 113.701 168.988 113.856 169.934 113.859C174.632 109.524 179.311 111.088 183.991 112.652L183.991 112.652C185.415 113.129 186.839 113.605 188.264 113.914C191.755 113.227 195.119 113.531 198.491 113.836L198.491 113.836C201.447 114.103 204.408 114.371 207.467 113.973C211.869 117.417 215.736 115.492 219.671 113.532C222.743 112.003 225.855 110.453 229.296 111.42C234.141 113.745 238.996 112.768 243.851 111.79C248.167 110.922 252.483 110.053 256.791 111.503C270.77 107.182 277.762 104.148 289.127 98.5094C293.643 91.9516 296.215 93.8855 299.69 96.4987C300.6 97.1827 301.571 97.9133 302.656 98.5503C307.437 105.111 310.051 106.428 314.422 104.259C315.796 104.263 317.518 103.879 319.395 103.46C323.479 102.549 328.3 101.473 331.881 103.876C334.635 100.227 337.373 101.846 340.112 103.465C342.601 104.937 345.091 106.409 347.592 103.923C350.06 105.279 352.418 104.667 354.78 104.055C357.004 103.478 359.232 102.9 361.558 103.965C362.401 103.313 363.125 102.581 363.771 101.927L363.771 101.927C366.14 99.5285 367.467 98.1855 369.845 105.736C372.449 110.544 373.751 112.73 377.244 112.305C380.054 115.903 381.824 114.677 383.779 113.322C385.151 112.371 386.615 111.357 388.593 111.903C392.091 109.513 395.254 109.959 398.417 110.405C401.58 110.851 404.742 111.297 408.241 108.907C409.698 108.288 411.255 107.471 412.851 106.633C417.959 103.953 423.478 101.057 427.46 103.729C431.923 99.2931 432.908 98.9417 437.39 97.3438L437.392 97.3432C438.185 97.0604 439.088 96.7386 440.139 96.3482C443.727 93.9718 447.394 95.5859 451.11 97.2217C455.546 99.1742 460.052 101.158 464.579 96.4221C466.691 97.7755 469.575 96.7556 472.511 95.717C476.234 94.4002 480.043 93.0532 482.472 96.4763C485.191 96.6788 486.093 97.481 487.026 98.3113C488.189 99.3463 489.401 100.425 494.244 100.44C497.578 101.075 501.015 100.416 504.505 99.7474C508.32 99.0162 512.197 98.273 516.069 99.1964C521.701 95.1554 525.526 97.8076 529.799 100.771C531.5 101.95 533.272 103.179 535.258 104.055C538.858 105.147 541.866 105.642 545.752 106.282L545.762 106.283C546.579 106.418 547.434 106.559 548.343 106.713C555.741 108.885 563.019 108.05 570.308 107.213C576.336 106.521 582.373 105.828 588.494 106.835C591.958 110.856 595.603 109.471 599.21 108.101C601.49 107.234 603.755 106.374 605.951 106.887C610.023 105.401 613.978 107.694 617.879 109.956C621.933 112.306 625.929 114.622 629.938 112.633C630.609 113.534 630.468 115.24 630.291 117.399C630.123 119.436 629.922 121.874 630.338 124.417C631.492 124.305 632.662 124.178 633.841 124.05C641.586 123.209 649.771 122.319 656.958 125.371C656.613 130.311 661.508 130.045 665.805 129.811C667.2 129.735 668.532 129.663 669.601 129.773C671.946 129.65 674.33 129.138 676.742 128.621C682.413 127.404 688.234 126.155 694.041 129.847C699.545 129.049 704.95 129.582 710.348 130.114C716.513 130.722 722.669 131.329 728.955 129.953C731.054 129.628 733.405 128.885 735.873 128.105L735.874 128.105C743.164 125.801 751.475 123.175 757.323 130.038C759.332 129.877 761.209 130.871 763.13 131.887C766.218 133.522 769.42 135.217 773.464 132.269C776.817 133.57 779.419 130.592 781.889 127.765L781.889 127.765C783.594 125.813 785.237 123.933 787.02 123.582C789.704 120.915 791.134 118.357 792.241 116.379C793.3 114.484 794.063 113.121 795.345 112.698C796.305 111.744 797.319 111.722 798.498 111.697C800.548 111.653 803.094 111.598 806.711 106.622C807.442 106.367 808.24 106.074 809.093 105.76L809.097 105.759C816.912 102.889 829.289 98.3434 835.954 105.838C840.496 109.494 841.46 109.762 844.559 110.622C845.916 110.999 847.682 111.489 850.337 112.428C853.068 110.392 855.079 112.018 857.058 113.617C858.882 115.091 860.678 116.543 862.985 115.084C867.478 118.314 873.354 116.808 879.151 115.323C885.154 113.784 891.071 112.268 895.278 116.055C896.979 117.253 898.08 118.783 899.102 120.203C900.697 122.418 902.099 124.367 905.291 124.377C906.987 124.382 908.792 124.605 910.647 124.835C914.044 125.255 917.612 125.697 921.001 124.861C933.206 129.698 946.742 127.557 958.97 124.976C961.288 125.292 963.489 127.688 965.679 130.07C969.671 134.414 973.622 138.712 978.157 130.271C980.795 131.6 983.442 130.317 986.088 129.035C989.561 127.352 993.034 125.669 996.489 129.89C1002.59 133.399 1009.14 132.546 1015.25 129.947C1016.56 127.091 1017.86 128.572 1019.15 130.052C1020.03 131.057 1020.91 132.062 1021.8 131.712C1023.16 132.17 1024.2 132.155 1025.19 132.14C1027.05 132.113 1028.7 132.089 1031.82 135.234C1035.07 135.406 1038.56 136.668 1042.13 137.961C1048.16 140.14 1054.42 142.405 1060.18 139.683C1068.71 135.619 1077.77 136.348 1086.94 137.087L1086.94 137.088C1089.51 137.295 1092.08 137.502 1094.66 137.606C1098.01 137.087 1101.22 135.644 1104.32 134.253C1108.89 132.196 1113.22 130.251 1117.38 131.565C1119.68 128.254 1121.83 127.779 1124.18 127.259C1125.85 126.89 1127.62 126.499 1129.62 125.056C1132.33 126.426 1135.32 125.455 1138.38 124.463C1142.17 123.229 1146.07 121.962 1149.69 125.117C1150.03 124.781 1150.43 123.868 1150.85 122.89C1152.08 120.066 1153.54 116.701 1154.49 125.131C1155.16 125.067 1155.67 125.002 1156.08 124.95C1156.9 124.846 1157.28 124.798 1157.59 124.922C1157.87 125.03 1158.09 125.267 1158.5 125.711C1158.92 126.16 1159.53 126.819 1160.59 127.768C1167.13 132.588 1171.93 132.603 1179.35 130.443C1183.76 128.624 1188 130.114 1192.18 131.584C1197.96 133.614 1203.63 135.606 1209.47 128.789C1214.14 128.803 1218.74 126.97 1223.36 125.131C1230.4 122.327 1237.47 119.51 1244.84 123.223C1248.53 127.553 1258.63 126.572 1268.14 125.648C1278.81 124.611 1288.74 123.647 1288.02 130.336C1298.06 131.239 1308.11 127.342 1317.72 123.007C1324.89 119.055 1332.19 121.214 1339.37 123.334C1344.02 124.706 1348.61 126.062 1353.07 125.732C1355.27 124.42 1357.36 124.99 1359.39 125.546C1361.39 126.093 1363.34 126.626 1365.29 125.333C1367.78 123.268 1369.68 122.776 1371.45 122.316C1373.42 121.807 1375.23 121.338 1377.53 118.824C1379.14 118.829 1380.95 118.94 1382.87 119.056C1387.72 119.352 1393.22 119.686 1397.6 118.449C1398.69 117.96 1399.77 117.249 1400.85 116.541C1404.56 114.112 1408.21 111.721 1411.57 118.491C1416.86 116.106 1420.95 117.943 1425.22 119.867C1428.72 121.44 1432.35 123.07 1436.87 122.495C1437.75 122.061 1438.62 121.385 1439.5 120.709C1441.24 119.356 1442.99 118.004 1444.74 118.591C1448.43 121.971 1450.33 118.584 1452.41 114.86L1452.42 114.858C1453.03 113.759 1453.66 112.63 1454.36 111.638C1458.54 105.618 1464.58 107.635 1471.04 109.792C1478.13 112.161 1485.72 114.697 1491.91 106.951C1496.51 105.652 1501.55 106.22 1506.52 106.783C1511.47 107.341 1516.36 107.894 1520.71 106.602C1527.47 105.316 1534.43 105.552 1541.51 105.791C1548.62 106.031 1555.83 106.275 1563.05 104.985C1564.95 104.279 1566.34 103.861 1567.46 103.523C1570.46 102.617 1571.59 102.278 1575.73 98.477C1576.74 98.4026 1577.92 98.3013 1579.23 98.1899C1585.27 97.6736 1593.84 96.941 1598.86 97.6742C1600.34 97.1881 1601.81 98.1114 1603.25 99.0204C1605.66 100.537 1608.01 102.014 1610.21 96.8358C1613.59 91.9559 1620.09 94.3631 1625.19 96.2485C1627.36 97.0551 1629.29 97.7663 1630.59 97.7703C1643.27 90.8263 1647.76 92.0171 1660.84 96.4207C1670.89 91.2144 1676.96 93.1102 1685.67 98.8098C1686.65 98.6721 1688.55 98.0385 1690.71 97.3162L1690.72 97.3155C1695.26 95.7968 1700.99 93.8865 1701.87 95.3677C1702.42 96.2969 1702.43 96.357 1702.45 96.656C1702.48 97.0603 1702.54 97.9015 1704.03 101.92C1708.38 106.734 1725.84 107.223 1730.21 102.872C1735.46 107.488 1738.25 104.922 1741.55 101.889C1742.63 100.894 1743.77 99.8482 1745.06 98.9896C1750.75 95.0792 1755.56 93.3482 1761.66 95.1123C1763.15 94.9683 1765.29 95.3823 1767.64 95.8368C1772.19 96.7179 1777.54 97.7512 1780.43 95.1691C1781.96 99.4337 1782.48 99.2275 1783.49 98.8249L1783.5 98.8239C1783.62 98.7731 1783.76 98.7192 1783.91 98.6708C1785.27 99.3564 1786.1 99.5083 1787.44 99.7528C1787.81 99.8215 1788.23 99.8975 1788.7 99.9946C1792.99 98.0087 1797.08 100.506 1801.11 102.965C1803.23 104.263 1805.34 105.551 1807.45 106.161C1811.21 107.427 1815.13 106.412 1819.1 105.382C1824.79 103.904 1830.61 102.396 1836.25 107.557C1845.46 107.939 1853.52 104.872 1862.07 101.621C1864.06 100.865 1866.07 100.098 1868.14 99.3622C1875.96 96.7812 1884.54 97.4146 1893.2 98.0533C1900.5 98.5918 1907.85 99.1342 1914.84 97.758C1916.24 97.7623 1919.16 98.8616 1922.98 100.305C1934.6 104.69 1954.63 112.25 1966.32 101.904C1965.8 99.7006 1961.99 95.4625 1957.27 90.4813C1958.4 90.2271 1959.51 89.8941 1960.58 89.4725H1985.38V-43Z" fill="white"/>
</g>
<defs>
<clipPath id="clip0_260_1596">
<rect width="1956" height="156" fill="white"/>
</clipPath>
</defs>
</svg>
