<svg width="75" height="75" viewBox="0 0 75 75" fill="none" xmlns="http://www.w3.org/2000/svg">
<path d="M25.6274 29.0023C25.7936 27.3031 26.2833 23.877 30.2041 23.877H32.0429C32.6408 23.8713 33.212 23.6285 33.631 23.2019C34.05 22.7753 34.2825 22.1998 34.2773 21.6019V5.47193C34.2793 5.17725 34.2229 4.8851 34.1115 4.61229C34.0001 4.33948 33.8358 4.09141 33.6281 3.88235C33.4205 3.67329 33.1735 3.50737 32.9014 3.39416C32.6293 3.28094 32.3376 3.22266 32.0429 3.22266H4.90386C4.30526 3.22133 3.73054 3.45732 3.30559 3.87891C2.88065 4.30051 2.64013 4.87334 2.63672 5.47193V21.6019C2.63913 22.2032 2.87851 22.7793 3.30294 23.2052C3.72736 23.6311 4.3026 23.8725 4.90386 23.877H21.7881C22.2012 23.8719 22.6029 24.013 22.9221 24.2753C23.2414 24.5376 23.4577 24.9042 23.533 25.3105C23.9035 27.4072 24.9127 28.4832 25.6274 29.0023ZM29.6791 6.88477H31.2957C31.4899 6.88477 31.6762 6.96194 31.8136 7.09929C31.9509 7.23665 32.0281 7.42294 32.0281 7.61719C32.0281 7.81144 31.9509 7.99774 31.8136 8.13509C31.6762 8.27245 31.4899 8.34961 31.2957 8.34961H29.6791C29.4848 8.34961 29.2985 8.27245 29.1612 8.13509C29.0238 7.99774 28.9466 7.81144 28.9466 7.61719C28.9466 7.42294 29.0238 7.23665 29.1612 7.09929C29.2985 6.96194 29.4848 6.88477 29.6791 6.88477V6.88477ZM29.2969 11.2793H31.2962C31.4905 11.2793 31.6768 11.3565 31.8141 11.4938C31.9515 11.6312 32.0287 11.8175 32.0287 12.0117C32.0287 12.206 31.9515 12.3923 31.8141 12.5296C31.6768 12.667 31.4905 12.7441 31.2962 12.7441H29.2969C29.1026 12.7441 28.9163 12.667 28.779 12.5296C28.6416 12.3923 28.5645 12.206 28.5645 12.0117C28.5645 11.8175 28.6416 11.6312 28.779 11.4938C28.9163 11.3565 29.1026 11.2793 29.2969 11.2793V11.2793ZM10.8586 6.88477H26.2894C26.4837 6.88477 26.6699 6.96194 26.8073 7.09929C26.9447 7.23665 27.0218 7.42294 27.0218 7.61719C27.0218 7.81144 26.9447 7.99774 26.8073 8.13509C26.6699 8.27245 26.4837 8.34961 26.2894 8.34961H10.8586C10.6643 8.34961 10.478 8.27245 10.3407 8.13509C10.2033 7.99774 10.1262 7.81144 10.1262 7.61719C10.1262 7.42294 10.2033 7.23665 10.3407 7.09929C10.478 6.96194 10.6643 6.88477 10.8586 6.88477ZM5.65093 6.88477H7.48433C7.67858 6.88477 7.86487 6.96194 8.00223 7.09929C8.13958 7.23665 8.21675 7.42294 8.21675 7.61719C8.21675 7.81144 8.13958 7.99774 8.00223 8.13509C7.86487 8.27245 7.67858 8.34961 7.48433 8.34961H5.65093C5.45668 8.34961 5.27038 8.27245 5.13303 8.13509C4.99567 7.99774 4.91851 7.81144 4.91851 7.61719C4.91851 7.42294 4.99567 7.23665 5.13303 7.09929C5.27038 6.96194 5.45668 6.88477 5.65093 6.88477ZM5.65093 11.2793H18.1597C18.3539 11.2793 18.5402 11.3565 18.6776 11.4938C18.8149 11.6312 18.8921 11.8175 18.8921 12.0117C18.8921 12.206 18.8149 12.3923 18.6776 12.5296C18.5402 12.667 18.3539 12.7441 18.1597 12.7441H5.65093C5.45668 12.7441 5.27038 12.667 5.13303 12.5296C4.99567 12.3923 4.91851 12.206 4.91851 12.0117C4.91851 11.8175 4.99567 11.6312 5.13303 11.4938C5.27038 11.3565 5.45668 11.2793 5.65093 11.2793V11.2793ZM20.7655 15.0879C20.9597 15.0879 21.146 15.1651 21.2834 15.3024C21.4207 15.4398 21.4979 15.6261 21.4979 15.8203C21.4979 16.0146 21.4207 16.2009 21.2834 16.3382C21.146 16.4756 20.9597 16.5527 20.7655 16.5527H11.6542C11.4599 16.5527 11.2736 16.4756 11.1363 16.3382C10.9989 16.2009 10.9217 16.0146 10.9217 15.8203C10.9217 15.6261 10.9989 15.4398 11.1363 15.3024C11.2736 15.1651 11.4599 15.0879 11.6542 15.0879H20.7655ZM5.65093 15.0879H8.28516C8.47941 15.0879 8.6657 15.1651 8.80306 15.3024C8.94041 15.4398 9.01758 15.6261 9.01758 15.8203C9.01758 16.0146 8.94041 16.2009 8.80306 16.3382C8.6657 16.4756 8.47941 16.5527 8.28516 16.5527H5.65093C5.45668 16.5527 5.27038 16.4756 5.13303 16.3382C4.99567 16.2009 4.91851 16.0146 4.91851 15.8203C4.91851 15.6261 4.99567 15.4398 5.13303 15.3024C5.27038 15.1651 5.45668 15.0879 5.65093 15.0879ZM13.4016 20.2148H5.65093C5.45668 20.2148 5.27038 20.1377 5.13303 20.0003C4.99567 19.863 4.91851 19.6767 4.91851 19.4824C4.91851 19.2882 4.99567 19.1019 5.13303 18.9645C5.27038 18.8272 5.45668 18.75 5.65093 18.75H13.4016C13.5958 18.75 13.7821 18.8272 13.9195 18.9645C14.0568 19.1019 14.134 19.2882 14.134 19.4824C14.134 19.6767 14.0568 19.863 13.9195 20.0003C13.7821 20.1377 13.5958 20.2148 13.4016 20.2148V20.2148ZM21.7794 20.2148H17.1454C16.9512 20.2148 16.7649 20.1377 16.6275 20.0003C16.4902 19.863 16.413 19.6767 16.413 19.4824C16.413 19.2882 16.4902 19.1019 16.6275 18.9645C16.7649 18.8272 16.9512 18.75 17.1454 18.75H21.7794C21.9737 18.75 22.16 18.8272 22.2973 18.9645C22.4347 19.1019 22.5119 19.2882 22.5119 19.4824C22.5119 19.6767 22.4347 19.863 22.2973 20.0003C22.16 20.1377 21.9737 20.2148 21.7794 20.2148V20.2148ZM21.5339 12.7441C21.3397 12.7441 21.1534 12.667 21.016 12.5296C20.8787 12.3923 20.8015 12.206 20.8015 12.0117C20.8015 11.8175 20.8787 11.6312 21.016 11.4938C21.1534 11.3565 21.3397 11.2793 21.5339 11.2793H25.9447C26.139 11.2793 26.3253 11.3565 26.4626 11.4938C26.6 11.6312 26.6771 11.8175 26.6771 12.0117C26.6771 12.206 26.6 12.3923 26.4626 12.5296C26.3253 12.667 26.139 12.7441 25.9447 12.7441H21.5339ZM23.4576 15.8203C23.4576 15.6261 23.5347 15.4398 23.6721 15.3024C23.8094 15.1651 23.9957 15.0879 24.19 15.0879H31.2957C31.4899 15.0879 31.6762 15.1651 31.8136 15.3024C31.9509 15.4398 32.0281 15.6261 32.0281 15.8203C32.0281 16.0146 31.9509 16.2009 31.8136 16.3382C31.6762 16.4756 31.4899 16.5527 31.2957 16.5527H24.19C23.9957 16.5527 23.8094 16.4756 23.6721 16.3382C23.5347 16.2009 23.4576 16.0146 23.4576 15.8203ZM24.4031 19.4824C24.4031 19.2882 24.4803 19.1019 24.6176 18.9645C24.755 18.8272 24.9413 18.75 25.1355 18.75H29.6982C29.8925 18.75 30.0788 18.8272 30.2161 18.9645C30.3535 19.1019 30.4307 19.2882 30.4307 19.4824C30.4307 19.6767 30.3535 19.863 30.2161 20.0003C30.0788 20.1377 29.8925 20.2148 29.6982 20.2148H25.1355C24.9413 20.2148 24.755 20.1377 24.6176 20.0003C24.4803 19.863 24.4031 19.6767 24.4031 19.4824V19.4824Z" fill="#1B4E65"/>
<path d="M59.7656 46.815L61.5382 45.0424L59.7656 44.3125V46.815Z" fill="#1B4E65"/>
<path d="M36.3357 59.7656L36.5646 55.957H32.6294L32.8529 59.7656H36.3357Z" fill="#1B4E65"/>
<path d="M49.0723 46.8264V44.293L47.2778 45.0318L49.0723 46.8264Z" fill="#1B4E65"/>
<path d="M30.0293 49.6582H39.2578V54.4922H30.0293V49.6582Z" fill="#1B4E65"/>
<path d="M68.7143 23.1264L68.7062 23.1347C68.4349 23.4691 68.0665 23.7111 67.6519 23.8274C67.2372 23.9438 66.7967 23.9287 66.391 23.7842C65.9853 23.6398 65.6344 23.3731 65.3866 23.0209C65.1388 22.6687 65.0063 22.2483 65.0073 21.8177C65.0068 20.89 64.6389 20.0003 63.9842 19.3431C63.3294 18.6859 62.4411 18.3148 61.5134 18.3108H53.3347C52.937 18.3118 52.5429 18.2344 52.1751 18.0831C51.8072 17.9317 51.4728 17.7094 51.191 17.4287C50.9091 17.148 50.6853 16.8146 50.5324 16.4474C50.3795 16.0802 50.3004 15.6865 50.2997 15.2887C50.2978 14.8324 50.1159 14.3952 49.7936 14.0721C49.4713 13.749 49.0346 13.5661 48.5782 13.563L47.5392 13.5527C45.4274 15.1683 44.3836 16.944 44.1715 19.2825C43.9958 21.2171 42.5081 22.7593 40.7076 22.9487C40.6064 23.0184 40.4891 23.0614 40.3668 23.0735C39.9684 23.1044 39.5899 23.26 39.2851 23.5182C38.9802 23.7764 38.7644 24.1241 38.6684 24.512C38.5314 25.0706 38.5732 25.6581 38.7879 26.1917C39.0025 26.7254 39.3792 27.1782 39.8649 27.4863C40.0148 27.5582 40.5887 27.7928 40.8033 27.8634C40.9829 27.8825 41.1489 27.9676 41.2693 28.1023C41.3897 28.2369 41.4558 28.4114 41.4548 28.592V28.6128C41.4548 35.7401 47.2922 41.5387 54.4196 41.5387C61.5469 41.5387 67.3826 35.7401 67.3826 28.6128V28.5908C67.3752 28.4221 67.4288 28.2563 67.5335 28.1239C67.6383 27.9914 67.7872 27.9011 67.9531 27.8694C68.5841 27.7554 69.1543 27.4213 69.5621 26.9266C69.9699 26.4318 70.189 25.8083 70.1804 25.1672C70.1805 24.9462 70.1541 24.7259 70.1018 24.5112C70.021 24.1748 69.8486 23.8672 69.6037 23.6228C69.3587 23.3783 69.0509 23.2065 68.7143 23.1264Z" fill="#1B4E65"/>
<path d="M40.7047 19.9524L40.9187 21.4162C41.858 21.1408 42.6147 20.2306 42.7127 19.1501C42.9124 16.9484 43.7611 15.1272 45.3437 13.5308L41.8382 13.4961C40.945 15.5252 40.5561 17.7404 40.7047 19.9524V19.9524Z" fill="#1B4E65"/>
<path d="M58.3494 54.9178L62.1095 47.4109V46.5508L55.5845 53.0724L58.3494 54.9178Z" fill="#1B4E65"/>
<path d="M48.1203 6.91566L47.9933 6.97733C47.924 7.74025 47.6842 8.47786 47.2916 9.1357C46.8991 9.79353 46.3638 10.3548 45.7252 10.778L43.812 12.0464L48.5922 12.0904C49.4349 12.0999 50.2399 12.4405 50.8334 13.0388C51.4269 13.637 51.7612 14.4447 51.7641 15.2874C51.7645 15.4929 51.8056 15.6964 51.8849 15.886C51.9641 16.0756 52.0801 16.2477 52.2261 16.3925C52.372 16.5372 52.5452 16.6516 52.7355 16.7292C52.9258 16.8069 53.1296 16.8461 53.3351 16.8448H61.5142C62.8302 16.8492 64.0909 17.3748 65.0202 18.3066C65.9496 19.2383 66.472 20.5003 66.473 21.8163C66.471 21.9457 66.5094 22.0724 66.5829 22.1788C66.6565 22.2852 66.7615 22.366 66.8832 22.4098C67.0029 22.4545 67.1339 22.4599 67.2569 22.4251C67.3799 22.3903 67.4887 22.3171 67.5672 22.2162L67.7921 21.9379L68.0764 19.9522C68.2265 17.7768 67.8548 15.5971 66.9924 13.5944C66.1299 11.5917 64.8016 9.82398 63.118 8.43833C61.4344 7.05267 59.4441 6.08918 57.3129 5.62804C55.1817 5.1669 52.9712 5.22145 50.8654 5.78715C49.9153 6.04232 49.0431 6.46654 48.1203 6.91566V6.91566Z" fill="#1B4E65"/>
<path d="M46.7285 47.4109L50.4882 54.9178L53.2626 53.0724L46.7285 46.5508V47.4109Z" fill="#1B4E65"/>
<path d="M50.2244 56.7208C50.1614 56.7208 50.0987 56.7125 50.0379 56.6961C49.9378 56.6694 49.8447 56.6216 49.7646 56.5559C49.6845 56.4902 49.6194 56.4082 49.5735 56.3153L45.658 48.4727L40.7228 50.2583V55.1786C40.7194 55.38 40.6394 55.5727 40.4991 55.7173C40.3589 55.862 40.1688 55.9478 39.9675 55.9574H38.032L37.8032 59.766H38.1819C38.6014 59.7677 39.0113 59.8917 39.3615 60.1229C39.7116 60.354 39.9866 60.6822 40.153 61.0674C40.3194 61.4525 40.3698 61.8778 40.2981 62.2912C40.2264 62.7045 40.0356 63.088 39.7493 63.3946C40.1272 63.8169 40.3342 64.365 40.3297 64.9318C40.3253 65.4985 40.1097 66.0433 39.7251 66.4596C39.7819 66.5207 39.8353 66.6508 39.8851 66.6508H53.7599V54.5556L50.6637 56.5977C50.5313 56.6783 50.3793 56.7209 50.2244 56.7208V56.7208Z" fill="#1B4E65"/>
<path d="M58.3008 42.4648C57.0232 42.8184 55.7042 42.9998 54.3787 43.0042C53.0812 42.9984 51.79 42.8248 50.5371 42.4878V48.2923L54.4129 52.1519L58.3008 48.2803V42.4648Z" fill="#1B4E65"/>
<path d="M35.0313 62.5488H38.1819C38.3568 62.5488 38.5244 62.4794 38.648 62.3558C38.7717 62.2321 38.8411 62.0645 38.8411 61.8896C38.8411 61.7148 38.7717 61.5472 38.648 61.4235C38.5244 61.2999 38.3568 61.2305 38.1819 61.2305H32.7131C32.2462 61.2348 31.7943 61.0655 31.4452 60.7554C31.096 60.4454 30.8744 60.0168 30.8234 59.5526C30.8054 59.387 30.846 59.2203 30.9381 59.0814C31.0303 58.9426 31.1681 58.8404 31.3278 58.7927L31.2475 57.4219H29.2691C28.308 57.4219 27.9636 57.8522 27.7347 58.3458C27.3637 59.1311 26.7746 59.793 26.0376 60.2526C25.3007 60.7121 24.447 60.9499 23.5786 60.9375H23.5842V69.7266H24.1166C25.7481 69.7068 27.3548 70.127 28.7677 70.9431C28.8198 70.974 28.8714 70.9685 28.9228 71.0004C30.086 71.7221 31.45 71.7768 32.9833 71.7768H37.3937C37.6074 71.7768 37.8123 71.6919 37.9634 71.5408C38.1145 71.3897 38.1994 71.1848 38.1994 70.9711C38.1994 70.7574 38.1145 70.5525 37.9634 70.4014C37.8123 70.2503 37.6074 70.1654 37.3937 70.1654H35.7017C35.5074 70.1654 35.3211 70.0883 35.1838 69.9509C35.0464 69.8135 34.9692 69.6273 34.9692 69.433C34.9692 69.2388 35.0464 69.0525 35.1838 68.9151C35.3211 68.7778 35.5074 68.7006 35.7017 68.7006H38.0844C38.1845 68.7069 38.2848 68.6927 38.3791 68.6587C38.4735 68.6248 38.5599 68.5719 38.633 68.5032C38.7061 68.4346 38.7644 68.3517 38.8042 68.2597C38.8441 68.1677 38.8646 68.0684 38.8646 67.9682C38.8646 67.8679 38.8441 67.7687 38.8042 67.6766C38.7644 67.5846 38.7061 67.5017 38.633 67.4331C38.5599 67.3645 38.4735 67.3115 38.3791 67.2776C38.2848 67.2437 38.1845 67.2294 38.0844 67.2357H35.7466C35.5511 67.2362 35.3633 67.1595 35.2239 67.0224C35.0845 66.8853 35.0048 66.6988 35.0021 66.5033C35.0007 66.4078 35.0183 66.313 35.0539 66.2243C35.0894 66.1356 35.1422 66.0549 35.2092 65.9868C35.2762 65.9186 35.356 65.8645 35.4441 65.8274C35.5321 65.7904 35.6266 65.7712 35.7222 65.7709H38.0366C38.2605 65.7573 38.4708 65.6588 38.6245 65.4955C38.7783 65.3322 38.8639 65.1163 38.8639 64.892C38.8639 64.6677 38.7783 64.4518 38.6245 64.2885C38.4708 64.1252 38.2605 64.0266 38.0366 64.0131H35.0308C34.8365 64.0131 34.6502 63.9359 34.5129 63.7986C34.3755 63.6612 34.2983 63.4749 34.2983 63.2807C34.2983 63.0864 34.3755 62.9001 34.5129 62.7628C34.6502 62.6254 34.8365 62.5482 35.0308 62.5482L35.0313 62.5488Z" fill="#1B4E65"/>
<path d="M68.7995 50.4897L63.2051 48.4727L59.2859 56.3151C59.2404 56.408 59.1755 56.49 59.0957 56.5557C59.0158 56.6214 58.9229 56.6692 58.823 56.696C58.7645 56.7124 58.7041 56.7206 58.6434 56.7206C58.5041 56.7205 58.3681 56.6775 58.2541 56.5976L55.2246 54.5548V66.6501H72.3633V55.7576C72.2168 53.5199 70.8016 51.5072 68.7995 50.4897V50.4897Z" fill="#1B4E65"/>
<path d="M32.1241 46.7938L32.1827 48.1932H37.024L37.0858 46.7734C36.3236 47.1829 35.4725 47.3988 34.6072 47.4024C33.742 47.4059 32.8891 47.197 32.1235 46.7938H32.1241Z" fill="#1B4E65"/>
<path d="M11.4258 60.0586H22.1191V71.7773H11.4258V60.0586Z" fill="#1B4E65"/>
<path d="M37.8762 43.9453H31.2866C31.6041 44.5437 32.0785 45.0444 32.6589 45.3936C33.2394 45.7427 33.904 45.9272 34.5814 45.9272C35.2588 45.9272 35.9234 45.7427 36.5039 45.3936C37.0844 45.0444 37.5588 44.5437 37.8762 43.9453Z" fill="#1B4E65"/>
<path d="M31.1543 40.7222H38.0086C37.7215 40.0511 37.2436 39.4791 36.6344 39.0772C36.0252 38.6752 35.3113 38.4609 34.5814 38.4609C33.8516 38.4609 33.1377 38.6752 32.5285 39.0772C31.9193 39.4791 31.4414 40.0511 31.1543 40.7222V40.7222Z" fill="#1B4E65"/>
<path d="M40.2832 42.334C40.2832 42.1397 40.206 41.9534 40.0687 41.8161C39.9313 41.6787 39.745 41.6016 39.5508 41.6016H29.5898C29.3956 41.6016 29.2093 41.6787 29.0719 41.8161C28.9346 41.9534 28.8574 42.1397 28.8574 42.334C28.8574 42.5282 28.9346 42.7145 29.0719 42.8519C29.2093 42.9892 29.3956 43.0664 29.5898 43.0664H39.5508C39.745 43.0664 39.9313 42.9892 40.0687 42.8519C40.206 42.7145 40.2832 42.5282 40.2832 42.334Z" fill="#1B4E65"/>
</svg>
