<svg width="76" height="75" viewBox="0 0 76 75" fill="none" xmlns="http://www.w3.org/2000/svg">
<path d="M42.7577 22.2648H33.9055C33.7548 22.2674 33.6071 22.2227 33.4831 22.137C33.3591 22.0513 33.2651 21.9289 33.2142 21.787L32.798 20.5879C32.4533 20.6117 32.1303 20.7652 31.8942 21.0176C31.658 21.27 31.5263 21.6024 31.5254 21.948C31.5262 22.1268 31.5627 22.3037 31.6325 22.4683C31.7023 22.633 31.8042 22.7821 31.9322 22.907C32.0602 23.0319 32.2118 23.1301 32.3781 23.1959C32.5444 23.2617 32.7221 23.2938 32.9009 23.2902H43.5989C43.7767 23.2977 43.9542 23.2692 44.1207 23.2063C44.2872 23.1434 44.4392 23.0475 44.5677 22.9244C44.6962 22.8012 44.7984 22.6533 44.8682 22.4897C44.9381 22.326 44.9741 22.1498 44.9741 21.9719C44.9741 21.7939 44.9381 21.6178 44.8682 21.4541C44.7984 21.2904 44.6962 21.1425 44.5677 21.0194C44.4392 20.8962 44.2872 20.8003 44.1207 20.7374C43.9542 20.6746 43.7767 20.646 43.5989 20.6535H43.1888L43.4454 21.323C43.4859 21.4286 43.4991 21.5428 43.4837 21.6549C43.4683 21.767 43.4249 21.8734 43.3575 21.9643C43.2894 22.0592 43.1992 22.1362 43.0947 22.1886C42.9902 22.241 42.8745 22.2671 42.7577 22.2648V22.2648Z" fill="#1B4E65"/>
<path d="M33.0957 7.44922C33.298 7.44922 33.4619 7.28526 33.4619 7.08301C33.4619 6.88076 33.298 6.7168 33.0957 6.7168C32.8934 6.7168 32.7295 6.88076 32.7295 7.08301C32.7295 7.28526 32.8934 7.44922 33.0957 7.44922Z" fill="#1B4E65"/>
<path d="M20.5286 72.0703H55.9714C56.2569 72.0764 56.5409 72.0257 56.8067 71.9211C57.0724 71.8165 57.3148 71.6601 57.5195 71.461C57.7243 71.2619 57.8874 71.024 57.9994 70.7612C58.1114 70.4985 58.17 70.2161 58.1719 69.9305V54.3457H18.3281V69.9305C18.33 70.2161 18.3886 70.4985 18.5006 70.7612C18.6126 71.024 18.7757 71.2619 18.9805 71.461C19.1852 71.6601 19.4276 71.8165 19.6933 71.9211C19.9591 72.0257 20.2431 72.0764 20.5286 72.0703V72.0703ZM24.4913 58.0078H38.8251C39.0193 58.0078 39.2056 58.085 39.343 58.2223C39.4804 58.3597 39.5575 58.546 39.5575 58.7402C39.5575 58.9345 39.4804 59.1208 39.343 59.2581C39.2056 59.3955 39.0193 59.4727 38.8251 59.4727H24.4913C24.2971 59.4727 24.1108 59.3955 23.9734 59.2581C23.8361 59.1208 23.7589 58.9345 23.7589 58.7402C23.7589 58.546 23.8361 58.3597 23.9734 58.2223C24.1108 58.085 24.2971 58.0078 24.4913 58.0078ZM24.4913 62.1094H52.0087C52.2029 62.1094 52.3892 62.1865 52.5266 62.3239C52.6639 62.4612 52.7411 62.6475 52.7411 62.8418C52.7411 63.036 52.6639 63.2223 52.5266 63.3597C52.3892 63.497 52.2029 63.5742 52.0087 63.5742H24.4913C24.2971 63.5742 24.1108 63.497 23.9734 63.3597C23.8361 63.2223 23.7589 63.036 23.7589 62.8418C23.7589 62.6475 23.8361 62.4612 23.9734 62.3239C24.1108 62.1865 24.2971 62.1094 24.4913 62.1094V62.1094ZM24.4913 66.2109H52.0087C52.2029 66.2109 52.3892 66.2881 52.5266 66.4255C52.6639 66.5628 52.7411 66.7491 52.7411 66.9434C52.7411 67.1376 52.6639 67.3239 52.5266 67.4613C52.3892 67.5986 52.2029 67.6758 52.0087 67.6758H24.4913C24.2971 67.6758 24.1108 67.5986 23.9734 67.4613C23.8361 67.3239 23.7589 67.1376 23.7589 66.9434C23.7589 66.7491 23.8361 66.5628 23.9734 66.4255C24.1108 66.2881 24.2971 66.2109 24.4913 66.2109Z" fill="#1B4E65"/>
<path d="M41.709 20.8008L35.122 2.92969H28.1387L34.4252 20.8008H41.709ZM33.0957 8.91431C32.7336 8.91431 32.3795 8.80692 32.0784 8.60572C31.7773 8.40452 31.5426 8.11855 31.404 7.78397C31.2654 7.44938 31.2292 7.08122 31.2998 6.72603C31.3705 6.37084 31.5449 6.04458 31.801 5.7885C32.057 5.53242 32.3833 5.35803 32.7385 5.28738C33.0937 5.21673 33.4618 5.25299 33.7964 5.39158C34.131 5.53017 34.417 5.76486 34.6182 6.06597C34.8194 6.36709 34.9268 6.7211 34.9268 7.08325C34.9262 7.56869 34.7331 8.03408 34.3899 8.37735C34.0467 8.72062 33.5813 8.91373 33.0958 8.91431H33.0957Z" fill="#1B4E65"/>
<path d="M43.5459 16.5527L48.3608 2.92969H41.0705L38.9858 9.15923L41.7163 16.5527H43.5459ZM43.4044 5.2522C43.7665 5.2522 44.1206 5.35959 44.4217 5.56079C44.7228 5.76198 44.9575 6.04796 45.0961 6.38254C45.2347 6.71712 45.2709 7.08528 45.2003 7.44047C45.1296 7.79566 44.9552 8.12193 44.6991 8.378C44.4431 8.63408 44.1168 8.80847 43.7616 8.87912C43.4064 8.94977 43.0383 8.91351 42.7037 8.77493C42.3691 8.63634 42.0831 8.40165 41.8819 8.10053C41.6807 7.79942 41.5733 7.4454 41.5733 7.08325C41.5739 6.59779 41.767 6.13237 42.1102 5.7891C42.4535 5.44583 42.9189 5.25274 43.4044 5.2522V5.2522Z" fill="#1B4E65"/>
<path d="M43.4043 7.44922C43.6065 7.44922 43.7705 7.28526 43.7705 7.08301C43.7705 6.88076 43.6065 6.7168 43.4043 6.7168C43.202 6.7168 43.0381 6.88076 43.0381 7.08301C43.0381 7.28526 43.202 7.44922 43.4043 7.44922Z" fill="#1B4E65"/>
<path d="M29.4609 44.336C29.4598 43.7437 29.576 43.157 29.8029 42.6099C30.0298 42.0628 30.3628 41.566 30.7828 41.1483C31.2027 40.7307 31.7012 40.4003 32.2496 40.1764C32.7979 39.9525 33.3852 39.8394 33.9775 39.8438H35.1885C34.1219 39.1787 33.3009 38.1844 32.8497 37.0113C32.3984 35.8382 32.3414 34.5501 32.6873 33.3417C33.0331 32.1333 33.7631 31.0704 34.7667 30.3137C35.7704 29.5571 36.9931 29.1478 38.25 29.1478C39.5069 29.1478 40.7296 29.5571 41.7333 30.3137C42.7369 31.0704 43.4669 32.1333 43.8127 33.3417C44.1586 34.5501 44.1016 35.8382 43.6503 37.0113C43.1991 38.1844 42.3781 39.1787 41.3115 39.8438H42.5222C43.1145 39.8394 43.7018 39.9524 44.2502 40.1763C44.7986 40.4002 45.2972 40.7305 45.7171 41.1482C46.1371 41.5659 46.4702 42.0627 46.6971 42.6098C46.924 43.157 47.0402 43.7437 47.0391 44.336V52.8809H58.1719V20.2545C58.172 19.6675 57.9413 19.104 57.5297 18.6855C57.118 18.267 56.5583 18.0271 55.9714 18.0176H42.2536L42.6514 19.1895H43.599C43.9645 19.1895 44.3264 19.2614 44.6641 19.4013C45.0018 19.5412 45.3086 19.7462 45.567 20.0046C45.8255 20.2631 46.0305 20.5699 46.1704 20.9076C46.3102 21.2452 46.3822 21.6072 46.3822 21.9727C46.3822 22.3382 46.3102 22.7001 46.1704 23.0377C46.0305 23.3754 45.8255 23.6822 45.567 23.9407C45.3086 24.1991 45.0018 24.4041 44.6641 24.544C44.3264 24.6839 43.9645 24.7559 43.599 24.7559H32.901C32.2019 24.7623 31.5255 24.5084 31.0034 24.0434C30.4813 23.5785 30.1509 22.9359 30.0766 22.2408C30.0023 21.5457 30.1894 20.8478 30.6015 20.283C31.0135 19.7182 31.621 19.3271 32.3057 19.1856L31.9036 18.0176H20.5286C19.9417 18.0271 19.382 18.267 18.9703 18.6855C18.5587 19.104 18.328 19.6675 18.3281 20.2545V52.8809H29.4609V44.336ZM22.7227 43.4602C22.7227 43.6544 22.6455 43.8407 22.5081 43.9781C22.3708 44.1154 22.1845 44.1926 21.9902 44.1926C21.796 44.1926 21.6097 44.1154 21.4723 43.9781C21.335 43.8407 21.2578 43.6544 21.2578 43.4602V26.6748C21.2578 26.4806 21.335 26.2943 21.4723 26.1569C21.6097 26.0195 21.796 25.9424 21.9902 25.9424C22.1845 25.9424 22.3708 26.0195 22.5081 26.1569C22.6455 26.2943 22.7227 26.4806 22.7227 26.6748V43.4602ZM22.7227 23.9404C22.7227 24.1346 22.6455 24.3209 22.5081 24.4583C22.3708 24.5956 22.1845 24.6728 21.9902 24.6728C21.796 24.6728 21.6097 24.5956 21.4723 24.4583C21.335 24.3209 21.2578 24.1346 21.2578 23.9404V23.1127C21.2578 22.9185 21.335 22.7322 21.4723 22.5948C21.6097 22.4575 21.796 22.3803 21.9902 22.3803C22.1845 22.3803 22.3708 22.4575 22.5081 22.5948C22.6455 22.7322 22.7227 22.9185 22.7227 23.1127V23.9404Z" fill="#1B4E65"/>
<path d="M30.9258 44.3362V52.8811H45.5742V44.3362C45.5756 43.9362 45.4974 43.5399 45.3442 43.1704C45.191 42.801 44.9658 42.4656 44.6819 42.1839C44.3979 41.9022 44.0608 41.6798 43.6901 41.5295C43.3194 41.3793 42.9225 41.3043 42.5225 41.3088H40.4448L40.1618 43.7142L41.2581 48.8227C41.2855 48.9511 41.278 49.0845 41.2362 49.209C41.1945 49.3334 41.12 49.4444 41.0206 49.5302L38.7264 51.5127C38.5935 51.6278 38.4236 51.6913 38.2478 51.6917C38.072 51.6921 37.9019 51.6293 37.7685 51.5148L35.4749 49.5346C35.3757 49.45 35.3013 49.3401 35.2595 49.2167C35.2178 49.0932 35.2103 48.9607 35.2379 48.8332L36.3384 43.713L36.0563 41.3088H33.9775C33.5775 41.3043 33.1807 41.3793 32.81 41.5295C32.4393 41.6798 32.1021 41.9022 31.8182 42.1839C31.5342 42.4656 31.3091 42.801 31.1559 43.1704C31.0027 43.5399 30.9245 43.9362 30.9258 44.3362V44.3362Z" fill="#1B4E65"/>
<path d="M38.2474 49.989L39.7348 48.7041L38.8266 44.4515L37.6726 44.4512L36.7607 48.7035L38.2474 49.989Z" fill="#1B4E65"/>
<path d="M38.7687 43.0115L38.9698 41.3086H37.5308L37.7314 43.0233L38.7687 43.0115Z" fill="#1B4E65"/>
<path d="M38.25 39.209C40.6366 39.209 42.5713 37.2743 42.5713 34.8877C42.5713 32.5011 40.6366 30.5664 38.25 30.5664C35.8634 30.5664 33.9287 32.5011 33.9287 34.8877C33.9287 37.2743 35.8634 39.209 38.25 39.209Z" fill="#1B4E65"/>
</svg>
