<svg width="74" height="75" viewBox="0 0 74 75" fill="none" xmlns="http://www.w3.org/2000/svg">
<path d="M45.1727 54.3017C44.2956 53.3144 43.5933 52.1809 43.097 50.9512L41.188 58.2212C41.4117 58.2568 41.6691 58.2944 41.9565 58.3299L44.4135 55.7008C44.5495 55.5552 44.7247 55.4532 44.9173 55.4074C45.11 55.3617 45.3116 55.3742 45.4973 55.4434C45.683 55.5126 45.8446 55.6354 45.9621 55.7968C46.0796 55.9581 46.1479 56.1508 46.1584 56.351L46.2652 58.3778L46.3171 58.3798C46.6696 58.3945 47.0328 58.4065 47.3966 58.4106L48.1482 58.1522V56.6367C47.0251 56.0473 46.0169 55.2561 45.1727 54.3017V54.3017Z" fill="#1B4E65"/>
<path d="M53.3221 28.0491C51.7801 28.0476 50.2619 28.4337 48.9032 29.1728C48.7537 29.3533 48.5472 29.476 48.3187 29.5201C46.9786 30.3763 45.8741 31.5625 45.1083 32.968C44.3426 34.3736 43.9405 35.9528 43.9395 37.5585L43.9487 40.742L43.9734 40.767C44.0573 40.8518 44.1649 40.9082 44.2816 40.9286C44.3983 40.949 44.5184 40.9324 44.6254 40.881C44.7405 40.827 44.8339 40.7348 44.8903 40.6197C45.2661 39.8304 45.9599 39.3144 46.7017 39.272L46.7392 39.2698C49.2277 39.1291 54.4057 38.8359 57.9947 32.3975C58.1267 32.1607 58.3461 31.9868 58.6046 31.9139C58.8632 31.8411 59.1397 31.8753 59.3733 32.0091C59.6069 32.1429 59.7786 32.3653 59.8504 32.6273C59.9223 32.8893 59.8885 33.1696 59.7565 33.4063C59.3275 34.1802 58.8445 34.9221 58.3112 35.6262C59.0425 37.3973 60.6499 38.8669 62.6973 39.6725L62.7047 37.6192C62.7126 36.3653 62.4758 35.1222 62.0079 33.9615C61.54 32.8007 60.8501 31.7452 59.9781 30.8557C59.1061 29.9662 58.0691 29.2602 56.9269 28.7785C55.7846 28.2968 54.5596 28.0488 53.3224 28.0488L53.3221 28.0491Z" fill="#1B4E65"/>
<path d="M56.8627 37.2812C56.6043 37.5369 56.3437 37.7762 56.0811 37.999C56.9702 38.7705 57.9696 39.4008 59.0453 39.8686C58.1664 39.1501 57.4264 38.2728 56.8627 37.2812V37.2812Z" fill="#1B4E65"/>
<path d="M43.3779 59.7927L44.2989 59.4765C44.2976 59.4618 44.2953 59.4472 44.2945 59.4325L44.2636 58.8457L43.3779 59.7927Z" fill="#1B4E65"/>
<path d="M61.491 54.3018C60.6467 55.2562 59.6384 56.0473 58.5151 56.6366V58.1522L58.8867 58.28L60.5098 56.2608C60.5965 56.153 60.7039 56.0642 60.8255 55.9998C60.9472 55.9353 61.0805 55.8967 61.2173 55.8861C61.3541 55.8755 61.4917 55.8933 61.6215 55.9383C61.7514 55.9833 61.8708 56.0546 61.9726 56.1479L64.2684 58.2508L65.1513 58.1411L63.6469 50.748C63.1472 52.0555 62.4167 53.2598 61.491 54.3018V54.3018Z" fill="#1B4E65"/>
<path d="M61.406 58.3945L60.9321 58.984L62.7197 59.5979L61.406 58.3945Z" fill="#1B4E65"/>
<path d="M54.334 65.6375L59.4161 60.6287L57.7734 60.0645L54.334 63.5408V65.6375Z" fill="#1B4E65"/>
<path d="M63.6062 43.3808C63.4407 43.3651 63.2816 43.3083 63.1429 43.2154C63.0043 43.1225 62.8904 42.9964 62.8113 42.8482C59.6786 42.6579 56.7066 41.3781 54.397 39.2246C51.411 41.0586 48.4712 41.2272 46.8568 41.3185C46.7959 41.3712 46.7471 41.4369 46.714 41.5108C46.458 42.0435 46.0319 42.4729 45.5048 42.7294C44.9778 42.9859 44.3808 43.0544 43.8105 42.9238C43.727 43.0522 43.6162 43.16 43.4861 43.2391C43.356 43.3182 43.21 43.3666 43.0589 43.3808C42.8951 43.3913 42.7388 43.4545 42.613 43.5614C42.4871 43.6682 42.3983 43.813 42.3594 43.9747C42.3337 44.0817 42.3207 44.1915 42.3208 44.3016C42.3201 44.6228 42.4314 44.9339 42.635 45.18C42.8386 45.4261 43.1215 45.5914 43.4337 45.6466C43.6683 45.6883 43.8809 45.8124 44.0341 45.9973C44.1872 46.1822 44.2711 46.416 44.271 46.6574C44.2868 48.9754 45.1421 51.2069 46.6744 52.9279C48.2381 54.6796 50.2814 55.644 52.4283 55.644H54.2377C56.3846 55.644 58.4279 54.6796 59.9916 52.9279C61.5213 51.2106 62.3761 48.9842 62.3942 46.6707C62.3937 46.4277 62.4772 46.1922 62.6301 46.0051C62.783 45.818 62.9958 45.6911 63.2314 45.6463C63.413 45.6135 63.5861 45.5433 63.7399 45.4401C63.8937 45.3368 64.025 45.2028 64.1257 45.0461C64.2263 44.8894 64.2943 44.7135 64.3253 44.5292C64.3563 44.3449 64.3497 44.1561 64.3059 43.9745C64.267 43.8129 64.1781 43.6681 64.0522 43.5613C63.9263 43.4544 63.7701 43.3912 63.6062 43.3808V43.3808Z" fill="#1B4E65"/>
<path d="M47.248 60.6287L52.3103 65.6178V63.5208L48.8908 60.0645L47.248 60.6287Z" fill="#1B4E65"/>
<path d="M52.427 57.6928C51.6668 57.692 50.9096 57.5964 50.1724 57.4082V58.4622L53.3318 61.6558L56.4914 58.4624V57.4085C55.7542 57.5966 54.997 57.6922 54.2367 57.6931L52.427 57.6928Z" fill="#1B4E65"/>
<path d="M68.219 66.5265C68.2192 65.6883 67.9602 64.8711 67.4783 64.1898C66.9964 63.5086 66.3159 62.9976 65.5326 62.7288L61.5683 61.3672L54.334 68.4972V71.7178H68.219V66.5265ZM56.593 70.4018H55.6002C55.3319 70.4018 55.0746 70.2937 54.8848 70.1014C54.6951 69.9091 54.5885 69.6483 54.5885 69.3764C54.5885 69.1044 54.6951 68.8436 54.8848 68.6513C55.0746 68.459 55.3319 68.351 55.6002 68.351H56.593C56.8613 68.351 57.1187 68.459 57.3084 68.6513C57.4981 68.8436 57.6047 69.1044 57.6047 69.3764C57.6047 69.6483 57.4981 69.9091 57.3084 70.1014C57.1187 70.2937 56.8613 70.4018 56.593 70.4018V70.4018Z" fill="#1B4E65"/>
<path d="M42.8707 7.54883H37.4219V9.47232C37.42 11.1571 36.7589 12.7723 35.5835 13.9636C34.4081 15.1549 32.8144 15.825 31.1521 15.827H21.7466C20.0843 15.825 18.4907 15.1549 17.3153 13.9636C16.1399 12.7723 15.4787 11.1571 15.4768 9.47232V7.54883H10.028C8.90213 7.55007 7.8227 8.0039 7.02655 8.81075C6.2304 9.6176 5.78255 10.7116 5.78125 11.8527V56.6154C5.78255 57.7564 6.23036 58.8504 7.02645 59.6572C7.82254 60.4641 8.90189 60.9179 10.0277 60.9192H40.1363C40.2499 60.8722 40.3648 60.8274 40.4822 60.7874L41.7068 60.3667C41.0284 60.2887 40.3547 60.1732 39.6887 60.0207C39.5581 59.9882 39.4352 59.9295 39.3272 59.8483C39.2192 59.767 39.1283 59.6647 39.0598 59.5474C38.9913 59.4301 38.9465 59.3001 38.9281 59.1651C38.9098 59.0301 38.9181 58.8927 38.9528 58.7609L41.9735 47.2553C41.3439 46.8842 40.8496 46.3166 40.5646 45.6373C40.2797 44.958 40.2192 44.2035 40.3923 43.4864C40.4896 43.0716 40.6793 42.6848 40.9468 42.3556C41.2143 42.0265 41.5525 41.7637 41.9356 41.5874L41.9268 41.1912C41.9268 41.1833 41.9268 41.1752 41.9268 41.1671L41.9164 37.5617C41.9172 35.6345 42.3934 33.738 43.3018 32.0448C44.2101 30.3516 45.5217 28.9155 47.1172 27.8669V11.8527C47.1159 10.7116 46.6681 9.6177 45.872 8.81086C45.0759 8.00401 43.9965 7.55015 42.8707 7.54883V7.54883ZM35.9089 31.566L24.6515 42.7052C24.4625 42.8922 24.2089 42.9969 23.9448 42.9969C23.6807 42.9969 23.427 42.8922 23.238 42.7052L16.9895 36.5223C16.7975 36.3323 16.6879 36.0728 16.6847 35.8008C16.6815 35.5289 16.785 35.2668 16.9724 35.0722C17.1599 34.8776 17.416 34.7665 17.6843 34.7633C17.9526 34.76 18.2112 34.8649 18.4032 35.0549L23.9448 40.5384L34.4956 30.0986C34.5906 30.0046 34.703 29.9304 34.8264 29.8803C34.9497 29.8303 35.0816 29.8054 35.2145 29.807C35.3473 29.8086 35.4785 29.8367 35.6007 29.8897C35.7228 29.9427 35.8335 30.0196 35.9263 30.1159C36.0191 30.2123 36.0923 30.3262 36.1417 30.4512C36.191 30.5762 36.2156 30.7099 36.2141 30.8445C36.2125 30.9792 36.1847 31.1122 36.1324 31.236C36.0801 31.3598 36.0043 31.4719 35.9092 31.566H35.9089Z" fill="#1B4E65"/>
<path d="M38.4453 66.5265V71.7178H52.3103V68.4775L45.0959 61.3672L41.1319 62.7288C40.3485 62.9976 39.6679 63.5085 39.186 64.1898C38.7041 64.871 38.445 65.6883 38.4453 66.5265Z" fill="#1B4E65"/>
<path d="M31.152 13.7748C32.2779 13.7735 33.3572 13.3196 34.1533 12.5128C34.9493 11.7059 35.3971 10.612 35.3984 9.47095V7.54746H31.787C31.5563 7.54745 31.3326 7.46756 31.1529 7.32103C30.9732 7.1745 30.8482 6.97014 30.7988 6.7418C30.3642 4.73686 28.535 3.28125 26.4494 3.28125C24.3638 3.28125 22.5347 4.73687 22.1001 6.74209C22.0506 6.97043 21.9257 7.1748 21.746 7.32132C21.5663 7.46785 21.3425 7.54774 21.1119 7.54775H17.5005V9.47095C17.5018 10.612 17.9495 11.7059 18.7456 12.5128C19.5417 13.3196 20.621 13.7735 21.7468 13.7748H31.152Z" fill="#1B4E65"/>
</svg>
