<svg width="76" height="75" viewBox="0 0 76 75" fill="none" xmlns="http://www.w3.org/2000/svg">
<path d="M43.5526 22.6908C43.3594 22.6728 43.1753 22.6004 43.0216 22.482C42.8679 22.3635 42.751 22.2039 42.6844 22.0216C38.5743 21.816 34.6721 20.1519 31.6784 17.3281C27.8153 19.735 23.9846 19.9492 21.9 20.0655L21.8517 20.0683C21.6825 20.1493 21.5509 20.2923 21.4843 20.4677C21.1656 21.1213 20.6251 21.6404 19.9592 21.9323C19.2933 22.2243 18.5453 22.2702 17.8487 22.0618C17.7772 22.2345 17.6599 22.3843 17.5095 22.4952C17.359 22.6061 17.1811 22.6737 16.995 22.6908C16.7254 22.7085 16.4685 22.812 16.262 22.9861C16.0554 23.1602 15.9099 23.3959 15.8468 23.6586C15.7813 23.927 15.7714 24.2059 15.8178 24.4783C15.8643 24.7506 15.9661 25.0105 16.1169 25.242C16.2677 25.4735 16.4644 25.6716 16.6947 25.824C16.9251 25.9765 17.1843 26.0802 17.4563 26.1286C17.6939 26.1702 17.9093 26.2943 18.0645 26.479C18.2197 26.6638 18.3048 26.8973 18.3048 27.1386V27.1568C18.329 30.1704 19.4579 33.0704 21.4774 35.3073C23.5481 37.5957 26.2576 38.8561 29.1069 38.8561H31.4408C34.2901 38.8561 36.9998 37.5963 39.0703 35.3073C41.0898 33.0704 42.2186 30.1704 42.2429 27.1568V27.1386C42.2429 26.8973 42.328 26.6638 42.4832 26.479C42.6384 26.2943 42.8538 26.1702 43.0915 26.1286C43.3635 26.0803 43.6227 25.9767 43.8531 25.8243C44.0835 25.6719 44.2802 25.4738 44.431 25.2424C44.5818 25.0109 44.6836 24.751 44.73 24.4787C44.7764 24.2063 44.7665 23.9274 44.7009 23.659C44.6379 23.3962 44.4924 23.1605 44.2858 22.9863C44.0792 22.8121 43.8223 22.7085 43.5526 22.6908V22.6908Z" fill="#1B4E65"/>
<path d="M10.7915 52.4296V59.3162H29.2356V54.7945L19.7222 45.543L14.4469 47.3313C13.381 47.6921 12.455 48.378 11.7993 49.2926C11.1436 50.2072 10.7911 51.3043 10.7915 52.4296Z" fill="#1B4E65"/>
<path d="M34.8943 14.7441C34.4173 15.2286 33.9133 15.6857 33.3848 16.1133C35.1356 17.6786 37.2244 18.8183 39.4882 19.4435C37.4871 18.2675 35.8788 16.6377 34.8943 14.7441Z" fill="#1B4E65"/>
<path d="M19.9567 36.6829C18.653 35.2338 17.6561 33.5359 17.0258 31.6914L14.2598 42.0846C14.6468 42.1502 15.1343 42.2235 15.7069 42.2912L18.9735 38.8428C19.1114 38.6972 19.2889 38.5952 19.4841 38.5494C19.6794 38.5037 19.8837 38.5162 20.0719 38.5854C20.2601 38.6546 20.4239 38.7774 20.543 38.9388C20.6621 39.1001 20.7313 39.2928 20.742 39.493L20.8935 42.3273L21.2157 42.3396C21.6868 42.3581 22.173 42.3752 22.6614 42.3799L23.8677 41.9709V39.6728C22.3876 38.9309 21.0608 37.9165 19.9567 36.6829V36.6829Z" fill="#1B4E65"/>
<path d="M45.0592 44.1625L44.073 44.2833C43.9272 44.3012 43.7791 44.2875 43.639 44.2432C43.4988 44.1989 43.3699 44.1249 43.2608 44.0264L40.6579 41.6738L39.6064 42.9644L44.6196 44.6636C44.7617 44.4928 44.9082 44.3257 45.0592 44.1625Z" fill="#1B4E65"/>
<path d="M30.2614 3.17773C26.9785 3.18146 23.8311 4.48723 21.5098 6.80859C19.1884 9.12994 17.8826 12.2773 17.8789 15.5602L17.8911 19.728L18.0044 19.8414C18.1535 19.9899 18.3448 20.0889 18.5522 20.1247C18.7596 20.1606 18.973 20.1315 19.1633 20.0416C19.3694 19.9453 19.5365 19.7816 19.637 19.5775C20.0765 18.6649 20.8821 18.0687 21.7373 18.0206L21.7858 18.0179C25.0452 17.8358 31.8274 17.457 36.5322 9.12954C36.5985 9.0123 36.6871 8.90926 36.7932 8.8263C36.8993 8.74333 37.0206 8.68207 37.1504 8.64601C37.2801 8.60995 37.4157 8.5998 37.5494 8.61613C37.683 8.63247 37.8121 8.67497 37.9294 8.74121C38.0466 8.80745 38.1497 8.89613 38.2326 9.0022C38.3156 9.10826 38.3769 9.22963 38.4129 9.35937C38.449 9.48911 38.4591 9.62468 38.4428 9.75834C38.4265 9.892 38.384 10.0211 38.3177 10.1384C37.7447 11.1586 37.0953 12.1341 36.3752 13.0563C37.3596 15.5564 39.6812 17.6136 42.6324 18.6513L42.6434 15.639C42.6538 14.0063 42.3413 12.3877 41.7237 10.8763C41.1061 9.36489 40.1957 7.99054 39.0449 6.83236C37.8941 5.67418 36.5256 4.75503 35.0181 4.12782C33.5107 3.50061 31.8941 3.17772 30.2614 3.17773V3.17773Z" fill="#1B4E65"/>
<path d="M31.2866 48.512V51.9583L38.6445 44.8033L35.9283 43.8828L31.2866 48.512Z" fill="#1B4E65"/>
<path d="M40.5908 36.6833C39.4868 37.917 38.1599 38.9314 36.6797 39.673V41.972L37.5328 42.2611L39.7491 39.5411C39.837 39.4333 39.9458 39.3444 40.0691 39.28C40.1923 39.2156 40.3274 39.1769 40.4661 39.1663C40.6047 39.1558 40.7441 39.1735 40.8757 39.2185C41.0073 39.2635 41.1284 39.3347 41.2315 39.428L44.2878 42.1902L45.8552 41.998L43.6497 31.3047C43.03 33.2972 41.9865 35.1321 40.5908 36.6833V36.6833Z" fill="#1B4E65"/>
<path d="M56.3925 52.6664L57.7535 51.7041H56.0413C55.8261 51.7041 55.6164 51.6365 55.4419 51.5107C55.2673 51.385 55.1367 51.2075 55.0686 51.0035L54.5152 49.3457L53.9618 51.0035C53.8936 51.2075 53.763 51.385 53.5885 51.5107C53.4139 51.6365 53.2042 51.7041 52.9891 51.7041H51.2769L52.6378 52.6665C52.8177 52.7936 52.9518 52.9752 53.0204 53.1845C53.089 53.3937 53.0884 53.6195 53.0187 53.8284L52.484 55.4301L53.9235 54.4123C54.0967 54.2899 54.3035 54.2242 54.5155 54.2242C54.7275 54.2242 54.9343 54.2899 55.1074 54.4123L56.5468 55.4299L56.0121 53.8284C55.9423 53.6195 55.9416 53.3938 56.0102 53.1845C56.0787 52.9752 56.2127 52.7935 56.3925 52.6664V52.6664Z" fill="#1B4E65"/>
<path d="M55.2243 65.8923L61.4206 71.8221V62.9277C59.3513 64.225 56.9587 64.9138 54.5164 64.9152C52.0741 64.9167 49.6807 64.2309 47.6099 62.9361V71.8221L53.8062 65.8923C53.997 65.7096 54.251 65.6076 54.5152 65.6076C54.7794 65.6076 55.0334 65.7096 55.2243 65.8923V65.8923Z" fill="#1B4E65"/>
<path d="M54.5151 42.1074C48.6188 42.1074 43.8218 46.7634 43.8218 52.4864C43.8235 55.1586 44.8764 57.7229 46.7531 59.6252C47.7627 60.6592 48.9704 61.4791 50.3041 62.0358C51.6378 62.5926 53.07 62.8747 54.5151 62.8654C60.4114 62.8654 65.2085 58.2094 65.2085 52.4864C65.2085 46.7634 60.4122 42.1074 54.5151 42.1074ZM61.5717 51.517L58.1982 53.9022L59.483 57.7508C59.5514 57.9558 59.5533 58.1771 59.4884 58.3832C59.4235 58.5893 59.2952 58.7697 59.1217 58.8985C58.9482 59.0273 58.7385 59.0981 58.5224 59.1006C58.3064 59.1032 58.095 59.0374 57.9186 58.9127L54.5151 56.5064L51.1117 58.9127C50.9353 59.0375 50.7239 59.1033 50.5078 59.1008C50.2917 59.0982 50.0819 59.0275 49.9084 58.8987C49.7349 58.7698 49.6066 58.5894 49.5417 58.3833C49.4768 58.1772 49.4787 57.9558 49.5471 57.7508L50.8321 53.9022L47.4585 51.5169C47.2809 51.3912 47.1478 51.2122 47.0785 51.0059C47.0093 50.7995 47.0075 50.5765 47.0734 50.3691C47.1393 50.1617 47.2696 49.9806 47.4452 49.8521C47.6209 49.7236 47.8328 49.6543 48.0505 49.6543H52.2503L53.5426 45.784C53.6108 45.58 53.7413 45.4026 53.9159 45.2768C54.0904 45.1511 54.3001 45.0835 54.5152 45.0835C54.7303 45.0835 54.94 45.1511 55.1145 45.2768C55.2891 45.4026 55.4196 45.58 55.4878 45.784L56.7799 49.6543H60.9798C61.1975 49.6543 61.4095 49.7236 61.5852 49.8521C61.7609 49.9806 61.8911 50.1617 61.9571 50.3691C62.023 50.5766 62.0212 50.7997 61.9519 51.006C61.8826 51.2124 61.7495 51.3913 61.5717 51.517V51.517Z" fill="#1B4E65"/>
<path d="M21.9033 44.8033L29.2356 51.9333V48.4864L24.6196 43.8828L21.9033 44.8033Z" fill="#1B4E65"/>
<path d="M31.2866 59.3162H43.8677C42.586 57.4268 41.8623 55.2146 41.7794 52.933C41.6965 50.6514 42.2578 48.3926 43.399 46.4151L40.826 45.543L31.2866 54.8192V59.3162ZM33.1997 55.0315H34.4803C34.7522 55.0315 35.013 55.1395 35.2053 55.3318C35.3976 55.5241 35.5057 55.7849 35.5057 56.0569C35.5057 56.3288 35.3976 56.5897 35.2053 56.7819C35.013 56.9742 34.7522 57.0823 34.4803 57.0823H33.1997C32.9278 57.0823 32.6669 56.9742 32.4746 56.7819C32.2823 56.5897 32.1743 56.3288 32.1743 56.0569C32.1743 55.7849 32.2823 55.5241 32.4746 55.3318C32.6669 55.1395 32.9278 55.0315 33.1997 55.0315V55.0315Z" fill="#1B4E65"/>
<path d="M29.1068 40.9075C28.0287 40.9077 26.9557 40.7588 25.9185 40.4648V42.282L30.2739 46.6257L34.6292 42.282V40.4648C33.5919 40.7587 32.5189 40.9077 31.4408 40.9075H29.1068Z" fill="#1B4E65"/>
</svg>
