<svg width="76" height="75" viewBox="0 0 76 75" fill="none" xmlns="http://www.w3.org/2000/svg">
<path d="M11.6605 24.0234L9.25488 43.6523H14.3013L16.7071 24.0234H11.6605Z" fill="#1B4E65"/>
<path d="M67.6115 7.47089H8.38848C7.83486 7.46571 7.28572 7.57038 6.77282 7.77883C6.25992 7.98729 5.79345 8.29538 5.4004 8.6853C5.00735 9.07521 4.69553 9.5392 4.48298 10.0504C4.27043 10.5616 4.16137 11.1099 4.16211 11.6636V49.0862C4.16211 51.4286 6.04605 53.467 8.38848 53.467H36.4341C38.9166 53.467 40.8412 54.2542 42.1542 55.9339C44.783 59.2965 44.1645 65.0168 43.7088 67.621C44.8902 67.0829 45.9841 66.3707 46.9542 65.508C49.8062 62.9606 51.1558 59.4491 50.9655 55.0653C50.9549 54.8511 50.9898 54.6372 51.0678 54.4374C51.1458 54.2377 51.2651 54.0568 51.418 53.9064C51.7287 53.5821 52.1491 53.467 52.602 53.467H66.9485C67.4256 53.4449 67.8968 53.3534 68.3475 53.1955C70.4088 52.5791 71.8379 50.5776 71.8379 48.4232V11.6636C71.8386 11.1099 71.7296 10.5616 71.517 10.0504C71.3045 9.5392 70.9927 9.07521 70.5996 8.6853C70.2066 8.29538 69.7401 7.98729 69.2272 7.77883C68.7143 7.57038 68.1652 7.46571 67.6115 7.47089V7.47089ZM7.0918 12.3781C7.0918 12.1839 7.16897 11.9976 7.30632 11.8602C7.44368 11.7229 7.62997 11.6457 7.82422 11.6457C8.01847 11.6457 8.20477 11.7229 8.34212 11.8602C8.47948 11.9976 8.55664 12.1839 8.55664 12.3781V13.55C8.55664 13.7442 8.47948 13.9305 8.34212 14.0679C8.20477 14.2052 8.01847 14.2824 7.82422 14.2824C7.62997 14.2824 7.44368 14.2052 7.30632 14.0679C7.16897 13.9305 7.0918 13.7442 7.0918 13.55V12.3781ZM7.0918 26.0012V16.1867C7.0918 15.9925 7.16897 15.8062 7.30632 15.6688C7.44368 15.5314 7.62997 15.4543 7.82422 15.4543C8.01847 15.4543 8.20477 15.5314 8.34212 15.6688C8.47948 15.8062 8.55664 15.9925 8.55664 16.1867V26.0012C8.55664 26.1954 8.47948 26.3817 8.34212 26.5191C8.20477 26.6564 8.01847 26.7336 7.82422 26.7336C7.62997 26.7336 7.44368 26.6564 7.30632 26.5191C7.16897 26.3817 7.0918 26.1954 7.0918 26.0012ZM41.1494 32.6751C41.1495 33.1524 41.0442 33.6239 40.8411 34.0558C40.638 34.4878 40.3421 34.8696 39.9745 35.174C40.393 35.5122 40.7183 35.9515 40.9197 36.4505C41.1212 36.9494 41.192 37.4915 41.1256 38.0255C41.0592 38.5594 40.8577 39.0676 40.5402 39.5021C40.2227 39.9365 39.7996 40.2827 39.311 40.5081C39.773 41.0805 40.0245 41.794 40.0237 42.5296C40.0228 43.3699 39.689 44.1756 39.0955 44.7704C38.5019 45.3652 37.6969 45.7007 36.8566 45.7033H31.7464C29.1374 45.7033 27.3853 45.6572 25.0572 44.2128C23.0119 42.9641 20.6576 42.3133 18.2612 42.3342H15.945L15.6758 44.5005C15.6528 44.6751 15.5657 44.8349 15.4314 44.9489C15.2972 45.0629 15.1254 45.1229 14.9494 45.1174H8.42701C8.32089 45.1086 8.21761 45.0786 8.12325 45.0293C8.02889 44.98 7.94537 44.9122 7.87761 44.8301C7.80985 44.748 7.75923 44.6531 7.72872 44.5511C7.69822 44.4491 7.68845 44.342 7.7 44.2361L10.2852 23.1718C10.3083 22.9975 10.3957 22.838 10.5302 22.7247C10.6646 22.6113 10.8366 22.5521 11.0123 22.5588H17.5347C17.6356 22.5516 17.7368 22.5664 17.8314 22.6023C17.926 22.6381 18.0116 22.6941 18.0824 22.7663C18.1507 22.8399 18.2021 22.9277 18.2328 23.0233C18.2636 23.1189 18.2729 23.2201 18.2602 23.3198L18.1603 24.1162C19.0581 23.9799 19.9025 23.6039 20.6045 23.028C21.3065 22.452 21.8402 21.6974 22.1494 20.8436C22.3656 20.2248 22.4749 19.5737 22.4727 18.9182V12.9069C22.4727 12.5023 22.8116 12.3049 23.2162 12.3049H24.7924C27.1342 12.3049 29.0645 14.0795 29.0645 16.4211V24.9025H38.1296C38.7524 24.8951 39.3619 25.0828 39.8727 25.4392C40.3835 25.7957 40.7699 26.303 40.9778 26.8901C41.1858 27.4772 41.2048 28.1146 41.0323 28.7131C40.8597 29.3115 40.5042 29.841 40.0156 30.2272C40.3709 30.5286 40.6563 30.9036 40.8521 31.3263C41.0478 31.749 41.1493 32.2093 41.1494 32.6751V32.6751ZM44.5378 20.0685H56.1307C56.3249 20.0685 56.5112 20.1457 56.6486 20.2831C56.7859 20.4204 56.8631 20.6067 56.8631 20.801C56.8631 20.9952 56.7859 21.1815 56.6486 21.3189C56.5112 21.4562 56.3249 21.5334 56.1307 21.5334H44.5378C44.3435 21.5334 44.1572 21.4562 44.0199 21.3189C43.8825 21.1815 43.8053 20.9952 43.8053 20.801C43.8053 20.6067 43.8825 20.4204 44.0199 20.2831C44.1572 20.1457 44.3435 20.0685 44.5378 20.0685ZM44.5378 27.0998H47.8416C48.0358 27.0998 48.2221 27.177 48.3595 27.3143C48.4968 27.4517 48.574 27.638 48.574 27.8322C48.574 28.0265 48.4968 28.2128 48.3595 28.3501C48.2221 28.4875 48.0358 28.5646 47.8416 28.5646H44.5378C44.3435 28.5646 44.1572 28.4875 44.0199 28.3501C43.8825 28.2128 43.8053 28.0265 43.8053 27.8322C43.8053 27.638 43.8825 27.4517 44.0199 27.3143C44.1572 27.177 44.3435 27.0998 44.5378 27.0998ZM49.1599 42.3342H44.5378C44.3435 42.3342 44.1572 42.257 44.0199 42.1196C43.8825 41.9823 43.8053 41.796 43.8053 41.6017C43.8053 41.4075 43.8825 41.2212 44.0199 41.0838C44.1572 40.9465 44.3435 40.8693 44.5378 40.8693H49.1599C49.3542 40.8693 49.5405 40.9465 49.6778 41.0838C49.8152 41.2212 49.8923 41.4075 49.8923 41.6017C49.8923 41.796 49.8152 41.9823 49.6778 42.1196C49.5405 42.257 49.3542 42.3342 49.1599 42.3342V42.3342ZM44.5378 35.4494C44.3435 35.4494 44.1572 35.3722 44.0199 35.2349C43.8825 35.0975 43.8053 34.9112 43.8053 34.717C43.8053 34.5227 43.8825 34.3364 44.0199 34.1991C44.1572 34.0617 44.3435 33.9846 44.5378 33.9846H56.4841C56.6784 33.9846 56.8647 34.0617 57.002 34.1991C57.1394 34.3364 57.2166 34.5227 57.2166 34.717C57.2166 34.9112 57.1394 35.0975 57.002 35.2349C56.8647 35.3722 56.6784 35.4494 56.4841 35.4494H44.5378ZM67.573 42.3342H54.0708C53.8766 42.3342 53.6903 42.257 53.5529 42.1196C53.4156 41.9823 53.3384 41.796 53.3384 41.6017C53.3384 41.4075 53.4156 41.2212 53.5529 41.0838C53.6903 40.9465 53.8766 40.8693 54.0708 40.8693H67.573C67.7673 40.8693 67.9536 40.9465 68.0909 41.0838C68.2283 41.2212 68.3054 41.4075 68.3054 41.6017C68.3054 41.796 68.2283 41.9823 68.0909 42.1196C67.9536 42.257 67.7673 42.3342 67.573 42.3342ZM67.573 35.4494H61.395C61.2008 35.4494 61.0145 35.3722 60.8771 35.2349C60.7398 35.0975 60.6626 34.9112 60.6626 34.717C60.6626 34.5227 60.7398 34.3364 60.8771 34.1991C61.0145 34.0617 61.2008 33.9846 61.395 33.9846H67.573C67.7673 33.9846 67.9536 34.0617 68.0909 34.1991C68.2283 34.3364 68.3054 34.5227 68.3054 34.717C68.3054 34.9112 68.2283 35.0975 68.0909 35.2349C67.9536 35.3722 67.7673 35.4494 67.573 35.4494V35.4494ZM67.573 28.5646H53.0453C52.851 28.5646 52.6647 28.4875 52.5274 28.3501C52.39 28.2128 52.3129 28.0265 52.3129 27.8322C52.3129 27.638 52.39 27.4517 52.5274 27.3143C52.6647 27.177 52.851 27.0998 53.0453 27.0998H67.573C67.7673 27.0998 67.9536 27.177 68.0909 27.3143C68.2283 27.4517 68.3054 27.638 68.3054 27.8322C68.3054 28.0265 68.2283 28.2128 68.0909 28.3501C67.9536 28.4875 67.7673 28.5646 67.573 28.5646V28.5646ZM67.573 21.5334H61.042C60.8478 21.5334 60.6615 21.4562 60.5241 21.3189C60.3867 21.1815 60.3096 20.9952 60.3096 20.801C60.3096 20.6067 60.3867 20.4204 60.5241 20.2831C60.6615 20.1457 60.8478 20.0685 61.042 20.0685H67.5734C67.7677 20.0685 67.954 20.1457 68.0913 20.2831C68.2287 20.4204 68.3059 20.6067 68.3059 20.801C68.3059 20.9952 68.2287 21.1815 68.0913 21.3189C67.954 21.4562 67.7677 21.5334 67.5734 21.5334H67.573Z" fill="#1B4E65"/>
<path d="M33.2961 29.4434L38.1301 29.4287C38.5361 29.4287 38.9255 29.2674 39.2125 28.9804C39.4996 28.6933 39.6609 28.3039 39.6609 27.8979C39.6609 27.492 39.4996 27.1026 39.2125 26.8155C38.9255 26.5285 38.5361 26.3672 38.1301 26.3672H28.8166C28.4159 26.3623 28.0217 26.2657 27.6641 26.0847C27.3066 25.9037 26.9953 25.6431 26.7541 25.323C26.6358 25.1664 26.5837 24.9695 26.6089 24.7748C26.6341 24.5801 26.7347 24.403 26.8891 24.2817C26.9863 24.2008 27.1029 24.1465 27.2275 24.1242C27.352 24.1018 27.4802 24.1123 27.5995 24.1544V16.4209C27.5995 14.8869 26.3264 13.7695 24.7923 13.7695H23.9374V18.918C23.9398 19.7431 23.8022 20.5626 23.5305 21.3416C23.1109 22.5155 22.3662 23.5458 21.3832 24.3125C20.4002 25.0791 19.2194 25.5504 17.9787 25.6714L16.1245 40.8691H18.2611C20.9303 40.8481 23.5521 41.5751 25.8292 42.9678C27.7595 44.165 29.1798 44.2383 31.7463 44.2383H36.8564C37.3032 44.2383 37.7317 44.0608 38.0476 43.7449C38.3635 43.429 38.541 43.0005 38.541 42.5537C38.541 42.1069 38.3635 41.6785 38.0476 41.3625C37.7317 41.0466 37.3032 40.8691 36.8564 40.8691H34.6107C34.4164 40.8691 34.2301 40.792 34.0928 40.6546C33.9554 40.5173 33.8783 40.331 33.8783 40.1367C33.8783 39.9425 33.9554 39.7562 34.0928 39.6188C34.2301 39.4815 34.4164 39.4043 34.6107 39.4043H37.9719C38.4187 39.4043 38.8472 39.2268 39.1631 38.9109C39.479 38.595 39.6565 38.1665 39.6565 37.7197C39.6565 37.273 39.479 36.8445 39.1631 36.5286C38.8472 36.2126 38.4187 36.0352 37.9719 36.0352H34.5295C34.3353 36.0352 34.149 35.958 34.0116 35.8206C33.8743 35.6833 33.7971 35.497 33.7971 35.3027C33.7971 35.1085 33.8743 34.9222 34.0116 34.7848C34.149 34.6475 34.3353 34.5703 34.5295 34.5703H37.8959C38.3815 34.5703 38.8473 34.3774 39.1906 34.034C39.534 33.6906 39.7269 33.2249 39.7269 32.7393C39.7269 32.2536 39.534 31.7879 39.1906 31.4445C38.8473 31.1011 38.3815 30.9082 37.8959 30.9082H33.2963C33.102 30.9082 32.9157 30.831 32.7784 30.6937C32.641 30.5563 32.5639 30.37 32.5639 30.1758C32.5639 29.9815 32.641 29.7952 32.7784 29.6579C32.9157 29.5205 33.102 29.4434 33.2963 29.4434H33.2961Z" fill="#1B4E65"/>
</svg>
