<svg width="69" height="69" viewBox="0 0 69 69" fill="none" xmlns="http://www.w3.org/2000/svg">
<g clip-path="url(#clip0_246_1760)">
<path d="M34.5 23.5566C28.4623 23.5566 23.5566 28.4623 23.5566 34.5C23.5566 40.5378 28.4623 45.4434 34.5 45.4434C40.5378 45.4434 45.4434 40.5378 45.4434 34.5C45.4434 28.4623 40.5378 23.5566 34.5 23.5566ZM33.6699 31.2548C32.3114 31.2548 31.1793 32.3868 31.1793 33.7453H27.5566C27.6321 30.3491 30.3491 27.6321 33.6699 27.6321V31.2548Z" fill="#1B4E65"/>
<path d="M67.7075 32.2359C64.0094 27.6321 50.8019 12.6133 34.5 12.6133C18.1981 12.6133 4.99057 27.6321 1.29245 32.2359C0.235849 33.5189 0.235849 35.4057 1.29245 36.7642C4.99057 41.368 18.1981 56.3869 34.5 56.3869C50.8019 56.3869 64.0094 41.368 67.7075 36.7642C68.7641 35.4812 68.7641 33.5944 67.7075 32.2359ZM34.5 50.3491C25.7453 50.3491 18.6509 43.2548 18.6509 34.5001C18.6509 25.7454 25.7453 18.651 34.5 18.651C43.2547 18.651 50.3491 25.7454 50.3491 34.5001C50.3491 43.2548 43.2547 50.3491 34.5 50.3491Z" fill="#1B4E65"/>
</g>
<defs>
<clipPath id="clip0_246_1760">
<rect width="68" height="68" fill="white" transform="translate(0.5 0.5)"/>
</clipPath>
</defs>
</svg>
