<svg width="392" height="260" viewBox="0 0 392 260" fill="none" xmlns="http://www.w3.org/2000/svg">
<path d="M51.6093 53.48C52.6226 54.28 54.356 55.3733 56.8093 56.76C59.316 58.1467 61.6893 58.84 63.9293 58.84C66.2226 58.84 67.3693 57.96 67.3693 56.2C67.3693 55.4 67.0493 54.7067 66.4093 54.12C65.7693 53.48 64.596 52.76 62.8893 51.96C61.1826 51.16 59.9026 50.5467 59.0493 50.12C58.196 49.64 57.0493 48.8933 55.6093 47.88C54.2226 46.8133 53.156 45.72 52.4093 44.6C50.276 41.56 49.2093 37.6933 49.2093 33C49.2093 28.3067 50.9426 24.36 54.4093 21.16C57.9293 17.9067 62.516 16.28 68.1693 16.28C72.0093 16.28 75.556 16.7067 78.8093 17.56C82.0626 18.36 83.7426 19.4267 83.8493 20.76C83.8493 20.92 83.8493 21.08 83.8493 21.24C83.8493 23.1067 83.2626 25.48 82.0893 28.36C80.916 31.1867 80.0893 32.76 79.6093 33.08C76.196 31.32 73.1293 30.44 70.4093 30.44C67.7426 30.44 66.4093 31.4 66.4093 33.32C66.4093 34.4933 67.396 35.5333 69.3693 36.44C69.796 36.6533 70.4093 36.9467 71.2093 37.32C72.0093 37.6933 72.916 38.1467 73.9293 38.68C74.996 39.16 76.116 39.8 77.2893 40.6C78.516 41.3467 79.8226 42.36 81.2093 43.64C84.036 46.3067 85.4493 49.8267 85.4493 54.2C85.4493 59.9067 83.876 64.5733 80.7293 68.2C77.5826 71.8267 72.7293 73.6933 66.1693 73.8C62.9693 73.8 60.0626 73.5333 57.4493 73C54.8893 72.4667 52.6493 71.4267 50.7293 69.88C48.8093 68.3333 47.8493 66.4667 47.8493 64.28C47.8493 62.0933 48.2493 59.9333 49.0493 57.8C49.8493 55.6133 50.7026 54.1733 51.6093 53.48ZM115.789 73.8C108.323 73.8 102.216 71.3467 97.4693 66.44C92.776 61.5333 90.4293 54.3867 90.4293 45C90.4293 35.56 92.8026 28.4133 97.5493 23.56C102.349 18.7067 108.509 16.28 116.029 16.28C123.603 16.28 129.709 18.68 134.349 23.48C138.989 28.2267 141.309 35.4533 141.309 45.16C141.309 54.8133 138.936 62.0133 134.189 66.76C129.443 71.4533 123.309 73.8 115.789 73.8ZM115.869 31.64C113.309 31.64 111.149 32.8133 109.389 35.16C107.683 37.5067 106.829 40.8133 106.829 45.08C106.829 49.2933 107.656 52.5467 109.309 54.84C110.963 57.08 113.123 58.2 115.789 58.2C118.509 58.2 120.696 57.0533 122.349 54.76C124.056 52.4667 124.909 49.1867 124.909 44.92C124.909 40.6533 124.029 37.3733 122.269 35.08C120.563 32.7867 118.429 31.64 115.869 31.64ZM203.732 73.08C198.986 73.08 196.612 72.5467 196.612 71.48L194.932 39.4L185.172 71.88C184.959 72.52 183.146 72.84 179.732 72.84C176.319 72.84 174.559 72.5467 174.452 71.96L164.372 39.08L163.252 71C163.199 71.8 162.186 72.36 160.212 72.68C158.239 72.9467 156.586 73.08 155.252 73.08C153.972 73.08 152.719 73 151.492 72.84C148.932 72.4667 147.679 71.8 147.732 70.84L149.572 18.84C149.572 17.56 152.826 16.92 159.332 16.92C161.252 16.92 163.599 17.08 166.372 17.4C169.146 17.6667 170.692 18.2267 171.012 19.08L179.972 44.28L187.812 19C188.292 17.6133 191.972 16.92 198.852 16.92C200.826 16.92 203.172 17.08 205.892 17.4C208.666 17.6667 210.052 18.1733 210.052 18.92L212.372 71.4C212.372 71.9867 211.332 72.4133 209.252 72.68C207.172 72.9467 205.332 73.08 203.732 73.08ZM244.071 73.8C236.604 73.8 230.497 71.3467 225.751 66.44C221.057 61.5333 218.711 54.3867 218.711 45C218.711 35.56 221.084 28.4133 225.831 23.56C230.631 18.7067 236.791 16.28 244.311 16.28C251.884 16.28 257.991 18.68 262.631 23.48C267.271 28.2267 269.591 35.4533 269.591 45.16C269.591 54.8133 267.217 62.0133 262.471 66.76C257.724 71.4533 251.591 73.8 244.071 73.8ZM244.151 31.64C241.591 31.64 239.431 32.8133 237.671 35.16C235.964 37.5067 235.111 40.8133 235.111 45.08C235.111 49.2933 235.937 52.5467 237.591 54.84C239.244 57.08 241.404 58.2 244.071 58.2C246.791 58.2 248.977 57.0533 250.631 54.76C252.337 52.4667 253.191 49.1867 253.191 44.92C253.191 40.6533 252.311 37.3733 250.551 35.08C248.844 32.7867 246.711 31.64 244.151 31.64ZM278.094 53.48C279.107 54.28 280.84 55.3733 283.294 56.76C285.8 58.1467 288.174 58.84 290.414 58.84C292.707 58.84 293.854 57.96 293.854 56.2C293.854 55.4 293.534 54.7067 292.894 54.12C292.254 53.48 291.08 52.76 289.374 51.96C287.667 51.16 286.387 50.5467 285.534 50.12C284.68 49.64 283.534 48.8933 282.094 47.88C280.707 46.8133 279.64 45.72 278.894 44.6C276.76 41.56 275.694 37.6933 275.694 33C275.694 28.3067 277.427 24.36 280.894 21.16C284.414 17.9067 289 16.28 294.654 16.28C298.494 16.28 302.04 16.7067 305.294 17.56C308.547 18.36 310.227 19.4267 310.334 20.76C310.334 20.92 310.334 21.08 310.334 21.24C310.334 23.1067 309.747 25.48 308.574 28.36C307.4 31.1867 306.574 32.76 306.094 33.08C302.68 31.32 299.614 30.44 296.894 30.44C294.227 30.44 292.894 31.4 292.894 33.32C292.894 34.4933 293.88 35.5333 295.854 36.44C296.28 36.6533 296.894 36.9467 297.694 37.32C298.494 37.6933 299.4 38.1467 300.414 38.68C301.48 39.16 302.6 39.8 303.774 40.6C305 41.3467 306.307 42.36 307.694 43.64C310.52 46.3067 311.934 49.8267 311.934 54.2C311.934 59.9067 310.36 64.5733 307.214 68.2C304.067 71.8267 299.214 73.6933 292.654 73.8C289.454 73.8 286.547 73.5333 283.934 73C281.374 72.4667 279.134 71.4267 277.214 69.88C275.294 68.3333 274.334 66.4667 274.334 64.28C274.334 62.0933 274.734 59.9333 275.534 57.8C276.334 55.6133 277.187 54.1733 278.094 53.48Z" fill="white"/>
<path d="M23.4636 151.585L45.5836 182.862C46.2709 184.081 50.5512 184.209 58.3931 183.279C66.2351 182.348 70.1092 181.001 70.078 179.205L69.3906 146.292L23.4636 151.585ZM1.59358 187.93C1.59358 189.47 5.49894 189.791 13.1847 188.892C20.8704 187.994 24.7446 186.743 24.7133 185.203L24.026 151.681L0.84375 154.343L1.59358 187.93Z" fill="white"/>
<path d="M184.726 236.952C185.462 237.014 185.896 237.303 185.596 237.529L186.129 237.708L186.239 237.806C186.447 237.794 186.546 237.684 186.644 237.574L186.534 237.475L186.423 237.377C186.522 237.267 186.62 237.157 186.718 237.047L186.816 236.936L187.319 236.594L187.51 236.269C187.626 236.472 187.834 236.46 187.828 236.355C187.822 236.251 188.123 236.025 188.325 235.909C188.528 235.792 189.159 235.86 189.263 235.854C189.361 235.744 189.674 235.726 189.772 235.616L189.974 235.5C189.974 235.5 190.588 235.255 191.195 234.907L191.826 234.975L191.93 234.969C192.034 234.963 192.133 234.853 192.237 234.847C192.335 234.736 192.74 234.504 192.954 234.596C193.163 234.584 193.776 234.34 194.082 234.218L194.395 234.2L194.499 234.194C194.609 234.292 194.812 234.176 195.014 234.059C195.112 233.949 195.615 233.607 195.818 233.49C196.026 233.478 196.738 233.124 197.148 232.995L197.565 232.971L197.878 232.953C198.178 232.727 198.577 232.39 198.78 232.274C198.976 232.054 199.828 232.318 200.036 232.306L200.134 232.196C200.232 232.086 200.325 231.872 200.423 231.761C200.637 231.853 201.048 231.725 201.355 231.603C201.661 231.481 202.679 231.004 202.789 231.102C202.9 231.2 203.611 230.846 203.813 230.73L204.016 230.613L204.409 230.173C204.837 230.357 205.26 230.437 205.254 230.333L205.248 230.229L205.236 230.02C205.445 230.008 205.751 229.886 205.849 229.776C205.948 229.666 206.561 229.421 206.653 229.207C206.849 228.986 207.499 229.367 207.597 229.257C207.597 229.257 208.106 229.019 208.406 228.792C208.713 228.67 209.627 228.199 209.621 228.095C209.621 228.095 210.032 227.967 210.344 227.949C210.761 227.925 211.779 227.448 211.785 227.552C211.889 227.546 212.3 227.418 212.705 227.185C213.11 226.953 214.25 226.783 214.354 226.777C214.354 226.777 214.557 226.66 214.452 226.666C214.348 226.672 214.33 226.36 214.631 226.133C214.931 225.907 215.887 226.166 215.991 226.16C215.991 226.16 216.396 225.927 216.599 225.811C216.801 225.695 217.524 225.549 217.623 225.438L217.721 225.328C217.819 225.218 217.917 225.108 218.021 225.102L218.334 225.084C218.653 225.17 219.057 224.937 219.254 224.717L219.456 224.601L219.763 224.479C220.18 224.455 220.707 224.529 221.019 224.511C221.338 224.597 222.344 223.912 222.644 223.685C223.049 223.453 224.416 223.583 224.839 223.663L225.139 223.437C225.237 223.327 225.544 223.205 225.752 223.193L226.059 223.07C226.378 223.156 226.899 223.126 227.101 223.01L227.408 222.888C227.512 222.882 227.732 223.078 227.836 223.072L228.253 223.048C228.768 222.914 229.283 222.78 229.492 222.768C229.7 222.756 230.233 222.934 230.54 222.812C230.742 222.696 231.692 222.85 231.9 222.838L232.109 222.826L232.213 222.82C232.317 222.814 232.624 222.692 233.041 222.668C233.353 222.65 234.732 222.989 235.363 223.057C235.994 223.125 238.287 222.993 239.016 222.951L239.567 223.442C239.788 223.638 239.996 223.626 240.297 223.4C240.511 223.492 240.725 223.584 240.83 223.578C240.934 223.572 241.142 223.56 241.351 223.548C241.559 223.536 241.884 223.726 242.104 223.923C242.319 224.015 242.974 224.5 243.298 224.69C243.623 224.88 244.517 225.874 244.859 226.377L245.404 226.764C245.306 226.874 245.434 227.285 245.661 227.586C245.887 227.886 246.358 228.8 246.364 228.904C246.37 229.008 246.498 229.419 246.621 229.726L246.743 230.032C246.859 230.235 247.38 230.205 247.19 230.529L247.005 230.958C247.428 231.038 247.753 231.229 247.863 231.327C247.973 231.425 248.316 231.928 248.542 232.228L248.757 232.321L249.179 232.401C249.706 232.475 250.332 232.439 250.65 232.525C250.963 232.507 252.005 232.447 252.317 232.429L252.526 232.417L252.734 232.405C252.943 232.393 253.359 232.369 253.666 232.247C253.868 232.131 255.229 232.157 255.426 231.936L255.756 232.231C255.977 232.427 255.959 232.115 255.953 232.01C255.935 231.698 256.027 231.483 256.456 231.668L256.56 231.662C256.664 231.656 256.86 231.435 256.848 231.227L257.173 231.417L257.283 231.516C257.59 231.393 257.896 231.271 257.902 231.375C258.013 231.473 258.331 231.56 258.331 231.56L258.435 231.554C259.049 231.309 259.662 231.065 260.171 230.826L260.477 230.704C260.888 230.576 261.287 230.239 261.594 230.117L261.912 230.203L262.127 230.295C262.323 230.075 262.624 229.849 262.728 229.843L262.832 229.837L262.936 229.831C263.555 229.69 264.07 229.556 264.175 229.55C264.279 229.544 264.591 229.526 264.708 229.729C264.928 229.925 265.413 229.27 265.621 229.258C265.83 229.246 266.333 228.903 266.437 228.897C266.541 228.891 266.952 228.763 267.044 228.548C267.136 228.334 267.675 228.617 267.669 228.512C267.663 228.408 268.172 228.17 268.485 228.152L268.798 228.134L269.006 228.122C269.214 228.11 269.613 227.773 269.914 227.547L270.441 227.621L270.759 227.707C271.17 227.579 271.587 227.555 271.789 227.439C271.992 227.322 272.501 227.084 272.703 226.968L272.918 227.06C273.445 227.134 273.855 227.006 274.659 226.437L274.763 226.431C274.867 226.425 275.389 226.395 275.904 226.261L276.204 226.034L276.302 225.924C276.511 225.912 276.621 226.01 276.523 226.12L276.529 226.225L276.541 226.433C276.657 226.635 276.761 226.629 276.958 226.409L277.154 226.189L277.35 225.968C277.657 225.846 277.97 225.828 277.871 225.938C277.773 226.048 278.104 226.343 278.723 226.203C279.342 226.062 280.789 225.77 280.581 225.782C280.366 225.69 279.637 225.732 279.44 225.952L279.238 226.068L279.14 226.179C278.931 226.191 278.821 226.092 278.815 225.988C278.809 225.884 279.11 225.658 279.306 225.437C279.509 225.321 280.446 225.267 280.551 225.261C280.655 225.255 280.747 225.041 280.857 225.139C280.967 225.237 281.593 225.201 282.206 224.956L282.611 224.724C282.911 224.498 283.021 224.596 283.34 224.682C283.769 224.866 284.186 224.842 284.584 224.506L284.683 224.396C284.891 224.384 285.302 224.255 285.51 224.243C285.719 224.231 286.546 224.079 286.865 224.165L287.165 223.939L287.466 223.712C287.877 223.584 288.189 223.566 288.189 223.566C288.189 223.566 288.606 223.542 289.023 223.518C289.44 223.494 290.58 223.324 290.684 223.318C290.783 223.208 291.304 223.178 291.628 223.368C291.953 223.558 293.179 223.069 293.388 223.057L293.596 223.045C293.804 223.033 294.025 223.23 294.129 223.224C294.331 223.108 294.319 222.899 294.418 222.789L294.516 222.679C294.724 222.667 294.933 222.655 295.037 222.649C295.147 222.747 295.454 222.625 295.558 222.619C295.656 222.509 295.963 222.386 296.073 222.485L296.177 222.478C296.49 222.46 296.912 222.541 297.115 222.424C297.415 222.198 297.722 222.076 298.047 222.266C298.151 222.26 298.353 222.144 298.451 222.034C298.55 221.924 299.493 221.974 299.708 222.066C299.916 222.054 300.64 221.908 300.628 221.699C300.616 221.491 301.357 221.657 301.572 221.749C301.786 221.842 302.828 221.781 303.042 221.874C303.153 221.972 303.551 221.635 303.662 221.733C303.766 221.727 304.287 221.697 304.385 221.587C304.483 221.477 305.201 221.227 305.519 221.313L305.734 221.405L306.383 221.786C306.15 221.381 306.243 221.167 306.567 221.357C306.886 221.443 307.83 221.493 307.94 221.591C308.05 221.69 308.369 221.776 308.467 221.666C308.565 221.555 308.848 221.016 309.038 220.692L309.583 221.079C309.908 221.269 310.515 220.92 310.852 221.319L310.962 221.417C311.17 221.405 311.477 221.283 311.673 221.063C311.876 220.946 312.605 220.904 313.022 220.88L313.334 220.862L313.543 220.85C313.745 220.734 314.162 220.71 314.469 220.588C314.781 220.57 316.038 220.602 316.246 220.59C316.454 220.578 317.074 220.438 317.08 220.542C317.086 220.646 317.41 220.836 317.619 220.824C317.827 220.812 318.005 220.279 318.005 220.279C318.11 220.273 318.637 220.348 319.268 220.416L319.783 220.281L319.887 220.275C319.991 220.269 320.408 220.245 320.831 220.326C321.254 220.406 322.394 220.236 322.823 220.42L323.117 220.089C323.314 219.869 323.516 219.753 323.54 220.169C323.552 220.378 323.865 220.36 324.061 220.139L324.264 220.023C324.576 220.005 324.987 219.877 325.189 219.761L325.398 219.749L325.502 219.743C325.612 219.841 325.833 220.037 325.937 220.031C326.047 220.13 326.672 220.093 326.985 220.075L327.089 220.069L327.384 219.739C327.708 219.929 328.027 220.015 328.229 219.899L328.432 219.783L328.634 219.667C329.259 219.631 329.983 219.484 330.289 219.362C330.596 219.24 331.65 219.388 332.073 219.469L332.373 219.242L332.674 219.016C332.993 219.102 333.514 219.072 333.93 219.048C334.347 219.024 335.499 219.062 335.598 218.952L335.696 218.842C335.696 218.842 335.8 218.836 335.806 218.94C335.812 219.044 336.131 219.13 336.327 218.91C336.523 218.689 337.682 218.832 337.994 218.814C338.301 218.691 339.159 219.06 339.159 219.06C339.159 219.06 339.465 218.938 339.772 218.816C340.078 218.693 341.856 218.696 342.168 218.678L342.371 218.561L342.475 218.555C342.463 218.347 342.561 218.237 342.671 218.335C342.782 218.433 343.204 218.513 343.315 218.611C343.419 218.605 344.032 218.361 344.443 218.233C344.749 218.111 345.902 218.149 346.012 218.247C346.22 218.235 346.95 218.193 347.262 218.175L347.575 218.157L347.679 218.151C347.771 217.936 347.974 217.82 348.188 217.912C348.403 218.005 348.819 217.981 349.022 217.864C349.12 217.754 349.855 217.816 350.156 217.59L350.493 217.989C350.493 217.989 350.903 217.86 351.216 217.842C351.523 217.72 352.35 217.568 352.454 217.562C352.663 217.55 353.288 217.514 353.502 217.606C353.717 217.698 354.428 217.344 354.643 217.436C354.857 217.528 355.783 217.266 355.991 217.254C356.2 217.242 356.733 217.42 356.941 217.408L357.144 217.292C357.242 217.181 357.45 217.169 357.665 217.262L357.983 217.348C358.302 217.434 358.829 217.508 359.135 217.386L359.442 217.264L359.853 217.136C360.374 217.105 361.103 217.063 361.618 216.929L361.955 217.328L362.666 216.973L362.77 216.967C362.875 216.961 363.396 216.931 363.917 216.901C364.542 216.865 366.025 217.198 366.129 217.192C366.233 217.186 366.846 216.941 367.153 216.819C367.46 216.697 368.52 216.95 368.52 216.95C368.52 216.95 369.047 217.024 369.463 217C369.88 216.976 371.057 217.431 371.161 217.425C371.155 217.32 371.247 217.106 371.241 217.002C371.235 216.898 371.762 216.972 372.074 216.954C372.387 216.936 373.117 216.894 373.03 217.212C372.938 217.427 374.195 217.459 374.084 217.361C374.078 217.256 374.06 216.944 374.165 216.938C374.269 216.932 374.796 217.006 375.004 216.994C375.219 217.086 376.15 216.928 376.255 216.922C376.463 216.91 377.1 217.082 377.309 217.07C377.517 217.058 378.032 216.924 378.234 216.808C378.437 216.692 378.976 216.974 379.08 216.968C379.184 216.962 379.699 216.828 379.81 216.926C380.018 216.914 380.551 217.092 380.765 217.185L380.968 217.068L381.072 217.062C381.286 217.155 381.2 217.473 381.004 217.694L381.629 217.657C381.942 217.639 382.254 217.621 382.132 217.315L382.12 217.106C382.322 216.99 382.849 217.064 383.162 217.046L383.278 217.249C383.394 217.451 383.192 217.567 382.879 217.585C382.891 217.794 383.008 217.996 383.216 217.984L383.314 217.874C383.511 217.654 383.603 217.439 383.805 217.323L384.008 217.207C384.32 217.189 384.639 217.275 384.645 217.379C384.651 217.483 384.994 217.986 385.318 218.177C385.637 218.263 386.452 217.902 386.452 217.902C386.452 217.902 386.875 217.982 387.194 218.069C387.512 218.155 388.444 217.996 388.34 218.002C388.242 218.113 388.057 218.541 388.069 218.75L388.081 218.958L388.099 219.271C388.117 219.583 388.344 219.884 388.552 219.872C388.767 219.964 389.306 220.247 389.324 220.559C389.336 220.768 388.624 221.122 388.612 220.914C388.6 220.705 388.472 220.295 388.374 220.405C388.276 220.515 388.091 220.944 388.103 221.152C388.115 221.361 388.765 221.741 388.967 221.625C389.274 221.503 389.997 221.357 389.905 221.571C389.813 221.786 389.935 222.092 389.947 222.301C390.057 222.399 390.191 222.914 390.302 223.012L390.406 223.006C390.718 222.988 390.835 223.19 390.638 223.411L390.546 223.625C390.227 223.539 389.903 223.349 389.793 223.25C389.793 223.25 389.572 223.054 389.584 223.262C389.596 223.471 389.406 223.795 389.191 223.703C389.075 223.501 388.953 223.194 388.947 223.09C388.941 222.986 388.616 222.795 388.518 222.906C388.42 223.016 388.229 223.34 388.131 223.451C387.929 223.567 387.432 224.014 386.911 224.044L386.488 223.963L386.065 223.883C385.544 223.913 385.023 223.943 385.017 223.839C384.907 223.741 384.588 223.655 384.49 223.765C384.392 223.875 383.883 224.114 383.785 224.224C383.687 224.334 383.16 224.26 382.957 224.376C382.755 224.492 381.909 224.332 381.707 224.448C381.504 224.564 380.751 224.19 380.438 224.208C380.23 224.22 379.304 224.482 378.985 224.396L378.673 224.414L378.464 224.426C378.152 224.444 377.839 224.462 377.839 224.462C377.735 224.468 376.901 224.516 375.97 224.674C375.136 224.722 372.641 224.971 372.329 224.989C372.01 224.903 370.876 225.177 370.355 225.207L369.932 225.127L369.613 225.041C369.411 225.157 369.104 225.279 368.902 225.395L368.792 225.297L368.038 224.922C367.106 225.081 366.169 225.135 365.856 225.153C365.543 225.171 364.403 225.341 364.091 225.359C363.778 225.377 362.632 225.443 362.215 225.467C361.902 225.485 360.959 225.435 360.872 225.754L360.339 225.575L359.916 225.495C359.506 225.623 358.985 225.653 358.562 225.573L358.255 225.695L357.949 225.818C357.63 225.731 357.219 225.86 357.121 225.97C356.919 226.086 356.165 225.711 355.841 225.521C355.418 225.441 354.197 226.034 353.885 226.052C353.468 226.076 352.426 226.136 352.211 226.044C351.997 225.952 351.28 226.202 351.071 226.214C350.863 226.226 350.133 226.268 349.931 226.384C349.729 226.5 349.097 226.432 348.889 226.444C348.681 226.456 347.951 226.498 347.743 226.51C347.534 226.522 347.001 226.344 347.001 226.344C347.001 226.344 346.278 226.49 345.456 226.747C344.739 226.997 343.164 226.879 342.956 226.891C342.747 226.903 341.815 227.061 341.398 227.085C340.883 227.219 339.088 226.905 338.359 226.947C337.629 226.989 335.673 227.52 335.569 227.526C335.465 227.532 334.724 227.365 334.092 227.297L333.589 227.64C333.387 227.756 333.154 227.351 332.964 227.676L332.872 227.89C332.651 227.694 331.395 227.662 330.139 227.63L328.998 227.8L328.686 227.818C328.373 227.836 327.846 227.762 327.429 227.786L327.331 227.896C327.037 228.227 326.902 227.712 326.706 227.932C326.405 228.159 326.075 227.864 325.762 227.882L325.45 227.9C325.143 228.022 324.732 228.15 324.53 228.267C324.327 228.383 323.586 228.216 323.377 228.229C323.175 228.345 322.317 227.976 322.109 227.988C321.895 227.896 321.293 228.349 321.293 228.349C321.293 228.349 320.558 228.286 319.823 228.224L319.099 228.371L318.793 228.493C318.376 228.517 317.965 228.645 317.757 228.657C317.554 228.773 316.696 228.405 316.286 228.533C315.869 228.557 314.312 228.751 313.889 228.671L313.49 229.007L313.392 229.118C313.073 229.032 312.234 228.975 311.504 229.017C310.775 229.059 308.917 229.48 308.703 229.388C308.489 229.296 307.881 229.644 307.673 229.656C307.471 229.773 307.042 229.588 306.937 229.594C306.937 229.594 306.527 229.722 306.22 229.845L305.907 229.863L305.699 229.875C305.485 229.783 305.068 229.807 304.755 229.825L304.553 229.941L304.252 230.167C303.934 230.081 303.407 230.007 303.302 230.013C303.094 230.025 302.475 230.165 302.383 230.38C302.18 230.496 301.543 230.323 301.329 230.231C301.12 230.243 300.617 230.586 300.305 230.604C299.992 230.622 299.054 230.676 298.846 230.688C298.533 230.706 297.399 230.98 296.774 231.016C296.154 231.157 294.175 231.271 293.862 231.289C293.549 231.307 292.525 231.679 292.213 231.697C292.004 231.71 291.079 231.972 290.766 231.99C290.453 232.008 289.423 232.276 289.111 232.294C288.798 232.313 287.774 232.685 287.468 232.807C287.057 232.936 285.702 233.014 285.285 233.038C284.869 233.062 283.74 233.44 283.538 233.557C283.434 233.563 282.809 233.599 282.6 233.611C282.392 233.623 281.778 233.867 281.576 233.983C281.368 233.995 280.442 234.258 279.927 234.392C279.412 234.526 277.658 234.941 277.143 235.075C276.628 235.209 275.298 235.704 275.083 235.612C274.869 235.52 274.47 235.856 274.262 235.868C274.158 235.874 273.649 236.113 273.44 236.125C273.232 236.137 272.729 236.48 272.52 236.492C272.312 236.504 271.595 236.754 271.19 236.986C270.779 237.115 269.448 237.609 269.038 237.738C268.627 237.866 266.885 238.489 266.174 238.844L265.451 238.99L265.138 239.008C264.727 239.136 264.316 239.264 264.114 239.381C263.912 239.497 263.397 239.631 263.188 239.643C262.98 239.655 262.262 239.905 262.048 239.813C261.735 239.831 260.306 240.436 259.282 240.809L258.24 240.869C257.928 240.887 257.615 240.905 257.407 240.917C257.1 241.039 256.794 241.162 256.487 241.284L256.279 241.296C255.96 241.21 255.647 241.228 255.445 241.344C255.243 241.46 254.501 241.294 254.287 241.201C254.072 241.109 253.441 241.041 253.331 240.943C253.227 240.949 252.81 240.973 252.706 240.979C252.596 240.881 251.982 241.125 251.884 241.235C251.786 241.346 250.836 241.191 250.095 241.025L249.457 240.853L249.353 240.859C249.341 240.65 249.237 240.656 249.139 240.766C249.041 240.877 248.317 241.023 247.79 240.949C247.361 240.764 246.155 239.788 245.923 239.384L245.291 239.316L244.973 239.229C244.734 238.72 244.392 238.217 244.276 238.015C244.159 237.813 243.602 237.218 243.272 236.923C242.947 236.733 242.899 235.899 242.789 235.801C242.789 235.801 242.47 235.715 242.36 235.616C242.256 235.622 241.809 235.126 241.472 234.727L240.835 234.554C240.302 234.376 239.861 233.983 239.328 233.805C239.218 233.707 238.917 233.933 238.709 233.945C238.396 233.963 237.98 233.987 237.673 234.109L237.262 234.238C236.851 234.366 236.447 234.598 236.238 234.61C236.03 234.622 235.509 234.652 235.294 234.56C235.08 234.468 234.687 234.909 234.473 234.817L234.16 234.835C233.848 234.853 233.425 234.772 233.118 234.895L232.499 235.035C231.88 235.175 231.162 235.426 230.85 235.444C230.641 235.456 230.359 235.995 230.156 236.111C229.948 236.123 229.23 236.373 229.022 236.385C228.814 236.397 227.992 236.654 227.685 236.776C227.379 236.898 226.239 237.068 226.239 237.068C226.134 237.074 226.042 237.289 225.84 237.405C225.637 237.521 224.92 237.772 224.718 237.888C224.515 238.004 223.583 238.162 223.277 238.285C222.97 238.407 221.952 238.884 221.744 238.896C221.535 238.908 220.922 239.152 220.493 238.968L220.634 239.587C220.634 239.587 220.535 239.697 220.431 239.703L220.014 239.727C219.714 239.954 219.205 240.192 218.898 240.314C218.592 240.436 217.666 240.699 217.255 240.827C216.948 240.949 216.023 241.212 215.82 241.328C215.716 241.334 215.317 241.671 215.097 241.474C214.876 241.278 214.397 242.037 214.299 242.147L214.195 242.153C213.668 242.079 213.269 242.416 212.858 242.544L212.656 242.66C212.454 242.776 212.251 242.893 212.147 242.899C212.043 242.905 211.84 243.021 211.846 243.125C211.852 243.229 211.325 243.155 211.221 243.161C211.117 243.167 210.492 243.203 210.179 243.221L210.105 243.748L210.013 243.963C209.492 243.993 208.873 244.133 208.462 244.261C208.045 244.285 207.137 244.86 207.033 244.866C206.929 244.872 205.887 244.932 205.053 244.98L204.789 245.832L204.702 246.15C204.482 245.954 204.163 245.868 203.857 245.99C203.55 246.112 202.63 246.479 202.434 246.699L202.097 246.301C202.097 246.301 201.785 246.319 201.791 246.423L201.288 246.765C200.773 246.9 200.16 247.144 199.853 247.266C199.651 247.382 198.707 247.332 198.412 247.663L197.891 247.693C197.578 247.711 198.025 248.208 197.498 248.134L197.29 248.146C197.081 248.158 196.775 248.28 196.677 248.39C196.578 248.5 196.15 248.316 195.947 248.432C195.745 248.548 195.248 248.995 195.051 249.216L194.518 249.037L194.414 249.043C194.114 249.27 193.709 249.502 193.5 249.514L193.292 249.526L193.084 249.538C192.771 249.556 191.845 249.819 191.024 250.075L190.312 250.43C190.214 250.54 190.116 250.65 189.901 250.558L189.681 250.362C189.589 250.576 189.288 250.802 189.086 250.919L188.877 250.931L188.461 250.955C188.056 251.187 187.749 251.309 187.755 251.413C187.755 251.413 187.24 251.548 186.725 251.682L186.32 251.914L185.916 252.147C185.407 252.385 184.886 252.415 184.781 252.421C184.671 252.323 184.26 252.451 184.15 252.353C184.04 252.255 183.862 252.788 183.653 252.8L183.445 252.812L183.341 252.818C183.23 252.72 182.924 252.842 182.727 253.062L182.421 253.184C182.114 253.307 181.808 253.429 181.495 253.447L181.287 253.459C181.084 253.575 180.784 253.802 180.489 254.132C180.188 254.359 179.024 254.112 178.816 254.124C178.607 254.136 178.104 254.479 177.798 254.601C177.589 254.613 176.768 254.869 176.559 254.881C176.351 254.893 175.964 255.438 175.756 255.45C175.547 255.462 174.812 255.4 174.597 255.308C174.487 255.21 174.1 255.755 173.794 255.877C173.591 255.993 173.273 255.907 173.163 255.809C173.052 255.711 172.439 255.955 172.237 256.071C172.034 256.188 171.415 256.328 171.305 256.23C171.195 256.131 170.582 256.376 170.483 256.486C170.049 256.197 169.858 256.522 169.656 256.638C169.552 256.644 169.349 256.761 169.245 256.767C169.147 256.877 168.712 256.588 168.608 256.594C168.602 256.49 168.283 256.404 168.087 256.624C167.89 256.845 167.149 256.678 167.253 256.672C167.357 256.666 167.137 256.47 166.83 256.592C166.524 256.714 165.672 256.45 165.568 256.456C165.359 256.468 164.734 256.504 164.526 256.516C164.317 256.528 163.067 256.6 162.129 256.654C161.191 256.708 158.973 256.313 158.857 256.111C158.741 255.908 157.693 255.864 157.27 255.784L157.049 255.588L156.823 255.287C156.394 255.103 156.07 254.912 156.064 254.808C156.058 254.704 155.635 254.624 155.42 254.532C155.206 254.44 154.655 253.949 154.434 253.752C154.22 253.66 154.178 252.931 154.068 252.832C153.952 252.63 153.603 252.023 153.701 251.913C153.799 251.803 153.266 251.624 153.266 251.624C153.457 251.3 153.23 250.999 152.807 250.919L152.593 250.827C152.587 250.722 152.789 250.606 152.986 250.386L152.974 250.177L152.968 250.073C153.158 249.749 153.048 249.65 152.846 249.767C152.643 249.883 152.134 250.121 152.134 250.121C152.134 250.121 152.313 249.588 152.301 249.38C152.393 249.166 151.946 248.669 151.836 248.57C151.726 248.472 151.707 248.16 151.389 248.073L151.383 247.969L151.463 247.547C151.237 247.246 150.992 246.633 150.864 246.222C150.736 245.811 149.946 244.811 149.83 244.609L149.714 244.407L149.592 244.1C149.365 243.799 148.999 242.88 148.644 242.168L148.638 242.064C148.62 241.752 148.706 241.433 148.59 241.231L148.223 240.311C148.372 239.257 148.317 238.319 148.311 238.215L148.305 238.111L148.293 237.902C148.386 237.688 148.46 237.161 148.54 236.738L149.43 235.851C149.424 235.746 149.418 235.642 149.51 235.428C149.608 235.318 149.376 234.913 149.48 234.907C149.578 234.797 149.953 234.043 150.241 233.608L150.426 233.18C150.512 232.861 150.598 232.542 150.905 232.42L151.304 232.084C151.28 231.667 151.256 231.25 151.464 231.238C151.672 231.226 151.979 231.104 151.869 231.006C151.765 231.012 151.44 230.821 151.544 230.815C151.648 230.809 151.851 230.693 151.845 230.589C151.845 230.589 151.624 230.392 151.52 230.398C151.306 230.306 150.588 230.557 150.282 230.679C149.975 230.801 148.853 231.284 148.442 231.412C148.031 231.54 147.019 232.122 146.915 232.128L146.811 232.134L145.787 232.506C145.584 232.622 145.382 232.739 145.075 232.861L144.873 232.977C144.671 233.093 144.468 233.209 144.48 233.418L144.168 233.436L143.959 233.448C143.757 233.564 143.242 233.698 142.831 233.826C142.42 233.955 141.108 234.762 140.801 234.884L140.494 235.007L140.292 235.123C140.09 235.239 139.476 235.483 139.078 235.82C138.673 236.052 137.048 236.878 136.643 237.11C136.238 237.343 134.913 237.942 134.711 238.058C134.613 238.168 133.901 238.523 133.699 238.639C133.497 238.755 132.675 239.012 132.473 239.128C132.166 239.25 131.449 239.501 131.455 239.605C131.461 239.709 131.062 240.046 130.455 240.394C129.842 240.639 127.707 241.702 126.892 242.063L126.297 242.62C126.002 242.951 125.707 243.281 125.309 243.618L124.904 243.85C124.505 244.187 123.904 244.64 123.505 244.976C123.106 245.313 121.782 245.912 121.579 246.028C121.377 246.144 120.868 246.383 120.549 246.297L120.341 246.309L119.918 246.229C119.391 246.154 118.876 246.289 118.674 246.405C118.471 246.521 117.828 246.244 117.828 246.244C117.828 246.244 117.417 246.373 117.104 246.391L117.191 246.072C117.185 245.968 117.283 245.858 117.277 245.754C117.363 245.435 117.553 245.11 116.922 245.042C116.604 244.956 116.175 244.772 116.151 244.355C116.139 244.147 116.029 244.048 115.716 244.066L115.502 243.974C115.385 243.772 114.828 243.177 114.283 242.79L114.56 242.147C114.456 242.153 114.125 241.858 113.69 241.57L113.66 241.049L113.636 240.632C113.299 240.233 112.951 239.626 112.829 239.319C112.706 239.013 112.867 238.167 112.965 238.057L112.64 237.867L112.628 237.658L112.726 237.548C112.929 237.432 112.917 237.223 112.807 237.125L113.003 236.905C113.101 236.795 113.199 236.684 113.187 236.476C113.181 236.372 113.065 236.169 113.163 236.059C113.256 235.845 113.458 235.729 113.556 235.618L113.851 235.288C114.145 234.957 114.33 234.528 114.214 234.326C114.097 234.124 114.821 233.977 114.913 233.763C115.011 233.653 115.624 233.408 115.624 233.408C115.618 233.304 115.809 232.98 116.011 232.863C116.207 232.643 116.815 232.294 116.815 232.294C116.913 232.184 117.005 231.97 117.103 231.86C117.097 231.755 117.502 231.523 117.698 231.303C117.999 231.076 119.023 230.704 119.231 230.692C119.44 230.679 119.722 230.141 119.925 230.024C120.127 229.908 120.52 229.467 120.526 229.571C120.532 229.676 120.746 229.768 120.728 229.455C120.716 229.247 121.624 228.672 122.023 228.335L122.556 228.514L122.758 228.397C122.955 228.177 123.053 228.067 123.145 227.852C123.342 227.632 123.452 227.73 123.666 227.822C123.985 227.909 124.297 227.891 123.857 227.498C123.857 227.498 124.053 227.277 124.255 227.161C124.36 227.155 124.574 227.247 124.678 227.241L125.273 226.684C126.199 226.422 127.015 226.061 127.003 225.853L127.101 225.743C127.205 225.737 127.524 225.823 127.738 225.915L127.83 225.701L127.824 225.596C127.604 225.4 127.696 225.186 127.8 225.18C128.009 225.168 128.628 225.027 128.732 225.021C128.941 225.009 129.536 224.452 129.726 224.128L130.027 223.901L130.229 223.785C130.646 223.761 131.369 223.615 131.989 223.475L132.167 222.942C132.167 222.942 132.375 222.93 132.48 222.924C132.688 222.912 132.902 223.004 133.001 222.894L133.203 222.777C133.191 222.569 133.393 222.453 133.602 222.441L133.81 222.429C134.013 222.313 134.319 222.19 134.522 222.074L134.724 221.958C134.92 221.738 135.123 221.621 135.227 221.615C135.331 221.609 135.638 221.487 135.834 221.267L136.043 221.255L136.251 221.243C136.465 221.335 136.882 221.311 136.986 221.305L137.085 221.195L137.287 221.078C137.483 220.858 137.582 220.748 137.68 220.638C137.778 220.527 137.986 220.515 138.201 220.608L138.305 220.602L138.728 220.682C139.028 220.455 139.746 220.205 140.157 220.077L140.457 219.85L140.66 219.734C140.856 219.514 141.169 219.496 141.383 219.588C141.493 219.686 141.886 219.245 142.094 219.233C142.303 219.221 142.922 219.081 143.124 218.965C143.327 218.849 143.866 219.131 143.97 219.125C144.074 219.119 144.687 218.875 145.092 218.642L145.509 218.618C145.822 218.6 146.134 218.582 146.447 218.564C146.76 218.546 146.76 218.546 146.748 218.338L146.742 218.234C146.84 218.123 146.944 218.117 147.158 218.21C147.373 218.302 147.876 217.959 147.98 217.953C148.084 217.947 149.23 217.881 150.168 217.827C151.106 217.773 153.527 218.052 153.631 218.046C153.735 218.04 154.158 218.12 154.372 218.212L154.679 218.09C154.777 217.979 155.096 218.066 155.304 218.054C155.721 218.03 156.046 218.22 156.444 217.883C156.873 218.068 157.192 218.154 157.186 218.05C157.18 217.945 157.903 217.799 158.222 217.885C158.54 217.972 159.294 218.346 159.514 218.543C159.735 218.739 160.574 218.795 160.678 218.789C160.783 218.783 161.107 218.974 161.432 219.164C161.757 219.354 162.534 220.146 162.436 220.256C162.338 220.366 162.778 220.759 162.889 220.857C162.999 220.955 163.335 221.354 163.446 221.452C163.556 221.551 163.794 222.06 163.806 222.268C163.818 222.476 164.069 223.194 164.167 223.083C164.265 222.973 164.369 222.967 164.381 223.176C164.393 223.384 164.754 224.2 164.668 224.518C164.582 224.837 165.047 225.646 165.279 226.051C165.511 226.456 166.099 227.572 166.313 227.664C166.521 227.652 167.299 228.444 167.513 228.536C167.728 228.628 167.549 229.161 167.659 229.259C167.77 229.357 168.1 229.652 168.106 229.756C168.008 229.866 168.13 230.173 168.136 230.277C168.247 230.375 168.521 231.509 168.846 231.7L168.325 231.73C168.331 231.834 168.238 232.048 168.244 232.153C168.25 232.257 168.292 232.986 168.421 233.397L168.126 233.727C167.93 233.948 167.85 234.371 167.868 234.683L167.88 234.892C167.677 235.008 167.383 235.338 167.186 235.559L167.094 235.773L167.002 235.988C166.916 236.306 166.725 236.631 166.627 236.741C166.529 236.851 166.246 237.39 166.252 237.494C166.264 237.703 166.074 238.027 166.092 238.34C166.104 238.548 165.288 238.909 165.3 239.117C165.312 239.326 164.833 240.085 164.637 240.306C164.447 240.63 163.783 241.818 163.605 242.351L163.316 242.786C163.028 243.221 162.739 243.656 162.451 244.091L162.352 244.201C162.364 244.409 162.787 244.489 163.302 244.355C163.817 244.221 165.074 244.253 165.178 244.247L165.27 244.033L165.356 243.714C165.571 243.806 165.889 243.892 165.987 243.782C166.086 243.672 166.705 243.532 167.017 243.514C167.434 243.49 168.14 243.031 168.256 243.233C168.372 243.436 169.083 243.081 169.494 242.953C169.905 242.825 170.807 242.145 171.015 242.133C171.224 242.121 171.831 241.773 172.039 241.761C172.248 241.749 172.757 241.51 172.861 241.504C172.959 241.394 173.388 241.578 173.492 241.572C173.596 241.566 173.793 241.346 174.001 241.334C174.099 241.224 174.62 241.194 174.829 241.182C175.037 241.17 175.945 240.595 176.76 240.234L177.588 240.082L178.109 240.052C178.728 239.912 179.243 239.777 179.446 239.661L179.544 239.551L179.845 239.324C180.261 239.3 180.672 239.172 180.77 239.062C180.869 238.952 181.065 238.731 181.169 238.725C181.273 238.719 181.69 238.695 181.788 238.585C181.893 238.579 182.396 238.237 182.586 237.912L183.027 238.305C183.027 238.305 183.235 238.293 183.333 238.183L184.726 236.952Z" fill="#5D5FEF"/>
<path d="M91.182 160.26V124.66H84.082C82.9487 124.66 82.1487 123.227 81.682 120.36C81.482 118.96 81.382 117.527 81.382 116.06C81.382 114.593 81.482 113.16 81.682 111.76C82.1487 108.893 82.9487 107.46 84.082 107.46H117.682C118.815 107.46 119.582 108.893 119.982 111.76C120.249 113.16 120.382 114.593 120.382 116.06C120.382 117.527 120.249 118.96 119.982 120.36C119.582 123.227 118.815 124.66 117.682 124.66H110.982V160.26H117.982C119.115 160.26 119.915 161.693 120.382 164.56C120.649 165.96 120.782 167.393 120.782 168.86C120.782 170.327 120.649 171.76 120.382 173.16C119.915 176.027 119.115 177.46 117.982 177.46H84.282C83.1487 177.46 82.382 176.027 81.982 173.16C81.7154 171.76 81.582 170.327 81.582 168.86C81.582 167.393 81.7154 165.96 81.982 164.56C82.382 161.693 83.1487 160.26 84.282 160.26H91.182ZM182.253 175.26C182.253 176.66 179.12 177.36 172.853 177.36C166.586 177.36 163.186 176.86 162.653 175.86L145.953 144.66V175.76C145.953 176.96 142.853 177.56 136.653 177.56C130.52 177.56 127.453 176.96 127.453 175.76V108.86C127.453 107.86 130.086 107.36 135.353 107.36C137.42 107.36 139.82 107.56 142.553 107.96C145.353 108.293 147.053 108.96 147.653 109.96L163.653 140.76V109.36C163.653 108.093 166.753 107.46 172.953 107.46C179.153 107.46 182.253 108.093 182.253 109.36V175.26ZM188.197 168.46C188.197 166.527 188.764 164.293 189.897 161.76C191.03 159.16 192.264 157.393 193.597 156.46C196.13 158.327 198.697 159.26 201.297 159.26L204.397 158.76C207.997 157.693 209.864 154.827 209.997 150.16V124.66H201.997C200.864 124.66 200.064 123.227 199.597 120.36C199.397 118.96 199.297 117.527 199.297 116.06C199.297 114.593 199.397 113.16 199.597 111.76C200.064 108.893 200.864 107.46 201.997 107.46H225.797C227.13 107.46 228.13 107.86 228.797 108.66C229.464 109.393 229.797 110.293 229.797 111.36V158.56C229.797 165.093 227.597 170.06 223.197 173.46C218.864 176.86 213.63 178.56 207.497 178.56C201.43 178.56 196.697 177.66 193.297 175.86C189.897 174.06 188.197 171.593 188.197 168.46ZM285.488 177.66C279.688 177.66 276.555 176.727 276.088 174.86L272.788 161.96H256.888L253.988 174.36C253.588 176.427 250.388 177.46 244.388 177.46C241.188 177.46 238.822 177.293 237.288 176.96C235.755 176.56 234.988 176.26 234.988 176.06L252.688 108.36C252.688 107.827 257.255 107.56 266.388 107.56C275.522 107.56 280.088 107.827 280.088 108.36L297.388 176.16C297.388 176.627 295.855 176.993 292.788 177.26C289.722 177.527 287.288 177.66 285.488 177.66ZM259.388 149.26H269.888L265.388 128.56H264.788L259.388 149.26ZM306.616 153.06C307.882 154.06 310.049 155.427 313.116 157.16C316.249 158.893 319.216 159.76 322.016 159.76C324.882 159.76 326.316 158.66 326.316 156.46C326.316 155.46 325.916 154.593 325.116 153.86C324.316 153.06 322.849 152.16 320.716 151.16C318.582 150.16 316.982 149.393 315.916 148.86C314.849 148.26 313.416 147.327 311.616 146.06C309.882 144.727 308.549 143.36 307.616 141.96C304.949 138.16 303.616 133.327 303.616 127.46C303.616 121.593 305.782 116.66 310.116 112.66C314.516 108.593 320.249 106.56 327.316 106.56C332.116 106.56 336.549 107.093 340.616 108.16C344.682 109.16 346.782 110.493 346.916 112.16C346.916 112.36 346.916 112.56 346.916 112.76C346.916 115.093 346.182 118.06 344.716 121.66C343.249 125.193 342.216 127.16 341.616 127.56C337.349 125.36 333.516 124.26 330.116 124.26C326.782 124.26 325.116 125.46 325.116 127.86C325.116 129.327 326.349 130.627 328.816 131.76C329.349 132.027 330.116 132.393 331.116 132.86C332.116 133.327 333.249 133.893 334.516 134.56C335.849 135.16 337.249 135.96 338.716 136.96C340.249 137.893 341.882 139.16 343.616 140.76C347.149 144.093 348.916 148.493 348.916 153.96C348.916 161.093 346.949 166.927 343.016 171.46C339.082 175.993 333.016 178.327 324.816 178.46C320.816 178.46 317.182 178.127 313.916 177.46C310.716 176.793 307.916 175.493 305.516 173.56C303.116 171.627 301.916 169.293 301.916 166.56C301.916 163.827 302.416 161.127 303.416 158.46C304.416 155.727 305.482 153.927 306.616 153.06Z" fill="white"/>
<path d="M72.0801 94.2913L73.1736 145.971L31.1519 151.135L27.8402 151.52L4.68921 154.279L3.5957 101.734C3.5957 100.45 6.8762 99.3811 13.4372 98.5257C16.4472 98.2133 19.4733 98.0954 22.4976 98.1728C25.9656 98.1728 28.0901 98.8465 28.7462 100.033L49.7414 137.341L48.8666 97.0501C48.8666 95.414 52.7095 94.1309 60.4577 93.2327C68.206 92.3345 72.0801 92.6873 72.0801 94.2913Z" fill="white"/>
</svg>
