<svg width="40" height="40" viewBox="0 0 40 40" fill="none" xmlns="http://www.w3.org/2000/svg">
<path d="M19.9999 2.35986C15.3216 2.36082 10.8351 4.22742 7.52695 7.54927C4.21876 10.8711 2.35967 15.3763 2.3584 20.0743C2.3584 28.8451 8.71809 36.1147 17.0567 37.5199V23.7643H12.8085V18.8191H17.0567V15.1651C17.0567 10.9339 19.6283 8.62146 23.3901 8.62146C24.6586 8.61673 25.9264 8.68243 27.1877 8.81826V13.2463H24.585C22.5392 13.2463 22.1473 14.2183 22.1473 15.6571V18.8191H27.0228L26.3775 23.7643H22.1437V37.6399C30.8671 36.5695 37.639 29.1271 37.639 20.0743C37.6381 15.3766 35.7794 10.8716 32.4717 7.54977C29.1639 4.22792 24.6779 2.36114 19.9999 2.35986V2.35986Z" fill="white"/>
</svg>
