<svg width="40" height="40" viewBox="0 0 40 40" fill="none" xmlns="http://www.w3.org/2000/svg">
<path fill-rule="evenodd" clip-rule="evenodd" d="M7.43066 2.43115C4.66924 2.43115 2.43066 4.66973 2.43066 7.43115V32.5686C2.43066 35.33 4.66924 37.5686 7.43066 37.5686H32.5681C35.3295 37.5686 37.5681 35.33 37.5681 32.5686V7.43115C37.5681 4.66973 35.3295 2.43115 32.5681 2.43115H7.43066ZM29.8832 22.6282L29.8764 29.8752L25.7937 29.882V23.4584C25.7937 21.9263 25.7601 19.9626 23.6613 19.9626C21.5289 19.9626 21.2055 21.6225 21.2055 23.3435V29.8752H17.1161V16.6833H21.0415V18.485H21.102C21.6485 17.4456 22.985 16.3525 24.9756 16.3525C29.1208 16.3525 29.8832 19.0853 29.8832 22.6282ZM10.4474 16.6835H14.5435V29.8754H10.4474V16.6835ZM10.8131 10.8141C11.2583 10.3688 11.8619 10.1183 12.4916 10.1174C13.1212 10.1183 13.7248 10.3688 14.17 10.8141C14.6153 11.2593 14.8658 11.8629 14.8667 12.4925C14.8667 13.8021 13.8005 14.8905 12.4916 14.8905C11.1826 14.8905 10.1164 13.8021 10.1164 12.4925C10.1173 11.8629 10.3678 11.2593 10.8131 10.8141Z" fill="white"/>
</svg>
