<svg width="40" height="40" viewBox="0 0 40 40" fill="none" xmlns="http://www.w3.org/2000/svg">
<path d="M36.7254 12.6987C36.6453 10.8213 36.3592 9.52064 35.9472 8.40066C35.5239 7.21671 34.8599 6.14438 34.0016 5.25869C33.1626 4.36053 32.147 3.6663 31.0261 3.22466C29.9503 2.79112 28.7372 2.49005 26.9415 2.40575C25.1459 2.32145 24.5645 2.29736 20.005 2.29736C15.4456 2.29736 14.8676 2.32145 13.072 2.40575C11.2763 2.49005 10.0483 2.79112 8.98171 3.22466C7.85641 3.66972 6.83729 4.36849 5.99584 5.27194C5.1423 6.15489 4.48256 7.22356 4.06287 8.40307C3.65086 9.53509 3.36475 10.8116 3.28464 12.7012C3.20453 14.5907 3.18164 15.1904 3.18164 20.0063C3.18164 24.8222 3.20453 25.4111 3.28464 27.3019C3.36475 29.1926 3.65086 30.4775 4.06287 31.5999C4.49405 32.7768 5.15471 33.8456 6.00229 34.7375C6.84987 35.6294 7.86558 36.3246 8.984 36.7783C10.0598 37.2119 11.2729 37.513 13.0685 37.5973C14.8642 37.6816 15.4364 37.7056 20.0016 37.7056C24.5668 37.7056 25.1379 37.6816 26.9347 37.5973C28.7315 37.513 29.9549 37.2119 31.0192 36.7783C32.1379 36.3251 33.1539 35.6301 34.0015 34.7382C34.8492 33.8462 35.5097 32.7771 35.9403 31.5999C36.3523 30.4679 36.6385 29.1793 36.7186 27.3019C36.7987 25.4244 36.8216 24.8102 36.8216 19.9943C36.8216 15.1784 36.8055 14.5895 36.7254 12.6987ZM33.6938 27.1573C33.6251 28.8903 33.3505 29.8176 33.1101 30.4438C32.8313 31.2077 32.4031 31.9014 31.8532 32.48C31.3034 33.0586 30.6442 33.5092 29.9183 33.8026C29.3231 34.0434 28.4305 34.3325 26.7951 34.4168C25.0212 34.5011 24.4844 34.5251 19.9993 34.5251C15.5142 34.5251 14.9763 34.5011 13.2036 34.4168C11.5556 34.3445 10.6755 34.0555 10.0804 33.8026C9.34947 33.5191 8.68847 33.0664 8.14626 32.4779C7.58948 31.9056 7.15962 31.2111 6.88737 30.4438C6.65848 29.8176 6.38381 28.8783 6.3037 27.1573C6.22359 25.2919 6.2007 24.7259 6.2007 20.0063C6.2007 15.2867 6.22359 14.7207 6.3037 12.8553C6.37236 11.1223 6.64703 10.195 6.88737 9.56881C7.15682 8.80009 7.58706 8.10494 8.14626 7.53478C8.69046 6.9488 9.35088 6.49647 10.0804 6.21007C10.6755 5.96922 11.5682 5.68019 13.2036 5.59589C14.9763 5.51159 15.5142 5.4875 19.9993 5.4875C24.4844 5.4875 25.0212 5.51159 26.7951 5.59589C28.4419 5.66815 29.3231 5.95717 29.9183 6.21007C30.649 6.49325 31.3096 6.94603 31.8512 7.53478C32.4083 8.10678 32.8382 8.80139 33.1101 9.56881C33.339 10.195 33.6137 11.1344 33.6938 12.8553C33.7739 14.7207 33.7968 15.2867 33.7968 20.0063C33.7968 24.7259 33.7739 25.2919 33.6938 27.1573Z" fill="white"/>
<path d="M20.0042 10.9058C18.2959 10.9046 16.6257 11.4365 15.2047 12.4341C13.7837 13.4318 12.6758 14.8505 12.021 16.5108C11.3662 18.1711 11.194 19.9984 11.5262 21.7617C11.8583 23.525 12.6799 25.145 13.8871 26.4169C15.0942 27.6888 16.6326 28.5555 18.3078 28.9074C19.9831 29.2592 21.7198 29.0805 23.2985 28.3936C24.8772 27.7068 26.2268 26.5429 27.1768 25.0489C28.1268 23.5549 28.6345 21.7981 28.6356 20.0005C28.6364 18.8069 28.4137 17.6249 27.9804 16.5219C27.547 15.4189 26.9114 14.4166 26.1099 13.572C25.3084 12.7275 24.3567 12.0574 23.3091 11.5999C22.2614 11.1424 21.1385 10.9066 20.0042 10.9058V10.9058ZM20.0042 25.893C18.8951 25.893 17.8109 25.547 16.8887 24.8985C15.9665 24.2501 15.2477 23.3285 14.8233 22.2503C14.3988 21.172 14.2878 19.9855 14.5042 18.8408C14.7205 17.6962 15.2546 16.6447 16.0389 15.8194C16.8232 14.9942 17.8224 14.4322 18.9102 14.2045C19.998 13.9768 21.1255 14.0936 22.1502 14.5403C23.1749 14.9869 24.0507 15.7432 24.6669 16.7137C25.2831 17.6841 25.612 18.825 25.612 19.9921C25.6131 20.7673 25.4687 21.5351 25.1873 22.2516C24.9058 22.968 24.4928 23.619 23.9719 24.1672C23.4509 24.7153 22.8323 25.15 22.1515 25.4461C21.4706 25.7423 20.7409 25.8942 20.0042 25.893Z" fill="white"/>
<path d="M31.005 10.5443C31.005 10.9635 30.8869 11.3733 30.6656 11.7219C30.4442 12.0704 30.1297 12.3421 29.7616 12.5025C29.3935 12.663 28.9886 12.7049 28.5978 12.6231C28.2071 12.5414 27.8482 12.3395 27.5665 12.0431C27.2848 11.7467 27.093 11.369 27.0153 10.9578C26.9375 10.5467 26.9774 10.1205 27.1299 9.73323C27.2823 9.34593 27.5405 9.01491 27.8717 8.78201C28.203 8.54911 28.5924 8.4248 28.9908 8.4248C29.5248 8.42544 30.0368 8.64895 30.4144 9.04631C30.792 9.44366 31.0044 9.9824 31.005 10.5443V10.5443Z" fill="white"/>
</svg>
