<svg width="230" height="180" viewBox="0 0 230 180" fill="none" xmlns="http://www.w3.org/2000/svg">
<path fill-rule="evenodd" clip-rule="evenodd" d="M66.0303 91.3245H64.2967L65.0402 87.7091H66.2304C67.9632 87.7091 69.1035 87.9346 69.1035 89.3419C69.1035 90.5471 67.9632 91.3245 66.0303 91.3245ZM64.0233 98.607H62.7851L63.6273 94.4891H64.7418C66.823 94.4891 67.9141 94.718 67.9141 96.2495C67.9141 97.9543 66.351 98.607 64.0233 98.607V98.607ZM79.1867 99.2118C81.0931 99.2118 82.2338 97.8831 82.5544 96.1221C82.1839 96.0467 81.6377 96.0467 81.3654 96.0467C79.2335 95.9755 77.6747 96.753 77.6747 97.9054C77.6747 98.5057 78.2435 99.2118 79.1867 99.2118V99.2118ZM81.6377 88.5351C84.7105 88.5351 87.2403 89.7703 87.2403 92.9837C87.2403 95.0411 86.0977 97.9806 85.6015 101.926H81.9615L82.1601 100.09L82.1097 100.041V100.09C81.1677 101.599 79.5066 102.227 77.7726 102.227C74.9983 102.227 73.4589 100.968 73.4589 98.4349C73.4589 95.2176 76.6347 93.6372 80.5743 93.6372C81.4653 93.6372 82.3563 93.7084 82.9777 93.7607C83.0257 93.5842 83.0257 93.4116 83.0257 93.2355C83.0257 92.308 82.1097 91.5497 80.6465 91.5497C79.0397 91.5497 77.947 91.8009 76.46 92.5822L76.9051 89.2897C78.2197 88.8352 79.6311 88.5351 81.6377 88.5351V88.5351ZM99.1316 88.5351C96.7743 88.5351 95.4386 89.5152 94.1509 90.9716H94.1006L94.4485 88.8391H90.3108C90.1863 90.0181 89.9885 91.1252 89.7642 92.2553L87.7583 101.926H92.2156L93.4815 95.897C93.8029 93.9634 94.917 92.3043 96.8016 92.3043C98.0421 92.2553 98.5348 93.0324 98.5348 93.8097C98.5348 94.4891 98.3616 95.1424 98.2372 95.7957L96.9994 101.926H101.606L102.795 95.8218C103.069 94.4401 103.144 93.9372 103.144 93.059C103.144 90.4948 101.733 88.5351 99.1316 88.5351V88.5351ZM112.831 91.85C110.524 91.85 108.89 93.3591 108.89 96.0736C108.89 97.6313 110.079 98.9112 111.964 98.9112C113.078 98.9112 113.87 98.7351 114.838 98.3336L114.193 101.723C113.302 102.023 112.111 102.227 110.377 102.227C106.61 102.227 104.28 99.5383 104.28 96.2495C104.28 91.9514 107.653 88.5388 112.608 88.5388C113.697 88.5388 115.357 88.8613 116.67 89.4172L115.705 92.5555C114.785 92.1276 113.82 91.85 112.831 91.85V91.85ZM123.089 99.0616C121.577 99.0876 120.66 97.9054 120.66 96.1482C120.66 94.0609 121.996 91.7032 124.153 91.7032C125.887 91.7032 126.481 92.9837 126.481 94.3349C126.481 97.3006 125.169 99.0616 123.089 99.0616V99.0616ZM124.376 88.5351C119.321 88.5351 116.049 91.651 116.049 96.2495C116.049 99.5383 117.982 102.227 122.767 102.227C127.595 102.227 131.09 99.839 131.09 94.3878C131.09 91.0989 128.761 88.5351 124.376 88.5351V88.5351ZM144.122 94.8646L147.787 88.0099H147.837L148.582 94.8646H144.122ZM145.532 84.3904L135.25 101.926H140.257L142.311 98.1794H149.026L149.496 101.926H154.155L151.331 84.3904H145.532V84.3904ZM156.731 92.1539H162.256L155.22 98.5057L154.575 101.926H165.8L166.471 98.607H160.573L167.659 92.2553L168.349 88.8391H157.401L156.731 92.1539V92.1539ZM175.263 92.004L174.493 95.6415C174.294 96.621 174.125 97.2745 174.125 97.9054C174.125 98.7837 174.692 99.3616 175.583 99.3616C176.055 99.3616 176.552 99.163 177.024 98.9862L176.526 101.975C175.583 102.125 174.643 102.227 173.752 102.227C171.473 102.227 169.662 101.096 169.662 98.3599C169.662 97.7064 169.762 97.0531 170.06 95.6713L170.829 92.004H168.448L168.993 88.8391H171.545L172.166 86.0271L176.874 84.7434L175.981 88.8391H179.054L178.509 92.004H175.263V92.004ZM183.091 94.14C183.413 92.8822 184.454 91.5497 186.387 91.5497C188.022 91.5497 188.567 92.7321 188.567 94.14H183.091ZM186.339 88.5388C180.588 88.5388 178.607 93.2086 178.607 96.2495C178.607 99.5383 180.936 102.227 185.245 102.227C186.534 102.227 188.193 101.975 189.757 101.498L190.326 98.307C189.085 98.9112 187.476 99.2118 186.288 99.2118C183.562 99.2118 182.869 98.108 182.817 96.7001H191.96C192.135 95.9231 192.283 94.7668 192.283 94.2374C192.283 90.2693 189.731 88.5388 186.339 88.5388ZM201.922 91.85C199.615 91.85 197.978 93.3591 197.978 96.0736C197.978 97.6313 199.169 98.9112 201.054 98.9112C202.167 98.9112 202.961 98.7351 203.928 98.3336L203.281 101.723C202.392 102.023 201.202 102.227 199.467 102.227C195.7 102.227 193.371 99.5383 193.371 96.2495C193.371 91.9514 196.741 88.5388 201.698 88.5388C202.787 88.5388 204.447 88.8613 205.761 89.4172L204.796 92.5555C203.877 92.1276 202.911 91.85 201.922 91.85V91.85ZM210.716 99.2118C209.773 99.2118 209.203 98.5057 209.203 97.9054C209.203 96.753 210.765 95.9755 212.895 96.0467C213.167 96.0467 213.711 96.0467 214.083 96.1221C213.763 97.8831 212.623 99.2118 210.716 99.2118V99.2118ZM213.167 88.5351C211.16 88.5351 209.749 88.8352 208.435 89.2897L207.988 92.5822C209.475 91.8009 210.568 91.5497 212.176 91.5497C213.639 91.5497 214.554 92.308 214.554 93.2355C214.554 93.4116 214.554 93.5842 214.508 93.7607C213.886 93.7084 212.994 93.6372 212.104 93.6372C208.164 93.6372 204.988 95.2176 204.988 98.4349C204.988 100.968 206.529 102.227 209.303 102.227C211.038 102.227 212.697 101.599 213.639 100.09V100.041L213.687 100.09L213.489 101.926H217.131C217.627 97.9806 218.77 95.0411 218.77 92.9837C218.77 89.7703 216.241 88.5351 213.167 88.5351V88.5351ZM69.178 92.9085V92.8557C71.9036 92.5292 73.7109 90.769 73.7109 88.4113C73.7109 85.0959 70.6136 84.3942 68.8296 84.3942H61.1494L57.5312 101.922L65.4108 101.824C69.3758 101.776 72.5215 100.015 72.5215 96.2985C72.5215 94.3649 71.1609 93.2086 69.178 92.9085" fill="#626672"/>
<path fill-rule="evenodd" clip-rule="evenodd" d="M31.7353 87.1467C28.0524 87.1467 25.0605 90.177 25.0605 93.9152C25.0605 97.6555 28.0524 100.684 31.7353 100.684C35.426 100.684 38.4144 97.6555 38.4144 93.9152C38.4144 90.177 35.426 87.1467 31.7353 87.1467Z" fill="#B7232D"/>
<path fill-rule="evenodd" clip-rule="evenodd" d="M35.2094 80.2416C35.2094 80.2416 35.0468 80.1904 34.7623 80.1115C36.3052 79.6457 38.2436 79.1387 40.3921 78.7605C37.379 78.7605 34.8167 78.9128 32.6437 79.2537C32.3313 79.3037 32.0281 79.3562 31.7363 79.4104C31.4452 79.3562 31.1412 79.3037 30.829 79.2537C28.6558 78.9128 26.0959 78.7605 23.0825 78.7605C25.2316 79.1387 27.1693 79.6457 28.7123 80.11C28.4257 80.1904 28.2626 80.2416 28.2626 80.2416C18.2906 83.4084 10.7786 90.3318 11.3184 96.0073C11.7661 100.719 16.5035 103.107 24.2251 102.292C19.9313 101.504 18.1702 99.301 17.8522 95.9662C17.3652 90.8585 23.0775 84.8196 31.1871 81.3465C31.1871 81.3465 31.387 81.264 31.7386 81.131C32.0886 81.264 32.2887 81.3465 32.2887 81.3465C40.3976 84.8196 46.1058 90.8585 45.6227 95.9662C45.3068 99.301 43.5426 101.504 39.2495 102.292C46.9702 103.107 51.7117 100.719 52.1564 96.0073C52.697 90.3318 45.1831 83.4084 35.2094 80.2416Z" fill="#23633C"/>
</svg>
