<svg width="230" height="180" viewBox="0 0 230 180" fill="none" xmlns="http://www.w3.org/2000/svg">
<path d="M26.1465 105.649V87.6645C26.1465 87.3948 26.4166 87.125 26.6866 87.125H29.9274C30.1975 87.125 30.3776 87.2149 30.5576 87.3948L38.2996 97.1962C38.4796 97.3761 38.7497 97.2862 38.7497 97.0164V87.6645C38.7497 87.3948 39.0197 87.125 39.2898 87.125H43.1608C43.4309 87.125 43.7009 87.3948 43.7009 87.6645V105.649C43.7009 105.919 43.4309 106.188 43.1608 106.188H39.92C39.6499 106.188 39.4699 106.098 39.2898 105.919L31.2778 95.8474C31.1878 95.7575 31.0077 95.8474 31.0077 95.9373V105.649C31.0077 105.919 30.7376 106.188 30.4676 106.188H26.6866C26.4166 106.188 26.1465 105.919 26.1465 105.649Z" fill="#CDCE4C"/>
<path d="M71.5184 87.125C71.6984 87.125 71.8785 87.3048 71.8785 87.4847V97.8257C71.8785 102.771 68.8177 106.548 63.1463 106.548C57.4748 106.548 54.4141 102.771 54.4141 97.8257V87.5746C54.4141 87.3948 54.5941 87.2149 54.7742 87.2149H58.9152C59.0952 87.2149 59.2753 87.3948 59.2753 87.5746V97.6458C59.2753 100.433 60.6256 101.872 63.1463 101.872C65.6669 101.872 67.0173 100.343 67.0173 97.6458V87.4847C67.0173 87.3048 67.1973 87.125 67.3773 87.125H71.5184V87.125Z" fill="#CDCE4C"/>
<path d="M81.8698 87.125H97.8039C97.9839 87.125 98.164 87.3048 98.164 87.4847V91.4412C98.164 91.6211 97.9839 91.8009 97.8039 91.8009H92.5826C92.4025 91.8009 92.2225 91.9808 92.2225 92.1606V105.739C92.2225 105.919 92.0424 106.098 91.8624 106.098H87.8113C87.6313 106.098 87.4512 105.919 87.4512 105.739V92.2505C87.4512 92.0707 87.2712 91.8908 87.0912 91.8908H81.8698C81.6898 91.8908 81.5097 91.711 81.5097 91.5312V87.5746C81.4197 87.3048 81.5998 87.125 81.8698 87.125Z" fill="#CDCE4C"/>
<path d="M112.929 91.9808V96.297C112.929 96.4769 113.109 96.6567 113.29 96.6567H117.07C119.051 96.6567 119.771 95.4877 119.771 94.1389C119.771 92.7001 119.051 91.5312 117.07 91.5312H113.29C113.109 91.6211 112.929 91.711 112.929 91.9808ZM117.431 87.125C122.292 87.125 124.542 90.2723 124.542 94.049C124.542 96.6567 123.372 99.0846 120.941 100.254C120.851 100.343 120.851 100.433 120.851 100.523L124.542 105.739C124.632 105.919 124.542 106.098 124.362 106.098H119.501C119.231 106.098 118.961 105.919 118.781 105.739L115.63 101.243C115.54 101.153 115.36 101.063 115.18 101.063H113.29C113.109 101.063 112.929 101.243 112.929 101.423V105.739C112.929 105.919 112.749 106.098 112.569 106.098H108.518C108.338 106.098 108.158 105.919 108.158 105.739V87.4847C108.158 87.3048 108.338 87.125 108.518 87.125H117.431V87.125Z" fill="#CDCE4C"/>
<path d="M139.666 87.4847V105.739C139.666 105.919 139.486 106.098 139.306 106.098H135.165C134.985 106.098 134.805 105.919 134.805 105.739V87.4847C134.805 87.3048 134.985 87.125 135.165 87.125H139.306C139.486 87.125 139.666 87.3048 139.666 87.4847Z" fill="#CDCE4C"/>
<path d="M183.326 94.0527L181.615 98.6387C181.525 98.8186 181.705 98.9984 181.885 98.9984H185.306C185.486 98.9984 185.576 98.8186 185.576 98.6387L183.866 94.0527C183.776 93.783 183.416 93.783 183.326 94.0527ZM186.206 87.5784L193.408 105.293C193.588 105.743 193.228 106.192 192.778 106.192H188.817C188.547 106.192 188.277 106.012 188.187 105.743L187.467 103.764C187.377 103.495 187.107 103.315 186.837 103.315H180.175C179.905 103.315 179.635 103.495 179.545 103.764L178.825 105.743C178.734 106.012 178.464 106.192 178.194 106.192H174.233C173.783 106.192 173.513 105.743 173.603 105.293L180.805 87.5784C180.895 87.3086 181.165 87.2187 181.435 87.2187H185.396C185.846 87.1288 186.116 87.3086 186.206 87.5784Z" fill="#CDCE4C"/>
<path d="M165.324 92.7905C165.324 92.9703 165.144 93.1501 164.963 93.1501H160.912C160.732 93.1501 160.552 92.9703 160.552 92.7905C160.462 91.8912 159.472 90.992 157.672 90.992C156.051 90.992 155.331 91.6215 155.331 92.2509C155.331 92.9703 156.231 93.4199 158.482 94.1393C161.093 95.0385 165.594 96.6571 165.594 100.793C165.594 104.48 162.353 106.459 158.032 106.459C153.531 106.459 150.02 104.39 149.93 100.793C149.93 100.614 150.11 100.434 150.29 100.434H154.341C154.521 100.434 154.611 100.614 154.701 100.793C154.881 101.513 155.961 102.232 157.852 102.232C159.652 102.232 160.282 101.603 160.282 101.063C160.282 100.254 159.292 99.8043 157.041 98.995C153.981 98.0059 150.02 96.5672 150.02 92.6106C150.02 89.0137 153.08 86.6758 157.492 86.6758C161.903 86.7657 165.234 89.1037 165.324 92.7905Z" fill="#CDCE4C"/>
<path d="M201.601 105.74V106.279H201.961C202.141 106.279 202.231 106.099 202.231 106.009C202.231 105.919 202.141 105.74 201.961 105.74H201.601ZM202.321 107.268L202.051 106.729H201.691V107.268H201.241V105.29H202.051C202.501 105.29 202.771 105.65 202.771 106.009C202.771 106.279 202.681 106.459 202.411 106.639L202.771 107.268H202.321ZM201.871 107.808C202.681 107.808 203.401 107.178 203.401 106.279C203.401 105.47 202.771 104.75 201.871 104.75C201.061 104.75 200.341 105.38 200.341 106.279C200.431 107.178 201.061 107.808 201.871 107.808ZM201.871 104.301C202.951 104.301 203.852 105.2 203.852 106.279C203.852 107.358 202.951 108.257 201.871 108.257C200.791 108.257 199.891 107.358 199.891 106.279C199.891 105.2 200.791 104.301 201.871 104.301Z" fill="#CDCE4C"/>
<path d="M115.537 54.9298C115.627 54.9298 115.717 54.8399 115.717 54.6601C114.907 52.1423 112.566 50.2539 109.775 50.2539C106.985 50.2539 104.644 52.1423 103.834 54.6601C103.834 54.75 103.924 54.9298 104.014 54.9298H115.537V54.9298Z" fill="#CDCE4C"/>
<path d="M115.811 56.5547H103.748C103.658 56.5547 103.568 56.6446 103.568 56.7345C103.568 57.6337 103.838 58.443 104.199 59.2523C104.199 59.3423 104.289 59.3423 104.379 59.3423H115.181C115.271 59.3423 115.361 59.3423 115.361 59.2523C115.721 58.533 115.992 57.6337 115.992 56.7345C115.992 56.6446 115.901 56.5547 115.811 56.5547Z" fill="#CDCE4C"/>
<path d="M114.01 61.0508H105.457C105.367 61.0508 105.277 61.1407 105.367 61.2306L105.817 61.95C105.908 62.0399 105.998 62.0399 106.088 62.0399H113.469C113.559 62.0399 113.649 61.95 113.739 61.95L114.19 61.2306C114.19 61.1407 114.1 61.0508 114.01 61.0508Z" fill="#CDCE4C"/>
<path d="M112.119 63.6523H107.348C107.168 63.6523 107.078 63.8322 107.168 63.9221L109.509 67.519C109.599 67.6089 109.779 67.6089 109.779 67.519L112.119 63.9221C112.389 63.8322 112.299 63.6523 112.119 63.6523Z" fill="#CDCE4C"/>
<path d="M104.827 37.3093H104.917C106.088 37.3992 107.168 37.9387 107.888 38.748C106.628 39.3775 105.727 40.5465 105.457 41.9852C105.457 42.0751 105.457 42.1651 105.547 42.1651L109.778 44.9526C109.868 44.9526 109.959 44.9526 109.959 44.9526L114.19 42.1651C114.28 42.1651 114.28 42.0751 114.28 41.9852C114.01 40.5465 113.109 39.3775 111.849 38.748C112.569 37.9387 113.559 37.3992 114.82 37.3093H114.91C115.09 37.3093 115.18 37.1295 115.18 36.9496V36.7698C115.18 36.5899 115 36.5 114.82 36.5H114.73C113.199 36.5899 111.939 37.3992 111.039 38.4783C110.679 38.3884 110.319 38.2984 109.959 38.2984C109.598 38.2984 109.238 38.3884 108.878 38.4783C107.978 37.3992 106.718 36.5899 105.187 36.5H104.917C104.737 36.5 104.557 36.5899 104.557 36.7698V36.9496C104.467 37.1295 104.647 37.3093 104.827 37.3093Z" fill="#CDCE4C"/>
<path d="M109.778 46.8362C109.868 46.8362 109.958 46.8362 110.048 46.7463L116.08 42.7898C116.89 42.2502 117.88 41.9805 118.871 41.9805C121.751 41.9805 124.092 44.4084 123.912 47.3758C123.732 49.9835 121.571 52.0517 119.051 52.1416C117.97 52.1416 116.89 51.8719 116.08 51.3323H115.99L110.048 47.2858C109.958 47.2858 109.868 47.2858 109.778 47.2858C109.688 47.2858 109.598 47.2858 109.508 47.3758L103.477 51.3323H103.387C102.576 51.8719 101.496 52.2315 100.416 52.1416C97.8052 52.0517 95.6447 49.9835 95.5547 47.3758C95.3746 44.4084 97.7152 41.9805 100.596 41.9805C101.586 41.9805 102.576 42.2502 103.387 42.7898L109.418 46.7463C109.598 46.8362 109.688 46.8362 109.778 46.8362Z" fill="#CDCE4C"/>
<path d="M51.8047 135.945H57.5662V137.744H53.6952V138.823H56.846V140.531H53.6952V141.52H57.5662V143.319H51.8047V135.945Z" fill="#CDCE4C"/>
<path d="M89.5228 135.945H87.6328V143.409H89.5228V135.945Z" fill="#CDCE4C"/>
<path d="M93.8438 135.945H99.5152V137.744H95.7342V138.823H98.795V140.531H95.7342V141.52H99.5152V143.319H93.8438V135.945Z" fill="#CDCE4C"/>
<path d="M103.57 143.319V135.945H105.191L108.522 140.082V135.945H110.412V143.319H108.792L105.461 139.182V143.319H103.57Z" fill="#CDCE4C"/>
<path d="M117.517 138.738H114.637V140.537H117.517V138.738Z" fill="#CDCE4C"/>
<path d="M121.844 135.945H127.515V137.744H123.734V138.823H126.795V140.531H123.734V141.52H127.515V143.319H121.844V135.945Z" fill="#CDCE4C"/>
<path d="M140.924 135.945H147.405V137.744H145.155V143.319H143.264V137.744H140.924V135.945Z" fill="#CDCE4C"/>
<path d="M153.528 138.373L152.717 140.531H154.338L153.528 138.373ZM154.428 135.945L157.399 143.409H155.328L154.878 142.33H151.997L151.547 143.409H149.477L152.447 135.945H154.428Z" fill="#CDCE4C"/>
<path d="M63.1483 141.161C63.1483 141.521 63.5084 141.88 64.4086 141.88C65.1288 141.88 65.3088 141.611 65.3088 141.431C65.3088 141.161 64.9487 140.891 64.0485 140.621C62.8782 140.262 61.3478 139.632 61.3478 138.104C61.3478 136.665 62.5181 135.766 64.2286 135.766C65.939 135.766 67.2893 136.665 67.2893 138.194V138.283H65.3989V138.194C65.3989 137.834 65.0388 137.384 64.2286 137.384C63.5984 137.384 63.3283 137.654 63.3283 137.924C63.3283 138.194 63.6884 138.373 64.5887 138.643C65.5789 139.003 67.3794 139.632 67.3794 141.251C67.3794 142.69 66.119 143.499 64.4086 143.499C62.6082 143.499 61.2578 142.69 61.2578 141.251V141.161H63.1483Z" fill="#CDCE4C"/>
<path d="M79.0799 140.351V141.7H80.9704C81.5105 141.7 81.6906 141.431 81.6906 141.071C81.6906 140.711 81.5105 140.441 80.9704 140.441H79.0799V140.351ZM79.0799 137.654V138.823H80.6103C81.1505 138.823 81.3305 138.553 81.3305 138.193C81.3305 137.834 81.1505 137.564 80.7003 137.564H79.0799V137.654ZM77.1895 135.945H80.8804C82.5008 135.945 83.311 136.845 83.311 138.014C83.311 138.733 82.9509 139.272 82.4108 139.542C83.131 139.812 83.6711 140.441 83.6711 141.251C83.6711 142.51 82.7709 143.319 81.2405 143.319H77.1895V135.945Z" fill="#CDCE4C"/>
<path d="M133.096 141.161C133.096 141.521 133.456 141.88 134.356 141.88C135.076 141.88 135.256 141.611 135.256 141.431C135.256 141.161 134.896 140.891 133.996 140.621C132.825 140.262 131.295 139.632 131.295 138.104C131.295 136.665 132.465 135.766 134.176 135.766C135.886 135.766 137.237 136.665 137.237 138.194V138.283H135.346V138.194C135.346 137.834 134.986 137.384 134.176 137.384C133.546 137.384 133.276 137.654 133.276 137.924C133.276 138.194 133.636 138.373 134.536 138.643C135.526 139.003 137.327 139.632 137.327 141.251C137.327 142.69 136.066 143.499 134.356 143.499C132.555 143.499 131.205 142.69 131.205 141.251V141.161H133.096Z" fill="#CDCE4C"/>
<path d="M163.076 137.658V139.636H164.696C165.417 139.636 165.777 139.186 165.777 138.647C165.777 138.107 165.507 137.658 164.696 137.658H163.076V137.658ZM164.786 135.949C166.677 135.949 167.577 137.208 167.577 138.647C167.577 139.726 167.127 140.625 166.137 141.075L167.757 143.323H165.507L164.066 141.345H163.076V143.323H161.186V135.859H164.786V135.949Z" fill="#CDCE4C"/>
<path d="M125.351 121.474H94.5632C94.3832 121.474 94.2031 121.294 94.2031 121.114V120.485C94.2031 120.305 94.3832 120.125 94.5632 120.125H125.351C125.531 120.125 125.711 120.305 125.711 120.485V121.114C125.711 121.384 125.531 121.474 125.351 121.474Z" fill="#CDCE4C"/>
</svg>
