<svg width="230" height="180" viewBox="0 0 230 180" fill="none" xmlns="http://www.w3.org/2000/svg">
<path d="M90.1376 119.997C89.7855 120.075 87.047 120.584 84.1911 120.662C79.0662 120.819 74.5672 118.745 74.528 115.03C74.4498 108.615 80.944 105.094 85.756 104.117C87.9077 103.686 92.0545 103.178 96.1623 104.195L93.7759 109.945C93.0717 108.38 91.3112 108.341 90.607 108.341C88.8466 108.302 87.3991 108.771 86.3428 109.241C83.9172 110.336 81.8047 113.895 85.2474 115.264C87.1643 116.007 89.5508 115.421 92.0937 115.03L90.1376 119.997Z" fill="#27509B"/>
<path d="M190.249 104L186.141 115.187C186.18 114.052 186.415 109.593 186.571 107.051C186.61 105.995 186.415 105.173 185.906 104.665C185.28 104 184.498 104 184.459 104H175.265L169.24 120.311H175.891L180.155 108.733L179.647 120.311H190.835L196.86 104H190.249Z" fill="#27509B"/>
<path d="M155.864 114.913H148.118L152.109 104H144.441L138.416 120.311H153.869L155.864 114.913Z" fill="#27509B"/>
<path d="M138.532 108.264L140.136 104H123.626L117.641 120.311H134.306L135.91 115.93H126.717L127.382 114.092H135.989L137.475 110.102H128.869L129.534 108.264H138.532Z" fill="#27509B"/>
<path d="M113.181 120.311L119.167 104H111.655L109.465 109.867H105.513L107.665 104H100.115L94.1289 120.311H101.64L103.714 114.796H107.665L105.631 120.311H113.181Z" fill="#27509B"/>
<path d="M68.7795 120.311L74.8043 104H66.9017L60.877 120.311H68.7795Z" fill="#27509B"/>
<path d="M56.415 120.311L62.4397 104H51.2509L45.4609 112.762C45.4609 112.762 45.813 108.185 45.9304 107.051C46.0086 106.23 45.8913 103.961 43.8569 103.961H34.7025L28.6777 120.311H35.837L40.1795 108.498L39.2797 120.311H45.6565L53.4809 108.694L49.2166 120.311H56.415Z" fill="#27509B"/>
<path d="M164.782 120.311L170.767 104H162.865L156.84 120.311H164.782Z" fill="#27509B"/>
<path d="M187.591 131.383C187.083 132.83 186.379 133.299 184.931 133.299H183.405L184.892 129.31H186.379C187.63 129.31 188.061 130.092 187.591 131.383ZM186.457 128.567H184.188L182.193 134.003H184.892C186.848 134.003 187.865 133.221 188.491 131.5C189.078 129.936 188.491 128.567 186.457 128.567ZM181.019 130.522C180.784 131.265 180.276 131.422 179.063 131.422H177.772L178.554 129.271H179.767C181.058 129.271 181.332 129.623 181.019 130.522ZM179.963 128.567H177.85L175.855 134.003H176.833L177.537 132.126H179.219L179.884 134.003H180.862L180.08 132.009C180.941 131.93 181.645 131.578 181.958 130.679C182.388 129.427 181.88 128.567 179.963 128.567ZM171.63 131.93L173.781 129.036L173.938 131.93H171.63ZM173.586 128.567C173.312 128.567 173.116 128.645 172.921 128.919L169.048 134.003H170.065L171.043 132.634H173.938L174.016 134.003H174.916L174.564 128.567H173.586ZM169.947 128.567L166.779 133.378L166.896 128.567H165.566L162.397 133.378L162.436 128.567H161.497V134.003H162.436C162.671 134.003 162.906 133.925 163.062 133.651L165.996 129.231L165.918 134.003H166.935C167.131 134.003 167.365 133.925 167.522 133.651L170.965 128.567H169.947V128.567ZM159.228 130.522C158.993 131.265 158.485 131.422 157.272 131.422H155.942L156.724 129.271H157.937C159.306 129.271 159.541 129.623 159.228 130.522ZM158.172 128.567H156.059L154.064 134.003H155.042L155.746 132.126H157.429L158.094 134.003H159.072L158.289 132.009C159.15 131.93 159.854 131.578 160.167 130.679C160.597 129.427 160.089 128.567 158.172 128.567ZM152.734 131.383C152.186 132.869 151.404 133.378 150.152 133.378C148.587 133.378 148.196 132.556 148.704 131.187C149.252 129.701 150.035 129.192 151.286 129.192C152.812 129.231 153.203 130.014 152.734 131.383ZM151.326 128.488C149.448 128.488 148.391 129.31 147.765 131.07C147.179 132.713 147.687 134.082 150.074 134.082C151.912 134.082 153.008 133.26 153.634 131.5C154.221 129.896 153.712 128.488 151.326 128.488ZM144.205 129.31H147.765L148.039 128.606H143.501L141.506 134.043H142.484L143.227 131.969H146.435L146.709 131.226H143.501L144.205 129.31ZM136.264 130.992L135.129 128.567H134.19L135.638 131.657L134.777 134.003H135.755L136.577 131.696L140.332 128.567H139.198L136.264 130.992ZM129.77 131.93L131.921 129.036L132.078 131.93H129.77ZM131.765 128.567C131.491 128.567 131.295 128.645 131.1 128.919L127.227 134.003H128.244L129.222 132.634H132.117L132.195 134.003H133.095L132.743 128.567H131.765ZM128.126 128.567L124.958 133.378L125.075 128.567H123.745L120.576 133.378L120.615 128.567H119.676V134.003H120.615C120.85 134.003 121.084 133.925 121.241 133.651L124.175 129.231L124.097 134.003H125.114C125.31 134.003 125.544 133.925 125.701 133.651L129.144 128.567H128.126V128.567ZM115.021 130.522C114.786 131.265 114.277 131.422 113.065 131.422H111.774L112.556 129.271H113.769C115.099 129.271 115.334 129.623 115.021 130.522ZM113.964 128.567H111.852L109.857 134.003H110.835L111.539 132.126H113.221L113.886 134.003H114.864L114.082 132.009C114.942 131.93 115.647 131.578 115.96 130.679C116.429 129.427 115.92 128.567 113.964 128.567ZM106.727 129.271H110.287L110.561 128.567H106.023L104.027 134.003H108.566L108.839 133.299H105.279L105.866 131.657H109.074L109.348 130.953H106.14L106.727 129.271ZM104.927 128.567H99.6849L99.4111 129.31H101.563L99.8414 134.003H100.819L102.541 129.31H104.653L104.927 128.567ZM93.2299 129.31H95.3816L93.6602 134.003H94.6382L96.3596 129.31H98.4722L98.746 128.567H93.5037L93.2299 129.31ZM86.1488 134.003H90.687L90.9608 133.299H87.4007L87.9876 131.657H91.1955L91.4694 130.953H88.2614L88.8482 129.31H92.4083L92.6822 128.606H88.144L86.1488 134.003ZM84.8578 130.17C84.6622 130.796 84.0363 130.953 83.0582 130.953H81.4934L82.1193 129.271H83.8407C84.7796 129.271 85.0926 129.544 84.8578 130.17ZM84.3101 132.634C84.1145 133.143 83.7233 133.299 82.7453 133.299H80.6718L81.2978 131.617H83.1756C84.1536 131.617 84.5449 131.97 84.3101 132.634ZM84.2319 128.567H81.4151L79.4199 134.003H82.9409C83.9971 134.003 84.8187 133.73 85.1708 132.83C85.4447 132.126 85.1708 131.5 84.4275 131.305C85.0926 131.148 85.562 130.835 85.7967 130.248C86.1488 129.271 85.6794 128.567 84.2319 128.567ZM72.9648 131.93L75.1165 129.036L75.273 131.93H72.9648ZM74.9209 128.567C74.6471 128.567 74.4515 128.645 74.2559 128.919L70.3828 134.003H71.4L72.4171 132.634H75.3121L75.3904 134.003H76.2902L75.9381 128.567H74.9209Z" fill="#27509B"/>
<path d="M38.225 94.4531L36.6992 98.5602H198.859L200.384 94.4531H38.225Z" fill="#27509B"/>
<path d="M115.452 94.452C115.569 94.4129 115.687 94.3738 115.804 94.3347C115.804 94.3347 116 94.2565 116.078 94.2565C117.251 93.8653 119.873 92.4963 120.851 90.5797C122.846 89.8365 124.293 88.8195 125.193 87.6069C126.914 87.294 128.245 86.5509 128.988 86.1597C130.709 85.1818 131.922 84.2431 132.665 83.2261C133.291 82.4047 133.683 81.7789 133.995 81.1139C134.582 80.801 135.247 80.4098 136.108 79.8231C139.12 77.8283 139.746 74.1515 139.825 73.7212C139.825 73.643 139.864 73.5256 139.864 73.4474C140.02 73.4474 140.177 73.4474 140.333 73.4474C143.346 73.4474 147.297 71.5699 149.409 70.5138H149.449C149.762 70.3573 150.074 70.2009 150.192 70.1618C150.896 69.8489 152.344 69.1057 153.83 68.0887C155.747 66.7979 157.038 65.6245 157.742 64.5292C157.86 64.3728 157.938 64.1772 158.016 63.9816L159.268 63.1993C159.62 62.9647 159.933 62.6517 160.129 62.2606C160.481 62.065 160.755 61.9086 160.833 61.8303C161.811 61.2045 162.241 60.1093 161.889 59.0532V59.0141C161.576 58.0753 160.716 56.941 159.268 56.589C158.759 55.4937 157.664 54.8679 156.451 54.8679C156.177 54.8679 155.943 54.907 155.786 54.9461C155.708 54.9461 155.395 55.0244 153.048 55.6111L149.566 56.4325C149.879 55.572 149.84 54.6332 149.449 53.8509C148.979 52.8731 148.001 52.2472 146.984 52.2472C146.632 52.2472 146.28 52.3254 145.967 52.4819H145.928C145.81 52.5601 145.536 52.6775 139.316 56.7063C139.238 56.7454 139.16 56.8236 139.081 56.8628C136.069 59.4834 134.974 61.048 134.7 61.4392C134.543 61.6348 134.308 62.0259 134.074 62.5344C133.917 62.4562 133.761 62.3779 133.604 62.2997C132.352 61.7521 131.061 61.4783 129.731 61.4783C127.345 61.4783 125.663 62.4171 125.232 62.6909C124.997 62.8082 124.098 63.3558 122.768 64.4119C122.22 64.8422 121.75 65.3115 121.32 65.8592C120.42 66.0547 119.677 66.3285 119.129 66.6023C118.425 66.9544 117.76 67.502 117.017 68.0887L116.978 68.1278C116.86 68.2451 116.743 68.3234 116.586 68.4407C116.273 68.6754 115.452 69.3404 114.669 70.4356H114.591C114.474 70.4747 113.496 70.6703 112.244 71.257C111.931 71.4134 111.618 71.5699 111.344 71.7655C110.64 71.8046 109.544 71.9219 108.097 72.3522H108.019C107.901 72.3131 106.806 72.1175 105.476 72.1175C104.889 72.1175 104.341 72.1566 103.872 72.2349C103.559 72.274 102.424 72.4695 101.485 72.7433C101.016 72.8607 99.8814 73.2518 98.5512 74.1124C95.6954 73.4474 92.8395 73.2518 91.0399 73.1736C92.7612 70.8658 93.5828 68.206 93.3089 65.9374C92.7612 61.6348 89.8662 59.0923 88.8099 58.3491C87.0103 50.8391 81.768 47.6317 77.4647 47.1623C76.604 46.1844 75 45.5586 73.1613 45.5586C72.418 45.5586 71.7138 45.6759 71.0096 45.8324C68.7014 46.4582 66.8627 48.2184 66.5106 50.135C64.2024 52.0516 60.6032 56.3543 61.6204 64.0599C60.7597 65.2333 59.0775 68.206 60.212 72.7433C60.9944 75.8334 62.9114 78.063 65.8064 79.2364C63.5765 80.3316 61.6204 81.6224 59.9773 83.1479C59.8599 83.2261 59.7817 83.3434 59.7034 83.4217C55.8304 83.6172 52.3094 85.221 49.5318 88.0763C47.5366 90.1103 46.1673 92.4572 45.3066 94.5303H115.452V94.452Z" fill="black"/>
<path d="M115.295 91.988C114.474 92.2618 113.065 92.8094 111.109 92.8094C111.031 92.8094 110.992 92.8094 110.913 92.8094C108.879 92.7702 106.454 91.7141 104.732 89.7975C102.972 87.8809 102.033 84.9864 102.307 82.131C102.581 79.2756 104.302 76.8896 106.375 75.5989C106.845 75.2859 107.353 75.0513 107.862 74.8948C108.058 74.8166 108.292 74.7383 108.488 74.6992C108.449 74.7383 108.41 74.8166 108.371 74.8557C106.258 77.9849 106.415 82.0137 107.432 84.3997C107.979 85.6514 108.605 86.6683 109.349 87.568C110.327 88.7414 111.5 89.6411 112.83 90.2278C114.082 90.7754 115.373 91.0492 116.704 91.0492C116.86 91.0492 116.977 91.0492 117.134 91.0492C116.469 91.4795 115.804 91.8315 115.295 91.988Z" fill="white"/>
<path d="M119.519 88.5046C118.737 88.7784 117.758 89.0131 116.663 89.0131C115.724 89.0131 114.668 88.8175 113.612 88.3481C111.303 87.3312 110.052 85.3363 109.269 83.5761C108.487 81.7769 108.33 78.5694 110.012 76.027C110.951 74.658 112.281 73.8366 113.338 73.3672C112.673 75.362 112.36 78.4521 114.551 82.168V82.2071V82.2462C115.646 84.0064 117.093 85.3363 118.815 86.2359C119.832 86.7835 120.927 87.1356 122.062 87.3311C121.279 87.8005 120.341 88.1917 119.519 88.5046Z" fill="white"/>
<path d="M127.776 84.0477C126.837 84.5562 125.546 85.2603 123.903 85.3385C123.825 85.3385 123.746 85.3385 123.668 85.3385C121.204 85.3385 118.23 84.1651 116.313 81.075C112.871 75.286 116.626 71.2963 117.878 70.3184C118.621 69.7317 119.365 69.145 119.952 68.793C119.678 69.5753 119.56 70.162 119.56 70.3576C119.287 71.8048 119.521 73.6823 120.186 75.3642C121.047 77.5938 122.534 79.3931 124.49 80.5665C126.094 81.5053 127.737 81.9746 129.419 81.9746C129.889 81.9746 130.319 81.9355 130.671 81.8964C129.849 82.796 128.558 83.6175 127.776 84.0477Z" fill="white"/>
<path d="M54.1485 94.4527C54.305 93.162 54.6571 91.5974 55.3613 89.9154C55.9481 88.5073 56.6523 87.1774 57.5521 85.9648C55.0483 86.4733 52.8184 87.725 50.9405 89.6416C49.6495 90.9324 48.5541 92.5752 47.6543 94.4136H54.1485V94.4527Z" fill="white"/>
<path d="M97.6113 94.4518C97.1809 94.0607 96.8288 93.7086 96.5159 93.3957C95.0292 91.8702 93.8556 89.1713 93.5035 87.2938C92.8775 84.2429 93.3079 81.2702 94.7554 78.493C95.2248 77.6325 95.7725 76.8111 96.4376 76.107C93.1905 75.5203 90.0999 75.4812 89.0827 75.4812C88.9654 75.7159 88.8089 75.9114 88.6133 76.107C87.4396 77.124 86.4616 77.3587 87.1658 76.6155C87.8308 75.8332 87.7917 75.0118 87.5961 74.8162C87.4396 74.6598 87.1658 74.7771 87.0093 74.8162C85.0923 75.5203 84.7402 75.2074 85.1314 74.9727C86.8528 73.9166 87.8308 72.9778 88.4177 72.3911C89.8652 70.7483 91.0388 68.3623 90.765 66.1719C90.452 63.6294 89.0045 61.6346 87.5179 60.422C87.3614 60.3047 87.244 60.1873 87.1658 60.1482C87.1266 60.1091 87.0875 60.07 87.0484 60.07C86.8137 59.9135 86.5007 59.7179 86.266 59.6397C85.8748 59.5224 85.9921 59.2486 86.4225 59.1312C86.3833 58.9356 86.3442 58.7009 86.266 58.5054C86.2268 58.3098 86.1486 58.1142 86.1095 57.9187C84.3881 52.2079 80.3195 49.7828 76.955 49.4308C76.9159 49.4308 76.8768 49.4308 76.8377 49.4308C76.0552 49.3525 75.5075 49.3525 75.3901 49.3525C74.8424 49.2743 75.0772 49.0396 75.3901 48.9223C75.5075 48.8831 75.5466 48.7658 75.5075 48.6876C75.1163 48.1009 73.3167 47.5532 71.4389 48.1009C70.4608 48.3747 69.6001 49.0005 69.0916 49.6263C69.0133 49.7437 68.9351 49.9001 68.8568 50.0175C68.8568 50.0566 68.8177 50.0957 68.8177 50.1348C68.7395 50.3695 69.0133 50.2913 69.0133 50.2913C69.9131 50.0957 70.3043 50.3304 69.6001 50.7215C69.1698 50.9562 68.5439 51.3865 68.1135 51.6994C67.0964 52.4817 65.7662 53.7725 64.8273 55.7282C63.9666 57.5275 63.5363 59.6397 63.6145 61.9084C63.6536 62.2213 63.6536 62.8471 63.6928 63.0427C63.7319 63.2774 63.8884 63.5121 64.4361 63.4338C65.1794 63.3165 65.6488 63.1991 64.9838 63.7468C64.7099 63.9423 63.8493 64.7637 63.3407 65.3896C62.3235 66.6804 61.5411 69.0664 62.3235 72.0782C62.9886 74.6598 64.5926 76.3808 67.1355 77.2022C68.6612 77.6325 72.143 78.2192 74.8424 78.0627C75.1163 78.0627 75.1945 78.1019 75.1554 78.2192C75.1163 78.3365 74.9207 78.4148 74.6468 78.4539C74.2165 78.5321 73.2776 78.6886 71.6736 78.845C71.3215 78.8842 71.0476 79.1188 71.0085 79.2753C71.0085 79.2753 71.0085 79.2753 71.0085 79.3144C70.8129 80.0185 72.2604 80.6052 72.4169 80.6834C72.9646 80.8399 72.7299 81.1528 72.4951 81.1919C71.478 81.3875 69.6393 80.9572 68.6612 80.879C67.9961 80.8399 67.4876 80.9572 67.292 81.0746C64.9838 82.0916 63.0277 83.3823 61.4237 84.8687C59.6241 86.5506 58.2549 88.5455 57.3551 90.7359C56.8074 92.1049 56.4944 93.3957 56.3379 94.4909H97.6113V94.4518Z" fill="white"/>
<path d="M97.964 91.9529C98.8247 92.8526 99.8027 93.7913 101.368 94.4563H108.409C107.901 94.2998 107.353 94.1043 106.845 93.8696C105.475 93.2437 104.223 92.305 103.245 91.2098C102.189 90.0363 101.368 88.5891 100.82 86.9463C100.311 85.3425 100.116 83.5824 100.272 81.9396C100.429 80.2576 101.015 78.6148 101.954 77.1676C102.58 76.1506 103.402 75.2901 104.302 74.5469C104.223 74.5469 104.106 74.586 104.028 74.586C104.028 74.586 102.815 74.7424 101.954 75.0163C101.094 75.2901 98.1205 76.3853 96.5556 79.4362C94.9516 82.4872 95.1472 85.147 95.4993 86.868C95.8123 88.6282 96.9077 90.8968 97.964 91.9529Z" fill="white"/>
<path d="M159.66 60.1484C159.464 60.2657 159.19 60.4222 158.955 60.5786V60.5395C158.603 59.9528 158.134 59.5616 157.547 59.4443C156.647 59.2487 155.513 59.6008 154.026 60.5786C151.835 61.9868 148.432 62.8082 148.392 62.8082C148.158 62.8473 148.001 63.082 148.08 63.3167C148.119 63.5122 148.314 63.6687 148.51 63.6687C148.549 63.6687 148.588 63.6687 148.627 63.6687C148.784 63.6296 152.226 62.8082 154.535 61.3218C155.786 60.5004 156.765 60.1484 157.39 60.3048C157.703 60.383 157.938 60.5395 158.134 60.8915C158.408 61.3218 158.173 61.5565 158.134 61.5565C158.095 61.5565 157.038 62.2606 156.569 62.5344C156.334 62.2997 155.865 61.9085 155.161 61.8303C154.378 61.7521 153.557 62.1041 152.735 62.8864C150.74 64.7639 148.588 65.3506 148.549 65.3897C148.314 65.468 148.197 65.7027 148.236 65.9373C148.275 66.1329 148.471 66.2503 148.666 66.2503C148.705 66.2503 148.745 66.2503 148.784 66.2503C148.862 66.2111 151.17 65.5853 153.322 63.5513C153.948 62.9646 154.535 62.6908 155.043 62.7299C155.552 62.769 155.865 63.1211 155.943 63.1993C155.943 63.2384 156.06 63.3949 155.943 63.5513C154.73 65.468 150.505 67.8931 149.292 68.4016C148.392 68.7927 144.793 70.7093 141.859 71.3352C141.546 71.4134 141.194 71.4525 140.881 71.4916C140.842 71.4916 140.803 71.4916 140.764 71.4916C140.333 71.4916 138.338 71.5307 137.751 70.944C136.891 70.0835 136.578 70.7093 136.852 71.8045C135.913 72.3522 134.504 73.2127 134.152 73.4474C133.174 74.0341 131.922 73.3691 131.688 73.3691C131.179 73.3691 132.392 74.8946 133.409 75.0511C134.504 75.2075 136.539 73.9167 136.539 73.9167L137.321 73.4083C137.321 73.4083 136.852 76.381 134.661 77.8673C133.292 78.767 132.705 79.0799 132.196 79.3146C131.844 79.471 130.827 80.0186 129.301 80.0186C128.206 80.0186 126.915 79.7448 125.428 78.8843C121.868 76.7721 121.164 72.626 121.477 70.7876C121.477 70.7876 121.868 68.0495 123.981 66.4458C125.389 65.3506 126.211 64.8812 126.211 64.8812C126.211 64.8812 127.541 64.0207 129.497 64.0207C130.357 64.0207 131.335 64.1772 132.353 64.6466C132.04 64.8812 131.766 65.1159 131.609 65.3115C131.218 65.9373 130.631 67.3064 131.022 67.3064C131.296 67.3064 131.492 66.6023 132.431 66.1329C132.9 65.8982 135.091 64.6074 135.091 64.6074C135.091 64.6074 135.169 64.2554 135.287 64.0598C135.287 64.0598 135.561 63.4731 136.108 62.6517C136.147 62.6126 136.226 62.4952 136.343 62.2997C136.656 61.8694 137.086 61.3609 137.595 60.8915C138.182 60.2657 139.003 59.4834 140.099 58.5055C140.099 58.5055 146.202 54.5549 146.476 54.3985C146.515 54.3594 146.593 54.3594 146.632 54.3594C147.141 54.3594 147.884 55.259 146.984 56.4716C146.241 57.4494 145.38 58.1144 144.715 58.6229C144.519 58.7793 144.246 58.9358 144.05 59.014C143.111 59.3269 141.898 60.0701 141.703 60.2266C141.507 60.383 141.507 60.6568 141.742 60.5395C142.563 60.1875 143.854 59.8746 144.089 59.7963C145.497 59.4834 155.708 57.0192 155.865 56.9801C155.904 56.9801 156.021 56.9409 156.099 56.9409C156.452 56.9409 157.038 57.0583 157.195 57.8015C157.195 57.8406 157.195 57.8406 157.195 57.8797L147.845 60.6568C147.61 60.7351 147.493 60.9698 147.571 61.2045C147.61 61.3609 147.767 61.4783 147.923 61.5174C148.001 61.5174 148.08 61.5174 148.119 61.5174L156.452 59.0531C156.608 59.014 156.921 58.9358 157.547 58.7402L157.625 58.7011C157.821 58.662 157.977 58.6229 158.134 58.6229C158.994 58.6229 159.503 59.3269 159.66 59.7572C159.933 59.9137 159.855 60.031 159.66 60.1484Z" fill="white"/>
<path d="M79.5773 57.766C79.5773 58.3136 79.6556 58.9394 79.8121 59.487C79.9686 60.0346 80.2033 60.5822 80.5163 61.0516C80.7901 61.4428 81.1422 61.8339 81.6508 61.9904C81.6508 61.9904 81.6508 61.9904 81.6899 61.9904C81.729 61.9904 81.729 61.9904 81.729 61.9904C81.8464 62.0295 81.9638 62.0295 82.0811 62.0295C82.2767 62.0295 82.4723 61.9904 82.7071 61.9513C82.9418 61.9121 83.1765 61.8339 83.4113 61.7166C83.6851 61.5601 83.8025 61.2472 83.9198 60.9734C84.0372 60.6605 84.0763 60.3476 84.1154 60.0346C84.1546 59.487 84.0763 58.9003 83.8807 58.3527C83.8807 58.3918 83.8807 58.3918 83.8807 58.4309C84.1937 59.8782 83.7634 61.169 82.9027 61.3645C82.042 61.5601 81.1031 60.5431 80.7901 59.135C80.7119 58.7439 80.6727 58.3918 80.6727 58.0398C80.8684 58.2745 81.1031 58.4309 81.3769 58.3527C81.729 58.2745 81.9246 57.8051 81.8073 57.3748C81.6899 56.9837 81.3769 56.7099 81.064 56.7099C81.2205 56.4752 81.4552 56.2796 81.729 56.2405C82.2767 56.1232 82.8636 56.4752 83.2939 57.1793C83.1765 56.9837 83.0592 56.7881 82.9418 56.5925C82.6288 56.1623 82.1594 55.732 81.6117 55.6147C81.5334 55.6147 81.4161 55.5756 81.3378 55.5756C80.8292 55.5756 80.3207 55.8102 80.0468 56.2014C79.6947 56.6317 79.5773 57.2184 79.5773 57.766ZM79.2644 59.487C79.1079 58.8612 78.8732 57.9224 78.9514 57.0228C79.0296 55.732 79.6947 54.9888 80.4771 54.715C81.4552 54.4021 82.5115 54.9106 83.0983 55.6538C83.4504 56.084 83.7634 56.7099 84.0372 57.3357C84.1155 57.5313 84.2328 57.766 84.3111 58.0007C84.5458 58.7047 84.6632 59.4088 84.624 60.0738C84.5849 60.4649 84.5458 60.856 84.3893 61.169C84.2719 61.521 84.0372 61.9904 83.646 62.2251C83.3721 62.3815 83.0592 62.4206 82.8244 62.4989C82.5897 62.538 82.355 62.5771 82.0811 62.5771C81.9246 62.5771 81.7682 62.5771 81.6117 62.538C81.5725 62.538 81.5725 62.538 81.5334 62.538H81.4943C80.8292 62.3424 80.438 61.8339 80.0859 61.4037C79.8121 61.0125 79.6165 60.5822 79.46 60.1911C79.46 60.1911 79.4209 60.1129 79.3817 59.9564C79.3426 59.8782 79.3035 59.7608 79.3035 59.6826C79.3035 59.5653 79.2644 59.5261 79.2644 59.487ZM81.729 62.0295C81.729 62.0295 81.6899 61.9904 81.729 62.0295C81.6899 61.9904 81.6899 62.0295 81.729 62.0295ZM72.0269 62.4206C72.379 63.0856 72.8093 63.5941 73.2788 63.8679C73.5135 63.9852 73.7482 64.0635 74.0221 64.0635C74.2568 64.0635 74.4915 64.0243 74.8045 63.9461C74.9219 63.907 75.3131 63.7897 75.5087 63.7114C75.8999 63.555 76.2129 63.0074 76.3694 62.3033C76.4085 62.0295 76.4476 61.7557 76.4476 61.4819C76.3694 62.3815 75.8999 63.0856 75.274 63.2029C74.335 63.4376 73.2788 62.4206 72.9267 60.9343C72.8484 60.5431 72.8093 60.152 72.8093 59.8C73.0049 60.0346 73.2396 60.152 73.5135 60.0738C73.8656 59.9955 74.0612 59.5261 73.9438 59.0568C73.8265 58.7047 73.5526 58.4309 73.2788 58.3918C73.4744 58.118 73.7482 57.9224 74.0221 57.8442C74.7263 57.6878 75.4696 58.1571 75.939 59.0177C75.939 58.9785 75.8999 58.9394 75.8999 58.9003C75.4304 57.9616 74.6089 56.9837 73.044 57.4139C70.9706 57.9616 71.44 60.6605 71.6748 61.4819C71.753 61.7948 71.8704 62.1077 72.0269 62.4206ZM71.5183 62.6944C71.1662 62.0686 70.9706 61.3645 70.8532 60.6605C70.7358 59.9564 70.6967 59.2132 70.8532 58.5092C70.9706 57.8051 71.2836 57.1793 71.8704 56.7881C72.3398 56.4361 72.9267 56.2405 73.5135 56.2405C73.67 56.2405 73.8265 56.2405 73.9829 56.2796C75.4696 56.5925 76.1738 57.8051 76.7606 59.5261C77.4257 61.4037 76.9562 63.7505 75.7434 64.259C75.4304 64.3764 74.961 64.5328 74.961 64.5328C74.648 64.6111 74.335 64.6893 74.0221 64.6893C73.67 64.6893 73.3179 64.6111 73.0049 64.4155C72.3398 63.9852 71.8313 63.3203 71.5183 62.6944ZM83.4504 67.2317C81.5725 68.2487 79.4209 68.7963 77.3083 69.0701C77.8951 69.3439 78.4819 69.5395 79.1079 69.6177C79.6947 69.6569 80.2424 69.5786 80.7901 69.4222C81.3378 69.2657 81.8855 68.9919 82.355 68.6399C82.8244 68.2096 83.1374 67.7402 83.4504 67.2317ZM86.2671 65.4325C86.1498 65.4716 86.1107 65.3151 86.0324 65.1196C85.6803 65.5889 84.8979 66.3321 84.7805 66.4886C84.624 66.7233 84.4675 66.9579 84.3111 67.1926C84.0763 67.6229 83.8807 68.014 83.5677 68.4052C83.1765 68.9137 82.7071 69.3831 82.1594 69.696C81.1031 70.3218 79.8121 70.6347 78.5993 70.4392C77.9734 70.3218 77.3474 70.0871 76.7606 69.8133C76.2911 69.5786 75.7825 69.3048 75.274 69.2657C74.6871 69.2657 74.0612 69.3048 73.4744 69.2266C73.2788 69.1875 73.0831 69.1093 73.044 68.9137C72.9658 68.6399 73.1614 68.327 73.4352 68.327C73.5135 68.327 73.6309 68.3661 73.7091 68.3661C73.9047 68.3661 74.1003 68.4052 74.2959 68.4052C76.4085 68.4834 78.5993 68.1314 80.5945 67.5056C81.8464 67.1144 83.0592 66.6059 84.1154 65.8236C84.5458 65.5107 84.9761 65.1587 85.3282 64.7675C85.3673 64.6893 85.4456 64.6111 85.4847 64.5719C85.4456 64.5328 85.4065 64.5328 85.3673 64.5328C85.25 64.4937 85.25 64.2981 85.4456 64.259C85.6412 64.2199 85.915 64.2981 86.0324 64.4155C86.1498 64.5328 86.228 64.6893 86.2671 64.924C86.4236 65.1196 86.3845 65.3934 86.2671 65.4325ZM73.4352 67.9358C72.8875 68.327 72.7702 68.6008 72.6919 68.7963C72.6137 68.9919 72.6137 69.1875 72.6528 69.2657C72.6919 69.3439 72.6528 69.4613 72.5746 69.5004C72.4963 69.5395 72.4181 69.5004 72.379 69.5004C72.3398 69.4613 72.3007 69.4222 72.2616 69.3831C72.1051 69.031 72.2616 68.2487 72.6528 67.8967C72.8093 67.7402 73.0049 67.6229 73.2005 67.5447C73.2788 67.5056 73.4744 67.4273 73.5917 67.5838C73.6309 67.7402 73.5135 67.8576 73.4352 67.9358Z" fill="black"/>
</svg>
