<svg width="230" height="180" viewBox="0 0 230 180" fill="none" xmlns="http://www.w3.org/2000/svg">
<path fill-rule="evenodd" clip-rule="evenodd" d="M178.305 102.948L184.694 78.26H191.759C191.759 78.26 193.55 78.0874 194.472 78.8174C195.393 79.5474 195.654 80.6756 195.654 80.6756L199.493 92.6229L204.501 78.2602H211.337C211.337 78.2602 213.038 78.2602 213.919 78.9504C214.8 79.6406 215.065 80.6759 215.065 80.6759L220.668 102.948H214.031L209.024 83.9641L203.769 98.4359H196.733C196.733 98.4359 195.885 98.5189 195.075 97.9714C194.264 97.4238 194.239 96.9228 194.239 96.9228L189.955 83.9649L185.041 102.949L178.305 102.948Z" fill="#2A0088"/>
<path fill-rule="evenodd" clip-rule="evenodd" d="M112.486 78.2539V83.1782L124.341 83.9746V102.942H131.188V83.9746L143.043 83.1782V78.2539H112.486Z" fill="#2A0088"/>
<path fill-rule="evenodd" clip-rule="evenodd" d="M92.7827 78.2543L80.4355 102.942H88.0254L90.1823 98.4026H103.949L106.057 102.942H113.604L101.89 79.8733C101.89 79.8733 101.507 79.0236 100.844 78.6439C100.18 78.2641 99.4814 78.2539 99.4814 78.2539H92.7825L92.7827 78.2543ZM96.9748 83.5854L101.512 93.3857H92.3666L96.9747 83.5854H96.9748Z" fill="#2A0088"/>
<path fill-rule="evenodd" clip-rule="evenodd" d="M54.3613 78.2541V102.942H75.2058L78.047 97.261H61.5041V78.2539L54.3613 78.2541Z" fill="#2A0088"/>
<path fill-rule="evenodd" clip-rule="evenodd" d="M154.357 78.2543L142.01 102.942H149.6L151.756 98.4026H165.523L167.631 102.942H175.178L163.464 79.8733C163.464 79.8733 163.082 79.0236 162.418 78.6439C161.754 78.2641 161.056 78.2539 161.056 78.2539H154.357L154.357 78.2543ZM158.549 83.5854L163.086 93.3857H153.941L158.549 83.5854H158.549Z" fill="#2A0088"/>
<path fill-rule="evenodd" clip-rule="evenodd" d="M11.9268 86.1903L17.4063 84.6256C17.4063 84.6256 17.3476 84.2597 17.1511 84.0801C16.9546 83.9006 16.6012 83.7895 16.6012 83.7895L8.98538 81.0239C8.98538 81.0239 8.7436 80.9426 8.56696 81.0404C8.39031 81.1382 8.39658 81.3924 8.39658 81.3924V84.933C8.39658 84.933 8.37758 85.272 8.86872 86.0318C9.35987 86.7916 10.5232 86.5981 10.5232 86.5981L11.9268 86.1903Z" fill="#ED1651"/>
<path fill-rule="evenodd" clip-rule="evenodd" d="M33.7405 77.6477L38.8376 74.7928C38.8376 74.7928 38.9143 74.2995 38.7178 74.1199C38.5214 73.9404 38.2874 73.8851 38.2874 73.8851L16.2744 66.0317C16.2744 66.0317 16.0326 65.9504 15.8559 66.0482C15.6793 66.146 15.6856 66.4002 15.6856 66.4002V69.4529C15.6856 69.4529 15.6825 70.1603 16.1736 70.9201C16.6648 71.6799 17.4617 71.8766 17.4617 71.8766L33.7405 77.6477Z" fill="#ED1651"/>
<path fill-rule="evenodd" clip-rule="evenodd" d="M33.7402 86.5323L38.8373 83.8925C38.8373 83.8925 38.9459 83.224 38.7495 83.0444C38.553 82.8648 38.2872 82.7697 38.2872 82.7697L8.98531 72.1293C8.98531 72.1293 8.74353 72.0481 8.56689 72.1459C8.39024 72.2437 8.39651 72.4978 8.39651 72.4978V75.5506C8.39651 75.5506 8.39345 76.2579 8.88459 77.0177C9.37573 77.7776 10.1727 77.9743 10.1727 77.9743L33.7402 86.5323Z" fill="#ED1651"/>
<path fill-rule="evenodd" clip-rule="evenodd" d="M38.2872 73.8867C38.2872 73.8867 38.5847 73.9318 38.8371 74.1773C39.0894 74.4229 39.0922 74.7228 39.0922 74.7228V78.7647C39.0922 78.7647 39.0801 79.317 38.8535 79.8136C38.627 80.3102 38.2951 80.4277 38.2951 80.4277L37.6048 80.6784L15.6061 88.6668C15.6061 88.6668 15.5003 88.6995 15.3626 88.6995C15.225 88.6995 15.1192 88.6668 15.1192 88.6668L8.99 86.441C8.99 86.441 8.83794 86.4057 8.6222 86.0678C8.37924 85.6887 8.39676 84.9361 8.39676 84.9361C8.39676 84.9361 8.43488 85.322 8.65303 85.5052C8.87118 85.6884 9.45257 85.4874 9.45257 85.4874L37.605 75.2643C37.605 75.2643 38.7228 74.8084 38.7228 74.3452C38.7228 74.0254 38.2873 73.888 38.2873 73.888L38.2872 73.8867Z" fill="#2A0088"/>
<path fill-rule="evenodd" clip-rule="evenodd" d="M38.2866 82.7773C38.2866 82.7773 38.5842 82.8224 38.8365 83.068C39.0888 83.3135 39.0916 83.6134 39.0916 83.6134V87.6554C39.0916 87.6554 39.0795 88.2076 38.8529 88.7042C38.6264 89.2008 38.2946 89.3183 38.2946 89.3183L37.6042 89.569L15.6055 97.5574V92.1421L37.6042 84.1536C37.6042 84.1536 38.722 83.6977 38.722 83.2345C38.722 82.9147 38.2866 82.7774 38.2866 82.7774L38.2866 82.7773Z" fill="#2A0088"/>
<path fill-rule="evenodd" clip-rule="evenodd" d="M27.3664 96.9981C27.5769 97.2086 27.5769 97.6718 27.5769 97.6718V100.694C27.5769 100.694 27.5648 101.247 27.3382 101.743C27.1116 102.24 26.7798 102.357 26.7798 102.357L26.0894 102.608L15.6055 106.415V101L26.0894 97.1926C26.0894 97.1926 27.1558 96.7877 27.3664 96.9982L27.3664 96.9981Z" fill="#2A0088"/>
<path fill-rule="evenodd" clip-rule="evenodd" d="M20.6033 108.299C20.8138 108.509 20.8138 108.973 20.8138 108.973V111.995C20.8138 111.995 20.8017 112.547 20.5751 113.044C20.3485 113.541 20.0167 113.658 20.0167 113.658L19.3264 113.909L15.6055 115.327V109.911L19.3264 108.493C19.3264 108.493 20.3928 108.088 20.6033 108.299L20.6033 108.299Z" fill="#2A0088"/>
</svg>
