<svg width="230" height="180" viewBox="0 0 230 180" fill="none" xmlns="http://www.w3.org/2000/svg">
<path d="M49.2091 80.4141C54.3268 80.4141 56.5554 82.4946 56.5554 86.0788C56.5554 88.5301 55.1729 90.2192 52.8617 90.9195V90.9814C54.3062 91.5169 55.0284 92.5057 55.9983 95.1012L57.8349 100.21H51.9331L50.5091 95.9663C49.8488 94.0506 49.0853 93.3503 47.3312 93.3503H45.9486V100.21H40.377V80.4347H49.2091V80.4141ZM45.9692 89.3128H48.3424C50.3647 89.3128 51.1489 88.3653 51.1489 86.8616C51.1489 85.2548 50.0964 84.5751 48.1979 84.5751H45.9692V89.3128Z" fill="#231F20"/>
<path d="M77.9326 100.189H70.9783L65.6336 91.3316H65.5717V100.189H60V80.4141H65.5717V88.7566H65.6336L70.8132 80.4141H77.5199L70.6482 89.7454L77.9326 100.189Z" fill="#231F20"/>
<path d="M85.8982 96.6411L84.8871 100.205H79.0059L85.6506 80.4297H92.8113L99.456 100.205H93.5748L92.5637 96.6411H85.8982ZM90.9953 90.9145C90.3762 88.7516 89.7984 86.424 89.3031 84.2405H89.2413C88.746 86.4034 88.1476 88.7311 87.5078 90.9145L87.1157 92.2741H91.3668L90.9953 90.9145Z" fill="#231F20"/>
<path d="M112.457 100.189L109.362 92.6087C108.35 90.1162 107.381 87.5001 106.514 84.9458H106.452C106.618 87.6443 106.679 90.3428 106.679 93.0206V100.189H101.355V80.4141H109.486L112.54 87.9945C113.572 90.487 114.542 93.1031 115.388 95.6573H115.45C115.305 92.9589 115.222 90.2604 115.222 87.5825V80.4141H120.547V100.189H112.457Z" fill="#231F20"/>
<path d="M141.944 96.0654V100.185H137.177V98.2901H137.115C135.939 99.7938 134.144 100.597 131.833 100.597C126.632 100.597 123.393 96.704 123.393 90.3801C123.393 83.912 127.128 79.957 133.216 79.957C138.313 79.957 141.696 82.6761 141.986 86.8371H136.084C135.836 85.3128 134.866 84.427 133.194 84.427C130.78 84.427 129.212 86.6723 129.212 90.3801C129.212 94.1291 130.739 96.4568 133.216 96.4568C135.361 96.4568 136.641 95.0767 136.744 92.8931H132.926V88.8352H141.924V96.0654" fill="#231F20"/>
<path d="M151.128 85.0076V87.9739H159.278V92.4439H151.128V95.6162H160.042V100.189H145.535V80.4141H159.856V84.9871H151.128V85.0076Z" fill="#231F20"/>
<path d="M177.541 95.5287V100.205H163.385V80.4297H168.957V95.5493H177.541V95.5287Z" fill="#231F20"/>
<path d="M185.115 85.0076V87.9739H193.266V92.4439H185.115V95.6162H194.051V100.189H179.543V80.4141H193.885V84.9871H185.115V85.0076Z" fill="#231F20"/>
<path d="M212.645 86.4045H206.805C206.805 84.9626 205.98 84.1592 204.349 84.1592C202.967 84.1592 202.141 84.7772 202.141 85.6835C202.141 86.8165 203.049 87.1461 205.732 87.7846C209.632 88.7322 213.058 89.8651 213.058 94.2321C213.058 98.1665 209.879 100.618 204.618 100.618C199.252 100.618 196.074 98.1253 196.074 93.7584H202.079C202.079 95.4268 202.946 96.292 204.804 96.292C206.31 96.292 207.176 95.6329 207.176 94.6029C207.176 93.3464 206.206 93.0786 203.689 92.44C199.851 91.41 196.446 90.4213 196.446 86.1573C196.446 82.4083 199.459 79.957 204.597 79.957C209.673 79.9776 212.645 82.1611 212.645 86.4045Z" fill="#231F20"/>
<path d="M21.7848 96.0654C21.0212 96.0654 20.2784 95.9212 19.5974 95.6328L18.0703 100.165H23.9516L24.9627 96.601L25.1278 96.0448H21.7848V96.0654Z" fill="#231F20"/>
<path d="M31.8737 80.3906H27.9528H24.713L21.3906 90.2987H26.7353C27.3131 88.3006 27.829 86.1995 28.283 84.222H28.3449C28.5307 85.0048 28.7164 85.7875 28.9227 86.5909C29.0053 86.9411 29.1085 87.2913 29.191 87.6621C29.191 87.6827 29.2117 87.7032 29.2117 87.7238C29.2942 88.0328 29.3767 88.3418 29.4386 88.6508C29.4592 88.7332 29.4799 88.8156 29.5006 88.898C29.5624 89.1452 29.645 89.413 29.7069 89.6602C29.7275 89.7425 29.7482 89.825 29.7688 89.928C29.8101 90.0516 29.8307 90.1752 29.872 90.2987L31.4816 96.0664L31.6467 96.6226L32.6578 100.186H38.539L31.8737 80.3906Z" fill="#231F20"/>
<path d="M21.782 96.0646H31.4809L29.8713 90.2969H16.0039C16.0039 93.4897 18.5834 96.0646 21.782 96.0646Z" fill="#0D30FF"/>
</svg>
