<svg width="95" height="60" viewBox="0 0 95 60" fill="none" xmlns="http://www.w3.org/2000/svg">
<path d="M90.1109 45.8237L4.89031 56.2173C4.60341 56.2618 4.31034 56.2422 4.03177 56.1596C3.75321 56.077 3.49593 55.9336 3.27811 55.7394C3.06028 55.5452 2.88721 55.305 2.7711 55.0357C2.65499 54.7665 2.59867 54.4747 2.60612 54.181V38.3785C2.62314 37.7434 2.86194 37.135 3.28011 36.6613C3.69828 36.1875 4.26877 35.8791 4.89031 35.7907L90.1109 25.3971C90.3972 25.3526 90.6897 25.3722 90.9677 25.4543C91.2458 25.5365 91.5027 25.6793 91.7204 25.8727C91.9381 26.0661 92.1113 26.3054 92.2279 26.5738C92.3444 26.8422 92.4015 27.1332 92.3951 27.4263V43.2359C92.3781 43.8709 92.1393 44.4794 91.7211 44.9531C91.3029 45.4269 90.7324 45.7353 90.1109 45.8237Z" fill="#5D5FF0"/>
<path d="M13.5788 23.4316L18.5244 30.3253C18.6781 30.5939 19.6351 30.6222 21.3884 30.4172C23.1417 30.2121 24.0079 29.9152 24.0009 29.5192L23.8472 22.2649L13.5788 23.4316ZM8.68913 31.4424C8.68913 31.7818 9.56229 31.8525 11.2807 31.6545C12.9991 31.4565 13.8652 31.1808 13.8582 30.8414L13.7046 23.4528L8.52148 24.0396L8.68913 31.4424Z" fill="white"/>
<path d="M36.7418 25.0012C36.5951 24.2022 36.3646 23.8275 36.0433 23.8628L34.0874 24.0891L34.0245 21.0771L28.4852 21.7205L28.5551 24.7325L26.6201 24.9587C26.3058 24.9941 26.0962 25.4254 26.0054 26.2526C25.9354 26.6587 25.9073 27.071 25.9216 27.4829C25.9266 27.887 25.9711 28.2896 26.0543 28.6849C26.187 29.4838 26.4106 29.8656 26.7528 29.8232L36.176 28.7273C36.4973 28.692 36.7069 28.2607 36.8256 27.4334C36.8889 27.0266 36.917 26.6149 36.9095 26.2031C36.893 25.7979 36.8368 25.3952 36.7418 25.0012V25.0012Z" fill="white"/>
<path d="M43.6854 19.9175L48.6379 26.8254C48.7986 27.087 49.7486 27.1223 51.5019 26.9173C53.2552 26.7122 54.1284 26.4082 54.1214 26.0122L53.9607 18.7438L43.6854 19.9175ZM38.7957 27.9425C38.7957 28.2819 39.6688 28.3455 41.3942 28.1475C43.1196 27.9496 44.0067 27.6809 44.0067 27.3415L43.846 19.9316L38.6699 20.5397L38.7957 27.9425Z" fill="white"/>
<path d="M61.7079 17.8458V18.0155C61.7615 18.5579 61.6436 19.1034 61.3712 19.5736C61.0987 20.0437 60.6859 20.4142 60.1921 20.6316L59.3259 20.872C58.5638 20.9466 57.7995 20.7545 57.1605 20.3276C56.7078 20.7703 56.3654 21.3156 56.1616 21.9184C55.8906 22.5383 55.7434 23.2063 55.7285 23.884C55.7404 24.3213 55.8887 24.7436 56.1522 25.0903C56.4157 25.4371 56.7809 25.6905 57.1954 25.8143C58.4862 26.2398 59.8597 26.3417 61.198 26.1112C62.82 25.9501 64.3479 25.2661 65.5568 24.1598C66.1556 23.6005 66.6232 22.9128 66.9253 22.1469C67.2275 21.3811 67.3566 20.5565 67.3031 19.7337L67.2473 17.1812L61.7079 17.8458Z" fill="white"/>
<path d="M84.2499 15.2086L70.6356 16.7994L68.8613 24.5275C68.8613 24.584 69.0779 24.6406 69.511 24.6901C70.1728 24.7419 70.8382 24.7182 71.4948 24.6194C73.1713 24.4214 74.0654 24.0255 74.1632 23.4315L74.8617 19.8256L79.3113 19.3095L80.3102 22.8447C80.4499 23.3608 81.3371 23.5517 82.9577 23.3326C83.4606 23.2689 84.1382 23.1558 84.9974 22.979C85.8565 22.8023 86.2757 22.6538 86.2757 22.5195L84.2499 15.2086Z" fill="white"/>
<path d="M24.4485 10.8037L24.693 22.1942L15.2977 23.3326L14.5573 23.4174L9.3812 24.0255L9.13672 12.4441C9.13672 12.1612 9.87017 11.9255 11.3371 11.737C12.0101 11.6681 12.6866 11.6422 13.3628 11.6592C14.1382 11.6592 14.6132 11.8077 14.7599 12.0693L19.454 20.2923L19.2584 11.4118C19.2584 11.0512 20.1176 10.7683 21.85 10.5704C23.5823 10.3724 24.4485 10.4502 24.4485 10.8037Z" fill="white"/>
<path d="M37.3082 11.2138C37.3221 11.6257 37.294 12.038 37.2244 12.4441C37.1266 13.2642 36.924 13.6955 36.6097 13.7309L34.7307 13.9501L34.8843 21.0205L29.338 21.6569L29.1843 14.5864L27.2424 14.848C26.9211 14.8834 26.6906 14.5016 26.5439 13.7097C26.4742 13.3104 26.4369 12.906 26.4321 12.5006C26.4225 12.0897 26.4412 11.6786 26.488 11.2704C26.5998 10.4502 26.8163 10.0189 27.1376 9.97646L36.5329 8.8876C36.8472 8.8876 37.0707 9.23406 37.2314 10.033C37.2953 10.4231 37.321 10.8186 37.3082 11.2138Z" fill="white"/>
<path d="M54.576 7.30381L54.8205 18.6802L45.4043 19.7973L44.7057 19.861L39.5366 20.469L39.2852 8.94416C39.2852 8.66134 40.0186 8.42566 41.4855 8.23711C42.1604 8.16221 42.8396 8.13386 43.5182 8.15227C44.2936 8.15227 44.7686 8.30782 44.9153 8.56943L49.5955 16.7924L49.4068 7.91187C49.4068 7.55128 50.2591 7.26846 51.9914 7.06342C53.7238 6.85837 54.569 6.94322 54.576 7.30381Z" fill="white"/>
<path d="M67.8758 6.32102L68.1063 17.1247L62.5669 17.7752L62.4202 10.7047L60.178 10.9663C59.8613 10.9993 59.6285 10.6175 59.4794 9.8209C59.4101 9.42396 59.3727 9.02198 59.3677 8.61892C59.3581 8.20802 59.3768 7.79694 59.4236 7.38866C59.5353 6.56141 59.7519 6.13011 60.0662 6.09476L66.7232 5.32408C66.8717 5.29112 67.0258 5.29445 67.1728 5.3338C67.3198 5.37315 67.4554 5.44737 67.5684 5.55034C67.6683 5.65123 67.747 5.7715 67.7998 5.90393C67.8526 6.03636 67.8784 6.17823 67.8758 6.32102V6.32102Z" fill="white"/>
<path d="M81.9238 3.83927C81.9238 3.69314 80.6431 3.7662 78.0819 4.05845C75.5322 4.35541 74.2539 4.58167 74.2609 4.7655L71.4668 16.7853L85.0811 15.1944L81.9238 3.83927ZM76.3775 16.0853L77.7745 10.0542H77.9422L79.3392 15.7601L76.3775 16.0853Z" fill="white"/>
<path d="M19.3419 50.2003C18.378 50.3135 17.8541 50.2003 17.7772 49.9175L17.2324 47.7964L14.578 48.1146L14.096 50.2357C14.0261 50.5892 13.4952 50.8296 12.4963 50.9427C12.1056 51.0005 11.71 51.0171 11.3158 50.9922C11.0574 50.9922 10.9316 50.9286 10.9316 50.8932L13.8794 39.1209C13.8794 39.029 14.6408 38.8947 16.1636 38.7108C17.6864 38.527 18.4478 38.4846 18.4478 38.5765L21.3258 49.6701C21.3258 49.7478 21.0743 49.8397 20.5644 49.9458C20.0544 50.0519 19.6423 50.2003 19.3419 50.2003ZM14.9971 45.9581L16.7434 45.7459L15.996 42.3309H15.8982L14.9971 45.9581Z" fill="white"/>
<path d="M29.3384 37.3745C29.9531 37.53 30.2605 37.8058 30.2605 38.2017C30.2222 38.7299 30.0721 39.2435 29.8204 39.7077C29.527 40.3229 29.2756 40.641 29.08 40.6693C29.0088 40.6683 28.9401 40.6435 28.8844 40.5986C28.7301 40.5183 28.5615 40.4702 28.3884 40.4572C28.1569 40.4212 27.9214 40.4212 27.6899 40.4572C27.3843 40.4857 27.0879 40.5784 26.8197 40.7294C26.5515 40.8803 26.3174 41.0862 26.1322 41.3339C25.6969 41.9738 25.4877 42.7436 25.5384 43.5187C25.4696 44.254 25.6877 44.9874 26.1462 45.5621C26.3445 45.7657 26.5882 45.9181 26.8569 46.0067C27.1255 46.0953 27.4111 46.1174 27.6899 46.0712C27.9834 46.0344 28.2718 45.9632 28.5491 45.859C28.8118 45.7903 29.0524 45.6539 29.2476 45.4631C29.2902 45.4367 29.3378 45.4198 29.3873 45.4136C29.4502 45.4136 29.5759 45.5197 29.7575 45.753C29.9689 46.0301 30.1384 46.3375 30.2605 46.6651C30.3912 46.9575 30.4693 47.2711 30.491 47.5913C30.491 48.0297 30.1627 48.4186 29.4921 48.7579C28.7487 49.1152 27.95 49.34 27.1311 49.4226C26.4826 49.5347 25.8171 49.4907 25.1885 49.2942C24.5598 49.0976 23.9858 48.7541 23.5127 48.2913C22.5813 47.3486 22.1156 45.9345 22.1156 44.049C22.0458 42.3682 22.5626 40.7162 23.5756 39.3825C24.0149 38.8088 24.5632 38.3299 25.1882 37.9741C25.8133 37.6183 26.5024 37.3928 27.2149 37.3109C27.9208 37.203 28.6401 37.2245 29.3384 37.3745V37.3745Z" fill="white"/>
<path d="M39.6076 47.7893C38.6436 47.9095 38.1197 47.7893 38.0429 47.5065L37.491 45.3853L34.8436 45.6964L34.3616 47.8176C34.2917 48.1782 33.7609 48.4115 32.762 48.5246C32.3692 48.5861 31.9709 48.6027 31.5745 48.5741C31.323 48.5741 31.1973 48.5105 31.1973 48.4751L34.1451 36.7664C34.1451 36.6745 34.9065 36.5402 36.4293 36.3563C37.952 36.1725 38.7065 36.1301 38.7065 36.2149L41.5914 47.3014C41.5914 47.3792 41.3399 47.4711 40.823 47.5772C40.3061 47.6832 39.9079 47.7539 39.6076 47.7893ZM35.2627 43.547L37.009 43.3419L36.2616 39.9411H36.1568L35.2627 43.547Z" fill="white"/>
<path d="M42.6931 46.6156V36.4907C42.6792 36.2386 42.7507 35.9892 42.8957 35.7837C42.9602 35.6963 43.0419 35.6236 43.1357 35.57C43.2295 35.5165 43.3334 35.4833 43.4405 35.4726L46.2347 35.1403C48.0089 34.9423 49.3454 35.2487 50.2442 36.0594C51.1663 36.8442 51.6413 38.1806 51.6413 40.1461C51.6413 44.28 49.8973 46.5567 46.4093 46.9762L43.5593 47.3156C42.9725 47.3722 42.6931 47.1318 42.6931 46.6156ZM45.8924 38.4068V43.4481C45.879 43.596 45.8956 43.7452 45.9413 43.8864C45.9413 43.9501 46.074 43.9642 46.2416 43.943C46.5246 43.9218 46.7986 43.8332 47.0414 43.6846C47.2841 43.5359 47.4888 43.3313 47.6387 43.0875C48.006 42.3586 48.1702 41.5422 48.1137 40.7259C48.1137 39.6583 47.9461 38.9724 47.6247 38.6896C47.3988 38.5322 47.1432 38.424 46.8739 38.3716C46.6045 38.3193 46.3274 38.3241 46.06 38.3856L45.8924 38.4068Z" fill="white"/>
<path d="M58.3692 38.3997C58.5858 38.3997 58.6905 38.7532 58.6905 39.538C58.6852 39.8224 58.6595 40.1059 58.6137 40.3865C58.5671 40.7117 58.4763 40.8814 58.3413 40.8956L56.2457 41.1501V42.84L59.3122 42.4723C59.5008 42.4723 59.6266 42.6773 59.6894 43.1793C59.7281 43.413 59.7468 43.6495 59.7453 43.8864C59.7372 44.2046 59.7022 44.5216 59.6405 44.8338C59.5777 45.2227 59.4659 45.4277 59.3122 45.449L53.6122 46.156C53.1861 46.2055 52.9766 46.057 52.9766 45.7106V34.7938C52.9766 34.5039 53.1023 34.3413 53.3608 34.313L59.3262 33.6059C59.5567 33.6059 59.6755 34.0584 59.6755 35.02C59.6755 35.9816 59.5567 36.526 59.3262 36.5543L56.2457 36.922V38.626L58.3692 38.3997Z" fill="white"/>
<path d="M72.8363 43.8369C71.8444 43.9571 71.3555 43.9005 71.3555 43.6814L71.0062 36.9573L68.9735 44.0278C68.9246 44.1692 68.5474 44.2823 67.8349 44.3672C67.1224 44.452 66.7591 44.4308 66.7382 44.3106L64.6426 37.629L64.4121 44.3884C64.4121 44.5581 64.1885 44.6995 63.7764 44.8056C63.1883 44.9884 62.5754 45.0767 61.9602 45.0672C61.4293 45.0672 61.1709 44.9399 61.1779 44.7419L61.5621 33.7332C61.5621 33.4575 62.2606 33.2453 63.5948 33.0827C64.0819 33.0279 64.5716 32.9995 65.0617 32.9979C65.6415 32.9979 65.9628 33.0757 66.0257 33.2453L67.8977 38.3361L69.5253 32.814C69.6301 32.51 70.3915 32.2696 71.8305 32.107C72.3199 32.0526 72.8119 32.0243 73.3044 32.0222C73.8771 32.0222 74.1566 32.0929 74.1566 32.2484L74.6455 43.2571C74.6455 43.3773 74.429 43.4975 73.9959 43.6036C73.6148 43.7069 73.2275 43.7849 72.8363 43.8369V43.8369Z" fill="white"/>
<path d="M81.7278 31.4706C81.8722 31.0606 82.5847 30.7777 83.8653 30.6222C84.1866 30.5868 84.5639 30.5656 85.0039 30.5586C85.444 30.5515 85.6466 30.5586 85.6116 30.6505L82.119 38.1169V42.2319C82.119 42.4228 81.8117 42.5925 81.2039 42.748C80.6107 42.9032 80.0005 42.9816 79.3878 42.9814C78.7731 42.9814 78.4727 42.8682 78.4727 42.6703V38.6542L74.8892 31.9656C74.8403 31.9019 75.0708 31.81 75.5878 31.6898C76.0068 31.5841 76.4312 31.5015 76.8591 31.4424C78.2561 31.2797 78.9547 31.3929 79.1083 31.7817L80.3308 35.0766L81.7278 31.4706Z" fill="white"/>
</svg>
