<svg width="230" height="180" viewBox="0 0 230 180" fill="none" xmlns="http://www.w3.org/2000/svg">
<path d="M50.505 96.6973C50.505 101.435 47.7729 104.327 43.4337 105.21C42.2284 105.451 40.2195 105.451 38.8535 105.451L28.327 105.371V109.386L19.0059 101.757L28.327 94.1274V98.1428L40.1392 98.2231C41.2642 98.2231 41.7463 97.5807 41.7463 96.9382C41.7463 95.7336 40.6213 95.332 37.2464 93.7259C31.8626 91.156 27.6842 89.3089 27.6842 83.4463C27.6842 78.8687 30.9787 75.7367 35.8 75.0942C36.7643 74.9336 38.6124 74.9336 39.7374 74.9336C42.1481 74.9336 48.8979 75.0942 48.8979 75.0942V82.4023L37.8089 82.2417C36.8446 82.2417 36.3625 82.8842 36.3625 83.5266C36.3625 84.4903 37.1661 84.8919 40.2999 86.3374C46.889 89.3892 50.505 91.0757 50.505 96.6973ZM67.942 96.1351C67.942 97.5004 66.7366 98.6247 64.5671 98.6247C62.2368 98.6247 61.1922 97.5004 61.1922 96.1351V75.0139H52.1121V96.8579C52.1121 101.676 56.1298 106.254 64.4867 106.254C72.4418 106.254 76.8613 101.757 76.8613 96.8579V75.0139H67.942V96.1351ZM104.744 96.2957C104.744 102.319 100.646 105.612 94.7001 105.612H79.6738V75.0139H94.1376C100.646 75.0139 103.941 78.6278 103.941 83.366C103.941 85.7753 102.816 87.8633 100.566 89.3892C103.218 90.8347 104.744 93.0834 104.744 96.2957ZM88.5932 87.1405H92.7716C94.3787 87.1405 95.1019 86.0162 95.1019 84.41C95.1019 82.7235 94.3787 81.6795 92.7716 81.6795H88.5932V87.1405ZM95.6644 95.8942C95.6644 94.0471 94.7805 93.0031 93.1734 93.0031H88.5932V98.7853H93.1734C94.8608 98.7853 95.6644 97.661 95.6644 95.8942Z" fill="#F2B700"/>
<path d="M134.797 75.0154H143.717V96.5382C143.717 101.517 140.181 106.015 132.708 106.015C129.494 106.015 127.003 105.051 125.235 103.605C123.467 105.051 121.057 106.015 118.084 106.015C110.129 106.015 106.834 101.517 106.834 96.5382V75.0154H115.753V96.3776C115.753 97.261 116.235 98.3853 118.244 98.3853C120.253 98.3853 120.816 97.3413 120.816 96.3776V75.0154H129.735V96.3776C129.735 97.261 130.217 98.3853 132.226 98.3853C134.235 98.3853 134.797 97.3413 134.797 96.3776V75.0154V75.0154ZM182.126 87.0618V75.0154H173.287V87.8648C173.287 92.1212 176.18 95.3336 181.082 96.6988V105.533H190.162V96.6988C195.144 95.3336 197.876 92.1212 197.876 87.8648V83.1266C197.876 82.6448 198.117 82.4038 198.599 82.4038H202.537V86.2587L211.858 78.6293L202.537 71V74.8548H196.349C191.126 74.8548 188.957 77.9066 188.957 82.2432V87.0618C188.957 88.1861 188.153 89.5513 185.501 89.5513C182.93 89.5513 182.126 88.1861 182.126 87.0618ZM171.037 83.7691V105.613H162.118V96.6988H155.368V105.533H146.449V83.7691C146.449 78.3081 150.949 74.132 158.743 74.132C166.457 74.132 171.037 78.2278 171.037 83.7691ZM162.118 89.7119V84.2509C162.118 82.8054 161.073 81.7614 158.743 81.7614C156.333 81.7614 155.368 82.8054 155.368 84.2509V89.7119H162.118Z" fill="#008938"/>
</svg>
