<svg id="evSgZa5AspR1" xmlns="http://www.w3.org/2000/svg" xmlns:xlink="http://www.w3.org/1999/xlink" viewBox="0 0 95 60" shape-rendering="geometricPrecision" text-rendering="geometricPrecision"><style><![CDATA[#evSgZa5AspR2_ts {animation: evSgZa5AspR2_ts__ts 10000ms linear infinite normal forwards}@keyframes evSgZa5AspR2_ts__ts { 0% {transform: translate(47.500525px,30px) scale(0.963393,0.963393)} 66% {transform: translate(47.500525px,30px) scale(0.963393,0.963393);animation-timing-function: cubic-bezier(0.55,0.055,0.675,0.19)} 69% {transform: translate(47.500525px,30px) scale(0,0)} 100% {transform: translate(47.500525px,30px) scale(0,0)}} #evSgZa5AspR3_tr {animation: evSgZa5AspR3_tr__tr 10000ms linear infinite normal forwards}@keyframes evSgZa5AspR3_tr__tr { 0% {transform: translate(47.500524px,40.80719px) rotate(-19.974115deg)} 5% {transform: translate(47.500524px,40.80719px) rotate(-19.974115deg);animation-timing-function: cubic-bezier(0.445,0.05,0.55,0.95)} 8% {transform: translate(47.500524px,40.80719px) rotate(0deg)} 100% {transform: translate(47.500524px,40.80719px) rotate(0deg)}} #evSgZa5AspR3_ts {animation: evSgZa5AspR3_ts__ts 10000ms linear infinite normal forwards}@keyframes evSgZa5AspR3_ts__ts { 0% {transform: scale(0,0.5)} 6% {transform: scale(0,0.5);animation-timing-function: cubic-bezier(0.215,0.61,0.355,1)} 9% {transform: scale(1,1)} 100% {transform: scale(1,1)}} #evSgZa5AspR13_ts {animation: evSgZa5AspR13_ts__ts 10000ms linear infinite normal forwards}@keyframes evSgZa5AspR13_ts__ts { 0% {transform: translate(77.5685px,14.241487px) scale(0,0)} 4% {transform: translate(77.5685px,14.241487px) scale(0,0)} 6% {transform: translate(77.5685px,14.241487px) scale(1,1)} 100% {transform: translate(77.5685px,14.241487px) scale(1,1)}} #evSgZa5AspR16_ts {animation: evSgZa5AspR16_ts__ts 10000ms linear infinite normal forwards}@keyframes evSgZa5AspR16_ts__ts { 0% {transform: translate(61.9174px,16.540775px) scale(0,0)} 3% {transform: translate(61.9174px,16.540775px) scale(0,0);animation-timing-function: cubic-bezier(0.25,0.46,0.45,0.94)} 5% {transform: translate(61.9174px,16.540775px) scale(1,1)} 100% {transform: translate(61.9174px,16.540775px) scale(1,1)}} #evSgZa5AspR19_ts {animation: evSgZa5AspR19_ts__ts 10000ms linear infinite normal forwards}@keyframes evSgZa5AspR19_ts__ts { 0% {transform: translate(46.745199px,17.606574px) scale(0,0)} 2% {transform: translate(46.745199px,17.606574px) scale(0,0);animation-timing-function: cubic-bezier(0.25,0.46,0.45,0.94)} 4% {transform: translate(46.745199px,17.606574px) scale(1,1)} 100% {transform: translate(46.745199px,17.606574px) scale(1,1)}} #evSgZa5AspR22_ts {animation: evSgZa5AspR22_ts__ts 10000ms linear infinite normal forwards}@keyframes evSgZa5AspR22_ts__ts { 0% {transform: translate(31.614816px,19.35699px) scale(0,0)} 1% {transform: translate(31.614816px,19.35699px) scale(0,0);animation-timing-function: cubic-bezier(0.25,0.46,0.45,0.94)} 3% {transform: translate(31.614816px,19.35699px) scale(1,1)} 100% {transform: translate(31.614816px,19.35699px) scale(1,1)}} #evSgZa5AspR25_ts {animation: evSgZa5AspR25_ts__ts 10000ms linear infinite normal forwards}@keyframes evSgZa5AspR25_ts__ts { 0% {transform: translate(16.60724px,21.113857px) scale(0,0);animation-timing-function: cubic-bezier(0.25,0.46,0.45,0.94)} 2% {transform: translate(16.60724px,21.113857px) scale(1,1)} 100% {transform: translate(16.60724px,21.113857px) scale(1,1)}} #evSgZa5AspR28_ts {animation: evSgZa5AspR28_ts__ts 10000ms linear infinite normal forwards}@keyframes evSgZa5AspR28_ts__ts { 0% {transform: translate(47.135602px,30.451398px) scale(0,0)} 69.8% {transform: translate(47.135602px,30.451398px) scale(0,0);animation-timing-function: cubic-bezier(0.215,0.61,0.355,1)} 73% {transform: translate(47.135602px,30.451398px) scale(2.6,2.6)} 74% {transform: translate(47.135602px,30.451398px) scale(2.461251,2.461257)} 97% {transform: translate(47.135602px,30.451398px) scale(2.461251,2.461257);animation-timing-function: cubic-bezier(0.55,0.055,0.675,0.19)} 100% {transform: translate(47.135602px,30.451398px) scale(0,0)}} #evSgZa5AspR29_to {animation: evSgZa5AspR29_to__to 10000ms linear infinite normal forwards}@keyframes evSgZa5AspR29_to__to { 0% {transform: translate(16.648746px,17.320374px)} 70% {transform: translate(16.648746px,17.320374px);animation-timing-function: cubic-bezier(0.42,0,1,1)} 72% {transform: translate(17.055043px,17.413805px)} 100% {transform: translate(17.055043px,17.413805px)}} #evSgZa5AspR30_to {animation: evSgZa5AspR30_to__to 10000ms linear infinite normal forwards}@keyframes evSgZa5AspR30_to__to { 0% {transform: translate(16.871446px,27.014414px)} 70% {transform: translate(16.871446px,27.014414px);animation-timing-function: cubic-bezier(0.42,0,1,1)} 72% {transform: translate(16.465149px,27.014414px)} 100% {transform: translate(16.465149px,27.014414px)}}]]></style><g id="evSgZa5AspR2_ts" transform="translate(47.500525,30) scale(0.963393,0.963393)"><g transform="translate(-47.500525,-30.003359)"><g id="evSgZa5AspR3_tr" transform="translate(47.500524,40.80719) rotate(-19.974115)"><g id="evSgZa5AspR3_ts" transform="scale(0,0.5)"><g transform="translate(-47.500524,-40.80719)"><path d="M90.1109,45.8237L4.89031,56.2173c-.2869.0445-.57997.0249-.85854-.0577s-.53584-.226-.75366-.4202-.3909-.4344-.50701-.7037c-.11611-.2692-.17243-.561-.16498-.8547v-15.8025c.01702-.6351.25582-1.2435.67399-1.7172s.98866-.7822,1.6102-.8706L90.1109,25.3971c.2863-.0445.5788-.0249.8568.0572.2781.0822.535.225.7527.4184s.3909.4327.5075.7011c.1165.2684.1736.5594.1672.8525v15.8096c-.017.635-.2558,1.2435-.674,1.7172-.4182.4738-.9887.7822-1.6102.8706Z" fill="#5d5ff0"/><path d="M19.3419,50.2003c-.9639.1132-1.4878,0-1.5647-.2828l-.5448-2.1211-2.6544.3182-.482,2.1211c-.0699.3535-.6008.5939-1.5997.707-.3907.0578-.7863.0744-1.1805.0495-.2584,0-.3842-.0636-.3842-.099l2.9478-11.7723c0-.0919.7614-.2262,2.2842-.4101c1.5228-.1838,2.2842-.2262,2.2842-.1343l2.878,11.0936c0,.0777-.2515.1696-.7614.2757s-.9221.2545-1.2225.2545Zm-4.3448-4.2422l1.7463-.2122-.7474-3.415h-.0978l-.9011,3.6272Z" fill="#fff"/><path d="M29.3384,37.3745c.6147.1555.9221.4313.9221.8272-.0383.5282-.1884,1.0418-.4401,1.506-.2934.6152-.5448.9333-.7404.9616-.0712-.001-.1399-.0258-.1956-.0707-.1543-.0803-.3229-.1284-.496-.1414-.2315-.036-.467-.036-.6985,0-.3056.0285-.602.1212-.8702.2722s-.5023.3568-.6875.6045c-.4353.6399-.6445,1.4097-.5938,2.1848-.0688.7353.1493,1.4687.6078,2.0434.1983.2036.442.356.7107.4446s.5542.1107.833.0645c.2935-.0368.5819-.108.8592-.2122.2627-.0687.5033-.2051.6985-.3959.0426-.0264.0902-.0433.1397-.0495.0629,0,.1886.1061.3702.3394.2114.2771.3809.5845.503.9121.1307.2924.2088.606.2305.9262c0,.4384-.3283.8273-.9989,1.1666-.7434.3573-1.5421.5821-2.361.6647-.6485.1121-1.314.0681-1.9426-.1284-.6287-.1966-1.2027-.5401-1.6758-1.0029-.9314-.9427-1.3971-2.3568-1.3971-4.2423-.0698-1.6808.447-3.3328,1.46-4.6665.4393-.5737.9876-1.0526,1.6126-1.4084.6251-.3558,1.3142-.5813,2.0267-.6632.7059-.1079,1.4252-.0864,2.1235.0636v0Z" fill="#fff"/><path d="M39.6076,47.7893c-.964.1202-1.4879,0-1.5647-.2828l-.5519-2.1212-2.6474.3111-.482,2.1212c-.0699.3606-.6007.5939-1.5996.707-.3928.0615-.7911.0781-1.1875.0495-.2515,0-.3772-.0636-.3772-.099l2.9478-11.7087c0-.0919.7614-.2262,2.2842-.4101c1.5227-.1838,2.2772-.2262,2.2772-.1414l2.8849,11.0865c0,.0778-.2515.1697-.7684.2758s-.9151.1767-1.2154.2121ZM35.2627,43.547l1.7463-.2051-.7474-3.4008h-.1048l-.8941,3.6059Z" fill="#fff"/><path d="M42.6931,46.6156v-10.1249c-.0139-.2521.0576-.5015.2026-.707.0645-.0874.1462-.1601.24-.2137.0938-.0535.1977-.0867.3048-.0974l2.7942-.3323c1.7742-.198,3.1107.1084,4.0095.9191.9221.7848,1.3971,2.1212,1.3971,4.0867c0,4.1339-1.744,6.4106-5.232,6.8301l-2.85.3394c-.5868.0566-.8662-.1838-.8662-.7Zm3.1993-8.2088v5.0413c-.0134.1479.0032.2971.0489.4383c0,.0637.1327.0778.3003.0566.283-.0212.557-.1098.7998-.2584.2427-.1487.4474-.3533.5973-.5971.3673-.7289.5315-1.5453.475-2.3616c0-1.0676-.1676-1.7535-.489-2.0363-.2259-.1574-.4815-.2656-.7508-.318s-.5465-.0475-.8139.014l-.1676.0212Z" fill="#fff"/><path d="M58.3692,38.3997c.2166,0,.3213.3535.3213,1.1383-.0053.2844-.031.5679-.0768.8485-.0466.3252-.1374.4949-.2724.5091l-2.0956.2545v1.6899l3.0665-.3677c.1886,0,.3144.205.3772.707.0387.2337.0574.4702.0559.7071-.0081.3182-.0431.6352-.1048.9474-.0628.3889-.1746.5939-.3283.6152l-5.7.707c-.4261.0495-.6356-.099-.6356-.4454v-10.9168c0-.2899.1257-.4525.3842-.4808l5.9654-.7071c.2305,0,.3493.4525.3493,1.4141s-.1188,1.506-.3493,1.5343l-3.0805.3677v1.704l2.1235-.2263Z" fill="#fff"/><path d="M72.8363,43.8369c-.9919.1202-1.4808.0636-1.4808-.1555l-.3493-6.7241-2.0327,7.0705c-.0489.1414-.4261.2545-1.1386.3394s-1.0758.0636-1.0967-.0566L64.6426,37.629l-.2305,6.7594c0,.1697-.2236.3111-.6357.4172-.5881.1828-1.201.2711-1.8162.2616-.5309,0-.7893-.1273-.7823-.3253l.3842-11.0087c0-.2757.6985-.4879,2.0327-.6505.4871-.0548.9768-.0832,1.4669-.0848.5798,0,.9011.0778.964.2474l1.872,5.0908l1.6276-5.5221c.1048-.304.8662-.5444,2.3052-.707.4894-.0544.9814-.0827,1.4739-.0848.5727,0,.8522.0707.8522.2262l.4889,11.0087c0,.1202-.2165.2404-.6496.3465-.3811.1033-.7684.1813-1.1596.2333v0Z" fill="#fff"/><path d="M81.7278,31.4706c.1444-.41.8569-.6929,2.1375-.8484.3213-.0354.6986-.0566,1.1386-.0636.4401-.0071.6427,0,.6077.0919L82.119,38.1169v4.115c0,.1909-.3073.3606-.9151.5161-.5932.1552-1.2034.2336-1.8161.2334-.6147,0-.9151-.1132-.9151-.3111v-4.0161l-3.5835-6.6886c-.0489-.0637.1816-.1556.6986-.2758.419-.1057.8434-.1883,1.2713-.2474c1.397-.1627,2.0956-.0495,2.2492.3393l1.2225,3.2949l1.397-3.606Z" fill="#fff"/></g></g></g><g><g id="evSgZa5AspR13_ts" transform="translate(77.5685,14.241487) scale(0,0)"><g transform="translate(-77.5685,-14.241487)"><path d="M84.2499,15.2086L70.6356,16.7994l-1.7743,7.7281c0,.0565.2166.1131.6497.1626.6618.0518,1.3272.0281,1.9838-.0707c1.6765-.198,2.5706-.5939,2.6684-1.1879l.6985-3.6059l4.4496-.5161.9989,3.5352c.1397.5161,1.0269.707,2.6475.4879.5029-.0637,1.1805-.1768,2.0397-.3536.8591-.1767,1.2783-.3252,1.2783-.4595l-2.0258-7.3109Z" fill="#fafafa"/><path d="M81.9238,3.83927c0-.14613-1.2807-.07307-3.8419.21918-2.5497.29696-3.828.52322-3.821.70705L71.4668,16.7853l13.6143-1.5909L81.9238,3.83927ZM76.3775,16.0853l1.397-6.0311h.1677l1.397,5.7059-2.9617.3252Z" fill="#fafafa"/></g></g><g id="evSgZa5AspR16_ts" transform="translate(61.9174,16.540775) scale(0,0)"><g transform="translate(-61.9174,-15.766525)"><path d="M61.7079,17.8458v.1697c.0536.5424-.0643,1.0879-.3367,1.5581-.2725.4701-.6853.8406-1.1791,1.058l-.8662.2404c-.7621.0746-1.5264-.1175-2.1654-.5444-.4527.4427-.7951.988-.9989,1.5908-.271.6199-.4182,1.2879-.4331,1.9656.0119.4373.1602.8596.4237,1.2063.2635.3468.6287.6002,1.0432.724c1.2908.4255,2.6643.5274,4.0026.2969c1.622-.1611,3.1499-.8451,4.3588-1.9514.5988-.5593,1.0664-1.247,1.3685-2.0129.3022-.7658.4313-1.5904.3778-2.4132l-.0558-2.5525-5.5394.6646Z" fill="#fafafa"/><path d="M67.8758,6.32102l.2305,10.80368-5.5394.6505-.1467-7.0705-2.2422.2616c-.3167.033-.5495-.3488-.6986-1.1454-.0693-.39694-.1067-.79892-.1117-1.20198-.0096-.4109.0091-.82198.0559-1.23026.1117-.82725.3283-1.25855.6426-1.2939l6.657-.77068c.1485-.03296.3026-.02963.4496.00972s.2826.11357.3956.21654c.0999.10089.1786.22116.2314.35359s.0786.2743.076.41709v0Z" fill="#fafafa"/></g></g><g id="evSgZa5AspR19_ts" transform="translate(46.745199,17.606574) scale(0,0)"><g transform="translate(-46.745199,-17.606574)"><path d="M43.6854,19.9175l4.9525,6.9079c.1607.2616,1.1107.2969,2.864.0919c1.7533-.2051,2.6265-.5091,2.6195-.9051l-.1607-7.2684-10.2753,1.1737Zm-4.8897,8.025c0,.3394.8731.403,2.5985.205s2.6125-.4666,2.6125-.806l-.1607-7.4099-5.1761.6081.1258,7.4028Z" fill="#fafafa"/><path d="M54.576,7.30381l.2445,11.37639-9.4162,1.1171-.6986.0637-5.1691.608-.2514-11.52484c0-.28282.7334-.5185,2.2003-.70705.6749-.0749,1.3541-.10325,2.0327-.08484.7754,0,1.2504.15555,1.3971.41716l4.6802,8.22297-.1887-8.88053c0-.36059.8523-.64341,2.5846-.84845s2.5776-.1202,2.5846.24039Z" fill="#fafafa"/></g></g><g id="evSgZa5AspR22_ts" transform="translate(31.614816,19.35699) scale(0,0)"><g transform="translate(-31.614816,-19.35699)"><path d="M36.7418,25.0012c-.1467-.799-.3772-1.1737-.6985-1.1384l-1.9559.2263-.0629-3.012-5.5393.6434.0699,3.012-1.935.2262c-.3143.0354-.5239.4667-.6147,1.2939-.07.4061-.0981.8184-.0838,1.2303.005.4041.0495.8067.1327,1.202.1327.7989.3563,1.1807.6985,1.1383l9.4232-1.0959c.3213-.0353.5309-.4666.6496-1.2939.0633-.4068.0914-.8185.0839-1.2303-.0165-.4052-.0727-.8079-.1677-1.2019v0Z" fill="#fafafa"/><path d="M37.3082,11.2138c.0139.4119-.0142.8242-.0838,1.2303-.0978.8201-.3004,1.2514-.6147,1.2868l-1.879.2192.1536,7.0704-5.5463.6364-.1537-7.0705-1.9419.2616c-.3213.0354-.5518-.3464-.6985-1.1383-.0697-.3993-.107-.8037-.1118-1.2091-.0096-.4109.0091-.822.0559-1.2302.1118-.8202.3283-1.2515.6496-1.29394L36.5329,8.8876c.3143,0,.5378.34646.6985,1.1454.0639.3901.0896.7856.0768,1.1808Z" fill="#fafafa"/></g></g><g id="evSgZa5AspR25_ts" transform="translate(16.60724,21.113857) scale(0,0)"><g transform="translate(-16.60724,-21.113857)"><path d="M13.5788,23.4316l4.9456,6.8937c.1537.2686,1.1107.2969,2.864.0919c1.7533-.2051,2.6195-.502,2.6125-.898l-.1537-7.2543-10.2684,1.1667ZM8.68913,31.4424c0,.3394.87316.4101,2.59157.2121s2.5845-.4737,2.5775-.8131l-.1536-7.3886-5.18312.5868.16765,7.4028Z" fill="#fafafa"/><path d="M24.4485,10.8037l.2445,11.3905-9.3953,1.1384-.7404.0848-5.1761.6081-.24448-11.5814c0-.2829.73345-.5186,2.20038-.7071.673-.0689,1.3495-.0948,2.0257-.0778.7754,0,1.2504.1485,1.3971.4101l4.6941,8.223-.1956-8.8805c0-.3606.8592-.6435,2.5916-.8414c1.7323-.198,2.5985-.1202,2.5985.2333Z" fill="#fafafa"/></g></g></g></g></g><g id="evSgZa5AspR28_ts" transform="translate(47.135602,30.451398) scale(0,0)"><g transform="translate(-16.60724,-21.113857)"><g id="evSgZa5AspR29_to" transform="translate(16.648746,17.320374)"><path d="M24.4485,10.8037l.2445,11.3905-9.3953,1.1384-.7404.0848-5.1761.6081-.24448-11.5814c0-.2829.73345-.5186,2.20038-.7071.673-.0689,1.3495-.0948,2.0257-.0778.7754,0,1.2504.1485,1.3971.4101l4.6941,8.223-.1956-8.8805c0-.3606.8592-.6435,2.5916-.8414c1.7323-.198,2.5985-.1202,2.5985.2333Z" transform="translate(-16.91486,-17.244643)" fill="#fafafa"/></g><g id="evSgZa5AspR30_to" transform="translate(16.871446,27.014414)"><path d="M13.5788,23.4316l4.9456,6.8937c.1537.2686,1.1107.2969,2.864.0919c1.7533-.2051,2.6195-.502,2.6125-.898l-.1537-7.2543-10.2684,1.1667ZM8.68913,31.4424c0,.3394.87316.4101,2.59157.2121s2.5845-.4737,2.5775-.8131l-.1536-7.3886-5.18312.5868.16765,7.4028Z" transform="translate(-16.261211,-27.014414)" fill="#fafafa"/></g></g></g></svg>