<svg width="230" height="180" viewBox="0 0 230 180" fill="none" xmlns="http://www.w3.org/2000/svg">
<path d="M101.692 93.9018H114.755L107.855 82.648L95.1699 102.974H89.4017L104.829 78.588C105.166 78.1014 105.613 77.7033 106.133 77.427C106.653 77.1507 107.231 77.0043 107.818 77.0001C108.406 76.9959 108.986 77.1339 109.51 77.4026C110.033 77.6714 110.486 78.063 110.829 78.5447L126.3 102.974H120.531L117.814 98.4292H104.598L101.718 93.9018H101.692ZM161.655 98.4292V77.2462H156.752V100.515C156.751 100.839 156.815 101.159 156.941 101.457C157.066 101.754 157.25 102.023 157.481 102.247C157.713 102.487 157.99 102.677 158.296 102.806C158.603 102.936 158.932 103.002 159.263 103H181.548L184.454 98.4552H161.629L161.655 98.4292ZM80.5993 94.6462C82.8838 94.6462 85.0748 93.7296 86.6902 92.0981C88.3056 90.4665 89.2131 88.2536 89.2131 85.9462C89.2131 83.6389 88.3056 81.426 86.6902 79.7944C85.0748 78.1628 82.8838 77.2462 80.5993 77.2462H59.1719V102.974H64.0659V81.7997H80.2993C81.3927 81.7997 82.4413 82.2384 83.2144 83.0192C83.9876 83.8001 84.4219 84.8592 84.4219 85.9636C84.4219 87.0679 83.9876 88.127 83.2144 88.9079C82.4413 89.6887 81.3927 90.1274 80.2993 90.1274H66.4915L81.1135 102.974H88.2189L78.3966 94.6462H80.5993ZM29.0707 102.974H43.8728C47.1923 102.887 50.347 101.494 52.6645 99.0918C54.9819 96.6897 56.2788 93.4684 56.2788 90.1144C56.2788 86.7605 54.9819 83.5392 52.6645 81.1371C50.347 78.7349 47.1923 77.3419 43.8728 77.2549H29.0707C27.3709 77.2103 25.6795 77.51 24.0962 78.1362C22.5129 78.7625 21.0697 79.7026 19.8519 80.9011C18.6341 82.0996 17.6661 83.5323 17.0053 85.1147C16.3444 86.697 16.0039 88.3971 16.0039 90.1144C16.0039 91.8318 16.3444 93.5318 17.0053 95.1142C17.6661 96.6966 18.6341 98.1293 19.8519 99.3278C21.0697 100.526 22.5129 101.466 24.0962 102.093C25.6795 102.719 27.3709 103.019 29.0707 102.974V102.974ZM43.5385 98.4465H29.3964C27.2568 98.3768 25.2278 97.4694 23.7387 95.916C22.2496 94.3627 21.417 92.2853 21.417 90.1231C21.417 87.9609 22.2496 85.8835 23.7387 84.3302C25.2278 82.7768 27.2568 81.8694 29.3964 81.7997H43.5385C44.6431 81.7637 45.7435 81.9523 46.7745 82.3544C47.8055 82.7565 48.7459 83.3639 49.5398 84.1403C50.3338 84.9168 50.9651 85.8465 51.3962 86.8743C51.8274 87.9021 52.0495 89.0069 52.0495 90.1231C52.0495 91.2393 51.8274 92.3441 51.3962 93.3719C50.9651 94.3997 50.3338 95.3294 49.5398 96.1059C48.7459 96.8823 47.8055 97.4897 46.7745 97.8918C45.7435 98.2939 44.6431 98.4825 43.5385 98.4465V98.4465ZM136.525 102.974H151.635L154.498 98.4465H136.859C135.754 98.4825 134.654 98.2939 133.623 97.8918C132.592 97.4897 131.652 96.8823 130.858 96.1059C130.064 95.3294 129.432 94.3997 129.001 93.3719C128.57 92.3441 128.348 91.2393 128.348 90.1231C128.348 89.0069 128.57 87.9021 129.001 86.8743C129.432 85.8465 130.064 84.9168 130.858 84.1403C131.652 83.3639 132.592 82.7565 133.623 82.3544C134.654 81.9523 135.754 81.7637 136.859 81.7997H151.215L154.112 77.2549H136.525C134.825 77.2103 133.134 77.51 131.55 78.1362C129.967 78.7625 128.524 79.7026 127.306 80.9011C126.088 82.0996 125.12 83.5323 124.459 85.1147C123.798 86.697 123.458 88.3971 123.458 90.1144C123.458 91.8318 123.798 93.5318 124.459 95.1142C125.12 96.6966 126.088 98.1293 127.306 99.3278C128.524 100.526 129.967 101.466 131.55 102.093C133.134 102.719 134.825 103.019 136.525 102.974V102.974ZM196.41 98.4465C194.614 98.4472 192.867 97.8558 191.435 96.762C190.002 95.6683 188.962 94.132 188.473 92.3868H209.404L212.283 87.8507H188.473C188.961 86.1048 190.001 84.5678 191.433 83.4738C192.866 82.3798 194.614 81.7889 196.41 81.791H210.775L213.646 77.2462H196.076C192.756 77.3332 189.601 78.7262 187.284 81.1284C184.967 83.5305 183.67 86.7519 183.67 90.1058C183.67 93.4597 184.967 96.681 187.284 99.0832C189.601 101.485 192.756 102.878 196.076 102.965H211.186L214.058 98.4379H196.401" fill="#C74634"/>
</svg>
