<svg width="230" height="180" viewBox="0 0 230 180" fill="none" xmlns="http://www.w3.org/2000/svg">
<path d="M62.9902 37.9648V142.041H167.096V37.9648H62.9902Z" fill="white"/>
<path d="M62.9902 37.9648V142.041H167.096V37.9648H62.9902ZM160.169 81.226C159.998 84.468 158.965 88.5093 158.056 91.2095C154.395 102.082 150.151 108.823 140.322 108.823C137.428 108.823 132.294 108.056 130.403 102.908L129.954 101.687L129.149 102.707C126.075 106.6 121.507 108.846 116.619 108.869C112.868 108.886 109.855 107.631 107.905 105.235L107.37 104.578L106.801 105.206C104.719 107.504 101.093 108.822 96.8519 108.822C93.5221 108.822 90.6469 107.69 88.7551 105.639L88.2399 105.079L87.7041 105.62C85.601 107.743 82.2873 108.813 78.1206 108.715C73.0656 108.595 69.9881 105.774 69.8883 101.168C69.7358 94.0652 76.6116 79.1213 79.4576 74.5776C81.3053 71.5425 83.8463 70.0711 87.2282 70.0711C89.5301 70.0711 91.1046 70.5519 92.0398 71.5425C92.8915 72.4438 93.0598 73.2037 93.1357 75.0315L93.2332 77.3946L94.4808 75.385C97.499 70.5237 102.501 69.8523 107.457 69.8523C110.902 69.8523 113.909 71.1191 115.117 73.0794L115.562 73.8022L116.207 73.2535C118.761 71.0833 122.365 69.8888 126.354 69.8888C130.708 69.8888 133.872 70.971 135.759 73.1054C136.188 73.59 136.471 73.9287 136.865 74.7569L137.35 75.7736L138.077 74.9141C140.841 71.6465 144.613 69.9907 149.294 69.9907C153.001 69.9907 155.816 70.9761 157.658 72.9193C159.969 75.3539 160.299 78.7803 160.169 81.2262V81.226Z" fill="#F6EC36"/>
<path d="M62.9902 37.9648V142.041H167.096V37.9648H62.9902ZM163.101 85.2189C162.63 89.0065 160.069 96.024 158.709 98.8284C155.059 106.347 150.183 112.123 140.787 112.123C135.768 112.123 131.639 110.523 129.225 107.447C125.689 110.544 121.313 112.167 116.602 112.167C112.972 112.167 109.764 111.119 107.318 109.181C104.618 111.082 100.975 112.143 96.9374 112.143C93.5652 112.143 90.5308 111.217 88.156 109.506C85.5287 111.249 82.0855 112.115 78.0439 112.02C71.3191 111.861 66.676 107.596 66.5426 101.405C66.367 93.1803 73.295 78.127 76.5601 72.914C79.0036 68.9011 82.7332 66.7422 87.3034 66.7422C92.2638 66.7422 94.0618 68.1584 94.9469 69.9617C98.7742 66.7123 103.848 66.5254 107.46 66.5254C111.447 66.5254 113.949 67.5838 116.077 69.2771C119.016 67.5145 122.388 66.5984 126.403 66.5984C131.538 66.5984 135.352 67.7923 138.013 70.4217C141.116 67.8398 145.002 66.6633 149.351 66.6633C155.102 66.6633 158.886 68.7367 161.109 71.8283C164.238 76.1889 163.678 80.5785 163.101 85.2189Z" fill="#D01012"/>
<path d="M62.2734 37.2578V142.742H167.786V37.2578H62.2734ZM166.335 38.7107V141.293H63.7257V38.7107H166.335H166.335Z" fill="black"/>
<path d="M162.59 68.9104V68.1922H163.078C163.434 68.1922 163.62 68.3172 163.62 68.5486C163.62 68.7324 163.501 68.9104 163.138 68.9104H162.59ZM164.34 70.4003L164.037 69.8733C163.773 69.4127 163.7 69.3397 163.475 69.2608V69.2466C163.918 69.1947 164.182 68.9095 164.182 68.5152C164.182 68.0982 163.918 67.7828 163.356 67.7828H162.05V70.4018H162.591V69.3292H162.69C162.922 69.3292 163.014 69.3554 163.119 69.4602C163.225 69.5674 163.383 69.7899 163.476 69.9739L163.687 70.4018L164.34 70.4003V70.4003ZM163.052 67.0535C164.176 67.0535 165.089 67.96 165.089 69.0822C165.089 70.2046 164.174 71.1148 163.052 71.1148C161.931 71.1148 161.027 70.2032 161.027 69.0822C161.027 67.9614 161.93 67.0535 163.052 67.0535ZM163.052 66.5549C161.654 66.5549 160.526 67.6831 160.526 69.0822C160.526 70.4807 161.654 71.608 163.052 71.608C163.384 71.6089 163.713 71.5441 164.02 71.4175C164.327 71.2909 164.606 71.1049 164.841 70.8702C165.076 70.6356 165.262 70.3568 165.389 70.05C165.516 69.7431 165.581 69.4142 165.58 69.0822C165.581 68.75 165.517 68.4209 165.39 68.1138C165.263 67.8067 165.077 67.5277 164.842 67.2928C164.607 67.0579 164.328 66.8717 164.02 66.7451C163.713 66.6184 163.384 66.5537 163.052 66.5547V66.5549ZM149.292 69.2616C143.839 69.2616 140.071 71.4228 137.52 74.4423C137.089 73.5389 136.762 73.1429 136.301 72.621C134.213 70.2619 130.857 69.1611 126.352 69.1611C121.951 69.1611 118.281 70.5351 115.734 72.6993C114.411 70.5485 111.257 69.1246 107.454 69.1246C102.486 69.1246 97.0722 69.8272 93.8598 75.0012C93.7825 73.1384 93.6142 72.1523 92.5669 71.0441C91.2937 69.697 89.2337 69.3457 87.2267 69.3457C83.5699 69.3457 80.8208 70.9428 78.8397 74.1944C75.9668 78.7813 69.0038 93.8734 69.1608 101.183C69.2628 105.905 72.4313 109.308 78.102 109.442C82.5329 109.548 86.008 108.363 88.2192 106.132C90.2031 108.287 93.23 109.551 96.8519 109.551C100.885 109.551 104.943 108.34 107.34 105.694C109.359 108.174 112.536 109.617 116.622 109.597C121.963 109.571 126.655 107.038 129.719 103.158C131.401 107.734 135.664 109.551 140.321 109.551C150.527 109.551 155.008 102.534 158.745 91.4417C159.586 88.9434 160.71 84.7711 160.896 81.2664C161.203 75.4322 158.735 69.2614 149.292 69.2614V69.2616ZM81.3842 97.1522C86.6648 96.2354 87.9921 98.1436 87.8262 99.9113C87.3279 105.202 82.4727 106.386 78.2567 106.286C75.1991 106.212 72.45 104.813 72.3732 101.264C72.2392 95.0557 78.5731 80.6924 81.5546 75.9314C82.932 73.6712 84.6099 72.5533 87.2857 72.5533C89.8213 72.5533 90.4496 73.8549 90.4123 75.4141C90.3126 79.5737 83.5901 92.2149 81.3842 97.1522V97.1522ZM98.5798 92.2759C98.2305 93.2211 97.5696 95.2008 97.0342 97.2997C98.7674 96.8665 100.067 96.5659 102.294 96.6194C104.831 96.6819 106.452 97.7328 106.452 99.8301C106.452 104.915 100.831 106.408 96.9316 106.408C92.6501 106.408 88.8892 103.971 88.8892 99.2897C88.8892 93.8025 91.8647 85.4816 94.6573 79.9384C98.0863 73.1314 101.59 72.2265 107.625 72.2265C110.277 72.2265 113.333 73.3607 113.333 75.8645C113.333 79.3341 110.392 80.6574 107.477 80.8249C106.232 80.8964 104.316 80.9648 103.169 80.8836C103.169 80.8836 102.199 82.361 101.168 84.9942C106.567 84.2344 108.856 85.4594 107.945 88.5815C106.712 92.7992 103.056 93.0769 98.5798 92.2759V92.2759ZM125.133 79.1532C123.673 79.1532 122.718 80.0776 122.008 81.0756C120.443 83.2727 117.053 92.0764 116.525 95.693C116.163 98.1698 117.233 98.6741 118.402 98.6741C120.279 98.6741 122.382 96.6901 123.099 93.4168C123.099 93.4168 119.528 93.3299 120.512 90.1637C121.469 87.0915 123.284 86.426 126.292 86.3026C132.219 86.0608 131.634 90.4355 131.16 92.7687C129.619 100.345 124.226 106.429 116.597 106.429C111.373 106.429 108.131 103.541 108.131 98.2165C108.131 94.4224 110.014 88.4661 111.507 84.9808C114.683 77.5619 118.015 72.3701 126.502 72.3701C131.595 72.3701 135.611 74.1996 135.022 78.9686C134.59 82.469 132.838 84.5244 129.654 84.7731C128.764 84.8423 125.121 84.75 126.33 81.3049C126.75 80.0999 126.924 79.1532 125.133 79.1532V79.1532ZM157.187 85.4147C156.29 89.8817 154.272 95.1651 152.081 99.1028C148.507 105.528 144.165 106.428 140.376 106.382C136.585 106.337 132.314 104.938 132.281 99.0925C132.258 94.8959 134.068 88.9723 135.606 85.0894C138.285 78.0502 141.023 72.3106 149.679 72.414C159.773 72.5339 157.973 81.5081 157.187 85.4147ZM148.625 79.2999C147.758 79.288 147.002 79.4577 146.322 80.5056C144.795 82.483 140.331 94.6777 140.41 97.1098C140.439 97.9835 140.922 98.7479 141.998 98.7479C143.233 98.7495 143.92 97.8958 144.526 96.8658C145.931 94.4894 149.881 83.7102 149.99 81.0155C150.022 80.2301 149.891 79.3156 148.625 79.2999Z" fill="black"/>
</svg>
