<svg width="230" height="180" viewBox="0 0 230 180" fill="none" xmlns="http://www.w3.org/2000/svg">
<path fill-rule="evenodd" clip-rule="evenodd" d="M206.447 76.1507V81.7266C203.558 80.6361 200.985 80.0847 198.733 80.0847C197.4 80.0847 196.338 80.3316 195.539 80.8089C194.741 81.2904 194.333 81.883 194.333 82.5825C194.333 83.5125 195.235 84.3396 197.05 85.0804L202.294 87.6317C206.533 89.6522 208.637 92.3351 208.637 95.7053C208.637 98.5077 207.521 100.742 205.27 102.396C203.035 104.067 200.026 104.894 196.28 104.894C194.551 104.894 193 104.82 191.621 104.664C190.242 104.516 188.657 104.211 186.899 103.775V97.9398C190.122 99.0303 193.057 99.5817 195.7 99.5817C198.853 99.5817 200.421 98.6682 200.421 96.8246C200.421 95.907 199.779 95.1663 198.474 94.586L192.65 92.1047C190.501 91.1335 188.904 89.9566 187.858 88.5617C186.829 87.1543 186.307 85.5412 186.307 83.6977C186.307 81.1175 187.393 79.0394 189.542 77.4592C191.707 75.8914 194.58 75.1055 198.153 75.1055C199.314 75.1055 200.651 75.2083 202.133 75.3976C203.627 75.5993 205.064 75.8462 206.447 76.1507V76.1507Z" fill="#009999"/>
<path fill-rule="evenodd" clip-rule="evenodd" d="M41.4874 76.1507V81.7266C38.5978 80.6361 36.0293 80.0847 33.7778 80.0847C32.44 80.0847 31.3822 80.3316 30.5836 80.8089C29.7852 81.2904 29.3776 81.883 29.3776 82.5825C29.3776 83.5125 30.2914 84.3396 32.1067 85.0804L37.3506 87.6317C41.5738 89.6522 43.6813 92.3351 43.6813 95.7053C43.6813 98.5077 42.5617 100.742 40.3266 102.396C38.0751 104.067 35.0826 104.894 31.3246 104.894C29.5958 104.894 28.0399 104.82 26.661 104.664C25.2821 104.516 23.7138 104.211 21.9439 103.775V97.9398C25.1792 99.0303 28.114 99.5817 30.7401 99.5817C33.8931 99.5817 35.4614 98.6682 35.4614 96.8246C35.4614 95.907 34.8233 95.1663 33.5308 94.586L27.7065 92.1047C25.5414 91.1335 23.9443 89.9566 22.9153 88.5617C21.8698 87.1543 21.3594 85.5412 21.3594 83.6977C21.3594 81.1175 22.4378 79.0394 24.5988 77.4592C26.7475 75.8914 29.6246 75.1055 33.1975 75.1055C34.3705 75.1055 35.6919 75.2083 37.1901 75.3976C38.6719 75.5993 40.1085 75.8462 41.4874 76.1507V76.1507Z" fill="#009999"/>
<path fill-rule="evenodd" clip-rule="evenodd" d="M47.4961 75.6328H56.0372V104.376H47.4961V75.6328Z" fill="#009999"/>
<path fill-rule="evenodd" clip-rule="evenodd" d="M83.5545 75.6328V80.9454H70.8644V87.3195H81.8711V92.1094H70.8644V98.8005H83.8139V104.376H62.6445V75.6328H83.5545Z" fill="#009999"/>
<path fill-rule="evenodd" clip-rule="evenodd" d="M123.428 75.6328V104.376H115.454V85.4184L107.181 104.64H102.258L94.3019 85.4184V104.376H88.5352V75.6328H98.9613L106.078 93.2287L113.524 75.6328H123.428Z" fill="#009999"/>
<path fill-rule="evenodd" clip-rule="evenodd" d="M150.931 75.6328V80.9454H138.311V87.3195H149.317V92.1094H138.311V98.8005H151.191V104.376H130.021V75.6328H150.931Z" fill="#009999"/>
<path fill-rule="evenodd" clip-rule="evenodd" d="M180.901 75.6328V104.376H171.842L161.675 85.941V104.376H155.912V75.6328H165.236L175.139 93.7514V75.6328H180.901Z" fill="#009999"/>
</svg>
