<svg width="230" height="180" viewBox="0 0 230 180" fill="none" xmlns="http://www.w3.org/2000/svg">
<path d="M48.8723 71.7577C49.185 71.4108 49.3387 70.9334 49.3387 70.3259C49.3387 69.725 49.185 69.2477 48.8723 68.8984C48.5626 68.5466 48.15 68.372 47.6354 68.372C47.1205 68.372 46.706 68.5466 46.3912 68.8984C46.0767 69.2477 45.9206 69.725 45.9206 70.3259C45.9206 70.9334 46.0767 71.4108 46.3864 71.7577C46.6964 72.1069 47.1135 72.2792 47.6354 72.2792C48.15 72.2792 48.5626 72.1069 48.8723 71.7577ZM44.8864 73.1172C44.173 72.4049 43.8145 71.4734 43.8145 70.3259C43.8145 69.1755 44.173 68.2463 44.8864 67.5363C45.6038 66.8241 46.5194 66.4676 47.6354 66.4676C48.7446 66.4676 49.6579 66.8241 50.3729 67.5363C51.0882 68.2463 51.4446 69.1755 51.4446 70.3259C51.4446 71.4734 51.0882 72.4049 50.3729 73.1172C49.6579 73.8278 48.7446 74.1836 47.6354 74.1836C46.5194 74.1836 45.6038 73.8278 44.8864 73.1172" fill="#006938"/>
<path d="M55.2729 69.3702V74.0898H53.3691V66.5741H55.9464L58.5134 71.3146V66.5741H60.4171V74.0898H57.8799L55.2729 69.3702Z" fill="#006938"/>
<path d="M70.9066 68.2782H68.6421V74.0898H66.6363V68.2782H64.3691V66.5741H70.9066V68.2782Z" fill="#006938"/>
<path d="M77.0852 71.7577C77.3953 71.4108 77.551 70.9334 77.551 70.3259C77.551 69.725 77.3953 69.2477 77.0852 68.8984C76.7756 68.5466 76.3604 68.372 75.8481 68.372C75.3334 68.372 74.9182 68.5466 74.604 68.8984C74.2896 69.2477 74.1333 69.725 74.1333 70.3259C74.1333 70.9334 74.2873 71.4108 74.5993 71.7577C74.9094 72.1069 75.3262 72.2792 75.8481 72.2792C76.3604 72.2792 76.7756 72.1069 77.0852 71.7577ZM73.0991 73.1172C72.3834 72.4049 72.0273 71.4734 72.0273 70.3259C72.0273 69.1755 72.3834 68.2463 73.0991 67.5363C73.8143 66.8241 74.7297 66.4676 75.8481 66.4676C76.9568 66.4676 77.8683 66.8241 78.5833 67.5363C79.2986 68.2463 79.6576 69.1755 79.6576 70.3259C79.6576 71.4734 79.2986 72.4049 78.5833 73.1172C77.8683 73.8278 76.9568 74.1836 75.8481 74.1836C74.7297 74.1836 73.8143 73.8278 73.0991 73.1172" fill="#006938"/>
<path d="M85.5835 71.7801C85.8912 71.4427 86.0429 70.9605 86.0429 70.3323C86.0429 69.6384 85.8961 69.1378 85.5979 68.8349C85.3021 68.5296 84.8333 68.3783 84.1998 68.3783H83.3869V72.2856H84.1998C84.8149 72.2856 85.2764 72.1181 85.5835 71.7801V71.7801ZM84.1276 66.5741C85.4393 66.5741 86.4364 66.9187 87.1212 67.6053C87.8066 68.295 88.1489 69.2028 88.1489 70.3323C88.1489 70.8394 88.0743 71.3123 87.9252 71.7503C87.7738 72.1877 87.5452 72.5859 87.2381 72.9424C86.9303 73.3007 86.5182 73.5801 85.9986 73.7853C85.481 73.9874 84.8803 74.0898 84.1998 74.0898H81.3828V66.5741H84.1276Z" fill="#006938"/>
<path d="M92.933 69.04L92.1404 71.1328H93.7251L92.933 69.04ZM94.3258 72.7373H91.5375L91.0267 74.0898H89.0723L92.0104 66.5741H93.9344L96.8725 74.0898H94.8363L94.3258 72.7373Z" fill="#006938"/>
<path d="M114.189 71.7577C114.501 71.4108 114.657 70.9334 114.657 70.3259C114.657 69.725 114.501 69.2477 114.189 68.8984C113.879 68.5466 113.466 68.372 112.952 68.372C112.437 68.372 112.022 68.5466 111.707 68.8984C111.393 69.2477 111.237 69.725 111.237 70.3259C111.237 70.9334 111.393 71.4108 111.703 71.7577C112.015 72.1069 112.43 72.2792 112.952 72.2792C113.466 72.2792 113.879 72.1069 114.189 71.7577ZM110.204 73.1172C109.489 72.4049 109.131 71.4734 109.131 70.3259C109.131 69.1755 109.489 68.2463 110.204 67.5363C110.92 66.8241 111.836 66.4676 112.952 66.4676C114.06 66.4676 114.974 66.8241 115.689 67.5363C116.404 68.2463 116.761 69.1755 116.761 70.3259C116.761 71.4734 116.404 72.4049 115.689 73.1172C114.974 73.8278 114.06 74.1836 112.952 74.1836C111.836 74.1836 110.92 73.8278 110.204 73.1172Z" fill="#006938"/>
<path d="M120.391 69.3702V74.0898H118.484V66.5741H121.062L123.629 71.3146V66.5741H125.533V74.0898H122.998L120.391 69.3702Z" fill="#006938"/>
<path d="M129.713 71.2329V74.0898H127.709V66.5741H133.385V68.3783H129.713V69.6312H132.681V71.2329H129.713Z" fill="#006938"/>
<path d="M135.279 74.0898H137.282V66.5741H135.279V74.0898Z" fill="#006938"/>
<path d="M142.715 69.04L141.926 71.1328H143.507L142.715 69.04ZM144.111 72.7373H141.322L140.812 74.0898H138.857L141.795 66.5741H143.72L146.658 74.0898H144.621L144.111 72.7373Z" fill="#006938"/>
<path d="M150.137 69.3702V74.0898H148.23V66.5741H150.808L153.375 71.3146V66.5741H155.279V74.0898H152.744L150.137 69.3702Z" fill="#006938"/>
<path d="M157.172 74.0898V72.5859L160.401 68.3271H157.172V66.5741H162.887V67.9778L159.608 72.3368H162.887V74.0898H157.172Z" fill="#006938"/>
<path d="M168.402 69.04L167.61 71.1328H169.194L168.402 69.04ZM169.795 72.7373H167.008L166.496 74.0898H164.541L167.479 66.5741H169.403L172.341 74.0898H170.307L169.795 72.7373Z" fill="#006938"/>
<path d="M176.092 66.5741H181.819V68.3271H178.098V69.4405H181.115V71.0445H178.098V72.2856H181.819V74.0898H176.092V66.5741Z" fill="#006938"/>
<path d="M40.3024 71.4317C40.1934 71.6205 40.0604 71.781 39.8975 71.9139C39.597 72.1582 39.2193 72.2792 38.765 72.2792C38.2431 72.2792 37.8261 72.1069 37.5159 71.7577C37.204 71.4108 37.0502 70.9334 37.0502 70.3259C37.0502 69.725 37.2063 69.2477 37.5208 68.8984C37.8356 68.5466 38.2501 68.372 38.765 68.372C39.2123 68.372 39.5851 68.4977 39.8807 68.7468C40.0275 68.8703 40.1487 69.017 40.2488 69.1869H42.4741L42.4438 69.0731C42.2297 68.2719 41.808 67.6364 41.1764 67.1687C40.5429 66.7007 39.7412 66.4676 38.765 66.4676C37.6352 66.4676 36.7173 66.8217 36.0111 67.5291C35.3049 68.2397 34.9531 69.1709 34.9531 70.3259C34.9531 71.4806 35.3049 72.4122 36.0111 73.1221C36.7173 73.8302 37.6352 74.1836 38.765 74.1836C39.7342 74.1836 40.531 73.9536 41.1603 73.4923C41.7888 73.0315 42.2087 72.3866 42.4228 71.5575L42.4438 71.4317H40.3024Z" fill="#006938"/>
<path d="M105.603 71.4317C105.494 71.6205 105.358 71.781 105.198 71.9139C104.895 72.1582 104.52 72.2792 104.063 72.2792C103.543 72.2792 103.126 72.1069 102.814 71.7577C102.504 71.4108 102.349 70.9334 102.349 70.3259C102.349 69.725 102.507 69.2477 102.819 68.8984C103.134 68.5466 103.548 68.372 104.063 68.372C104.513 68.372 104.885 68.4977 105.182 68.7468C105.328 68.8703 105.449 69.017 105.55 69.1869H107.774L107.744 69.0731C107.53 68.2719 107.106 67.6364 106.475 67.1687C105.843 66.7007 105.039 66.4676 104.063 66.4676C102.933 66.4676 102.018 66.8217 101.311 67.5291C100.606 68.2397 100.254 69.1709 100.254 70.3259C100.254 71.4806 100.606 72.4122 101.311 73.1221C102.018 73.8302 102.933 74.1836 104.063 74.1836C105.033 74.1836 105.831 73.9536 106.46 73.4923C107.09 73.0315 107.509 72.3866 107.723 71.5575L107.744 71.4317H105.603Z" fill="#006938"/>
<path d="M188.472 70.0512C188.177 69.8996 187.86 69.7669 187.519 69.6554C187.177 69.5409 186.86 69.4551 186.567 69.3944C186.273 69.3341 186.026 69.2405 185.83 69.1129C185.632 68.9872 185.534 68.8213 185.534 68.6211C185.534 68.4353 185.606 68.291 185.753 68.1908C185.902 68.0907 186.103 68.0418 186.357 68.0418C186.662 68.0418 186.907 68.1278 187.081 68.2998C187.144 68.3631 187.191 68.4377 187.233 68.5187H189.306C189.207 67.9531 188.945 67.497 188.521 67.15C187.967 66.6958 187.244 66.4676 186.357 66.4676C185.493 66.4676 184.803 66.6701 184.286 67.0732C183.768 67.4779 183.508 68.0204 183.508 68.7028C183.508 69.1243 183.582 69.4831 183.729 69.7853C183.876 70.0857 184.064 70.3141 184.295 70.4701C184.526 70.6282 184.784 70.7586 185.066 70.8613C185.351 70.966 185.634 71.0478 185.914 71.1055C186.196 71.1688 186.45 71.2289 186.681 71.2922C186.911 71.3546 187.1 71.4459 187.249 71.5647C187.396 71.6785 187.468 71.8322 187.468 72.0182C187.468 72.4122 187.174 72.6101 186.585 72.6101C185.919 72.6101 185.518 72.34 185.376 71.8042H183.342C183.431 72.4818 183.708 73.0266 184.181 73.432C184.761 73.9321 185.56 74.1836 186.576 74.1836C187.531 74.1836 188.258 73.9719 188.757 73.5482C189.255 73.1221 189.505 72.5957 189.505 71.9693C189.505 71.5013 189.406 71.1008 189.208 70.7707C189.01 70.4422 188.766 70.2002 188.472 70.0512" fill="#006938"/>
<path d="M51.7027 93.1488L43.1611 93.156V81.8815L34.916 81.8957V107.611C34.916 110.428 35.3473 111.296 38.5042 111.296L43.1636 111.294C43.1636 109.112 43.1611 99.9683 43.1611 99.9683L51.7027 99.9618V107.033C51.7027 110.044 52.2801 111.301 55.8682 111.301L59.9384 111.298C59.9384 108.281 59.9454 81.8911 59.9454 81.8911L51.7027 81.8839V93.1488Z" fill="#D61E34"/>
<path d="M164.957 88.2243H178.694C177.354 89.9051 165.824 104.36 165.824 104.36C165.058 105.352 164.953 106.285 164.953 107.068V107.119C164.953 110.127 165.53 111.387 169.114 111.387L189.491 111.383V104.893H178.091C177.315 104.893 177.014 104.898 176.793 104.393C176.611 103.873 176.954 103.445 177.562 102.693L189.491 87.6562V81.8911L164.957 81.8862V88.2243Z" fill="#D61E34"/>
<path d="M194.688 110.194C194.297 110.59 193.833 110.785 193.288 110.785C192.729 110.785 192.267 110.59 191.874 110.194C191.49 109.803 191.292 109.323 191.292 108.762C191.292 108.222 191.483 107.754 191.865 107.361C192.261 106.96 192.729 106.757 193.288 106.757C193.833 106.757 194.297 106.96 194.693 107.361C195.077 107.759 195.266 108.227 195.266 108.762C195.266 109.321 195.077 109.794 194.688 110.194ZM194.989 107.06C194.516 106.587 193.945 106.348 193.279 106.348C192.645 106.348 192.089 106.562 191.613 107.002C191.119 107.477 190.865 108.061 190.865 108.771C190.865 109.444 191.096 110.024 191.562 110.487C192.03 110.953 192.601 111.184 193.279 111.184C193.945 111.184 194.5 110.955 194.971 110.504C195.46 110.036 195.697 109.456 195.697 108.771C195.697 108.101 195.464 107.523 194.989 107.06Z" fill="#D61E34"/>
<path d="M193.581 108.578C193.496 108.645 193.361 108.68 193.194 108.68H192.926V107.897H193.096C193.273 107.897 193.406 107.913 193.506 107.951C193.648 108.007 193.72 108.107 193.72 108.256C193.72 108.403 193.674 108.508 193.581 108.578V108.578ZM194.372 109.955V109.637C194.372 109.362 194.291 109.157 194.134 109.031C194.049 108.961 193.925 108.91 193.759 108.878C193.944 108.859 194.095 108.803 194.216 108.696C194.349 108.601 194.405 108.431 194.405 108.211C194.405 107.921 194.284 107.704 194.049 107.576C193.904 107.504 193.736 107.453 193.527 107.439C193.485 107.439 193.301 107.432 192.965 107.432H192.225V110.109H192.926V109.157H193.075L193.222 109.174C193.335 109.174 193.412 109.19 193.464 109.208C193.561 109.248 193.625 109.315 193.659 109.411C193.681 109.467 193.692 109.574 193.706 109.737C193.72 109.893 193.734 110.023 193.753 110.109H194.417L194.396 110.035C194.384 110.004 194.381 109.984 194.372 109.955" fill="#D61E34"/>
<path d="M62.8516 105.364C62.8516 108.822 62.8588 111.219 66.491 111.219C69.7572 111.219 82.8908 111.227 82.8908 111.227V104.891H72.6439C71.9867 104.891 71.5512 104.77 71.3114 104.523C70.9852 104.188 70.9149 103.534 70.9149 102.686C70.9149 102.383 70.9548 100.132 70.9548 99.9735H79.5335V93.1563H70.9548V88.2315H82.8908V81.889L62.8516 81.8914V105.364Z" fill="#D61E34"/>
<path d="M162.566 88.2315L162.564 81.889L142.527 81.8914V105.364C142.527 108.822 142.534 111.219 146.164 111.219C149.433 111.219 162.564 111.227 162.564 111.227V104.891H152.32C151.662 104.891 151.229 104.77 150.987 104.523C150.66 104.188 150.591 103.534 150.591 102.686C150.591 102.383 150.631 100.13 150.631 99.9712H159.209V93.1563H150.631V88.2315H162.566Z" fill="#D61E34"/>
<path d="M124.472 105.598C121.989 105.598 121.707 103.767 121.707 101.136V87.9603H124.412C126.777 87.9603 132.385 89.4318 132.385 96.8612C132.385 104.717 126.986 105.598 124.472 105.598V105.598ZM126.171 81.9107L113.604 81.9041L113.59 104.776C113.59 108.394 113.998 111.174 119.102 111.337C120.577 111.384 123.795 111.428 126.162 111.341C137.786 111.341 140.229 103.707 140.229 96.8057C140.229 82.4532 129.468 81.9107 126.171 81.9107" fill="#D61E34"/>
<path d="M105.417 101.111C105.893 100.964 106.386 100.79 106.911 100.561C108.388 99.6952 111.402 97.842 111.402 92.3613C111.402 89.0244 110.424 86.4048 108.497 84.5819C105.408 81.6642 101.035 81.8694 100.849 81.8813L100.881 81.8789L85.3828 81.8878V106.955C85.3828 109.966 85.9585 111.226 89.5441 111.226L93.4836 111.221V87.942H98.6584C98.6584 87.942 103.353 87.9951 103.353 92.6868C103.353 97.3808 99.2477 97.2765 99.2477 97.2765L95.0869 97.3254C94.9515 97.3228 94.8191 97.3063 94.6813 97.3063C94.6813 106.718 102.319 114.348 111.738 114.348C111.738 109.002 109.271 104.236 105.417 101.111" fill="#D61E34"/>
</svg>
