<svg width="230" height="180" viewBox="0 0 230 180" fill="none" xmlns="http://www.w3.org/2000/svg">
<path d="M91.843 80.8828V88.408H83.3118V80.8828H78.6094V100.629H83.3118V92.6895H91.843V100.629H96.5454V80.8828H91.843Z" fill="#002E6B"/>
<path d="M113.77 80.8828L108.852 88.7028L103.94 80.8828H98.3926L106.51 93.7896V100.629H111.206V93.7896L119.324 80.8828H113.77Z" fill="#002E6B"/>
<path d="M134.441 80.8828V95.3548C134.441 95.9049 134.027 96.3471 133.442 96.3471H125.909V80.8828H121.207V100.629H135.099C136.335 100.629 137.328 100.26 138.054 99.5398C138.774 98.8139 139.137 97.8216 139.137 96.591V80.8828H134.441Z" fill="#002E6B"/>
<path d="M157.388 80.8828H143.496V100.629H148.193V85.1586H155.737C156.344 85.1586 156.73 85.6349 156.73 86.1453V100.629H161.426V84.9205C161.426 83.6842 161.058 82.6918 160.343 81.9716C159.611 81.2458 158.624 80.8828 157.388 80.8828Z" fill="#002E6B"/>
<path d="M179.673 80.8828H165.781V100.629H179.673C180.909 100.629 181.897 100.26 182.617 99.5398C183.343 98.8139 183.706 97.8216 183.706 96.591V84.9205C183.706 83.6842 183.343 82.6918 182.617 81.9716C181.897 81.2458 180.904 80.8828 179.673 80.8828V80.8828ZM179.009 86.1793V95.3264C179.009 95.8594 178.624 96.3471 178.011 96.3471H170.472V85.1586H177.977C178.595 85.1586 179.009 85.5896 179.009 86.1793Z" fill="#002E6B"/>
<path d="M191.896 80.8828C190.665 80.8828 189.667 81.2458 188.947 81.9716C188.221 82.6975 187.863 83.6899 187.863 84.9205V100.629H192.549V94.5211H201.086V100.629H205.782V80.8828H191.896ZM201.086 85.1586V90.2454H192.549V86.1624C192.549 85.6747 192.929 85.1586 193.553 85.1586H201.086Z" fill="#002E6B"/>
<path d="M210.355 100.629H215.058V80.8828H210.355V100.629Z" fill="#002E6B"/>
<path d="M41.8682 104.509C56.7072 104.509 68.7383 98.3508 68.7383 90.7575C68.7383 83.1586 56.7072 77 41.8682 77C27.035 77 15.0039 83.1586 15.0039 90.7575C15.0039 98.3508 27.035 104.509 41.8682 104.509ZM46.928 97.761C46.4799 98.7987 45.7085 101.016 43.9387 101.901C43.3998 102.167 42.7361 102.292 42.1462 102.315C42.0099 102.315 41.9136 102.315 41.8737 102.315C36.9161 102.315 32.2988 101.623 28.4358 100.449C28.407 100.437 28.3169 100.404 28.2885 100.392C27.9312 100.273 27.7496 100.109 27.7496 99.9045C27.7496 99.7287 27.846 99.5926 27.9707 99.4678C28.0275 99.4168 28.1069 99.3489 28.2148 99.2522C29.111 98.5093 31.794 96.5642 36.8538 94.6248C38.6292 93.9499 40.8528 93.105 43.1784 92.6116C44.5398 92.3281 49.5996 91.5511 46.9279 97.7607L46.928 97.761ZM60.5019 83.8956C60.5982 83.731 60.7233 83.5894 60.9556 83.5779C61.0804 83.5655 61.2508 83.5943 61.5116 83.7593C64.6654 85.6988 66.5372 88.1259 66.5372 90.7515C66.5372 95.4923 60.4395 99.5696 51.7154 101.35C51.1595 101.464 50.7851 101.458 50.6603 101.317C50.5698 101.232 50.5471 101.079 50.6603 100.892C50.7114 100.796 50.7739 100.711 50.8928 100.569C55.6406 94.9715 59.2596 86.7146 60.2863 84.3329C60.3657 84.1683 60.4395 84.0042 60.502 83.8963L60.5019 83.8956ZM36.8936 83.7206C37.3417 82.6829 38.1132 80.4655 39.883 79.5865C40.4219 79.3199 41.0855 79.1895 41.6754 79.1726C41.8117 79.1685 41.908 79.1726 41.9422 79.1726C46.9055 79.1726 51.5171 79.8588 55.3857 81.0383C55.4145 81.0506 55.5046 81.0835 55.533 81.0951C55.8903 81.214 56.0718 81.3785 56.0718 81.5827C56.0718 81.7584 55.9755 81.8889 55.8508 82.0137C55.794 82.0705 55.7146 82.1384 55.6067 82.2293C54.7162 82.9779 52.0275 84.9173 46.9677 86.8567C45.1866 87.5372 42.9687 88.3765 40.6487 88.8699C39.2817 89.1592 34.2219 89.9303 36.8936 83.7208V83.7206ZM32.021 80.1538C32.5826 80.046 32.9513 80.046 33.0874 80.1867C33.1669 80.2772 33.1895 80.425 33.0833 80.6121C33.0265 80.7084 32.9644 80.7993 32.8508 80.9298C28.103 86.5326 24.4841 94.7835 23.4517 97.171C23.378 97.3356 23.2986 97.4998 23.236 97.6076C23.145 97.7723 23.0149 97.9139 22.7879 97.9254C22.6631 97.9377 22.4873 97.9007 22.2263 97.7439C19.0724 95.8045 17.2006 93.3773 17.2006 90.7517C17.2006 86.0109 23.2983 81.9337 32.0224 80.153" fill="#002E6B"/>
</svg>
