<svg width="230" height="180" viewBox="0 0 230 180" fill="none" xmlns="http://www.w3.org/2000/svg">
<path d="M158.486 90.9418H144.059V115.305H158.486V90.9418ZM159.485 89.9468H174.613C173.164 88.4721 171.411 87.2942 169.452 86.5194C172.855 84.6027 175.154 80.9554 175.154 76.7726C175.154 70.5934 170.144 65.5853 163.959 65.5853H159.485V89.9468ZM159.485 90.9418V115.305H163.959C172.202 115.305 178.885 108.626 178.885 100.388C178.885 96.8029 177.617 93.5142 175.506 90.9418H159.485ZM158.486 65.5853H144.059V89.9468H158.486V65.5853ZM119.682 90.9418H105.254V115.305H119.682V90.9418ZM120.678 89.9468H135.806C134.356 88.4721 132.604 87.2942 130.646 86.5194C134.048 84.6027 136.35 80.9554 136.35 76.7726C136.35 70.5934 131.338 65.5853 125.155 65.5853H120.678V89.9468ZM120.678 90.9418V115.305H125.155C133.397 115.305 140.08 108.626 140.08 100.388C140.08 96.8029 138.811 93.5142 136.701 90.9418H120.678ZM119.682 65.5853H105.254V89.9468H119.682V65.5853ZM76.4004 90.9418H60.5537L52.0215 115.305H64.4697L67.9401 105.362H76.4004V90.9418ZM93.2414 90.9418H77.3928V105.362H85.8533L89.3334 115.305H101.774L93.2414 90.9418ZM77.3928 89.9468H92.8918L84.3599 65.5853H77.3928V89.9468ZM60.9015 89.9468L69.4352 65.5853H76.4004V89.9468H60.9015Z" fill="#ED1C24"/>
</svg>
