<svg width="230" height="180" viewBox="0 0 230 180" fill="none" xmlns="http://www.w3.org/2000/svg">
<path d="M84.7664 93.7389H83.2446V100.073C83.2446 100.928 83.4122 101.473 83.7751 101.723C84.0684 101.944 84.5848 102.049 85.3108 102.049H86.0227V102.888H76.418V102.049H77.2416C78.0653 102.049 78.6236 101.914 78.9309 101.664C79.2379 101.386 79.3916 100.855 79.3916 100.073V84.9006C79.3916 83.8561 79.1681 83.1933 78.7215 82.9415C78.4423 82.8104 77.8837 82.7367 77.0183 82.7367H76.418V81.9266L84.7664 81.9118C87.1258 81.9118 88.9685 82.3536 90.3366 83.2361C91.9141 84.2541 92.7099 85.8007 92.7099 87.8763C92.7099 89.8517 91.928 91.3511 90.3506 92.3691C88.9685 93.2823 87.0977 93.7389 84.7664 93.7389ZM88.745 87.8921C88.745 84.5174 87.4186 82.8248 84.7662 82.8248H83.3002V92.7827H84.7662C87.4189 92.7812 88.745 91.1464 88.745 87.8921ZM105.233 89.9252C105.233 90.4097 105.079 90.8223 104.744 91.1773C104.395 91.5456 103.948 91.7372 103.376 91.7207C102.873 91.7059 102.468 91.5602 102.147 91.2801C101.812 90.984 101.673 90.6925 101.673 90.3669C101.673 90.0414 101.715 89.791 101.812 89.5568H101.784C101.156 90.1019 100.667 91.295 100.346 93.179C100.109 94.5211 99.9973 95.8748 99.9973 97.2301V99.4396C99.9973 100.589 100.095 101.281 100.291 101.562C100.472 101.839 100.933 101.973 101.645 101.973H103.013V102.887H93.4079V101.973H94.3155C95.2228 101.973 95.7812 101.796 96.0045 101.444C96.2141 101.089 96.3118 100.397 96.2839 99.3951V93.7978C96.2839 91.7355 96.2 90.4965 96.0045 90.0842C95.8093 89.6585 95.3346 89.4654 94.5805 89.4654H94.2594V88.5374H99.4248L99.5783 92.2053H99.6202C99.69 91.1744 100.011 90.2609 100.541 89.4934C101.212 88.5653 102.091 88.1117 103.166 88.1117C104.549 88.1148 105.233 88.7173 105.233 89.9252ZM121.93 102.888H116.555L116.499 100.662C116.457 100.721 116.457 100.721 116.457 100.662C116.248 101.311 115.801 101.901 115.117 102.415C114.321 103.018 113.442 103.312 112.464 103.312C110.887 103.312 109.742 102.856 109.086 101.973C108.541 101.251 108.276 100.132 108.276 98.6444V92.4557C108.276 90.8824 108.206 89.9808 108.081 89.7776C107.955 89.5685 107.606 89.4669 107.048 89.4669H106.852V88.5388H112.032V99.0273C112.032 100.603 112.646 101.397 113.874 101.397C114.963 101.397 115.675 100.692 116.024 99.2466C116.15 98.762 116.22 97.9947 116.22 96.9339V92.4557C116.22 90.9106 116.136 90.0399 115.969 89.8632C115.745 89.5862 115.229 89.4654 114.447 89.4654H114.14V88.5374H119.919V99.4367C119.919 100.512 120.031 101.205 120.268 101.543C120.464 101.823 120.827 101.972 121.385 101.972H121.93V102.888H121.93ZM137.803 102.888H132.358L132.303 100.662C132.135 101.268 131.716 101.826 131.088 102.343C130.292 102.991 129.371 103.314 128.338 103.314C126.285 103.314 124.778 102.489 123.815 100.81C123.033 99.4999 122.656 97.7897 122.656 95.6995C122.656 93.7683 123.159 92.0742 124.192 90.6011C125.35 88.9512 126.886 88.1146 128.812 88.1146C130.432 88.1146 131.493 88.5991 131.982 89.5568V85.092C131.982 84.1639 131.828 83.5469 131.507 83.2507C131.256 82.9855 130.781 82.8544 130.111 82.8544H129.859V81.9264L135.695 81.4844V100.134C135.695 100.944 135.821 101.446 136.072 101.664C136.323 101.872 136.77 101.975 137.412 101.975H137.803V102.888H137.803ZM131.981 97.0696V94.107C131.981 90.9118 131.129 89.3195 129.44 89.3195C127.709 89.3195 126.83 91.4554 126.83 95.6995C126.83 99.6767 127.667 101.664 129.356 101.664C130.32 101.664 130.99 101.195 131.395 100.237C131.786 99.2925 131.981 98.248 131.981 97.0696ZM151.275 95.2415H142.438C142.396 96.3154 142.466 97.4068 142.661 98.4822C143.08 100.869 144.099 102.076 145.733 102.076C147.003 102.076 148.064 101.59 148.874 100.617C149.544 99.8065 149.879 98.9242 149.879 97.9799H151.08C151.08 99.2038 150.591 100.351 149.6 101.428C148.455 102.68 146.989 103.312 145.216 103.312C143.01 103.312 141.293 102.592 140.079 101.149C138.962 99.7934 138.403 97.9801 138.403 95.6981C138.403 93.4725 139.046 91.6473 140.344 90.2184C141.614 88.8189 143.178 88.1119 145.091 88.1119C147.199 88.1119 148.776 88.8175 149.837 90.2184C150.8 91.472 151.275 93.1362 151.275 95.2415ZM147.464 94.2544C147.533 90.6913 146.724 88.9072 145.048 88.9072C143.987 88.9072 143.248 89.629 142.857 91.0416C142.647 91.7192 142.535 92.7961 142.48 94.2544H147.464ZM167.79 102.888H162.066V92.2084C162.066 90.7042 161.452 89.956 160.237 89.956C159.54 89.956 158.981 90.2935 158.562 90.9843C158.129 91.6927 157.92 92.7253 157.92 94.1073V99.3971C157.92 100.662 157.99 101.386 158.144 101.546C158.395 101.826 158.842 101.975 159.512 101.975H159.93V102.888H152.182V101.975H152.629C153.257 101.975 153.718 101.826 153.969 101.546C154.123 101.386 154.193 100.662 154.193 99.3971V92.0317C154.193 90.8238 154.123 90.1168 153.941 89.8795C153.732 89.6144 153.327 89.4686 152.755 89.4686H152.182V88.5405H157.599L157.669 90.7929H157.683C158.353 88.9971 159.693 88.1148 161.704 88.1148C163.253 88.1148 164.356 88.5405 164.97 89.3934C165.515 90.1168 165.78 91.2952 165.78 92.9157V99.4413C165.78 100.607 165.864 101.314 166.032 101.548C166.227 101.828 166.604 101.977 167.204 101.977H167.791V102.888H167.79ZM178.037 97.5556C178.037 99.4545 177.856 100.782 177.521 101.518C176.963 102.711 175.79 103.314 174.017 103.314C171.63 103.314 170.443 101.975 170.443 99.3086V89.4965H167.888V88.5405H168.126C169.62 88.5405 170.876 87.7156 171.895 86.0526C172.76 84.6679 173.208 83.2818 173.208 81.9281H174.143V88.5408H177.005V89.4968H174.199V99.7654C174.199 101.062 174.59 101.71 175.385 101.71C175.79 101.71 176.111 101.518 176.363 101.15C176.739 100.605 176.907 99.4105 176.907 97.5558H178.037V97.5556ZM186.847 102.888H179.196V101.975H179.643C180.243 101.975 180.634 101.841 180.816 101.564C181.011 101.283 181.109 100.559 181.109 99.3837V91.6927C181.109 90.6913 180.955 90.0562 180.662 89.8072C180.425 89.6144 179.936 89.4965 179.224 89.4965H178.917V88.5405H184.864V99.3823C184.864 100.575 184.948 101.296 185.129 101.546C185.339 101.826 185.716 101.975 186.288 101.975H186.847V102.888H186.847ZM185.185 83.9872C185.185 84.6234 184.962 85.1819 184.501 85.6222C184.054 86.0951 183.51 86.3161 182.867 86.3161C182.239 86.3161 181.695 86.0968 181.234 85.6222C180.773 85.1805 180.55 84.622 180.55 83.9872C180.55 83.3538 180.773 82.8102 181.234 82.3536C181.695 81.9118 182.239 81.6905 182.867 81.6905C183.51 81.6905 184.054 81.9116 184.501 82.3536C184.962 82.8102 185.185 83.3536 185.185 83.9872ZM200.863 102.888H195.74C195.754 101.887 195.726 101.104 195.684 100.559C195.543 101.207 195.082 101.798 194.302 102.373C193.45 103.006 192.543 103.314 191.581 103.314C190.143 103.314 189.038 102.872 188.271 102.018C187.67 101.312 187.377 100.531 187.377 99.6166C187.377 98.0565 188.131 96.8325 189.654 95.9646C190.797 95.3032 192.724 94.6978 195.42 94.1673V91.737C195.42 89.9986 194.456 89.1282 192.556 89.1282C191.872 89.1282 191.232 89.2916 190.63 89.6305C190.084 89.9252 189.765 90.233 189.654 90.5437V90.6011C189.82 90.3669 190.114 90.2327 190.546 90.2327C191.734 90.2327 192.333 90.7927 192.333 91.8975C192.333 92.3392 192.138 92.737 191.748 93.1053C191.356 93.4603 190.867 93.6504 190.309 93.6504C189.752 93.6504 189.262 93.4734 188.858 93.1347C188.398 92.7355 188.174 92.1904 188.174 91.5011C188.174 90.514 188.689 89.7025 189.71 89.0543C190.728 88.4209 192.013 88.1129 193.535 88.1129C197.249 88.1129 199.119 89.7598 199.119 93.0742V100.117C199.119 100.942 199.245 101.456 199.509 101.662C199.775 101.87 200.124 101.973 200.556 101.973H200.864V102.888H200.863V102.888ZM195.42 97.3788V95.0944C193.925 95.3891 192.877 95.7574 192.291 96.2434C191.58 96.8328 191.216 97.79 191.216 99.0864C191.216 99.8685 191.384 100.471 191.748 100.928C192.04 101.342 192.459 101.546 192.935 101.546C193.814 101.546 194.497 101.105 194.959 100.237C195.251 99.6475 195.42 98.7032 195.42 97.3788ZM209.588 101.975V102.888H202.23V101.975H202.411C202.887 101.975 203.264 101.872 203.515 101.664C203.766 101.446 203.892 100.944 203.892 100.134V85.092C203.892 84.1639 203.753 83.5614 203.458 83.2816C203.18 82.9872 202.789 82.8559 202.314 82.8559H201.77V81.9264L207.605 81.4844V100.134C207.605 100.944 207.745 101.446 207.995 101.664C208.248 101.872 208.708 101.975 209.35 101.975H209.588V101.975Z" fill="#3077B9"/>
<path d="M52.5721 80.5529L42.781 74.8099L39.2154 74.1585V76.7851L41.9744 79.3657L38.1682 79.0109C38.1965 79.0999 39.2862 80.3005 41.465 82.6171L55.8828 85.0508L58.4297 86.7291L51.8221 87.0691L49.1195 97.1303L40.1916 103.17H34.3626L36.3152 99.2375L36.0038 99.1026L30.7687 103.17H29.5095L34.872 95.5111C34.9286 94.9917 35.0701 93.2852 35.2965 90.4077L34.4902 89.2502L32.3394 97.6912L27.8543 103.17H26.7083L29.3682 99.3559L33.0894 87.7513L32.2123 88.2395L30.5286 92.8101L29.3967 93.4513L25.3217 103.214C22.4349 99.045 21.0059 94.4296 21.0059 89.3827C21.0059 83.8624 23.0151 79.0112 27.0474 74.7654C31.3628 70.2689 36.6829 68 43.0216 68C48.7096 68 53.6049 69.9441 57.6941 73.8009C60.9342 76.858 62.9434 80.1242 63.6932 83.6129L52.5721 80.5529ZM61.4154 81.5487C60.0854 78.1206 57.7932 75.2716 54.5247 73.0158C51.0582 70.6103 47.224 69.423 43.0216 69.423C37.1215 69.423 32.1411 71.5317 28.1087 75.7612C24.3875 79.7384 22.5339 84.2631 22.5339 89.3841C22.5339 93.2869 23.4535 96.9227 25.3071 100.262L30.8111 85.318C31.9713 84.7082 32.5373 84.4559 32.5373 84.5463L34.9994 78.2098L36.5699 77.3491L38.5508 73.1481L42.8664 73.8322L51.5679 78.7591L61.4154 81.5487ZM59.5618 104.209C57.6658 106.656 55.1757 108.585 52.0768 109.98C49.1339 111.332 46.0919 112 42.9084 112C35.9612 112 30.4007 109.403 26.1986 104.209H59.5618V104.209ZM52.6712 97.1306L49.4877 103.17H46.4598L52.0768 96.0178L52.6712 97.1306ZM60.7927 90.7048L58.7552 95.5116L56.9016 97.1306L53.2228 103.17H50.8035L53.2228 98.8505L55.1188 97.2626L57.8637 89.5028L60.7927 90.7048ZM57.1425 89.2507L54.4825 94.3098L53.0535 94.5633L53.4214 91.6088L53.0535 91.0019L53.4214 87.7061L57.1425 89.2507ZM64.4998 91.9961C64.2309 96.0177 62.8727 99.7408 60.4389 103.17H55.5858L60.1842 95.7639L61.5991 90.972L64.4998 91.9961Z" fill="#3077B9"/>
</svg>
