<svg width="230" height="180" viewBox="0 0 230 180" fill="none" xmlns="http://www.w3.org/2000/svg">
<path d="M105.941 131.81C106.457 131.74 106.983 131.798 107.472 131.98C107.96 132.161 108.396 132.46 108.741 132.851C109.086 133.242 109.329 133.711 109.448 134.218C109.568 134.725 109.56 135.254 109.426 135.757C109.305 136.869 108.753 137.888 107.888 138.597C107.023 139.307 105.915 139.649 104.801 139.55H102.035L103.264 131.81H105.941ZM105.819 132.96H104.348L103.485 138.399H104.902C105.703 138.455 106.494 138.192 107.103 137.668C107.712 137.144 108.09 136.402 108.154 135.601C108.43 133.9 107.645 132.96 105.819 132.96Z" fill="#48494B"/>
<path d="M118.51 131.814L118.322 132.963H114.251L113.919 135.076H117.657L117.481 136.225H113.742L113.4 138.403H117.527L117.351 139.552H111.951L113.18 131.812L118.51 131.814Z" fill="#48494B"/>
<path d="M124.054 131.671C124.881 131.656 125.695 131.879 126.399 132.313L126.222 133.473C125.599 133.023 124.844 132.794 124.076 132.822C123.113 132.822 122.429 133.086 122.329 133.772C122.085 135.398 126.543 134.91 126.102 137.624C125.846 139.216 124.409 139.691 122.972 139.691C122.011 139.709 121.064 139.468 120.229 138.995L120.416 137.812C121.168 138.306 122.051 138.561 122.951 138.542C123.958 138.542 124.717 138.309 124.82 137.579C125.108 135.799 120.644 136.329 121.059 133.664C121.234 133.027 121.634 132.475 122.184 132.108C122.734 131.742 123.398 131.587 124.054 131.671V131.671Z" fill="#48494B"/>
<path d="M132.695 131.81C133.212 131.74 133.737 131.798 134.226 131.98C134.714 132.161 135.15 132.46 135.495 132.851C135.84 133.242 136.083 133.711 136.203 134.218C136.322 134.725 136.314 135.254 136.18 135.757C136.059 136.868 135.508 137.888 134.643 138.597C133.779 139.306 132.671 139.648 131.557 139.55H128.791L130.02 131.81H132.695ZM132.573 132.96H131.102L130.24 138.399H131.659C132.461 138.455 133.252 138.192 133.861 137.668C134.469 137.144 134.847 136.402 134.912 135.601C135.185 133.9 134.399 132.96 132.573 132.96V132.96Z" fill="#48494B"/>
<path d="M145.263 131.814L145.075 132.963H141.004L140.672 135.076H144.411L144.234 136.225H140.495L140.151 138.403H144.277L144.101 139.552H138.701L139.93 131.812L145.263 131.814Z" fill="#48494B"/>
<path d="M155.246 132.035L154.227 138.415H155.567L155.379 139.555H151.285L151.473 138.415H152.978L153.781 133.329L152.188 133.892L152.376 132.732L154.313 132.035H155.246Z" fill="#48494B"/>
<path d="M161.671 131.891C163.839 131.891 164.769 133.394 164.382 135.805C164.345 136.853 163.902 137.844 163.146 138.571C162.39 139.298 161.381 139.702 160.333 139.698C159.671 139.703 159.018 139.547 158.43 139.245L158.59 138.139C159.104 138.437 159.689 138.589 160.283 138.58C160.949 138.593 161.597 138.362 162.104 137.93C162.611 137.498 162.943 136.896 163.037 136.237C162.367 136.607 161.613 136.801 160.847 136.8C160.522 136.833 160.194 136.79 159.888 136.675C159.583 136.559 159.308 136.375 159.086 136.137C158.863 135.898 158.698 135.612 158.605 135.299C158.511 134.987 158.491 134.657 158.545 134.335C158.67 133.613 159.059 132.962 159.636 132.51C160.214 132.059 160.939 131.838 161.671 131.891ZM159.812 134.378C159.652 135.396 160.387 135.706 161.24 135.706C161.956 135.693 162.651 135.461 163.232 135.043C163.32 133.55 162.689 132.987 161.65 132.987C161.222 132.935 160.791 133.052 160.447 133.311C160.102 133.57 159.872 133.953 159.804 134.378H159.812Z" fill="#48494B"/>
<path d="M171.08 131.895C173.337 131.895 174.233 133.641 173.879 135.875C173.84 136.894 173.411 137.859 172.68 138.571C171.949 139.283 170.973 139.687 169.953 139.7C167.704 139.7 166.811 137.954 167.165 135.719C167.202 134.702 167.629 133.737 168.358 133.025C169.086 132.313 170.061 131.908 171.08 131.895ZM171.014 133.044C169.543 133.044 168.69 134.016 168.403 135.796C168.138 137.511 168.613 138.549 170.019 138.549C171.501 138.549 172.354 137.576 172.641 135.796C172.906 134.084 172.429 133.044 171.014 133.044Z" fill="#48494B"/>
<path d="M180.054 134.777C180.376 134.751 180.701 134.8 181.002 134.918C181.304 135.037 181.574 135.223 181.793 135.462C182.011 135.701 182.172 135.986 182.264 136.297C182.356 136.607 182.375 136.934 182.321 137.253C182.201 137.975 181.815 138.625 181.24 139.077C180.665 139.529 179.942 139.75 179.212 139.696C177.033 139.696 176.103 138.192 176.49 135.782C176.519 135.098 176.721 134.432 177.077 133.847C177.432 133.261 177.93 132.775 178.523 132.433C179.117 132.092 179.788 131.905 180.472 131.891C181.157 131.878 181.835 132.037 182.442 132.355L182.265 133.449C181.755 133.153 181.174 133 180.584 133.008C179.921 133.004 179.279 133.239 178.775 133.669C178.272 134.099 177.94 134.697 177.84 135.351C178.516 134.971 179.278 134.773 180.054 134.777V134.777ZM181.061 137.184C181.221 136.201 180.497 135.88 179.644 135.88C178.925 135.892 178.226 136.123 177.641 136.542C177.542 138.035 178.162 138.61 179.189 138.61C179.625 138.663 180.064 138.544 180.413 138.278C180.762 138.013 180.994 137.621 181.059 137.188L181.061 137.184Z" fill="#48494B"/>
<path d="M57.0209 89.6606C58.2758 89.6304 59.5186 89.9123 60.6376 90.4808L60.3582 92.3491C59.5657 91.8677 58.6707 91.5801 57.746 91.5096C56.8213 91.4391 55.893 91.5878 55.0366 91.9435C54.1802 92.2991 53.4199 92.8518 52.8176 93.5565C52.2152 94.2612 51.7878 95.0981 51.5701 95.9991C51.4203 96.573 51.4133 97.1748 51.5499 97.752C51.6865 98.3292 51.9624 98.8641 52.3536 99.3102C52.7447 99.7562 53.2392 100.1 53.7938 100.311C54.3485 100.522 54.9464 100.594 55.5353 100.521C56.2114 100.536 56.8834 100.411 57.5091 100.155L58.243 95.5448H60.2168L59.2741 101.533C58.0168 102.055 56.6701 102.328 55.3088 102.336C52.1113 102.336 48.827 100.363 49.5609 95.7551C49.8532 94.0078 50.7711 92.4262 52.1435 91.305C53.5159 90.1838 55.2493 89.5994 57.0209 89.6606Z" fill="#48494B"/>
<path d="M61.0684 102.109L63.0068 89.8867H67.8634C70.099 89.8867 72.4582 90.8498 71.986 93.832C71.8583 94.7156 71.4469 95.5339 70.8137 96.1637C70.1806 96.7936 69.36 97.201 68.4753 97.3246L71.5668 102.109H69.3313L66.4132 97.5349H63.7922L63.0582 102.109H61.0684ZM64.0909 95.7709H67.0427C67.7087 95.8606 68.384 95.6942 68.932 95.3054C69.4799 94.9166 69.8597 94.3343 69.9946 93.6763C70.2387 92.1049 69.0518 91.7036 67.7461 91.7036H64.7413L64.0909 95.7709Z" fill="#48494B"/>
<path d="M84.257 89.8867L83.0348 97.6392C82.8887 99.0308 82.1954 100.307 81.1076 101.188C80.0197 102.069 78.6263 102.482 77.2339 102.336C74.5037 102.336 72.0272 101.061 72.5877 97.5205L73.8099 89.8899H75.8013L74.5968 97.5365C74.2307 99.7707 75.4175 100.487 77.2692 100.487C77.7226 100.543 78.1827 100.508 78.6221 100.383C79.0615 100.258 79.4711 100.045 79.8266 99.7582C80.182 99.4713 80.4759 99.1158 80.6908 98.7128C80.9056 98.3098 81.037 97.8677 81.0771 97.4129L82.2655 89.8883L84.257 89.8867Z" fill="#48494B"/>
<path d="M90.8321 89.8867C93.4017 89.8867 95.8283 90.8642 95.3289 94.0246C94.8567 97.063 92.4637 97.9185 89.5633 97.9185H87.0997L86.4348 102.109H84.4434L86.3834 89.8867H90.8321ZM90.7277 91.7021H88.089L87.3904 96.1016H89.854C91.635 96.1016 93.0516 95.6201 93.331 93.832C93.6104 92.0439 92.1361 91.7085 90.7277 91.7085V91.7021Z" fill="#48494B"/>
<path d="M101.75 102.335C100.928 102.383 100.107 102.239 99.3509 101.916C98.5945 101.593 97.9233 101.099 97.3901 100.473C96.857 99.847 96.4762 99.1059 96.278 98.308C96.0797 97.5101 96.0692 96.6772 96.2474 95.8746C96.5033 94.1232 97.39 92.5254 98.7411 91.3811C100.092 90.2368 101.815 89.6247 103.585 89.6597C104.406 89.6166 105.226 89.7628 105.981 90.087C106.736 90.4111 107.406 90.9046 107.94 91.5292C108.473 92.1538 108.856 92.8927 109.058 93.6888C109.26 94.4849 109.276 95.3168 109.105 96.1201C108.864 97.8812 107.979 99.4907 106.621 100.638C105.262 101.786 103.527 102.39 101.75 102.335V102.335ZM101.872 100.467C103.146 100.497 104.386 100.053 105.351 99.2206C106.317 98.3883 106.938 97.2272 107.094 95.9629C107.239 95.4219 107.253 94.8545 107.134 94.3072C107.016 93.76 106.769 93.2487 106.415 92.8155C106.06 92.3823 105.607 92.0397 105.093 91.8158C104.58 91.592 104.021 91.4933 103.462 91.528C102.189 91.4985 100.951 91.9435 99.9881 92.7763C99.0256 93.6092 98.4078 94.7703 98.2549 96.0335C98.1113 96.5729 98.0977 97.1387 98.2152 97.6844C98.3328 98.2301 98.5781 98.7401 98.931 99.1728C99.2839 99.6054 99.7345 99.9482 100.246 100.173C100.757 100.398 101.314 100.499 101.872 100.467V100.467Z" fill="#48494B"/>
<path d="M55.7235 106.788C58.0093 106.743 60.2643 107.319 62.2487 108.454L61.5421 113.055C59.9028 111.868 57.9177 111.253 55.8937 111.306C53.8605 111.335 52.9563 111.871 52.9001 112.689C52.7315 115.286 62.9264 114.776 61.6561 121.667C60.837 126.161 57.2781 127.397 53.0704 127.397C50.4684 127.453 47.9003 126.8 45.6426 125.506L46.4054 120.736C48.276 122.166 50.5756 122.922 52.9306 122.882C54.9638 122.882 56.2069 122.4 56.3193 121.527C56.7722 118.28 46.4905 119.24 47.6196 112.296C48.2395 108.51 51.9108 106.788 55.7235 106.788Z" fill="#221F1C"/>
<path d="M76.1726 126.975L75.5303 123.869H67.3396L65.7336 126.975H60.2539L71.1571 107.215H76.8054L81.4371 126.975H76.1726ZM69.5639 119.636H74.6486L73.5757 114.104C73.4354 113.388 73.3596 112.66 73.3493 111.931C73.124 112.662 72.831 113.371 72.474 114.048L69.5639 119.636Z" fill="#221F1C"/>
<path d="M88.8632 107.214L86.4622 122.316H95.5008L94.7669 126.971H80.5039L83.6388 107.211L88.8632 107.214Z" fill="#221F1C"/>
<path d="M104.566 107.215L101.431 126.975H96.207L99.342 107.215H104.566Z" fill="#221F1C"/>
<path d="M103.455 126.975L106.59 107.215H110.939L117.548 118.45C117.597 117.381 117.71 116.316 117.887 115.261L119.157 107.216H124.383L121.246 126.975H116.897L110.313 115.768C110.289 116.752 110.194 117.733 110.03 118.704L108.675 126.975H103.455Z" fill="#221F1C"/>
<path d="M136.229 126.975L135.587 123.869H127.396L125.79 126.975H120.311L131.214 107.215H136.862L141.494 126.975H136.229ZM129.621 119.636H134.705L133.632 114.104C133.492 113.388 133.416 112.66 133.406 111.931C133.181 112.662 132.888 113.371 132.531 114.048L129.621 119.636Z" fill="#221F1C"/>
<path d="M151.585 106.788C153.871 106.743 156.126 107.319 158.11 108.454L157.403 113.055C155.764 111.868 153.779 111.253 151.755 111.306C149.722 111.335 148.818 111.871 148.761 112.689C148.591 115.286 158.788 114.776 157.517 121.667C156.698 126.161 153.139 127.397 148.932 127.397C146.33 127.453 143.762 126.8 141.504 125.506L142.267 120.736C144.137 122.166 146.436 122.922 148.79 122.882C150.824 122.882 152.067 122.4 152.179 121.527C152.63 118.28 142.35 119.24 143.479 112.296C144.102 108.51 147.772 106.788 151.585 106.788Z" fill="#221F1C"/>
<path d="M180.225 87.2878C180.223 92.5447 179.066 97.7371 176.834 102.497C174.602 107.258 171.35 111.469 167.309 114.834C166.581 115.444 166.598 116.351 167.309 116.584C168.062 116.829 168.836 116.161 169.379 115.686C174.101 111.477 177.818 106.264 180.258 100.43C182.698 94.5955 183.798 88.2889 183.478 81.9738C183.157 75.6586 181.425 69.4955 178.407 63.9378C175.39 58.38 171.164 53.569 166.041 49.8584C160.918 46.1479 155.028 43.6323 148.804 42.4966C142.58 41.3609 136.18 41.634 130.076 43.2958C123.971 44.9576 118.317 47.9659 113.529 52.0994C108.741 56.2329 104.941 61.3865 102.409 67.1811C101.892 68.5114 101.704 69.9465 101.86 71.3649C102.016 72.7834 102.511 74.1435 103.304 75.3302C104.096 76.517 105.164 77.4955 106.415 78.183C107.666 78.8705 109.064 79.2468 110.492 79.2801C111.581 76.5049 117.115 50.7419 144.499 51.4706C164.219 51.9955 180.22 67.5053 180.22 87.2894" fill="#FFC900"/>
<path d="M121.434 74.2437C121.434 73.2829 121.719 72.3437 122.253 71.545C122.787 70.7462 123.546 70.1236 124.434 69.7561C125.323 69.3886 126.3 69.2926 127.243 69.4803C128.185 69.6679 129.051 70.1309 129.731 70.8104C130.41 71.49 130.873 72.3557 131.06 73.2981C131.247 74.2405 131.151 75.2171 130.782 76.1046C130.414 76.992 129.791 77.7503 128.991 78.2836C128.191 78.8169 127.251 79.1013 126.29 79.1006C125.652 79.1004 125.02 78.9746 124.431 78.7304C123.842 78.4862 123.306 78.1284 122.855 77.6774C122.404 77.2264 122.047 76.691 121.803 76.1019C121.559 75.5127 121.433 74.8813 121.434 74.2437Z" fill="#48494B"/>
<path d="M115.129 95.5761C122.831 101.33 132.184 104.448 141.8 104.468C151.72 104.585 161.387 101.339 169.223 95.2583C169.223 95.2583 170.976 94.0673 169.587 92.9277C168.588 92.1075 167.133 93.0128 166.404 93.5184C159.23 98.5496 150.752 101.399 141.993 101.722C132.456 102.058 123.061 99.3354 115.184 93.9518C115.184 93.9518 114.397 93.2696 114.164 94.1652C114.016 94.7302 115.128 95.5729 115.128 95.5729" fill="#D1D3D5"/>
<path d="M159.756 90.5132C154.503 93.5098 148.717 95.4565 142.721 96.245C133.178 97.3778 123.521 95.4504 115.145 90.7411C115.145 90.7411 114.301 90.1312 114.148 91.0445C114.052 91.6208 115.239 92.3623 115.239 92.3623C123.473 97.4554 133.123 99.7801 142.775 98.996C149.703 98.4202 156.401 96.2384 162.338 92.6239C163.086 92.248 163.795 91.7997 164.455 91.2853C164.629 91.14 164.768 90.9569 164.86 90.7501C164.953 90.5433 164.998 90.3181 164.991 90.0916C164.984 89.865 164.925 89.6431 164.819 89.4425C164.714 89.2419 164.564 89.068 164.381 88.9339C163.483 88.2292 162.722 88.7476 162.12 89.0687C161.887 89.1922 161.18 89.7235 159.757 90.5132" fill="#AAADAF"/>
<path d="M154.618 86.4959C150.943 88.4128 147.025 89.8247 142.972 90.6931C133.597 92.659 123.839 91.5874 115.115 87.6338C115.115 87.6338 114.222 87.0978 114.152 88.0191C114.105 88.6017 115.35 89.2405 115.35 89.2405C121.885 92.5346 129.125 94.1905 136.444 94.0652C143.762 93.9399 150.941 92.0373 157.36 88.5214C157.36 88.5214 158.551 87.8955 159.26 87.4476C160.032 86.9661 160.438 85.9854 159.26 85.0705C158.37 84.3852 157.252 85.0818 156.74 85.3402C156.534 85.4445 155.412 86.0914 154.628 86.4959" fill="#86898C"/>
<path d="M149.233 82.5485C143.96 85.1331 138.229 86.6539 132.368 87.024C126.506 87.3942 120.629 86.6064 115.073 84.7057C115.073 84.7057 114.135 84.2515 114.145 85.1776C114.145 85.7618 115.449 86.2851 115.449 86.2851C124.28 89.8083 134.02 90.3567 143.191 87.8469C146.214 87.0458 149.146 85.9323 151.939 84.5244C151.939 84.5244 152.873 84.0284 153.731 83.526C153.933 83.4225 154.104 83.2686 154.229 83.0793C154.354 82.89 154.427 82.6717 154.443 82.4455C154.458 82.2194 154.415 81.9932 154.317 81.7888C154.219 81.5843 154.07 81.4087 153.884 81.2789C153.536 81.0882 153.146 80.9883 152.749 80.9883C152.352 80.9883 151.962 81.0882 151.614 81.2789C151.242 81.502 150.044 82.136 149.234 82.5357" fill="#67696C"/>
<path d="M141.908 79.5932C133.417 83.2052 123.968 83.905 115.036 81.5835C115.036 81.5835 114.065 81.2095 114.15 82.1308C114.204 82.7135 115.542 83.1243 115.542 83.1243C124.43 85.855 133.976 85.5426 142.666 82.2367C144.037 81.7456 145.368 81.1966 146.662 80.5899C146.662 80.5899 147.966 79.9671 148.252 79.8163C148.462 79.7322 148.644 79.5914 148.778 79.4098C148.912 79.2281 148.993 79.0127 149.012 78.7876C149.031 78.5625 148.986 78.3367 148.884 78.1354C148.781 77.9341 148.625 77.7653 148.432 77.6478C147.452 76.8919 145.962 77.7955 145.509 78.0122C144.484 78.4937 142.806 79.2321 141.908 79.5916" fill="#48494B"/>
</svg>
