<svg width="230" height="180" viewBox="0 0 230 180" fill="none" xmlns="http://www.w3.org/2000/svg">
<path fill-rule="evenodd" clip-rule="evenodd" d="M140.268 107.674V76.9269C140.268 66.4198 151.485 64.2077 159.531 67.194V73.0558C153.978 70.8438 147.746 71.3968 147.746 78.1435H156.698V84.0054H147.746V107.563L140.268 107.674Z" fill="#FCB823"/>
<path fill-rule="evenodd" clip-rule="evenodd" d="M175.961 73.6094H181.513L182.646 78.144H189.558V84.0059H183.44V97.6099C183.44 100.375 184.686 101.702 187.066 101.702H190.918V107.564H183.44C178.454 107.564 175.848 104.91 175.848 99.7113V73.6094H175.961Z" fill="#FCB823"/>
<path d="M170.186 78.1445H162.594V107.564H170.186V78.1445Z" fill="#FCB823"/>
<path d="M170.186 67.5234H162.594V73.6065H170.186V67.5234Z" fill="#FCB823"/>
<path fill-rule="evenodd" clip-rule="evenodd" d="M197.377 107.562C190.691 117.848 179.02 124.595 165.649 124.595C152.278 124.595 140.607 117.848 133.922 107.562C141.74 114.641 153.072 118.954 165.649 118.954C178.227 119.065 189.558 114.641 197.377 107.562Z" fill="#FCB823"/>
<path d="M33.5295 100.819V96.8371C35.6825 97.7219 38.2886 98.1643 41.1214 98.1643C43.2744 98.1643 44.2942 97.5007 44.2942 96.1735C44.2942 94.9568 43.6143 94.2932 42.1413 94.2932H38.6286C34.6627 94.2932 32.623 92.3024 32.623 88.4314C32.623 84.4497 35.5692 82.4589 41.3481 82.4589C43.8409 82.4589 46.1072 82.7907 48.3734 83.5649V87.5466C46.2205 86.6617 43.8409 86.2193 41.2348 86.2193C38.5153 86.2193 37.2688 86.8829 37.2688 88.2102C37.2688 89.4268 38.062 90.0904 39.6484 90.0904H42.8211C47.127 90.0904 49.3932 92.0812 49.3932 95.9523C49.3932 99.9339 46.5604 101.925 41.0081 101.925C38.1753 101.925 35.7958 101.482 33.5295 100.819ZM52.6793 101.704V82.5695H56.5319L57.0984 85.0027C59.3647 83.3437 61.6309 82.5695 63.7838 82.5695C66.2767 82.5695 67.9764 83.4543 68.9962 85.2239C71.4891 83.4543 73.8686 82.5695 76.0215 82.5695C80.2141 82.5695 82.2537 85.0027 82.2537 89.8692V101.704H77.268V89.648C77.268 87.5466 76.3615 86.4405 74.5485 86.4405C73.0754 86.4405 71.4891 87.2148 69.9027 88.8738V101.704H64.917V89.648C64.917 87.436 64.0105 86.4405 62.1975 86.4405C60.6111 86.4405 59.0247 87.2148 57.5517 88.8738V101.704H52.6793ZM85.993 95.7311C85.993 91.7494 88.8258 89.8692 94.4914 89.8692C96.1911 89.8692 97.7774 89.9798 99.0239 90.201V88.9844C99.0239 87.3254 97.3242 86.4405 93.9248 86.4405C91.7719 86.4405 89.619 86.7723 87.5794 87.3254V83.4543C89.7323 82.9013 91.8852 82.5695 93.9248 82.5695C100.61 82.5695 104.01 84.6709 104.01 88.8738V101.704H101.517L99.3638 100.376C97.6641 101.261 95.8511 101.704 93.9248 101.704C88.5992 101.704 85.993 99.7127 85.993 95.7311ZM99.0239 93.8508C97.7774 93.6296 96.3044 93.519 94.4914 93.519C92.1118 93.519 90.8654 94.2932 90.8654 95.7311C90.8654 97.1689 91.8852 97.9431 93.8115 97.9431C95.8511 97.9431 97.5508 97.3901 98.9105 96.3947V93.8508H99.0239ZM108.882 101.704V82.5695H112.735L113.301 85.0027C115.001 83.3437 116.814 82.5695 118.74 82.5695V86.4405C116.927 86.4405 115.227 87.2148 113.754 88.8738V101.704H108.882ZM121.8 79.4727H125.426L126.219 82.5695H130.751V86.4405H126.785V95.2887C126.785 97.0583 127.578 97.9431 129.165 97.9431H130.751V101.814H126.672C123.386 101.814 121.686 100.045 121.686 96.6159V79.4727H121.8Z" fill="#8A8B8F"/>
</svg>
