<svg width="230" height="180" viewBox="0 0 230 180" fill="none" xmlns="http://www.w3.org/2000/svg">
<path d="M58.1379 61.65C35.2268 75.7846 48.2212 117.618 48.2212 118.644C77.2875 99.1522 147.389 126.623 170.87 113.971C194.009 101.432 181.128 60.5102 181.128 60.5102C145.223 78.6343 80.2511 47.9714 58.1379 61.65Z" fill="white"/>
<path d="M182.382 59.1423C182.382 59.1423 182.268 59.1423 182.382 59.1423L172.351 55.8366C172.237 55.8366 172.123 55.8366 172.009 55.8366L171.668 55.7227C163.461 63.1319 148.528 63.8158 131.659 62.562C124.25 61.992 116.499 61.0801 108.748 60.0542C103.276 59.4843 97.6909 58.8003 92.2196 58.3444C91.9916 58.3444 91.6497 58.3444 91.3077 58.2304C90.7378 58.2304 90.0539 58.1164 89.484 58.1164C83.3287 57.5465 77.5155 57.2045 72.1582 57.2045C57.1121 57.5465 45.8275 64.8417 43.0918 85.7016C43.0918 85.8156 43.0918 85.9296 43.0918 85.9296C43.0918 86.0436 43.0918 86.1576 43.0918 86.1576C41.0401 102.8 46.0555 120.354 46.6254 120.696C46.7394 120.696 46.7394 120.81 46.8534 120.81L55.1743 122.406H55.2883C55.4023 122.406 55.5163 122.406 55.6303 122.292C67.0288 111.919 93.7014 114.655 119.348 117.276C132.57 118.758 146.135 120.126 157.305 119.67C159.129 119.556 160.839 119.442 162.549 119.214C176.797 117.048 184.32 108.043 186.03 91.401C187.967 74.1888 182.724 59.3703 182.382 59.1423ZM57.796 62.334C79.9092 48.7694 144.995 79.0903 180.558 61.1941C180.558 61.1941 193.439 101.432 170.3 113.743C146.933 126.281 76.7176 99.1522 47.6513 118.416C47.8792 117.504 34.9989 76.2406 57.796 62.334ZM138.384 117.96C138.84 117.96 139.524 118.074 139.98 118.074C139.524 118.074 138.84 117.96 138.384 117.96Z" fill="#263576"/>
<path d="M77.4022 89.6925C79.226 88.4386 80.2519 86.6148 80.2519 84.221C80.2519 79.4335 77.1743 76.9258 71.133 76.9258H58.1387V104.967H71.589C76.1484 104.967 81.5057 102.801 81.5057 96.6458C81.5057 93.2261 80.1379 90.9464 77.4022 89.6925ZM70.7911 99.1535H65.0918V82.6252H69.9932C73.0708 82.6252 73.4127 83.8791 73.4127 85.1329C73.4127 86.8428 72.3869 87.7547 70.4491 87.7547H68.7393L66.3456 92.8842H70.9051C73.4127 92.8842 74.4386 93.9101 74.4386 96.0758C74.6666 97.4437 74.0967 99.1535 70.7911 99.1535Z" fill="#E62530"/>
<path d="M90.28 76.9258H83.2129V104.967H90.28V76.9258Z" fill="#E62530"/>
<path d="M107.153 92.653L103.619 76.8086H92.5625V104.736H99.5156V87.6375L103.619 104.736H110.686L114.79 87.4095V104.736H121.743V76.8086H110.686L107.153 92.653Z" fill="#E62530"/>
<path d="M143.627 89.8058C145.451 88.5519 146.477 86.7281 146.477 84.3343C146.477 79.5468 143.399 77.0391 137.358 77.0391H124.363V105.08H137.814C142.373 105.08 147.73 102.914 147.73 96.7591C147.73 93.4534 146.249 91.0596 143.627 89.8058ZM137.016 99.2668H131.316V82.9665H136.218C139.295 82.9665 139.637 84.2203 139.637 85.4742C139.637 87.184 138.611 88.0959 136.674 88.0959H135.078L132.456 93.2254H137.016C139.523 93.2254 140.549 94.2513 140.549 96.4171C140.777 97.671 140.321 99.2668 137.016 99.2668Z" fill="#E62530"/>
<path d="M162.665 76.582C154.914 76.582 148.645 82.8514 148.645 90.6026C148.645 98.3538 154.914 104.623 162.665 104.623C170.416 104.623 176.685 98.3538 176.685 90.6026C176.799 82.9654 170.53 76.582 162.665 76.582ZM162.665 98.0118C158.675 98.0118 155.256 94.7062 155.256 90.6026C155.256 86.499 158.561 83.1934 162.665 83.1934C166.768 83.1934 169.96 86.499 169.96 90.6026C170.074 94.8202 166.654 98.0118 162.665 98.0118Z" fill="#E62530"/>
<path d="M67.372 73.2789C66.8021 73.6209 66.1182 73.8488 65.4343 73.9628C64.7504 74.0768 64.0665 74.1908 63.3826 74.1908C62.6986 74.1908 62.0147 74.0768 61.3308 73.8488C60.7609 73.6209 60.191 73.2789 59.735 72.9369C59.2791 72.481 58.9371 72.025 58.7091 71.4551C58.4812 70.8851 58.3672 70.2012 58.3672 69.5173C58.3672 68.8333 58.4812 68.1494 58.7091 67.5795C58.9371 67.0095 59.2791 66.5536 59.735 66.0976C60.191 65.6417 60.7609 65.4137 61.3308 65.1857C62.1287 64.9577 62.8126 64.8438 63.4965 64.8438C64.2944 64.8438 64.9783 64.9577 65.5483 65.0717C66.1182 65.2997 66.6881 65.5277 67.1441 65.9836L65.7762 67.4655C65.5483 67.2375 65.2063 67.0095 64.8644 66.8955C64.5224 66.7816 64.0665 66.6676 63.4965 66.6676C63.0406 66.6676 62.6986 66.7816 62.3567 66.8955C62.0147 67.0095 61.6728 67.2375 61.4448 67.4655C61.2168 67.6935 60.9889 68.0354 60.8749 68.3774C60.7609 68.7194 60.6469 69.0613 60.6469 69.5173C60.6469 69.9732 60.7609 70.3152 60.8749 70.6572C60.9889 70.9991 61.2168 71.3411 61.4448 71.5691C61.6728 71.797 62.0147 72.025 62.3567 72.139C62.6986 72.253 63.1546 72.367 63.4965 72.367C63.9525 72.367 64.2944 72.367 64.6364 72.253C64.9783 72.139 65.2063 72.025 65.4343 71.911V70.4292H63.7245V68.6054H67.372V73.2789Z" fill="#263576"/>
<path d="M68.627 65.0664H72.2745C72.7304 65.0664 73.1864 65.0664 73.6423 65.1804C74.0983 65.2944 74.4402 65.4084 74.7822 65.6363C75.1241 65.8643 75.3521 66.0923 75.5801 66.4343C75.808 66.7762 75.808 67.2322 75.808 67.6881C75.808 68.2581 75.6941 68.828 75.3521 69.284C75.0101 69.7399 74.5542 69.9679 73.8703 70.0819L76.264 73.8435H73.7563L71.8185 70.3099H70.7927V73.8435H68.7409V65.0664H68.627ZM70.6787 68.714H71.9325C72.1605 68.714 72.2745 68.714 72.5025 68.714C72.7304 68.714 72.8444 68.714 73.0724 68.6C73.1864 68.4861 73.4143 68.4861 73.5283 68.2581C73.6423 68.1441 73.6423 67.9161 73.6423 67.6881C73.6423 67.4602 73.6423 67.2322 73.5283 67.1182C73.4143 67.0042 73.3004 66.8902 73.1864 66.7762C73.0724 66.6622 72.8444 66.6622 72.7304 66.6622C72.5025 66.6622 72.3885 66.6622 72.1605 66.6622H70.7927V68.714H70.6787Z" fill="#263576"/>
<path d="M84.4717 70.5378C84.4717 71.1078 84.3577 71.5637 84.2438 72.0197C84.1298 72.4757 83.7878 72.8176 83.5598 73.1596C83.2179 73.5015 82.8759 73.7295 82.306 73.9575C81.7361 74.0715 81.1661 74.1855 80.5962 74.1855C79.9123 74.1855 79.3424 74.0715 78.8864 73.9575C78.4305 73.7295 77.9745 73.5015 77.6326 73.1596C77.2906 72.8176 77.0627 72.4757 76.9487 72.0197C76.8347 71.5637 76.7207 71.1078 76.7207 70.5378V65.0664H78.7724V70.4239C78.7724 70.6518 78.7724 70.9938 78.8864 71.2218C79.0004 71.4498 79.1144 71.6777 79.2284 71.7917C79.3424 71.9057 79.5703 72.1337 79.7983 72.1337C80.0263 72.2477 80.2543 72.2477 80.5962 72.2477C80.8242 72.2477 81.1661 72.2477 81.3941 72.1337C81.6221 72.0197 81.8501 71.9057 81.964 71.7917C82.078 71.5637 82.306 71.4498 82.306 71.2218C82.42 70.9938 82.42 70.7658 82.42 70.4239V65.0664H84.4717C84.4717 65.0664 84.4717 70.5378 84.4717 70.5378Z" fill="#263576"/>
<path d="M85.8379 65.0664H89.2575C89.7134 65.0664 90.1693 65.0664 90.6253 65.1804C91.0812 65.2944 91.4232 65.4084 91.7651 65.6363C92.1071 65.8643 92.3351 66.0923 92.563 66.4343C92.791 66.7762 92.791 67.2322 92.791 67.6881C92.791 68.2581 92.677 68.6 92.563 68.942C92.3351 69.284 92.1071 69.6259 91.8791 69.7399C91.5372 69.9679 91.1952 70.0819 90.7393 70.1959C90.2833 70.3099 89.8274 70.3099 89.3714 70.3099H87.8896V73.7295H85.8379C85.8379 73.7295 85.8379 65.0664 85.8379 65.0664ZM87.8896 68.828H89.2575C89.4854 68.828 89.5994 68.828 89.8274 68.828C89.9414 68.828 90.1693 68.714 90.2833 68.714C90.3973 68.6 90.5113 68.4861 90.6253 68.3721C90.7393 68.2581 90.7393 68.0301 90.7393 67.8021C90.7393 67.5742 90.7393 67.3462 90.6253 67.2322C90.5113 67.1182 90.3973 67.0042 90.1693 66.8902C89.9414 66.7762 89.8274 66.7762 89.5994 66.7762C89.3714 66.7762 89.1435 66.7762 89.0295 66.7762H88.0036L87.8896 68.828Z" fill="#263576"/>
<path d="M93.5898 69.5173C93.5898 68.8333 93.7038 68.1494 93.9318 67.5795C94.1598 67.0095 94.5017 66.5536 94.9577 66.0976C95.4136 65.6417 95.9835 65.4137 96.5535 65.1857C97.1234 64.9577 97.8073 64.8438 98.6052 64.8438C99.2891 64.8438 99.973 64.9577 100.657 65.1857C101.227 65.4137 101.797 65.7557 102.253 66.0976C102.709 66.5536 103.051 67.0095 103.279 67.5795C103.507 68.1494 103.621 68.8333 103.621 69.5173C103.621 70.2012 103.507 70.8851 103.279 71.4551C103.051 72.025 102.709 72.481 102.253 72.9369C101.797 73.3929 101.227 73.6209 100.657 73.8488C100.087 74.0768 99.4031 74.1908 98.6052 74.1908C97.9213 74.1908 97.2374 74.0768 96.5535 73.8488C95.9835 73.6209 95.4136 73.2789 94.9577 72.9369C94.5017 72.481 94.1598 72.025 93.9318 71.4551C93.7038 70.8851 93.5898 70.2012 93.5898 69.5173ZM95.7556 69.5173C95.7556 69.9732 95.8696 70.3152 95.9835 70.6572C96.0975 70.9991 96.3255 71.3411 96.5535 71.5691C96.7814 71.797 97.1234 72.025 97.4654 72.139C97.8073 72.253 98.2633 72.367 98.6052 72.367C99.0611 72.367 99.4031 72.253 99.7451 72.139C100.087 72.025 100.429 71.797 100.657 71.5691C100.885 71.3411 101.113 70.9991 101.227 70.6572C101.341 70.3152 101.455 69.9732 101.455 69.5173C101.455 69.0613 101.341 68.7194 101.227 68.3774C101.113 68.0354 100.885 67.6935 100.657 67.4655C100.429 67.2375 100.087 67.0095 99.7451 66.8955C99.4031 66.7816 98.9472 66.6676 98.6052 66.6676C98.1493 66.6676 97.8073 66.7816 97.4654 66.8955C97.1234 67.0095 96.7814 67.2375 96.5535 67.4655C96.3255 67.6935 96.0975 68.0354 95.9835 68.3774C95.7556 68.7194 95.7556 69.0613 95.7556 69.5173Z" fill="#263576"/>
<path d="M179.988 118.643C179.988 118.187 180.102 117.845 180.216 117.504C180.33 117.162 180.558 116.82 180.9 116.592C181.128 116.364 181.47 116.136 181.812 115.908C182.154 115.794 182.61 115.68 182.952 115.68C183.408 115.68 183.75 115.794 184.092 115.908C184.434 116.022 184.776 116.25 185.004 116.478C185.232 116.706 185.46 117.048 185.688 117.39C185.802 117.731 185.916 118.187 185.916 118.529C185.916 118.985 185.802 119.327 185.688 119.669C185.574 120.011 185.346 120.353 185.004 120.581C184.776 120.809 184.434 121.037 184.092 121.265C183.75 121.379 183.294 121.493 182.952 121.493C182.496 121.493 182.154 121.379 181.812 121.265C181.47 121.151 181.128 120.923 180.9 120.695C180.672 120.467 180.444 120.125 180.216 119.783C180.102 119.441 179.988 119.099 179.988 118.643ZM180.558 118.643C180.558 118.985 180.672 119.327 180.786 119.669C180.9 120.011 181.128 120.239 181.356 120.467C181.584 120.695 181.812 120.923 182.154 121.037C182.496 121.151 182.838 121.265 183.18 121.265C183.522 121.265 183.864 121.151 184.206 121.037C184.548 120.923 184.776 120.695 185.004 120.467C185.232 120.239 185.46 120.011 185.574 119.669C185.688 119.327 185.802 118.985 185.802 118.643C185.802 118.301 185.688 117.959 185.574 117.617C185.46 117.276 185.232 117.048 185.004 116.82C184.776 116.592 184.548 116.364 184.206 116.25C183.864 116.136 183.522 116.022 183.18 116.022C182.838 116.022 182.496 116.136 182.154 116.25C181.812 116.364 181.584 116.592 181.356 116.82C181.128 117.048 180.9 117.276 180.786 117.617C180.558 117.959 180.558 118.301 180.558 118.643ZM181.926 116.934H183.18C183.636 116.934 183.864 117.048 184.092 117.162C184.32 117.276 184.434 117.617 184.434 117.959C184.434 118.301 184.32 118.529 184.206 118.643C183.978 118.757 183.864 118.871 183.522 118.871L184.548 120.353H183.978L183.066 118.871H182.496V120.353H182.04V116.934H181.926V116.934ZM182.382 118.529H182.952C183.066 118.529 183.18 118.529 183.294 118.529C183.408 118.529 183.522 118.529 183.636 118.415C183.75 118.415 183.75 118.301 183.864 118.301C183.864 118.187 183.978 118.073 183.978 117.959C183.978 117.845 183.978 117.731 183.864 117.617C183.864 117.504 183.75 117.504 183.636 117.504C183.522 117.504 183.522 117.39 183.408 117.39C183.294 117.39 183.18 117.39 183.18 117.39H182.382V118.529Z" fill="#263576"/>
</svg>
