<svg width="230" height="180" viewBox="0 0 230 180" fill="none" xmlns="http://www.w3.org/2000/svg">
<path fill-rule="evenodd" clip-rule="evenodd" d="M64.9084 108.529C61.0952 113.55 59.6356 114.825 57.7035 114.825C56.1215 114.825 55.4201 113.926 55.5708 112.11C53.6953 114.142 52.8454 114.708 51.5049 114.708C49.5965 114.708 48.7818 113.078 49.3812 110.661C50.4623 106.313 55.2614 101.531 58.5862 101.531C59.6016 101.531 60.0594 102.075 60.2282 103.405L61.2368 101.799C61.9688 101.889 62.2782 101.889 62.9275 101.889C63.5179 101.889 63.7774 101.889 64.361 101.799L63.7842 102.806C63.4443 103.405 63.2108 103.874 62.2193 105.554C61.7943 106.214 61.4453 106.88 61.0951 107.446C60.3852 108.544 59.7232 109.672 59.1109 110.827C58.6463 111.595 58.3109 112.11 58.1024 112.41C57.878 112.775 57.7624 113.077 57.7035 113.3C57.6106 113.65 57.9041 113.966 58.4446 113.966C59.6934 113.966 61.3354 112.378 64.7588 107.653L65.4183 107.862L64.9084 108.529V108.529ZM58.5602 102.217C57.9936 102.217 57.4202 102.714 56.2858 104.315C55.1971 105.839 54.1692 107.405 53.2047 109.011C52.1134 110.712 51.6794 111.725 51.455 112.653C51.2465 113.443 51.5797 113.967 52.1542 113.927C53.1797 113.927 54.6053 112.635 56.2632 110.146C57.8519 107.931 59.0871 105.539 59.3874 104.231C59.6866 103.139 59.2616 102.217 58.5602 102.217Z" fill="black"/>
<path fill-rule="evenodd" clip-rule="evenodd" d="M71.981 108.357L70.4625 110.279C68.0635 113.552 66.3818 114.827 64.5834 114.827C62.9845 114.827 62.1833 113.652 62.6094 111.937C62.8077 111.18 63.2429 110.279 64.2344 108.531L74.7052 90.8741L75.1301 90.9137H76.0888C76.4809 90.9137 76.8628 90.9137 77.8034 90.8242L66.4328 110.087C66.2243 110.396 65.8492 111.071 65.3483 112.088C64.9064 112.844 64.8248 113.046 64.7908 113.329C64.6752 113.794 64.8237 114.044 65.3087 114.044C65.975 114.044 66.8419 113.445 68.0839 112.163C68.8579 111.338 69.6069 110.397 71.3305 108.124L71.7158 107.657L72.3549 107.865C72.1725 108.122 71.998 108.271 71.981 108.357Z" fill="black"/>
<path fill-rule="evenodd" clip-rule="evenodd" d="M85.9349 108.529C82.0854 113.55 80.6258 114.825 78.7107 114.825C77.1185 114.825 76.4273 113.926 76.5519 112.11C74.7025 114.142 73.8288 114.708 72.52 114.708C70.5618 114.708 69.755 113.078 70.3873 110.661C71.4695 106.313 76.2766 101.531 79.6002 101.531C80.6247 101.531 81.0915 102.075 81.2173 103.405L82.2089 101.799C82.9568 101.889 83.29 101.889 83.9234 101.889C84.5002 101.889 84.7835 101.889 85.383 101.799L84.8073 102.806C84.4515 103.405 84.1909 103.874 83.1755 105.554C82.7766 106.214 82.4242 106.88 82.0842 107.446C81.2173 108.787 80.5918 109.944 80.1011 110.827C79.6592 111.595 79.3101 112.11 79.0926 112.41C78.9011 112.775 78.7424 113.077 78.7107 113.3C78.5951 113.65 78.9351 113.966 79.4257 113.966C80.7267 113.966 82.3256 112.378 85.7569 107.653L86.4153 107.862L85.9349 108.529V108.529ZM79.5685 102.217C78.9781 102.217 78.4206 102.714 77.2704 104.315C76.1923 105.847 75.1636 107.413 74.1858 109.011C73.1376 110.712 72.6866 111.725 72.4384 112.653C72.2446 113.443 72.554 113.967 73.1444 113.927C74.1858 113.927 75.5864 112.635 77.2443 110.146C78.8523 107.931 80.0785 105.539 80.3844 104.231C80.653 103.139 80.2858 102.217 79.5685 102.217Z" fill="black"/>
<path fill-rule="evenodd" clip-rule="evenodd" d="M95.8973 108.755C94.1974 111.12 93.1492 112.211 91.6727 113.302C90.374 114.227 88.8249 114.827 87.5829 114.827C85.1579 114.827 83.925 112.979 84.5845 110.331C85.6429 106.215 90.6415 101.602 94.032 101.602C95.7227 101.602 96.5307 102.683 96.0888 104.316C95.5312 106.564 93.096 107.004 93.4314 105.555C93.7226 104.29 95.0723 105.149 95.2967 104.232C95.58 103.102 95.0723 102.268 94.1306 102.268C93.4971 102.268 92.7299 102.716 91.8959 103.723C89.974 106.107 87.124 110.964 86.7081 112.654C86.4905 113.552 86.9914 114.143 88.0068 114.143C89.4901 114.143 91.497 112.979 93.096 111.213C94.0807 110.068 95.0153 108.881 95.8973 107.655L96.5726 107.863L95.8973 108.755V108.755Z" fill="black"/>
<path fill-rule="evenodd" clip-rule="evenodd" d="M102.546 109.186C99.4546 113.328 97.7219 114.826 95.8646 114.826C94.1976 114.826 93.2321 113.552 93.6401 111.936C93.8316 111.337 94.0231 110.996 95.0736 109.104L99.3469 101.8C100.031 101.891 100.338 101.891 100.855 101.891C101.439 101.891 101.755 101.891 102.463 101.8L97.0386 110.996L96.4482 112.111C96.1649 112.635 95.9303 113.078 95.8487 113.328C95.7796 113.726 96.0629 114.084 96.4482 114.084C97.2391 114.084 98.3134 113.301 99.7537 111.628C100.636 110.661 101.296 109.785 102.852 107.654L103.51 107.862L102.546 109.186ZM102.022 100.543C101.129 100.543 100.672 100.125 100.83 99.4496C101.047 98.6418 102.039 97.9609 103.048 97.9609C103.889 97.9609 104.353 98.4277 104.196 99.0938C103.996 99.9084 103.064 100.543 102.022 100.543V100.543Z" fill="black"/>
<path fill-rule="evenodd" clip-rule="evenodd" d="M110.061 110.911C108.028 113.61 106.288 114.825 104.514 114.825C102.214 114.825 100.855 113.044 101.44 110.711C102.522 106.421 107.613 101.624 111.163 101.624C112.936 101.624 113.786 102.832 113.285 104.798C112.978 105.991 112.462 107.123 111.028 109.495L110.57 110.254C111.479 110.254 112.152 109.72 113.612 107.654L114.261 107.862C112.503 110.277 111.711 110.911 110.061 110.911ZM108.495 109.184C108.845 107.728 110.137 106.563 111.327 106.563C111.452 106.563 111.654 106.563 111.818 106.611C112.227 105.929 112.352 105.539 112.46 105.063C112.892 103.405 112.46 102.314 111.353 102.314C110.336 102.314 109.604 102.992 107.83 105.43C106.845 106.68 106.022 108.078 105.013 109.829C104.063 111.486 103.79 112.11 103.638 112.728C103.388 113.61 103.83 114.177 104.73 114.177C106.172 114.177 107.728 112.977 109.379 110.827C108.595 110.579 108.295 109.994 108.495 109.184V109.184ZM132.213 108.852C128.482 113.725 127.265 114.824 125.332 114.824C123.675 114.824 122.915 113.925 123.192 112.084C121.417 114.139 120.41 114.74 119.151 114.74C117.194 114.74 116.351 113.076 116.933 110.71C118.044 106.311 122.984 101.475 126.317 101.475C127.406 101.475 127.882 102.108 127.931 103.404L135.412 90.7622C135.897 90.9106 136.156 90.9106 136.771 90.9106C137.486 90.9106 137.837 90.9106 138.555 90.7622L126.84 110.659L126.05 112.018C125.706 112.482 125.457 112.976 125.423 113.25C125.314 113.649 125.591 113.965 126.05 113.965C127.141 113.965 128.423 112.726 131.846 108.268L132.315 107.653L132.97 107.861L132.213 108.852V108.852ZM126.239 102.266C125.415 102.314 124.864 102.89 123.116 105.553C122.456 106.611 121.715 107.728 120.916 109.103C119.916 110.86 119.433 111.811 119.101 112.842C118.95 113.409 119.309 113.857 119.809 113.857C120.641 113.857 122.006 112.652 123.698 110.328C125.331 108.18 126.589 105.728 126.972 104.179C127.263 102.992 126.965 102.217 126.239 102.266V102.266ZM44.7629 79.0605L43.6388 80.5027C41.8223 82.9407 40.6131 83.8402 39.2714 83.8402C38.0974 83.8402 37.5149 82.9837 37.8243 81.7579C37.9898 81.1586 38.2731 80.5027 39.0482 79.2361L46.746 66.1591L47.0792 66.2022H47.7874C48.0707 66.2022 48.371 66.2022 49.0532 66.1172L40.6483 80.3679C40.4896 80.6012 40.1904 81.0929 39.838 81.8338C39.5049 82.3754 39.4652 82.5521 39.4131 82.7934C39.3632 83.0834 39.489 83.2511 39.7984 83.2511C40.2902 83.2511 40.9723 82.8523 41.8392 81.9007C42.4546 81.2934 42.9555 80.6024 44.2711 78.8951L44.5476 78.5858L45.0451 78.7104C44.9204 78.8951 44.7629 79.0039 44.7629 79.0605V79.0605ZM173.369 109.184C170.262 113.326 168.562 114.825 166.702 114.825C165.029 114.825 164.062 113.55 164.487 111.935C164.619 111.336 164.83 110.995 165.912 109.103L170.16 101.799C170.835 101.889 171.16 101.889 171.676 101.889C172.252 101.889 172.568 101.889 173.276 101.799L167.845 110.995L167.269 112.109C167.012 112.634 166.777 113.077 166.695 113.326C166.669 113.416 166.664 113.511 166.681 113.603C166.699 113.696 166.738 113.783 166.796 113.857C166.853 113.931 166.928 113.99 167.013 114.029C167.099 114.068 167.192 114.087 167.286 114.083C168.025 114.083 169.151 113.3 170.568 111.627C171.459 110.659 172.152 109.783 173.684 107.653L174.341 107.861L173.369 109.184V109.184ZM172.842 100.541C171.985 100.541 171.5 100.123 171.676 99.4481C171.871 98.6403 172.911 97.9595 173.884 97.9595C174.695 97.9595 175.185 98.4262 175.034 99.0924C174.809 99.9069 173.884 100.541 172.842 100.541V100.541ZM193.546 108.654C191.539 111.336 191.119 111.811 190.181 112.777C189.004 114.042 187.514 114.826 186.347 114.826C184.805 114.826 183.84 113.612 184.205 112.161C184.364 111.528 184.755 110.712 185.24 109.995C185.688 109.38 186.281 108.438 187.106 107.23C188.513 105.289 189.095 104.181 189.254 103.473C189.396 102.993 189.303 102.716 188.853 102.268L188.353 102.934L186.919 105.065L185.328 107.125L184.821 107.863L184.139 107.655L184.654 106.947C185.43 105.856 186.02 105.064 186.33 104.683L187.847 102.535L188.395 101.75C187.78 101.21 187.536 100.659 187.694 99.9953C187.954 99.0017 189.013 98.0852 189.969 98.0852C190.654 98.0852 190.954 98.4285 190.803 99.0527C190.643 99.652 190.354 100.209 189.429 101.533C191.326 102.833 191.735 103.341 191.412 104.666C191.188 105.432 190.785 106.282 189.568 108.183C188.678 109.573 188.136 110.506 187.829 110.997L186.863 112.513C186.647 112.877 186.478 113.254 186.438 113.504C186.329 113.86 186.587 114.143 186.912 114.143C187.485 114.143 188.361 113.612 189.194 112.877C190.212 111.912 191.117 110.828 192.968 108.271L193.453 107.656L194.119 107.864L193.546 108.654V108.654Z" fill="black"/>
<path fill-rule="evenodd" clip-rule="evenodd" d="M202.835 108.651C200.821 111.332 200.478 111.808 199.528 112.773C198.277 114.039 196.819 114.823 195.653 114.823C194.12 114.823 193.127 113.608 193.504 112.158C193.664 111.525 194.071 110.709 194.547 109.992C194.981 109.377 195.605 108.434 196.412 107.227C197.795 105.286 198.377 104.178 198.585 103.47C198.687 102.99 198.611 102.713 198.193 102.265L197.687 102.931L196.27 105.062L194.628 107.121L194.131 107.86L193.504 107.652L193.971 106.944C194.779 105.853 195.355 105.061 195.62 104.68L197.129 102.532L197.729 101.747C197.087 101.207 196.853 100.656 197.02 99.9921C197.253 98.9985 198.302 98.082 199.294 98.082C199.986 98.082 200.285 98.4253 200.143 99.0495C199.986 99.6488 199.644 100.206 198.745 101.529C200.647 102.83 201.035 103.338 200.719 104.663C200.536 105.429 200.102 106.279 198.869 108.18C198.019 109.57 197.461 110.503 197.129 110.994L196.186 112.509C195.936 112.874 195.803 113.25 195.713 113.501C195.653 113.856 195.896 114.14 196.219 114.14C196.819 114.14 197.72 113.608 198.518 112.874C199.534 111.909 200.435 110.825 202.31 108.268L202.761 107.653L203.434 107.861L202.835 108.651V108.651Z" fill="black"/>
<path fill-rule="evenodd" clip-rule="evenodd" d="M209.923 110.91C207.91 113.61 206.192 114.824 204.42 114.824C202.06 114.824 200.743 113.043 201.301 110.711C202.41 106.42 207.518 101.624 211.051 101.624C212.823 101.624 213.7 102.831 213.167 104.797C212.89 105.99 212.366 107.123 210.924 109.494L210.473 110.253C211.367 110.253 212.015 109.719 213.506 107.653L214.165 107.861C212.364 110.277 211.607 110.91 209.923 110.91V110.91ZM208.382 109.184C208.749 107.728 209.998 106.562 211.213 106.562C211.306 106.562 211.508 106.562 211.722 106.611C212.074 105.929 212.237 105.538 212.363 105.062C212.762 103.405 212.296 102.314 211.239 102.314C210.222 102.314 209.446 102.991 207.722 105.429C206.741 106.68 205.901 108.078 204.865 109.828C203.933 111.486 203.65 112.11 203.508 112.727C203.285 113.61 203.725 114.176 204.616 114.176C206.032 114.176 207.608 112.976 209.223 110.826C208.491 110.578 208.182 109.994 208.382 109.184V109.184ZM67.0312 79.2434C65.4062 75.6793 60.6241 78.8854 60.6241 78.8854C48.2122 72.8391 38.7239 90.322 38.7239 90.322C33.9655 86.2651 25.4586 90.2291 25.4586 90.2291C12.1559 97.7334 15.3368 109.654 15.3368 109.654C17.8786 124.202 36.1889 117.422 36.1889 117.422C48.7198 113.293 52.652 96.2085 52.652 96.2085C54.0198 90.2291 60.6241 80.2426 60.6241 80.2426C65.3076 82.8845 64.5495 88.2556 64.5495 88.2556C65.1887 96.1485 54.2669 96.835 54.2669 96.835C66.7479 97.9917 66.5406 88.5479 66.5406 88.5479C66.9825 83.0658 61.7913 79.376 61.7913 79.376C64.5903 76.5947 67.0312 79.2434 67.0312 79.2434V79.2434ZM47.7872 96.6265C47.7872 96.6265 41.439 115.333 30.558 117.515C30.558 117.515 15.9465 120.621 16.6038 106.07C16.6038 106.07 17.2451 91.5297 32.0992 89.1642C32.0992 89.1642 35.824 88.8311 38.3556 91.2464C37.8649 92.6943 36.8563 95.9525 37.7391 97.4343C37.7391 97.4343 38.0156 93.1871 38.7805 91.6781C40.648 93.8759 41.5648 97.9588 39.1137 105.444C39.1137 105.444 37.0501 110.192 31.2005 113.425C31.2005 113.425 45.1978 108.594 40.8237 93.2267C40.8237 93.2267 40.3987 91.7698 39.1567 90.7785C39.1567 90.7785 49.5879 73.622 59.577 80.101C59.5759 80.101 51.2877 88.08 47.7872 96.6265V96.6265ZM24.8353 62.762C27.9754 61.4116 32.4323 64.3345 32.4323 64.3345C34.2647 62.4788 36.9311 62.088 36.9311 62.088C43.1887 61.3799 41.839 65.1785 41.839 65.1785C40.7387 67.5848 38.0655 67.6097 38.0655 67.6097C35.2143 68.0753 32.6578 65.9851 32.6578 65.9851C31.6912 67.6595 33.0329 68.209 33.0329 68.209C35.8999 68.209 35.3073 69.6829 35.3073 69.6829C34.1571 70.9744 33.0329 69.3589 33.0329 69.3589C32.7258 69.0666 31.7932 69.3158 31.7932 69.3158C25.0268 70.4895 22.8624 76.3772 22.8624 76.3772C20.0374 83.801 27.3102 83.758 27.3102 83.758C31.6912 84.1239 33.408 81.9 33.408 81.9C38.8394 76.6967 35.6325 73.989 35.6325 73.989C30.9331 69.5016 25.0268 78.3711 25.0268 78.3711C30.6589 67.8442 36.9311 73.4974 36.9311 73.4974C42.2798 79.5176 32.2997 83.801 32.2997 83.801C19.8028 88.4233 20.0702 77.6947 20.0702 77.6947C20.4124 69.4246 31.8589 68.3336 31.8589 68.3336C31.2821 67.7083 31.8589 64.9837 31.8589 64.9837C28.916 62.8946 26.1838 62.8946 26.1838 62.8946C21.9774 63.0781 24.4852 66.2921 24.4852 66.2921C22.1768 63.5777 24.8353 62.762 24.8353 62.762V62.762ZM38.8394 66.3511C42.8476 65.6022 40.8225 63.4848 40.8225 63.4848C36.9742 60.6537 33.4737 64.944 33.4737 64.944C34.5151 67.1747 38.8394 66.3511 38.8394 66.3511ZM179.898 80.3672C179.898 80.3672 170.496 86.0974 162.289 99.5403L158.314 99.5891C158.314 99.5891 159.622 91.8944 170.795 80.7162L167.546 82.1323C167.546 82.1323 158.638 82.9491 154.824 81.7075C154.824 81.7075 148.958 80.5417 146.626 85.2489C146.626 85.2489 143.259 92.3034 150.309 92.6274C150.309 92.6274 154.514 93.4862 158.14 88.1955C158.14 88.1955 154.682 91.8956 151.526 91.9873C151.526 91.9873 145.626 92.9933 146.36 87.3719C146.36 87.3719 147.849 82.2512 152.098 82.4823C152.098 82.4823 155.239 82.5515 155.848 82.9831C155.848 82.9831 160.173 84.8082 165.659 83.3649C165.659 83.3649 156.09 92.3034 152.714 100.1H149.075V100.983H151.917C151.917 100.983 147.849 111.722 139.952 116.863C139.952 116.863 136.868 119.415 129.212 115.974C129.212 115.974 133.344 120.014 139.867 118.222C139.867 118.222 149.873 116.923 157.589 100.706H161.404C161.404 100.706 157.387 106.61 157.387 111.232C157.387 111.232 156.714 121.228 166.803 116.181C166.803 116.181 155.19 121.76 166.117 100.655H168.26V99.7386H166.937C166.937 99.7397 168.803 92.4371 179.898 80.3672V80.3672Z" fill="black"/>
<path fill-rule="evenodd" clip-rule="evenodd" d="M140.468 111.391C138.494 113.522 136.212 114.705 134.08 114.705C131.628 114.705 130.28 113.041 130.838 110.71C131.89 106.57 137.129 101.547 140.461 101.547C142.201 101.547 143.093 102.803 142.644 104.62C141.843 107.754 137.168 107.776 135.227 107.961C134.964 108.516 133.463 111.734 133.346 112.207C133.023 113.44 133.395 114.099 134.497 114.099C136.788 114.099 139.304 112.159 142.404 108.119L142.769 107.57L143.444 107.754C142.201 109.492 141.526 110.284 140.468 111.391V111.391ZM141.393 104.568C143.16 101.92 140.202 102.404 140.202 102.404C137.302 103.272 135.952 107.011 135.952 107.011C140.009 107.41 141.393 104.568 141.393 104.568ZM181.907 111.391C179.864 113.522 177.585 114.705 175.475 114.705C173.025 114.705 171.651 113.041 172.25 110.71C173.274 106.57 178.506 101.547 181.831 101.547C183.571 101.547 184.481 102.803 184.023 104.62C183.231 107.754 178.591 107.776 176.633 107.961C176.352 108.516 174.876 111.734 174.734 112.207C174.467 113.44 174.783 114.099 175.874 114.099C178.2 114.099 180.708 112.159 183.806 108.119L184.205 107.57L184.856 107.754C183.572 109.492 182.924 110.284 181.907 111.391V111.391ZM182.79 104.568C184.554 101.92 181.597 102.404 181.597 102.404C178.715 103.272 177.349 107.011 177.349 107.011C181.414 107.41 182.79 104.568 182.79 104.568Z" fill="black"/>
</svg>
