<svg width="230" height="180" viewBox="0 0 230 180" fill="none" xmlns="http://www.w3.org/2000/svg">
<path d="M87.2201 121.08H88.3047V142.767H84.1986V123.714C84.1986 123.094 85.5157 121.08 87.2201 121.08V121.08ZM109.688 125.882C107.673 125.882 106.124 126.734 105.039 128.438V121.08H104.574C102.56 121.08 101.475 122.165 100.933 123.094V122.939V135.409C100.933 140.289 103.49 142.767 108.603 142.767C113.716 142.69 116.195 139.901 116.195 134.48C116.195 128.826 114.026 126.037 109.688 125.882V125.882ZM108.448 139.204C106.124 139.204 104.962 137.5 105.039 134.247C105.194 131.072 106.279 129.523 108.525 129.523C110.772 129.523 111.857 131.072 112.012 134.247C112.012 137.578 110.772 139.204 108.448 139.204ZM118.597 134.247C118.752 128.98 121.309 126.037 126.809 126.037H128.049V130.297H126.112C123.788 130.297 122.781 131.769 122.781 134.17V142.69H118.597V134.247ZM134.557 138.507C135.254 139.127 136.184 139.437 137.423 139.437C138.276 139.437 139.05 139.204 139.67 138.74C140.29 138.275 140.677 137.81 140.832 137.345H144.706C144.086 139.282 143.156 140.598 141.839 141.45C140.522 142.302 139.05 142.69 137.191 142.69C135.951 142.69 134.789 142.457 133.782 142.07C132.775 141.683 131.923 141.063 131.225 140.366C130.528 139.592 129.986 138.74 129.598 137.733C129.211 136.726 129.056 135.564 129.056 134.325C129.056 133.163 129.289 132.001 129.676 130.994C130.063 129.987 130.606 129.058 131.303 128.361C132 127.586 132.852 127.044 133.86 126.579C134.867 126.115 135.951 125.96 137.191 125.96C138.508 125.96 139.747 126.192 140.755 126.734C141.762 127.277 142.614 127.974 143.234 128.826C143.854 129.678 144.318 130.684 144.628 131.846C144.938 132.931 145.016 134.17 144.938 135.409H133.395C133.55 136.881 133.937 137.888 134.557 138.507V138.507ZM139.515 130.142C138.973 129.6 138.198 129.29 137.113 129.29C136.416 129.29 135.796 129.445 135.331 129.678C134.867 129.91 134.479 130.22 134.247 130.53C133.937 130.917 133.782 131.227 133.627 131.614C133.472 132.001 133.472 132.388 133.395 132.698H140.522C140.445 131.536 140.057 130.684 139.515 130.142V130.142ZM92.7207 121.08H96.8269V124.798H92.7207V121.08ZM92.7207 126.657H96.8269V142.69H92.7207V126.657ZM167.638 112.483C166.941 113.258 166.011 113.722 164.849 113.722C163.687 113.722 162.757 113.258 162.06 112.483C161.363 111.708 161.13 110.392 161.13 108.843C161.13 107.216 161.44 106.054 162.06 105.28C162.757 104.505 163.687 104.041 164.849 104.041C166.011 104.041 166.941 104.505 167.638 105.28C168.335 106.054 168.568 107.371 168.568 108.843C168.568 110.314 168.335 111.554 167.638 112.483ZM170.892 102.879C169.652 101.252 167.561 100.323 164.849 100.323C162.215 100.323 160.046 101.097 158.806 102.879C157.567 104.505 156.792 106.519 156.792 108.765C156.792 111.089 157.489 113.103 158.806 114.652C160.046 116.278 162.138 117.13 164.849 117.13C167.483 117.13 169.652 116.356 170.892 114.652C172.132 113.025 172.906 111.011 172.906 108.765C172.984 106.597 172.287 104.583 170.892 102.879ZM150.749 112.483C150.206 113.258 149.277 113.722 148.115 113.722C146.953 113.722 146.023 113.258 145.558 112.483C145.016 111.554 144.783 110.392 144.783 108.843C144.783 107.449 145.016 106.364 145.558 105.512C146.1 104.583 146.953 104.118 148.192 104.118C148.967 104.118 149.664 104.35 150.284 104.815C151.214 105.59 151.756 107.139 151.756 109.153C151.524 110.547 151.369 111.708 150.749 112.483V112.483ZM155.552 95.5983C155.552 95.5983 151.369 95.1335 151.369 98.464V102.879C150.904 102.182 150.361 101.64 149.509 101.097C148.812 100.633 147.882 100.555 146.953 100.555C144.861 100.555 143.234 101.33 141.917 102.879C140.677 104.35 140.057 106.597 140.057 109.385C140.057 111.708 140.6 113.722 141.917 115.039C143.156 116.511 145.636 117.13 147.805 117.13C155.475 117.13 155.32 110.624 155.32 110.624L155.552 95.5983ZM134.944 110.547C134.944 111.941 134.479 112.87 133.782 113.412C133.007 113.877 132.155 114.187 131.303 114.187C130.761 114.187 130.296 114.109 129.908 113.722C129.521 113.335 129.366 112.948 129.366 112.251C129.366 111.476 129.676 110.856 130.296 110.469C130.606 110.237 131.303 110.005 132.155 109.927L133.085 109.695C133.55 109.617 133.86 109.462 134.247 109.462C134.479 109.385 134.789 109.23 135.022 109.153L134.944 110.547ZM137.036 101.485C135.641 100.788 134.169 100.478 132.387 100.478C129.753 100.478 127.816 101.175 126.732 102.569C126.035 103.498 125.725 104.583 125.57 105.899H129.521C129.598 105.357 129.831 104.893 130.063 104.505C130.528 104.041 131.225 103.808 132.155 103.808C133.085 103.808 133.627 103.886 134.169 104.118C134.634 104.35 134.867 104.815 134.867 105.512C134.867 106.054 134.557 106.442 133.937 106.674C133.627 106.751 133.007 106.906 132.31 106.984L130.915 107.061C129.289 107.294 128.126 107.603 127.274 108.068C125.802 108.843 125.027 110.392 125.027 112.251C125.027 113.722 125.492 114.884 126.422 115.736C127.352 116.511 128.514 116.898 129.986 116.975C139.05 117.285 138.973 112.173 138.973 111.166V105.28C139.05 103.576 138.43 102.182 137.036 101.485V101.485ZM116.505 104.041C117.512 104.041 118.287 104.35 118.83 104.97C119.139 105.435 119.372 105.977 119.372 106.597H123.788C123.555 104.35 122.781 102.724 121.464 101.949C120.224 101.02 118.442 100.71 116.35 100.71C113.871 100.71 111.934 101.407 110.54 102.956C109.145 104.505 108.448 106.597 108.448 109.23C108.448 111.708 108.99 113.567 110.307 115.039C111.547 116.511 113.561 117.285 116.195 117.285C118.83 117.285 120.844 116.356 122.238 114.652C123.013 113.49 123.478 112.328 123.633 111.011H119.217C119.139 111.786 118.907 112.483 118.442 113.025C117.977 113.49 117.28 113.8 116.195 113.8C114.801 113.8 113.716 113.103 113.329 111.786C113.096 111.089 112.864 110.159 112.864 108.998C112.864 107.836 112.942 106.751 113.329 106.132C114.026 104.738 114.956 104.041 116.505 104.041V104.041ZM107.286 100.555C98.0665 100.555 98.6863 108.688 98.6863 108.688V116.898H102.87V109.23C102.87 107.991 102.947 106.984 103.335 106.442C103.877 105.435 104.962 104.815 106.666 104.815H107.131C107.363 104.815 107.596 104.815 107.828 104.893V100.71H107.518C107.441 100.555 107.441 100.555 107.286 100.555V100.555ZM86.5228 104.815C87.0651 104.273 87.9174 103.886 89.002 103.886C89.9317 103.886 90.7839 104.118 91.4812 104.66C92.1784 105.202 92.4884 106.054 92.4884 107.139H85.3607C85.5931 106.209 85.903 105.435 86.5228 104.815ZM92.101 112.483C92.0235 112.715 91.791 112.948 91.5586 113.025C91.0163 113.49 90.1641 113.567 89.2344 113.567C88.3047 113.567 87.6075 113.49 86.9877 113.025C85.9806 112.483 85.3607 111.244 85.3607 109.772H96.8269C96.8269 108.378 96.8269 107.294 96.7494 106.674C96.517 105.435 96.2071 104.35 95.5099 103.421C94.8126 102.414 93.8829 101.562 92.8757 101.097C91.8686 100.633 90.5515 100.4 89.1569 100.4C86.8327 100.4 84.9734 101.097 83.5789 102.646C82.1843 104.118 81.3321 106.209 81.3321 108.92C81.3321 111.786 82.1068 113.955 83.8112 115.194C85.4382 116.433 87.2976 117.208 89.3894 117.208C91.946 117.208 93.9604 116.433 95.2774 114.884C96.0522 114.109 96.517 113.258 96.672 112.406L92.101 112.483ZM79.5501 116.82H75.6764V107.294C75.6764 106.364 75.444 104.428 72.8874 104.428C71.2604 104.428 70.0209 105.59 70.0209 107.294V116.82H66.1472V107.294C66.1472 106.364 65.9148 104.428 63.3582 104.428C61.7312 104.428 60.569 105.59 60.569 107.294V116.82H56.6953V107.371C56.6953 103.421 59.252 100.4 63.2806 100.4C65.2949 100.4 66.9219 101.175 68.084 102.646C69.2462 101.252 70.8731 100.4 72.8874 100.4C77.071 100.4 79.4727 103.266 79.4727 107.371L79.5501 116.82ZM151.833 61.6738C151.833 48.4293 135.331 37.5859 114.956 37.5859C94.5802 37.5859 78.0782 48.4293 78.0782 61.6738V63.068C78.0782 77.1645 92.4884 88.55 114.956 88.55C137.501 88.55 151.833 77.1645 151.833 63.068V61.6738Z" fill="#2D3277"/>
<path d="M150.516 61.6709C150.516 74.1409 134.634 84.2872 115.111 84.2872C95.5872 84.2872 79.7051 74.1409 79.7051 61.6709C79.7051 49.201 95.5872 39.0547 115.111 39.0547C134.634 39.0547 150.516 49.201 150.516 61.6709Z" fill="#FFE600"/>
<path d="M103.333 54.5486C103.333 54.5486 102.945 54.9358 103.178 55.2456C103.72 55.9427 105.425 56.33 107.206 55.9427C108.214 55.7103 109.608 54.626 110.848 53.6191C112.242 52.5348 113.637 51.3729 115.031 50.9857C116.503 50.521 117.433 50.7533 118.053 50.9082C118.75 51.1406 119.525 51.6053 120.842 52.5347C123.244 54.3162 133.005 62.8361 134.71 64.3077C136.027 63.688 142.07 61.1321 150.282 59.2732C149.585 54.9358 146.951 50.9083 142.922 47.6553C137.344 49.9788 130.449 51.2181 123.708 47.9651C123.708 47.9651 120.067 46.261 116.426 46.3385C111.08 46.4934 108.833 48.7396 106.354 51.2181L103.333 54.5486Z" fill="white"/>
<path d="M134.323 65.2345C134.246 65.1571 122.857 55.2431 120.3 53.3068C118.828 52.2224 117.976 51.9126 117.124 51.7577C116.659 51.6802 116.039 51.7578 115.574 51.9127C114.412 52.2225 112.785 53.3068 111.391 54.3911C109.919 55.5529 108.602 56.6373 107.362 56.8697C105.735 57.2569 103.798 56.7922 102.946 56.1726C102.559 55.9402 102.326 55.6304 102.171 55.3206C101.861 54.5461 102.481 53.9264 102.559 53.849L105.658 50.441L106.742 49.3567C105.735 49.5116 104.805 49.744 103.876 49.9763C102.714 50.2861 101.629 50.5959 100.544 50.5959C100.079 50.5959 97.6003 50.2087 97.1354 50.0538C94.2689 49.2792 91.7897 48.5047 88.0709 46.8008C83.6549 50.1313 80.6335 54.2363 79.7812 58.806C80.401 58.9609 81.4856 59.2707 81.873 59.3481C91.9446 61.5943 95.0436 63.9179 95.6634 64.3826C96.2832 63.6855 97.1354 63.2982 98.1426 63.2982C99.2272 63.2982 100.234 63.8404 100.854 64.6924C101.396 64.2277 102.249 63.8404 103.256 63.8404C103.721 63.8404 104.186 63.9178 104.728 64.0728C105.89 64.46 106.432 65.2346 106.742 65.9316C107.13 65.7767 107.594 65.6218 108.137 65.6218C108.679 65.6218 109.221 65.7767 109.841 66.0091C111.701 66.7836 112.01 68.6425 111.856 70.0367H112.243C114.49 70.0367 116.271 71.8181 116.271 74.0642C116.271 74.7613 116.117 75.3809 115.807 75.9231C116.426 76.2329 117.898 77.0074 119.293 76.8525C120.378 76.6976 120.765 76.3878 120.92 76.1554C120.997 76.0005 121.152 75.8456 120.997 75.6907L118.131 72.5151C118.131 72.5151 117.666 72.0504 117.821 71.8955C117.976 71.7406 118.286 71.973 118.518 72.1279C119.99 73.3671 121.695 75.1486 121.695 75.1486C121.695 75.1486 121.85 75.3809 122.469 75.5358C123.012 75.6133 124.019 75.5358 124.716 74.9936C124.871 74.8387 125.104 74.6838 125.181 74.5289C125.878 73.5995 125.104 72.67 125.104 72.67L121.772 68.9523C121.772 68.9523 121.307 68.4876 121.462 68.3327C121.617 68.1778 121.927 68.4102 122.16 68.5651C123.244 69.417 124.716 70.9661 126.111 72.3603C126.421 72.5926 127.66 73.3671 129.287 72.2828C130.294 71.5857 130.527 70.8112 130.449 70.1916C130.372 69.417 129.752 68.7974 129.752 68.7974L125.258 64.2277C125.258 64.2277 124.794 63.8404 124.949 63.6081C125.104 63.4531 125.413 63.6855 125.646 63.8404C127.118 65.0797 130.992 68.6425 130.992 68.6425C131.069 68.6425 132.386 69.6494 134.091 68.5651C134.71 68.1778 135.098 67.6356 135.098 66.9386C135.175 65.9317 134.323 65.2345 134.323 65.2345V65.2345Z" fill="white"/>
<path d="M112.396 71.0438C111.699 71.0438 110.924 71.431 110.846 71.431C110.769 71.431 110.846 71.1212 110.924 70.9663C111.001 70.8114 111.931 68.0231 109.684 67.0162C107.98 66.2417 106.895 67.0937 106.585 67.4809C106.508 67.5584 106.43 67.5584 106.43 67.4809C106.43 67.0162 106.198 65.6221 104.648 65.1573C102.479 64.4603 101.162 66.0094 100.775 66.5515C100.62 65.3123 99.6127 64.3828 98.2956 64.3828C96.9011 64.3828 95.8164 65.4671 95.8164 66.8613C95.8164 68.2554 96.9011 69.3398 98.2956 69.3398C98.9929 69.3398 99.5352 69.1074 100 68.6427V68.7202C99.9225 69.3398 99.6901 71.586 102.014 72.4379C102.944 72.8252 103.719 72.5154 104.416 72.0507C104.649 71.8958 104.648 71.9732 104.648 72.1281C104.571 72.6703 104.649 73.9095 106.43 74.6066C107.747 75.1487 108.522 74.6066 108.987 74.1419C109.219 73.9095 109.297 73.987 109.297 74.2968C109.374 75.9234 110.769 77.24 112.396 77.24C114.1 77.24 115.495 75.8458 115.495 74.1419C115.495 72.4379 114.1 71.0438 112.396 71.0438V71.0438Z" fill="white"/>
<path d="M134.787 64.0743C131.301 61.0537 123.244 54.0055 120.997 52.379C119.757 51.4495 118.905 50.9074 118.13 50.7525C117.82 50.675 117.355 50.5201 116.736 50.5201C116.193 50.5201 115.574 50.5975 114.954 50.8299C113.559 51.2946 112.165 52.379 110.77 53.4633L110.693 53.5407C109.453 54.5476 108.136 55.5545 107.129 55.7869C106.664 55.8644 106.277 55.9418 105.812 55.9418C104.727 55.9418 103.72 55.632 103.333 55.1672C103.255 55.0898 103.333 54.9349 103.488 54.78L106.587 51.4496C108.988 49.0485 111.235 46.8023 116.503 46.6474H116.736C119.99 46.6474 123.244 48.119 123.631 48.2739C126.73 49.7455 129.829 50.5201 133.005 50.5201C136.337 50.5201 139.746 49.6681 143.309 48.0416C142.922 47.7318 142.457 47.3445 142.07 47.0347C138.893 48.4288 135.949 49.0484 133.005 49.0484C130.061 49.0484 127.117 48.3514 124.251 46.9572C124.096 46.8798 120.532 45.1758 116.736 45.1758H116.426C112.01 45.2532 109.531 46.8023 107.904 48.1965C106.277 48.1965 104.882 48.6612 103.643 48.971C102.558 49.2808 101.551 49.5132 100.621 49.5132H99.459C98.3744 49.5132 92.9512 48.1965 88.6901 46.4925C88.2253 46.8024 87.838 47.1121 87.3731 47.4219C91.8666 49.2808 97.3672 50.675 99.0717 50.8299C99.5365 50.8299 100.079 50.9073 100.621 50.9073C101.783 50.9073 102.868 50.5976 104.03 50.2878C104.727 50.1329 105.425 49.9004 106.122 49.7455L105.502 50.3652L102.403 53.7731C102.171 54.0055 101.628 54.7025 101.938 55.4771C102.093 55.7869 102.403 56.0967 102.79 56.4065C103.565 56.8712 104.882 57.2585 106.122 57.2585C106.587 57.2585 107.051 57.181 107.439 57.1036C108.756 56.7938 110.15 55.7095 111.545 54.5477C112.707 53.6182 114.334 52.4564 115.574 52.0691C115.961 51.9917 116.348 51.9143 116.736 51.9143H117.046C117.898 51.9917 118.673 52.3015 120.145 53.3859C122.701 55.3222 134.09 65.2361 134.167 65.3136C134.167 65.3136 134.865 65.9333 134.865 67.0176C134.865 67.5598 134.477 68.102 133.935 68.4892C133.47 68.799 132.928 68.9539 132.463 68.9539C131.688 68.9539 131.146 68.5667 131.146 68.5667C131.146 68.5667 127.195 65.0038 125.8 63.7645C125.568 63.5322 125.335 63.3772 125.103 63.3772C124.948 63.3772 124.87 63.4548 124.793 63.5322C124.561 63.842 124.793 64.2292 125.103 64.4616L129.674 69.0314C129.674 69.0314 130.216 69.5735 130.294 70.2706C130.294 71.0451 129.984 71.6648 129.209 72.1295C128.667 72.5167 128.124 72.6716 127.582 72.6716C126.885 72.6716 126.42 72.3618 126.265 72.2843L125.568 71.6648C124.406 70.503 123.166 69.2637 122.236 68.5667C122.004 68.4118 121.772 68.1794 121.539 68.1794C121.462 68.1794 121.307 68.1794 121.229 68.3343C121.152 68.4117 121.074 68.6441 121.307 69.0314C121.384 69.1863 121.539 69.2638 121.539 69.2638L124.87 72.9814C124.87 72.9814 125.568 73.8334 124.948 74.5305L124.793 74.6855L124.483 74.9952C123.941 75.4599 123.166 75.5374 122.856 75.5374H122.391C122.081 75.46 121.849 75.3825 121.694 75.2276C121.539 74.9952 119.835 73.3687 118.44 72.2069C118.285 72.052 118.053 71.8971 117.82 71.8971C117.743 71.8971 117.588 71.9746 117.51 72.052C117.278 72.3619 117.665 72.8265 117.82 72.9814L120.687 76.0796C120.687 76.0796 120.687 76.1571 120.609 76.312C120.532 76.4669 120.145 76.7766 119.137 76.9315H118.75C117.665 76.9315 116.581 76.3894 115.961 76.0796C116.193 75.5374 116.348 74.9178 116.348 74.2982C116.348 71.9746 114.489 70.1157 112.165 70.1157H112.01C112.087 69.0314 111.932 67.0176 109.841 66.1656C109.221 65.9333 108.678 65.7784 108.059 65.7784C107.594 65.7784 107.206 65.8558 106.742 66.0107C106.277 65.1587 105.579 64.5391 104.65 64.2293C104.107 64.0744 103.643 63.9969 103.1 63.9969C102.248 63.9969 101.473 64.2293 100.776 64.7714C100.44 64.3571 100.014 64.0237 99.5314 63.7958C99.0486 63.5679 98.5209 63.4514 97.987 63.4548C97.0573 63.4548 96.1277 63.842 95.5079 64.4616C94.6557 63.7645 91.1693 61.5958 81.7949 59.4272C81.3301 59.3497 80.323 59.04 79.7032 58.8076C79.6257 59.2723 79.5482 59.8145 79.4707 60.3567C79.4707 60.3567 81.1752 60.7439 81.5626 60.8214C91.0919 62.9126 94.2683 65.1587 94.8106 65.546C94.6556 66.0107 94.5781 66.4754 94.5781 66.9402C94.5781 68.9539 96.2051 70.503 98.1419 70.503C98.3743 70.503 98.6068 70.503 98.8392 70.4256C99.1491 71.8972 100.079 72.9815 101.551 73.5237C102.016 73.6786 102.403 73.756 102.79 73.756C103.023 73.756 103.333 73.756 103.643 73.6785C103.875 74.3756 104.495 75.2276 105.889 75.7697C106.354 76.0021 106.819 76.0796 107.284 76.0796C107.671 76.0796 108.059 76.0022 108.369 75.8473C108.988 77.3963 110.538 78.4806 112.242 78.4806C113.404 78.4806 114.489 78.0159 115.264 77.1639C115.961 77.5512 117.356 78.2483 118.828 78.2483H119.37C120.842 78.0934 121.462 77.4738 121.771 77.0865C121.849 77.009 121.849 76.9315 121.927 76.8541C122.236 76.9315 122.624 77.0091 123.089 77.0091C123.863 77.0091 124.638 76.7766 125.413 76.157C126.188 75.6148 126.73 74.8403 126.73 74.1432C126.962 74.2207 127.272 74.2207 127.505 74.2207C128.279 74.2207 129.132 73.9883 129.906 73.4461C131.378 72.5167 131.611 71.2001 131.611 70.4256C131.843 70.503 132.153 70.503 132.385 70.503C133.16 70.503 133.935 70.2706 134.632 69.8059C135.562 69.1863 136.104 68.3343 136.182 67.3274C136.259 66.6304 136.027 65.9332 135.717 65.3136C138.196 64.2292 143.774 62.2155 150.437 60.6664C150.437 60.1242 150.359 59.6595 150.205 59.1173C142.225 60.8213 136.259 63.3773 134.787 64.0743V64.0743ZM112.397 77.0091C110.848 77.0091 109.608 75.7697 109.531 74.2207C109.531 74.0658 109.531 73.756 109.221 73.756C109.066 73.756 108.988 73.8335 108.833 73.9109C108.523 74.2207 108.059 74.5305 107.439 74.5305C107.129 74.5305 106.819 74.4531 106.509 74.2982C104.882 73.6011 104.805 72.5168 104.882 72.052C104.882 71.8971 104.882 71.8197 104.805 71.7422L104.727 71.6648H104.65C104.572 71.6648 104.495 71.6647 104.34 71.8196C103.875 72.1295 103.41 72.2843 102.945 72.2843C102.713 72.2843 102.403 72.2069 102.171 72.1295C100.001 71.2775 100.156 69.2637 100.311 68.6441C100.311 68.4892 100.311 68.4117 100.234 68.3343L100.079 68.1794L99.9239 68.3343C99.459 68.7215 98.9167 68.9539 98.3744 68.9539C97.1348 68.9539 96.1276 67.947 96.1276 66.7078C96.1276 65.4685 97.1348 64.4616 98.3744 64.4616C99.459 64.4616 100.466 65.3136 100.621 66.3979L100.699 67.0176L101.009 66.4754C101.009 66.3979 101.938 65.0038 103.643 65.0813C103.953 65.0813 104.262 65.1587 104.65 65.2361C105.967 65.6234 106.199 66.8627 106.199 67.3274C106.199 67.6372 106.432 67.6372 106.432 67.6372C106.509 67.6372 106.664 67.5597 106.664 67.4823C106.896 67.2499 107.439 66.7852 108.291 66.7852C108.678 66.7852 109.066 66.8627 109.531 67.095C111.622 68.0245 110.693 70.6578 110.693 70.7353C110.538 71.2 110.46 71.3549 110.693 71.5098H110.848C110.925 71.5098 111.08 71.5098 111.235 71.4324C111.545 71.3549 111.932 71.2001 112.32 71.2001C113.869 71.2001 115.186 72.5167 115.186 74.0658C115.264 75.7698 113.947 77.0091 112.397 77.0091V77.0091Z" fill="#2D3277"/>
</svg>
