<svg width="1920" height="240" viewBox="0 0 1920 240" fill="none" xmlns="http://www.w3.org/2000/svg">
<g clip-path="url(#clip0_216_1519)">
<rect x="-6.5" y="129.057" width="1933" height="127.54" fill="#5D5FF0"/>
<g filter="url(#filter0_d_216_1519)">
<path d="M1965.9 136.732C1950.4 150.529 1920.08 132.742 1914.41 132.742C1899.13 135.797 1882.11 129.687 1867.71 134.487C1856.8 138.415 1847.2 143.215 1835.85 142.779C1826.25 134.051 1816.21 144.525 1807.04 141.47C1800.93 139.724 1794.82 132.305 1788.28 135.36C1786.1 134.924 1785.22 134.924 1783.48 134.051C1782.17 134.487 1781.73 135.36 1779.99 130.56C1775.62 134.487 1765.58 130.123 1761.22 130.56C1755.11 128.814 1750.31 130.56 1744.64 134.487C1739.4 137.979 1736.78 144.525 1729.8 138.415C1725.43 142.779 1707.98 142.343 1703.61 137.542C1700.99 130.56 1702.74 133.178 1701.43 130.996C1700.12 128.814 1688.29 134.051 1685.24 134.487C1676.51 128.814 1670.44 126.937 1660.4 132.174C1647.31 127.81 1642.82 126.632 1630.16 133.615C1625.8 133.615 1614.58 125.76 1609.78 132.742C1606.29 141.033 1602.36 132.305 1598.43 133.615C1592.32 132.742 1580.97 134.051 1575.3 134.487C1569.63 139.724 1569.63 138.415 1562.64 141.033C1548.24 143.652 1533.84 140.161 1520.31 142.779C1511.58 145.397 1500.67 140.597 1491.51 143.215C1479.72 158.053 1462.7 135.36 1453.97 148.016C1450.92 152.38 1449.17 159.362 1444.37 154.998C1441.75 154.125 1439.13 157.617 1436.52 158.926C1426.48 160.235 1420.8 150.634 1411.2 154.998C1406.84 146.27 1402.04 152.816 1397.24 154.998C1391.13 156.744 1382.83 155.435 1377.16 155.435C1372.8 160.235 1370.18 157.617 1364.94 161.981C1361.01 164.599 1357.09 159.799 1352.72 162.417C1341.37 163.29 1329.15 153.253 1317.37 159.799C1307.77 164.163 1297.73 168.09 1287.69 167.217C1289 154.562 1252.34 169.399 1244.49 160.235C1232.27 154.125 1220.92 165.908 1209.14 165.908C1199.1 177.691 1189.5 163.29 1179.02 167.654C1171.6 169.836 1166.8 169.836 1160.25 165.035C1156.33 161.544 1158.51 161.981 1154.14 162.417C1152.84 151.071 1150.65 161.108 1149.34 162.417C1142.8 156.744 1135.38 165.472 1129.27 162.417C1124.47 165.908 1120.98 163.29 1117.05 168.963C1110.07 166.781 1102.65 173.763 1094.35 175.073C1082.57 174.636 1070.79 172.018 1059.88 177.255C1050.71 181.619 1040.24 173.327 1031.51 172.891C1026.71 168.09 1025.4 170.709 1021.47 169.399C1019.29 170.272 1017.11 162.853 1014.92 167.654C1008.81 170.272 1002.27 171.145 996.157 167.654C990.047 160.235 983.937 171.145 977.827 168.09C970.844 181.182 965.17 163.726 958.624 162.853C946.404 165.472 932.875 167.654 920.655 162.853C915.417 164.163 909.744 162.417 904.943 162.417C899.706 162.417 899.269 157.18 894.905 154.125C886.613 146.707 871.774 159.799 862.609 153.253C857.808 156.307 855.19 146.707 849.953 150.634C841.224 147.579 842.097 149.325 835.551 144.088C828.131 135.797 813.729 142.343 806.31 144.961C800.636 152.816 797.581 148.452 794.963 151.071C792.344 151.943 791.908 156.744 786.67 161.981C782.306 162.853 778.815 172.891 773.141 170.709C766.595 175.509 762.23 168.09 756.993 168.527C749.137 159.362 736.917 167.217 728.625 168.527C716.841 171.145 705.494 166.781 693.711 168.527C685.418 163.29 677.126 168.09 669.271 168.527C664.906 168.09 656.178 170.709 656.614 164.163C648.322 160.671 638.72 162.417 629.992 163.29C629.119 158.053 630.865 153.253 629.555 151.507C621.7 155.435 613.844 142.779 605.552 145.834C599.878 144.525 593.768 152.38 588.095 145.834C574.565 143.652 561.472 149.762 547.943 145.834C542.706 144.961 539.214 144.525 534.85 143.216C527.867 140.161 523.503 132.742 515.647 138.415C508.228 136.67 500.808 141.034 493.826 139.724C485.097 139.724 488.152 136.233 482.042 135.797C477.678 129.687 468.949 138.852 464.148 135.797C455.856 144.525 447.564 130.56 439.708 135.797C432.725 138.415 432.289 137.979 427.052 143.216C421.814 139.724 413.959 145.834 407.849 148.452C400.866 153.253 395.192 146.707 388.209 151.507C383.409 150.198 381.663 158.053 376.862 151.944C373.371 152.38 372.061 150.198 369.443 145.398C366.388 135.797 365.079 140.597 361.151 143.652C356.35 141.47 351.986 146.27 347.185 143.652C341.948 148.889 336.711 136.67 331.473 143.652C326.236 140.161 318.38 144.088 314.016 144.088C309.652 146.27 307.033 144.961 302.233 138.415C296.995 135.36 294.377 130.124 288.703 138.415C277.356 144.088 270.373 147.143 256.407 151.507C247.242 148.452 238.077 155.871 228.912 151.507C221.057 149.325 214.947 160.235 207.091 154.126C200.544 154.998 194.434 152.816 187.888 154.126C181.778 152.816 175.668 148.452 169.558 154.126C165.63 154.126 158.647 151.507 155.156 156.308C145.554 166.345 139.008 167.217 128.097 168.963C122.423 169.399 117.186 174.636 111.513 169.399C107.148 164.599 102.784 171.581 98.4196 173.763C87.9453 177.255 74.8524 175.073 68.7423 166.345C60.4502 155.435 49.5394 155.871 36.4465 156.308C30.3365 160.672 25.0993 153.689 18.9893 153.689C17.68 157.18 15.4978 154.998 14.1885 152.816C11.57 152.38 9.22282 151.524 6.48862 149.411C-3.11285 141.992 -7.31264 147.881 -10.5 149.921C-9.86253 139.849 -10.5 138.383 -10.5 130.956C-10.5 119.705 -10.5 116.201 -10.5 114.892C-9.28881 117.697 -9.16421 116.335 -7.63299 115.722C-3.26869 113.977 6.76921 120.086 11.1335 115.722C18.1164 114.413 22.4807 106.558 29.0272 112.231C35.5736 108.74 42.5565 106.122 49.103 112.668C56.0858 115.723 60.8866 120.523 68.7423 112.231C80.0895 112.668 87.0724 113.54 96.2374 121.832C105.402 130.124 120.241 121.396 130.715 116.159C140.317 114.85 150.791 119.65 160.829 126.196C170.867 123.578 180.905 124.45 190.506 122.268C201.417 112.668 211.892 108.304 224.548 111.358C235.895 113.54 245.933 118.341 257.28 110.922C262.517 118.341 266.882 111.359 272.119 108.74C283.902 106.558 294.813 104.376 305.724 100.885C314.889 98.2665 319.69 85.1746 328.418 86.4838C334.965 74.2647 341.948 91.7206 348.494 86.4838C355.041 89.975 360.278 85.1746 367.261 80.8106C373.371 87.3566 379.481 78.1922 385.591 81.247C397.374 80.3742 414.395 77.7558 424.87 84.3018C428.361 80.8106 430.107 81.247 434.035 90.8478C438.835 90.8478 444.509 85.1746 449.31 91.2842C455.42 91.2842 457.602 100.012 463.275 96.5209C465.894 100.885 468.513 96.9573 471.131 96.9573C472.44 96.9573 474.623 93.0298 476.805 102.194C481.605 102.631 488.152 97.8301 493.389 105.685C497.753 108.74 501.681 114.85 506.046 107.867C511.283 102.63 512.592 95.2117 519.138 98.7029C523.066 99.5757 525.685 101.758 528.304 106.122C534.414 115.722 544.015 106.994 551.434 108.304C566.709 111.795 581.548 116.159 596.823 108.304C600.751 109.613 603.806 107.867 607.297 109.176C612.971 115.722 612.535 112.231 618.645 115.722C629.119 115.286 640.03 107.431 650.504 113.104C656.178 122.268 661.415 113.977 667.088 115.722C670.58 112.231 675.381 112.668 678.436 116.595C682.363 120.523 681.917 119.261 684.536 123.625C688.463 128.426 701.282 119.65 708.265 116.595C714.811 107.431 721.358 111.358 727.468 116.595C737.069 120.523 742.977 124.887 750.833 118.341C755.633 104.376 758.739 121.832 763.54 118.341C768.34 120.959 771.395 111.358 775.323 112.668C782.306 106.558 791.471 113.104 801.073 105.249C810.674 102.63 820.275 99.5757 829.004 106.122C839.915 103.94 850.826 107.867 860.864 108.74C866.101 115.722 865.664 113.977 871.338 110.922C877.011 112.231 879.194 113.104 883.558 115.722C890.977 106.994 900.579 109.613 908.871 116.159C916.727 113.104 924.146 115.722 932.002 116.159C942.476 119.65 953.387 112.231 964.734 111.358C976.081 117.032 986.992 120.086 997.03 116.159C1000.08 121.396 1002.27 118.341 1004.89 123.141C1005.32 118.777 1016.28 118.545 1016.28 119.418C1022.39 124.655 1022.34 126.196 1028.45 126.632C1036.31 124.014 1042.85 131.433 1049.84 121.396C1055.08 119.214 1060.31 115.722 1066.86 109.613C1073.84 108.74 1080.39 109.613 1086.5 112.231C1093.04 112.668 1096.1 112.668 1101.77 107.431C1104.83 101.321 1104.83 98.7029 1109.19 104.812C1113.99 100.885 1118.36 118.777 1123.16 114.413C1129.27 118.341 1137.12 114.85 1143.67 116.159C1152.84 113.977 1162.44 103.503 1172.04 113.977C1181.64 116.595 1191.24 110.922 1200.84 114.413C1204.77 96.2113 1213.06 109.303 1216.12 103.63C1219.17 106.685 1219.17 106.685 1222.66 113.667C1226.16 125.45 1232.7 125.014 1236.63 115.849C1242.3 115.849 1245.8 127.069 1251.91 124.45C1258.89 114.85 1266.31 124.014 1273.29 124.014C1280.71 123.141 1285.07 118.331 1292.06 122.695C1302.09 127.059 1307.77 126.632 1315.62 120.959C1319.99 114.413 1320.86 117.904 1326.1 115.722C1329.59 110.049 1332.64 115.286 1336.14 110.049C1342.25 112.231 1350.1 103.503 1356.65 109.613C1362.76 107.431 1366.69 111.358 1372.36 112.231C1376.29 110.922 1378.47 117.468 1381.53 109.176C1386.33 100.448 1386.76 115.722 1392.44 104.812C1399.86 113.104 1407.71 104.812 1415.57 104.812C1419.49 100.012 1423.86 106.558 1427.35 104.812C1433.46 103.94 1430.41 106.558 1435.21 109.176C1440.88 115.286 1446.12 120.959 1453.54 112.231C1458.77 117.468 1464.45 114.413 1469.68 112.231C1474.05 110.922 1478.41 112.668 1482.34 111.795C1486.27 114.85 1489.76 108.74 1494.12 106.558C1498.05 100.448 1502.85 107.867 1506.78 103.94C1514.2 106.558 1519.44 96.0845 1526.86 93.0297C1534.28 81.6833 1542.13 92.5933 1549.55 92.1569C1555.66 86.9201 1559.59 93.466 1565.7 85.6109C1569.19 97.83 1573.12 82.9925 1576.61 83.8653C1578.79 84.3017 1581.41 73.8281 1584.03 79.9377C1586.21 76.4465 1588.83 86.9201 1591.01 80.3741C1598.43 81.2469 1600.61 80.3741 1605.85 72.9553C1617.63 65.9729 1630.73 56.3722 1645.13 65.5366C1652.55 63.791 1659.97 65.9729 1667.39 65.5366C1677.42 61.1726 1687.9 66.8457 1697.94 65.5365C1707.98 61.609 1718.45 65.5365 1728.49 65.5365C1734.6 67.2821 1738.53 69.9005 1744.2 68.1549C1748.13 69.9005 1752.93 64.2273 1757.29 67.7185C1765.15 65.1001 1775.62 62.9181 1782.17 74.7009C1784.79 79.0649 1785.66 83.8653 1788.28 80.3741C1790.02 77.7557 1791.33 80.3741 1793.08 85.1745C1795.7 91.284 1797.01 95.2116 1796.57 93.0296C1804.86 101.321 1827.56 93.9024 1840.21 98.2664C1849.38 100.012 1858.54 102.63 1868.58 100.012C1874.26 96.0844 1876.87 103.503 1882.11 104.812C1889.09 106.122 1897.82 101.321 1905.24 105.249C1915.28 107.431 1913.41 97.83 1923.02 102.194C1927.61 105.585 1925.79 101.059 1936.34 98.4131C1936.34 107.911 1964.4 130.482 1965.9 136.732Z" fill="white"/>
</g>
</g>
<defs>
<filter id="filter0_d_216_1519" x="-20.5" y="41.7761" width="1996.4" height="136.744" filterUnits="userSpaceOnUse" color-interpolation-filters="sRGB">
<feFlood flood-opacity="0" result="BackgroundImageFix"/>
<feColorMatrix in="SourceAlpha" type="matrix" values="0 0 0 0 0 0 0 0 0 0 0 0 0 0 0 0 0 0 127 0" result="hardAlpha"/>
<feOffset dy="-10"/>
<feGaussianBlur stdDeviation="5"/>
<feComposite in2="hardAlpha" operator="out"/>
<feColorMatrix type="matrix" values="0 0 0 0 0 0 0 0 0 0 0 0 0 0 0 0 0 0 0.15 0"/>
<feBlend mode="normal" in2="BackgroundImageFix" result="effect1_dropShadow_216_1519"/>
<feBlend mode="normal" in="SourceGraphic" in2="effect1_dropShadow_216_1519" result="shape"/>
</filter>
<clipPath id="clip0_216_1519">
<rect width="1920" height="239" fill="white" transform="translate(0 0.647949)"/>
</clipPath>
</defs>
</svg>
