<svg width="1956" height="277" viewBox="0 0 1956 277" fill="none" xmlns="http://www.w3.org/2000/svg">
<g clip-path="url(#clip0_162_1038)">
<g filter="url(#filter0_d_162_1038)">
<path d="M2015.23 270.948C2009.21 267.623 2003.95 267.945 1998.94 266.765C1994.18 265.049 1989.67 260.974 1985.66 263.762C1981.4 261.939 1977.4 262.046 1973.39 262.046C1969.38 262.475 1965.37 260.759 1960.86 261.724C1956.6 257.863 1952.34 256.684 1948.08 259.043C1944.07 260.545 1940.07 260.116 1936.81 256.576C1933.55 258.185 1930.55 253.895 1928.79 254.538C1926.79 254.646 1925.78 252.715 1925.78 253.251C1921.28 259.258 1916.77 253.68 1911.75 249.069C1906.74 251.643 1901.73 246.494 1896.22 245.744C1890.96 242.633 1885.45 248.318 1879.69 243.17C1873.92 247.245 1868.16 246.173 1862.15 241.132C1856.14 248.747 1850.12 242.419 1844.11 239.416C1838.1 241.132 1831.83 240.703 1825.57 237.914C1819.31 238.558 1813.29 238.987 1807.03 236.413C1800.77 232.337 1794.75 232.98 1788.74 234.804C1782.73 233.624 1776.71 230.621 1770.95 232.873C1765.94 227.189 1761.18 234.804 1756.67 230.192C1752.16 231.05 1747.65 229.012 1743.39 226.223C1738.88 222.791 1734.62 223.864 1730.11 222.041C1725.6 219.895 1720.84 217.321 1715.83 218.823C1712.08 219.359 1707.82 216.249 1703.31 219.252C1699.05 223.006 1694.54 219.681 1691.03 219.145C1688.27 218.716 1685.27 217 1682.26 218.394C1679 218.716 1675.75 223.971 1672.24 218.823C1668.73 219.359 1664.97 220.539 1661.47 219.145C1657.71 219.359 1653.95 215.82 1650.19 218.608C1646.43 216.892 1642.68 216.463 1639.17 216.571C1635.66 216.678 1632.15 217.536 1628.65 218.501C1621.88 216.892 1615.87 215.927 1611.36 218.394C1606.6 213.353 1603.34 221.826 1601.84 218.287C1598.33 218.179 1594.82 218.287 1590.82 218.394C1587.06 220.753 1583.05 216.785 1578.79 219.895C1574.53 220.003 1569.77 221.075 1564.76 221.075C1559.75 221.29 1554.24 224.722 1547.97 220.324C1536.45 221.612 1530.44 224.078 1526.68 224.293C1522.92 222.148 1521.17 223.328 1518.41 225.044C1515.4 222.041 1511.14 222.577 1502.13 223.006C1498.12 220.003 1494.11 216.785 1489.85 223.113C1485.59 224.293 1481.08 220.539 1476.07 228.476C1471.31 230.299 1466.05 228.369 1460.29 224.615C1461.79 225.258 1461.04 223.542 1459.03 224.615C1456.78 231.801 1453.27 231.479 1449.01 230.514C1444.5 239.201 1439.49 232.766 1434.23 233.088C1428.97 225.58 1423.71 227.94 1418.95 223.328C1410.18 222.577 1404.16 224.936 1399.4 220.539C1394.64 224.722 1391.39 220.432 1387.38 220.324C1383.62 221.397 1379.11 222.148 1372.85 218.072C1371.34 221.182 1366.33 223.113 1360.82 218.608C1355.31 217.321 1349.3 211.744 1345.54 214.318C1341.78 211.744 1340.03 214.962 1343.28 213.675C1340.53 214.104 1338.27 214.962 1336.02 209.814C1333.76 208.312 1332.01 209.277 1330.01 207.239C1328.25 206.489 1326.5 203.807 1324.99 205.738C1323.49 207.347 1321.99 204.665 1320.48 205.523C1318.98 206.918 1317.73 201.662 1316.48 205.416C1315.22 204.236 1313.97 204.987 1312.47 207.669C1310.96 208.956 1309.46 211.637 1307.71 209.385C1305.95 211.959 1303.7 213.675 1300.94 212.709C1298.69 211.101 1296.68 212.495 1294.93 210.779C1293.18 211.101 1291.67 210.35 1290.17 209.921C1288.67 208.098 1287.41 208.634 1285.91 209.599C1285.16 210.993 1284.41 211.959 1283.66 212.066C1282.9 212.173 1282.15 211.53 1281.4 209.492C1279.9 211.851 1277.89 210.779 1275.89 209.17C1273.88 209.17 1271.38 210.993 1268.37 210.135C1266.12 212.924 1264.11 210.457 1262.11 210.243C1260.11 210.672 1258.35 209.492 1256.6 211.851C1251.09 213.567 1246.33 209.921 1241.82 213.782C1237.56 214.747 1233.55 214.425 1229.79 217.214C1226.03 220.861 1222.52 219.037 1218.77 221.183C1215.01 218.287 1211 221.826 1206.74 224.829C1202.23 226.438 1197.97 229.334 1193.46 228.261C1188.95 229.656 1184.44 226.867 1179.43 231.586C1174.67 226.76 1169.41 238.772 1164.15 233.946C1158.64 233.517 1152.88 231.908 1146.61 234.375C1147.86 232.551 1147.11 237.271 1146.11 237.378C1144.86 242.848 1143.1 238.558 1141.6 238.665C1135.34 242.204 1129.32 240.274 1123.81 237.378C1118.05 241.453 1112.79 235.018 1107.53 234.16C1102.27 229.87 1097.51 230.085 1092.75 229.977C1087.99 236.734 1083.48 223.864 1078.97 225.687C1074.46 223.006 1069.95 222.148 1065.44 221.826C1060.93 220.539 1056.42 220.753 1051.66 218.072C1046.9 209.599 1042.39 216.142 1037.63 215.069C1032.87 211.315 1027.86 215.713 1022.85 213.138C1017.83 215.069 1012.57 211.637 1007.31 212.817C1005.56 211.208 1004.06 210.993 1002.8 210.993C1001.3 210.993 1000.05 211.101 998.794 210.457C996.038 208.312 993.282 211.959 989.524 209.492C981.758 209.385 973.991 210.779 969.481 207.347C964.971 210.564 963.719 205.738 968.73 206.381C967.477 205.309 965.222 205.845 961.213 205.309C957.205 202.52 951.693 201.341 943.926 201.233C938.915 200.268 933.654 200.59 929.896 198.766C926.138 197.694 923.883 196.836 924.134 199.839C920.125 201.662 915.866 197.587 911.607 194.262C907.348 194.155 903.089 191.58 899.581 192.867C895.823 192.867 892.817 190.722 890.562 193.725C888.307 194.262 887.305 194.476 887.555 195.12C879.789 193.618 873.024 191.688 867.512 192.975C862 192.76 857.992 193.618 855.737 192.653C853.733 195.871 853.482 192.438 856.238 193.618C853.733 194.584 848.972 196.514 843.21 194.476C837.448 197.265 830.934 192.975 825.422 194.798C819.91 196.407 815.15 197.372 813.145 193.618C810.39 193.296 807.634 195.334 804.878 194.154C802.122 194.154 799.616 195.013 796.86 194.154C794.105 194.047 791.349 197.801 788.593 194.476C785.837 194.262 783.081 194.584 780.074 193.725C777.068 192.546 774.061 192.224 771.055 193.296C768.049 193.082 764.792 194.905 761.284 194.476C759.53 195.978 758.027 194.584 756.273 195.549C754.52 193.404 753.016 192.76 751.012 194.154C749.258 195.334 747.504 191.044 745.5 194.154C743.496 194.905 741.491 194.154 739.237 193.618C736.982 192.653 734.727 191.259 732.222 193.725C729.716 189.328 726.96 194.155 724.204 193.833C721.198 192.009 718.191 195.549 714.684 194.369C711.176 194.905 707.669 196.192 703.66 195.871C702.658 196.514 700.403 197.694 696.896 196.192C695.142 200.375 693.138 195.978 690.883 197.372C688.628 195.013 686.123 196.621 683.367 199.195C682.114 201.126 680.611 202.628 679.108 203.164C677.604 203.7 676.101 202.842 674.598 201.77C671.591 201.126 668.335 202.735 664.827 200.804C663.073 202.306 661.319 201.341 659.566 200.912C657.812 201.448 656.058 201.984 654.304 199.946C652.551 200.482 650.797 196.943 648.792 198.337C647.039 197.265 645.034 197.587 643.281 197.05C642.278 197.158 640.775 192.331 639.272 196.943C637.518 199.624 635.764 200.482 633.76 199.41C632.758 197.158 631.505 197.372 630.503 197.694C629.251 193.404 628.248 192.546 626.996 198.981C625.743 199.946 624.49 197.801 623.238 201.126C621.985 204.88 620.482 203.915 619.229 203.486C612.464 199.946 607.704 204.665 603.445 206.381C599.186 205.952 595.428 203.593 590.417 204.987C587.912 203.057 586.659 203.807 584.154 200.482C581.648 201.233 577.89 194.369 570.374 197.479C570.374 196.407 567.869 196.729 567.869 193.189C566.616 193.94 564.862 193.296 562.607 195.334C560.352 197.265 557.847 195.013 555.342 194.262C552.836 194.691 549.329 200.161 545.07 200.268C540.811 204.987 535.8 199.088 530.789 204.129C525.778 206.596 520.517 206.381 515.506 207.239C511.748 206.703 507.74 213.031 503.48 208.098C499.221 205.738 494.962 213.675 490.703 207.239C486.444 208.956 482.435 204.665 478.427 204.88C474.669 200.053 470.91 199.732 467.904 200.804C464.146 198.659 459.636 199.303 454.625 196.3C449.615 191.044 443.852 196.085 437.839 193.618C431.827 196.729 425.563 191.044 419.3 192.117C413.036 193.618 406.522 190.401 400.259 191.259C397.753 190.079 395.248 189.221 392.241 187.076C389.235 190.079 385.226 188.47 380.216 186.968C381.468 181.928 379.715 183.858 376.959 180.319C374.203 180.104 370.946 178.066 368.941 175.492C366.937 175.063 364.933 173.24 362.428 172.489C359.922 171.953 356.916 171.524 353.408 170.022C350.151 173.991 346.393 171.417 341.883 165.196C337.374 164.66 332.363 161.657 326.601 163.909C320.838 160.584 314.575 159.94 308.061 164.445C301.296 160.155 294.031 161.013 286.515 164.981C281.003 166.805 274.489 160.584 267.975 162.944C261.461 161.978 254.947 159.082 248.934 159.94C242.921 158.224 237.66 160.262 233.902 156.937C229.893 152.862 227.387 155.114 226.886 155.007C219.871 152.325 214.61 152.004 210.351 152.004C206.092 144.174 202.835 150.395 199.578 146.641C196.321 146.319 193.565 141.386 189.807 141.493C186.299 140.635 182.04 137.632 176.278 139.026C171.768 132.698 166.757 138.49 161.746 138.061C156.485 138.49 151.224 137.739 145.963 140.099C140.701 138.704 135.691 139.562 131.181 139.669C117.902 139.455 110.637 138.597 106.378 137.417C101.868 133.449 100.365 133.663 98.1099 134.843C96.1056 136.666 93.6002 134.414 87.5873 134.521C80.8227 133.878 75.812 137.632 71.0518 136.13C66.2916 137.524 62.2829 136.559 57.7732 135.272C53.2635 133.556 48.2528 133.127 41.9893 131.089C26.456 129.373 -10.1225 127.979 -9.12035 129.588C-23.1505 129.909 -31.9194 120.686 -18.6409 120.578C-21.3968 119.72 -21.3967 105.992 -37.9322 99.0202C-47.4527 88.6166 -49.7076 79.1783 -52.4636 73.2793C-54.9689 64.9135 -53.9667 57.2985 -47.7033 51.7212C-41.1893 46.144 -29.1634 42.7119 -9.12035 42.7119C91.0949 42.7119 2015.23 42.7119 2015.23 42.7119C2015.23 42.7119 2015.23 112.856 2015.23 175.278C2015.23 187.719 2015.23 199.946 2015.23 211.101C2005.71 226.652 2011.72 232.873 2015.23 241.346C2015.73 242.633 2016.48 243.062 2016.98 247.889C2017.48 251.321 2017.73 255.182 2017.48 256.576C2017.23 262.046 2016.73 258.721 2015.23 262.261C2013.72 263.977 2014.98 265.157 2015.98 268.803C2016.98 270.734 2017.73 271.163 2015.23 270.948Z" fill="white"/>
</g>
<path d="M2009.21 256.715C1985.16 250.494 1972.64 246.848 1954.85 247.491C1937.81 243.952 1919.27 240.198 1919.77 239.125C1914.51 236.98 1912.26 234.513 1908.75 233.334C1909.75 235.157 1906.74 231.296 1901.98 231.51C1899.48 231.081 1896.72 231.403 1893.72 230.76C1892.21 230.438 1890.46 230.116 1888.96 229.687C1887.45 229.258 1885.7 228.829 1883.94 228.185C1877.43 225.826 1870.92 232.047 1866.41 225.182C1861.9 224.861 1859.39 225.933 1861.15 223.895C1854.88 220.892 1853.38 225.611 1850.62 222.394C1848.12 220.999 1844.61 223.681 1835.09 220.249C1830.08 220.785 1824.82 213.277 1820.81 214.779C1816.8 215.637 1814.3 217.996 1814.8 216.709C1795.76 211.561 1799.76 211.561 1787.74 212.419C1772.96 215.315 1762.68 214.457 1741.89 209.416C1737.38 208.665 1732.37 207.485 1726.86 206.413C1721.6 205.34 1716.08 204.375 1710.82 204.053C1705.81 203.41 1701.05 204.268 1697.04 205.233C1694.54 204.911 1690.28 202.337 1684.77 204.911C1679.26 203.946 1672.74 204.053 1665.73 204.697C1658.71 206.735 1651.19 203.624 1643.68 204.59C1636.16 201.157 1628.9 202.659 1622.13 204.482C1615.37 202.874 1609.36 201.908 1604.85 204.375C1600.09 199.334 1596.83 207.807 1595.32 204.268C1591.82 204.161 1588.31 204.268 1584.3 204.375C1580.54 206.735 1576.53 202.766 1572.28 205.877C1568.02 205.984 1563.26 207.056 1558.25 207.056C1553.23 207.271 1547.72 210.703 1541.46 206.306C1529.93 207.593 1523.92 210.06 1520.16 210.274C1516.41 208.129 1514.65 209.309 1511.9 211.025C1508.89 208.022 1504.63 208.558 1495.61 208.987C1491.6 205.984 1487.59 202.766 1483.33 209.094C1479.08 210.274 1474.57 206.52 1469.55 214.457C1464.79 216.28 1459.53 214.35 1453.77 210.596C1455.27 211.239 1454.52 209.523 1452.52 210.596C1450.26 217.782 1446.76 217.46 1442.5 216.495C1437.99 225.182 1432.98 218.747 1427.71 219.069C1422.45 211.561 1417.19 213.921 1412.43 209.309C1403.66 208.558 1397.65 210.918 1392.89 206.52C1388.13 210.703 1384.87 206.413 1380.86 206.306C1377.11 207.378 1372.6 208.129 1366.33 204.053C1364.83 207.164 1359.82 209.094 1354.31 204.59C1348.8 203.303 1342.78 197.725 1339.02 200.299C1335.27 197.725 1333.51 200.943 1336.77 199.656C1334.01 200.085 1331.76 200.943 1329.5 195.795C1327.25 194.293 1325.5 195.259 1323.49 193.221C1321.74 192.47 1319.98 189.789 1318.48 191.719C1316.98 193.328 1315.47 190.647 1313.97 191.505C1312.47 192.899 1311.21 187.643 1309.96 191.397C1308.71 190.218 1307.46 190.968 1305.95 193.65C1304.45 194.937 1302.95 197.618 1301.19 195.366C1299.44 197.94 1297.18 199.656 1294.43 198.691C1292.17 197.082 1290.17 198.476 1288.42 196.76C1286.66 197.082 1285.16 196.331 1283.66 195.902C1282.15 194.079 1280.9 194.615 1279.4 195.58C1277.89 198.262 1276.64 199.441 1274.89 195.473C1273.38 196.117 1271.38 195.473 1269.38 195.151C1267.37 195.044 1264.87 196.331 1261.86 196.117C1259.6 196.009 1257.6 196.76 1255.6 196.224C1253.59 196.76 1251.84 196.653 1250.08 197.833C1248.33 199.227 1246.58 201.372 1244.82 199.978C1243.07 199.978 1241.31 198.262 1239.56 198.262C1237.81 198.905 1235.8 197.189 1234.05 198.583C1232.04 198.262 1230.04 199.87 1227.79 199.549C1225.53 200.192 1223.03 200.085 1220.52 200.407C1217.76 200.728 1215.01 201.479 1211.75 203.839C1207.74 205.448 1207.24 208.022 1204.49 206.413C1201.73 207.593 1196.47 205.769 1183.44 206.842C1180.43 205.555 1177.93 206.627 1174.67 206.842C1171.41 206.627 1167.66 207.271 1162.14 207.378C1156.63 212.848 1149.37 206.949 1139.6 206.627C1138.59 211.347 1134.33 216.066 1129.07 212.526C1123.81 217.353 1117.55 211.561 1112.29 210.167C1107.03 209.952 1103.02 209.094 1102.52 206.949C1097.26 205.233 1091.74 207.056 1086.48 204.804C1081.47 202.337 1076.71 200.192 1073.45 204.59C1065.69 204.59 1062.43 197.725 1059.42 200.621C1056.42 201.05 1053.41 197.082 1046.4 200.514C1042.39 199.441 1037.88 197.511 1033.37 198.262C1028.86 199.227 1024.6 196.867 1021.34 197.511C1017.83 198.369 1015.33 197.189 1014.08 199.334C1008.31 198.047 1004.31 200.085 1000.8 199.012C997.541 195.902 994.785 197.94 992.029 196.653C989.273 194.508 986.517 198.154 982.759 195.688C974.993 195.58 967.226 196.975 962.716 193.542C958.207 196.76 956.954 191.934 961.965 192.577C960.712 191.505 958.457 192.041 954.449 191.505C950.44 188.716 944.928 187.536 937.161 187.429C932.151 186.464 926.89 186.785 923.131 184.962C919.373 183.89 917.118 183.032 917.369 186.035C913.36 187.858 909.101 183.782 904.842 180.457C900.583 180.35 896.324 177.776 892.816 179.063C889.058 179.063 886.052 176.918 883.797 179.921C881.542 180.457 880.54 180.672 880.791 181.315C873.024 179.814 866.259 177.883 860.747 179.17C855.236 178.956 851.227 179.814 848.972 178.849C846.968 182.066 846.717 178.634 849.473 179.814C846.968 180.779 842.208 182.71 836.445 180.672C830.683 183.461 824.169 179.17 818.657 180.994C813.145 182.603 808.385 183.568 806.381 179.814C803.625 179.492 800.869 181.53 798.113 180.35C795.357 180.35 792.851 181.208 790.096 180.35C787.34 180.243 784.584 183.997 781.828 180.672C779.072 180.457 776.316 180.779 773.31 179.921C770.303 178.741 767.297 178.42 764.29 179.492C761.284 179.278 758.027 181.101 754.519 180.672C752.766 182.174 751.262 180.779 749.509 181.745C747.755 179.599 746.251 178.956 744.247 180.35C742.493 181.53 740.74 177.24 738.735 180.35C736.731 181.101 734.727 180.35 732.472 179.814C730.217 178.849 727.962 177.454 725.457 179.921C722.951 175.524 720.196 180.35 717.44 180.028C714.433 178.205 711.427 181.745 707.919 180.565C704.412 181.101 700.904 182.388 696.896 182.066C695.893 182.71 693.639 183.89 690.131 182.388C688.377 186.571 686.373 182.174 684.118 183.568C681.863 181.208 679.358 182.817 676.602 185.391C673.846 189.252 670.84 191.29 667.833 187.965C664.827 187 661.57 186.678 658.062 187C654.805 186.356 651.298 188.072 647.54 186.035C644.032 185.069 640.274 183.782 636.516 183.139C635.514 186.785 634.01 180.672 632.507 183.032C630.753 182.817 629 183.568 626.995 185.498C624.991 184.748 622.486 181.959 620.231 185.177C617.725 186.249 615.22 188.394 612.464 189.789C609.708 188.716 606.952 187.751 603.946 190.647C600.939 188.287 597.933 198.262 594.927 190.754C591.92 190.754 588.914 192.684 585.907 190.539C582.901 194.079 579.894 182.817 576.888 183.675C573.38 181.315 570.123 180.672 567.367 180.243C564.611 182.71 562.106 173.379 559.851 176.275C557.596 174.988 555.843 176.167 554.089 177.347C551.583 175.095 549.579 175.202 548.076 175.846C546.322 176.489 545.069 176.596 543.817 177.991C542.564 179.17 541.311 181.53 540.059 181.53C538.806 182.066 537.303 181.852 535.549 181.315C533.795 180.136 531.791 183.568 529.286 183.675C526.78 183.675 523.523 185.069 519.765 183.246C516.007 185.498 513.001 186.893 509.994 187.858C507.238 188.394 504.733 188.502 502.478 186.142C500.223 184.962 498.219 184.64 496.465 185.713C494.711 186.356 492.958 187.429 491.454 187.429C488.197 187.536 485.441 185.82 481.934 186.035C478.426 184.748 474.418 184.64 468.906 180.994C464.897 175.524 459.636 178.956 453.874 175.846C448.111 175.309 442.098 175.202 435.835 175.417C429.822 174.237 423.809 176.275 418.297 176.489C413.036 174.666 408.276 176.704 404.768 175.738C400.008 177.24 397.001 173.7 394.496 176.489C391.991 176.811 390.237 174.558 387.732 174.451C384.976 171.77 381.719 172.735 375.956 170.805C373.952 174.988 372.198 171.448 370.194 166.836C367.939 163.082 365.434 166.729 361.676 161.473C357.918 157.827 352.907 158.899 346.142 156.004C342.885 159.972 339.127 157.398 334.618 151.177C330.108 150.641 325.097 147.638 319.335 149.89C313.572 146.565 307.309 145.922 300.795 150.426C294.03 146.136 286.765 146.994 279.249 150.963C273.737 152.786 267.223 146.565 260.709 148.925C254.195 147.959 247.681 145.064 241.668 145.922C235.655 144.206 230.394 146.243 226.636 142.919C222.627 138.843 220.122 141.095 219.621 140.988C212.606 138.307 207.344 137.985 203.085 137.985C198.826 130.155 195.569 136.376 192.312 132.622C189.055 132.3 186.299 127.367 182.541 127.474C179.034 126.616 174.774 123.613 169.012 125.007C164.502 118.679 159.492 124.471 154.481 124.042C149.22 124.471 143.958 123.72 138.697 126.08C133.436 124.685 128.425 125.543 123.915 125.651C110.637 125.436 103.371 124.578 99.1117 123.398C94.602 119.43 93.0988 119.644 90.844 120.824C88.8397 122.648 86.3343 120.395 80.3214 120.503C73.5569 119.859 68.5462 123.613 63.786 122.111C59.0258 123.506 55.0173 122.54 50.5076 121.253C45.9979 119.537 40.9871 119.108 34.7236 117.07C19.1903 115.354 -17.3884 113.96 -16.3862 115.569C-30.4164 115.891 -39.1851 106.667 -25.9066 106.559C-28.6625 105.701 -28.6625 91.9729 -45.198 85.0014C-54.7184 74.5978 -56.9733 65.1595 -59.7292 59.2605C-62.2346 50.8947 -61.2327 43.2797 -54.9692 37.7024C-48.4552 32.1252 -36.4293 -21.3069 -16.3862 -21.3069C83.829 -21.3069 2009.21 -22 2009.21 -22C2009.21 -22 2007.96 98.8372 2007.96 161.259C2007.96 173.7 2007.96 185.927 2007.96 197.082C1998.44 212.634 2004.45 218.854 2007.96 227.327C2009.71 231.189 2012.47 245.668 2007.96 248.242C2005.96 253.926 2014.22 258.86 2009.21 256.715Z" fill="#0C0B24"/>
</g>
<defs>
<filter id="filter0_d_162_1038" x="-61.7354" y="38.7119" width="2087.32" height="244.287" filterUnits="userSpaceOnUse" color-interpolation-filters="sRGB">
<feFlood flood-opacity="0" result="BackgroundImageFix"/>
<feColorMatrix in="SourceAlpha" type="matrix" values="0 0 0 0 0 0 0 0 0 0 0 0 0 0 0 0 0 0 127 0" result="hardAlpha"/>
<feOffset dy="4"/>
<feGaussianBlur stdDeviation="4"/>
<feComposite in2="hardAlpha" operator="out"/>
<feColorMatrix type="matrix" values="0 0 0 0 0 0 0 0 0 0 0 0 0 0 0 0 0 0 0.25 0"/>
<feBlend mode="normal" in2="BackgroundImageFix" result="effect1_dropShadow_162_1038"/>
<feBlend mode="normal" in="SourceGraphic" in2="effect1_dropShadow_162_1038" result="shape"/>
</filter>
<clipPath id="clip0_162_1038">
<rect width="1956" height="277" fill="white"/>
</clipPath>
</defs>
</svg>
