<svg width="1956" height="563" viewBox="0 0 1956 563" fill="none" xmlns="http://www.w3.org/2000/svg">
<g clip-path="url(#clip0_162_1038)">
<g filter="url(#filter0_d_162_1038)">
<path d="M2017.41 552.948C2011.4 549.623 2006.14 549.945 2001.13 548.765C1996.37 547.049 1991.86 542.974 1987.85 545.762C1983.59 543.939 1979.58 544.046 1975.57 544.046C1971.57 544.475 1967.56 542.759 1963.05 543.724C1958.79 539.863 1954.53 538.684 1950.27 541.043C1946.26 542.545 1942.25 542.116 1939 538.576C1935.74 540.185 1932.73 535.895 1930.98 536.538C1928.97 536.646 1927.97 534.715 1927.97 535.251C1923.46 541.258 1918.95 535.68 1913.94 531.069C1908.93 533.643 1903.92 528.494 1898.41 527.744C1893.15 524.633 1887.64 530.318 1881.87 525.17C1876.11 529.245 1870.35 528.173 1864.34 523.132C1858.32 530.747 1852.31 524.419 1846.3 521.416C1840.28 523.132 1834.02 522.703 1827.76 519.914C1821.49 520.558 1815.48 520.987 1809.22 518.413C1802.95 514.337 1796.94 514.98 1790.93 516.804C1784.92 515.624 1778.9 512.621 1773.14 514.873C1768.13 509.189 1763.37 516.804 1758.86 512.192C1754.35 513.05 1749.84 511.012 1745.58 508.223C1741.07 504.791 1736.81 505.864 1732.3 504.041C1727.79 501.895 1723.03 499.321 1718.02 500.823C1714.26 501.359 1710 498.249 1705.49 501.252C1701.24 505.006 1696.73 501.681 1693.22 501.145C1690.46 500.716 1687.46 499 1684.45 500.394C1681.19 500.716 1677.94 505.971 1674.43 500.823C1670.92 501.359 1667.16 502.539 1663.65 501.145C1659.9 501.359 1656.14 497.82 1652.38 500.608C1648.62 498.892 1644.86 498.463 1641.36 498.571C1637.85 498.678 1634.34 499.536 1630.83 500.501C1624.07 498.892 1618.06 497.927 1613.55 500.394C1608.79 495.353 1605.53 503.826 1604.03 500.287C1600.52 500.179 1597.01 500.287 1593 500.394C1589.24 502.753 1585.24 498.785 1580.98 501.895C1576.72 502.003 1571.96 503.075 1566.95 503.075C1561.94 503.29 1556.42 506.722 1550.16 502.324C1538.64 503.612 1532.62 506.078 1528.87 506.293C1525.11 504.148 1523.35 505.328 1520.6 507.044C1517.59 504.041 1513.33 504.577 1504.31 505.006C1500.3 502.003 1496.3 498.785 1492.04 505.113C1487.78 506.293 1483.27 502.539 1478.26 510.476C1473.5 512.299 1468.24 510.369 1462.47 506.615C1463.98 507.258 1463.22 505.542 1461.22 506.615C1458.97 513.801 1455.46 513.479 1451.2 512.514C1446.69 521.201 1441.68 514.766 1436.42 515.088C1431.16 507.58 1425.89 509.94 1421.13 505.328C1412.37 504.577 1406.35 506.936 1401.59 502.539C1396.83 506.722 1393.57 502.432 1389.57 502.324C1385.81 503.397 1381.3 504.148 1375.03 500.072C1373.53 503.182 1368.52 505.113 1363.01 500.608C1357.5 499.321 1351.48 493.744 1347.73 496.318C1343.97 493.744 1342.21 496.962 1345.47 495.675C1342.72 496.104 1340.46 496.962 1338.21 491.814C1335.95 490.312 1334.2 491.277 1332.19 489.239C1330.44 488.489 1328.69 485.807 1327.18 487.738C1325.68 489.347 1324.18 486.665 1322.67 487.523C1321.17 488.918 1319.92 483.662 1318.66 487.416C1317.41 486.236 1316.16 486.987 1314.66 489.669C1313.15 490.956 1311.65 493.637 1309.9 491.385C1308.14 493.959 1305.89 495.675 1303.13 494.709C1300.88 493.101 1298.87 494.495 1297.12 492.779C1295.36 493.101 1293.86 492.35 1292.36 491.921C1290.85 490.098 1289.6 490.634 1288.1 491.599C1287.35 492.993 1286.59 493.959 1285.84 494.066C1285.09 494.173 1284.34 493.53 1283.59 491.492C1282.09 493.851 1280.08 492.779 1278.08 491.17C1276.07 491.17 1273.57 492.993 1270.56 492.135C1268.31 494.924 1266.3 492.457 1264.3 492.243C1262.29 492.672 1260.54 491.492 1258.79 493.851C1253.27 495.567 1248.51 491.921 1244 495.782C1239.74 496.747 1235.74 496.425 1231.98 499.214C1228.22 502.861 1224.71 501.037 1220.95 503.183C1217.2 500.287 1213.19 503.826 1208.93 506.829C1204.42 508.438 1200.16 511.334 1195.65 510.261C1191.14 511.656 1186.63 508.867 1181.62 513.586C1176.86 508.76 1171.6 520.772 1166.34 515.946C1160.82 515.517 1155.06 513.908 1148.8 516.375C1150.05 514.551 1149.3 519.271 1148.3 519.378C1147.05 524.848 1145.29 520.558 1143.79 520.665C1137.52 524.204 1131.51 522.274 1126 519.378C1120.24 523.453 1114.98 517.018 1109.72 516.16C1104.45 511.87 1099.69 512.085 1094.93 511.977C1090.17 518.734 1085.66 505.864 1081.15 507.687C1076.64 505.006 1072.13 504.148 1067.62 503.826C1063.12 502.539 1058.61 502.753 1053.85 500.072C1049.08 491.599 1044.58 498.142 1039.82 497.069C1035.05 493.315 1030.04 497.713 1025.03 495.138C1020.02 497.069 1014.76 493.637 1009.5 494.817C1007.75 493.208 1006.24 492.993 1004.99 492.993C1003.49 492.993 1002.23 493.101 1000.98 492.457C998.226 490.312 995.47 493.959 991.712 491.492C983.945 491.385 976.178 492.779 971.669 489.347C967.159 492.564 965.906 487.738 970.917 488.381C969.664 487.309 967.41 487.845 963.401 487.309C959.392 484.52 953.88 483.341 946.114 483.233C941.103 482.268 935.842 482.59 932.084 480.766C928.326 479.694 926.071 478.836 926.321 481.839C922.313 483.662 918.054 479.587 913.794 476.262C909.535 476.155 905.276 473.58 901.769 474.867C898.01 474.867 895.004 472.722 892.749 475.725C890.494 476.262 889.492 476.476 889.743 477.12C881.976 475.618 875.211 473.688 869.7 474.975C864.188 474.76 860.179 475.618 857.924 474.653C855.92 477.871 855.67 474.438 858.425 475.618C855.92 476.584 851.16 478.514 845.398 476.476C839.635 479.265 833.121 474.975 827.609 476.798C822.097 478.407 817.337 479.372 815.333 475.618C812.577 475.296 809.821 477.334 807.065 476.154C804.309 476.154 801.804 477.013 799.048 476.154C796.292 476.047 793.536 479.801 790.78 476.476C788.024 476.262 785.268 476.584 782.262 475.725C779.255 474.546 776.249 474.224 773.243 475.296C770.236 475.082 766.979 476.905 763.472 476.476C761.718 477.978 760.215 476.584 758.461 477.549C756.707 475.404 755.204 474.76 753.199 476.154C751.446 477.334 749.692 473.044 747.688 476.154C745.683 476.905 743.679 476.154 741.424 475.618C739.169 474.653 736.914 473.259 734.409 475.725C731.904 471.328 729.148 476.155 726.392 475.833C723.385 474.009 720.379 477.549 716.871 476.369C713.364 476.905 709.856 478.192 705.848 477.871C704.846 478.514 702.591 479.694 699.083 478.192C697.33 482.375 695.325 477.978 693.07 479.372C690.815 477.013 688.31 478.621 685.554 481.195C684.302 483.126 682.798 484.628 681.295 485.164C679.792 485.7 678.289 484.842 676.785 483.77C673.779 483.126 670.522 484.735 667.014 482.804C665.261 484.306 663.507 483.341 661.753 482.912C659.999 483.448 658.246 483.984 656.492 481.946C654.738 482.482 652.984 478.943 650.98 480.337C649.226 479.265 647.222 479.587 645.468 479.05C644.466 479.158 642.963 474.331 641.46 478.943C639.706 481.624 637.952 482.482 635.948 481.41C634.946 479.158 633.693 479.372 632.691 479.694C631.438 475.404 630.436 474.546 629.183 480.981C627.93 481.946 626.678 479.801 625.425 483.126C624.172 486.88 622.669 485.915 621.417 485.486C614.652 481.946 609.892 486.665 605.633 488.381C601.374 487.952 597.615 485.593 592.605 486.987C590.099 485.057 588.847 485.807 586.341 482.482C583.836 483.233 580.078 476.369 572.562 479.479C572.562 478.407 570.056 478.729 570.056 475.189C568.804 475.94 567.05 475.296 564.795 477.334C562.54 479.265 560.035 477.013 557.529 476.262C555.024 476.691 551.516 482.161 547.257 482.268C542.998 486.987 537.987 481.088 532.977 486.129C527.966 488.596 522.704 488.381 517.694 489.239C513.936 488.703 509.927 495.031 505.668 490.098C501.409 487.738 497.15 495.675 492.891 489.239C488.631 490.956 484.623 486.665 480.614 486.88C476.856 482.053 473.098 481.732 470.091 482.804C466.333 480.659 461.824 481.303 456.813 478.3C451.802 473.044 446.04 478.085 440.027 475.618C434.014 478.729 427.751 473.044 421.487 474.117C415.224 475.618 408.71 472.401 402.446 473.259C399.941 472.079 397.435 471.221 394.429 469.076C391.423 472.079 387.414 470.47 382.403 468.968C383.656 463.928 381.902 465.858 379.146 462.319C376.39 462.104 373.133 460.066 371.129 457.492C369.125 457.063 367.12 455.24 364.615 454.489C362.11 453.953 359.103 453.524 355.596 452.022C352.339 455.991 348.581 453.417 344.071 447.196C339.561 446.66 334.55 443.657 328.788 445.909C323.026 442.584 316.762 441.94 310.248 446.445C303.484 442.155 296.218 443.013 288.702 446.981C283.19 448.805 276.676 442.584 270.162 444.944C263.648 443.978 257.134 441.082 251.121 441.94C245.108 440.224 239.847 442.262 236.089 438.937C232.08 434.862 229.575 437.114 229.074 437.007C222.059 434.325 216.798 434.004 212.538 434.004C208.279 426.174 205.022 432.395 201.765 428.641C198.508 428.319 195.752 423.386 191.994 423.493C188.487 422.635 184.228 419.632 178.465 421.026C173.956 414.698 168.945 420.49 163.934 420.061C158.673 420.49 153.411 419.739 148.15 422.099C142.889 420.704 137.878 421.562 133.368 421.669C120.09 421.455 112.824 420.597 108.565 419.417C104.055 415.449 102.552 415.663 100.297 416.843C98.2931 418.666 95.7877 416.414 89.7748 416.521C83.0102 415.878 77.9995 419.632 73.2393 418.13C68.4791 419.524 64.4704 418.559 59.9607 417.272C55.451 415.556 50.4403 415.127 44.1768 413.089C28.6435 411.373 -7.93501 409.979 -6.93285 411.588C-20.963 411.909 -29.7319 402.686 -16.4534 402.578C-19.2093 401.72 -19.2092 387.992 -35.7447 381.02C-45.2652 370.617 -47.5201 361.178 -50.2761 355.279C-52.7814 346.913 -51.7792 339.298 -45.5158 333.721C-39.0018 328.144 -26.9759 324.712 -6.93285 324.712C93.2824 324.712 2017.41 324.712 2017.41 324.712C2017.41 324.712 2017.41 394.856 2017.41 457.278C2017.41 469.719 2017.41 481.946 2017.41 493.101C2007.89 508.652 2013.91 514.873 2017.41 523.346C2017.92 524.633 2018.67 525.062 2019.17 529.889C2019.67 533.321 2019.92 537.182 2019.67 538.576C2019.42 544.046 2018.92 540.721 2017.41 544.261C2015.91 545.977 2017.16 547.157 2018.17 550.803C2019.17 552.734 2019.92 553.163 2017.41 552.948Z" fill="white"/>
</g>
<path d="M2011.4 538.715C1987.35 532.494 1974.82 528.848 1957.03 529.491C1940 525.952 1921.46 522.198 1921.96 521.125C1916.7 518.98 1914.44 516.513 1910.94 515.334C1911.94 517.157 1908.93 513.296 1904.17 513.51C1901.67 513.081 1898.91 513.403 1895.9 512.76C1894.4 512.438 1892.65 512.116 1891.14 511.687C1889.64 511.258 1887.89 510.829 1886.13 510.185C1879.62 507.826 1873.1 514.047 1868.59 507.182C1864.08 506.861 1861.58 507.933 1863.33 505.895C1857.07 502.892 1855.57 507.611 1852.81 504.394C1850.31 502.999 1846.8 505.681 1837.28 502.249C1832.27 502.785 1827.01 495.277 1823 496.779C1818.99 497.637 1816.48 499.996 1816.98 498.709C1797.94 493.561 1801.95 493.561 1789.93 494.419C1775.14 497.315 1764.87 496.457 1744.08 491.416C1739.57 490.665 1734.56 489.485 1729.04 488.413C1723.78 487.34 1718.27 486.375 1713.01 486.053C1708 485.41 1703.24 486.268 1699.23 487.233C1696.73 486.911 1692.47 484.337 1686.95 486.911C1681.44 485.946 1674.93 486.053 1667.91 486.697C1660.9 488.735 1653.38 485.624 1645.87 486.59C1638.35 483.157 1631.08 484.659 1624.32 486.482C1617.56 484.874 1611.54 483.908 1607.03 486.375C1602.27 481.334 1599.02 489.807 1597.51 486.268C1594 486.161 1590.5 486.268 1586.49 486.375C1582.73 488.735 1578.72 484.766 1574.46 487.877C1570.2 487.984 1565.44 489.056 1560.43 489.056C1555.42 489.271 1549.91 492.703 1543.65 488.306C1532.12 489.593 1526.11 492.06 1522.35 492.274C1518.59 490.129 1516.84 491.309 1514.08 493.025C1511.08 490.022 1506.82 490.558 1497.8 490.987C1493.79 487.984 1489.78 484.766 1485.52 491.094C1481.26 492.274 1476.75 488.52 1471.74 496.457C1466.98 498.28 1461.72 496.35 1455.96 492.596C1457.46 493.239 1456.71 491.523 1454.71 492.596C1452.45 499.782 1448.94 499.46 1444.68 498.495C1440.17 507.182 1435.16 500.747 1429.9 501.069C1424.64 493.561 1419.38 495.921 1414.62 491.309C1405.85 490.558 1399.84 492.918 1395.08 488.52C1390.32 492.703 1387.06 488.413 1383.05 488.306C1379.29 489.378 1374.78 490.129 1368.52 486.053C1367.02 489.164 1362.01 491.094 1356.49 486.59C1350.98 485.303 1344.97 479.725 1341.21 482.299C1337.45 479.725 1335.7 482.943 1338.96 481.656C1336.2 482.085 1333.95 482.943 1331.69 477.795C1329.44 476.293 1327.68 477.259 1325.68 475.221C1323.92 474.47 1322.17 471.789 1320.67 473.719C1319.16 475.328 1317.66 472.647 1316.16 473.505C1314.65 474.899 1313.4 469.643 1312.15 473.397C1310.9 472.218 1309.64 472.968 1308.14 475.65C1306.64 476.937 1305.13 479.618 1303.38 477.366C1301.63 479.94 1299.37 481.656 1296.62 480.691C1294.36 479.082 1292.36 480.476 1290.6 478.76C1288.85 479.082 1287.35 478.331 1285.84 477.902C1284.34 476.079 1283.09 476.615 1281.58 477.58C1280.08 480.262 1278.83 481.441 1277.07 477.473C1275.57 478.117 1273.57 477.473 1271.56 477.151C1269.56 477.044 1267.05 478.331 1264.05 478.117C1261.79 478.009 1259.79 478.76 1257.78 478.224C1255.78 478.76 1254.02 478.653 1252.27 479.833C1250.52 481.227 1248.76 483.372 1247.01 481.978C1245.26 481.978 1243.5 480.262 1241.75 480.262C1239.99 480.905 1237.99 479.189 1236.24 480.583C1234.23 480.262 1232.23 481.87 1229.97 481.549C1227.72 482.192 1225.21 482.085 1222.71 482.407C1219.95 482.728 1217.2 483.479 1213.94 485.839C1209.93 487.448 1209.43 490.022 1206.67 488.413C1203.92 489.593 1198.66 487.769 1185.63 488.842C1182.62 487.555 1180.12 488.627 1176.86 488.842C1173.6 488.627 1169.84 489.271 1164.33 489.378C1158.82 494.848 1151.55 488.949 1141.78 488.627C1140.78 493.347 1136.52 498.066 1131.26 494.526C1126 499.353 1119.74 493.561 1114.48 492.167C1109.21 491.952 1105.21 491.094 1104.7 488.949C1099.44 487.233 1093.93 489.056 1088.67 486.804C1083.66 484.337 1078.9 482.192 1075.64 486.59C1067.88 486.59 1064.62 479.725 1061.61 482.621C1058.61 483.05 1055.6 479.082 1048.58 482.514C1044.58 481.441 1040.07 479.511 1035.56 480.262C1031.05 481.227 1026.79 478.867 1023.53 479.511C1020.02 480.369 1017.52 479.189 1016.26 481.334C1010.5 480.047 1006.49 482.085 1002.99 481.012C999.729 477.902 996.973 479.94 994.217 478.653C991.461 476.508 988.705 480.154 984.947 477.688C977.18 477.58 969.414 478.975 964.904 475.542C960.394 478.76 959.142 473.934 964.152 474.577C962.9 473.505 960.645 474.041 956.636 473.505C952.628 470.716 947.116 469.536 939.349 469.429C934.338 468.464 929.077 468.785 925.319 466.962C921.561 465.89 919.306 465.032 919.557 468.035C915.548 469.858 911.289 465.782 907.03 462.457C902.771 462.35 898.511 459.776 895.004 461.063C891.246 461.063 888.239 458.918 885.984 461.921C883.729 462.457 882.727 462.672 882.978 463.315C875.211 461.814 868.447 459.883 862.935 461.17C857.423 460.956 853.414 461.814 851.16 460.849C849.155 464.066 848.905 460.634 851.661 461.814C849.155 462.779 844.395 464.71 838.633 462.672C832.87 465.461 826.356 461.17 820.844 462.994C815.333 464.603 810.573 465.568 808.568 461.814C805.812 461.492 803.056 463.53 800.3 462.35C797.544 462.35 795.039 463.208 792.283 462.35C789.527 462.243 786.771 465.997 784.015 462.672C781.26 462.457 778.504 462.779 775.497 461.921C772.491 460.741 769.484 460.42 766.478 461.492C763.471 461.278 760.214 463.101 756.707 462.672C754.953 464.174 753.45 462.779 751.696 463.745C749.942 461.599 748.439 460.956 746.435 462.35C744.681 463.53 742.927 459.24 740.923 462.35C738.919 463.101 736.914 462.35 734.659 461.814C732.405 460.849 730.15 459.454 727.644 461.921C725.139 457.524 722.383 462.35 719.627 462.028C716.621 460.205 713.614 463.744 710.107 462.565C706.599 463.101 703.092 464.388 699.083 464.066C698.081 464.71 695.826 465.89 692.319 464.388C690.565 468.571 688.56 464.174 686.306 465.568C684.051 463.208 681.545 464.817 678.789 467.391C676.033 471.252 673.027 473.29 670.021 469.965C667.014 469 663.757 468.678 660.25 469C656.993 468.356 653.485 470.072 649.727 468.035C646.219 467.069 642.461 465.782 638.703 465.139C637.701 468.785 636.198 462.672 634.695 465.032C632.941 464.817 631.187 465.568 629.183 467.498C627.179 466.748 624.673 463.959 622.418 467.177C619.913 468.249 617.408 470.394 614.652 471.789C611.896 470.716 609.14 469.751 606.133 472.647C603.127 470.287 600.121 480.262 597.114 472.754C594.108 472.754 591.101 474.684 588.095 472.539C585.088 476.079 582.082 464.817 579.075 465.675C575.568 463.315 572.311 462.672 569.555 462.243C566.799 464.71 564.294 455.379 562.039 458.275C559.784 456.987 558.03 458.167 556.276 459.347C553.771 457.095 551.767 457.202 550.263 457.846C548.51 458.489 547.257 458.596 546.004 459.991C544.752 461.17 543.499 463.53 542.246 463.53C540.994 464.066 539.49 463.852 537.736 463.315C535.983 462.136 533.978 465.568 531.473 465.675C528.968 465.675 525.711 467.069 521.953 465.246C518.195 467.498 515.188 468.893 512.182 469.858C509.426 470.394 506.92 470.502 504.665 468.142C502.411 466.962 500.406 466.64 498.653 467.713C496.899 468.356 495.145 469.429 493.642 469.429C490.385 469.536 487.629 467.82 484.121 468.035C480.614 466.748 476.605 466.64 471.093 462.994C467.085 457.524 461.824 460.956 456.061 457.846C450.299 457.309 444.286 457.202 438.022 457.417C432.01 456.237 425.997 458.275 420.485 458.489C415.223 456.666 410.463 458.704 406.956 457.738C402.195 459.24 399.189 455.7 396.684 458.489C394.178 458.811 392.425 456.558 389.919 456.451C387.163 453.77 383.906 454.735 378.144 452.805C376.139 456.988 374.386 453.448 372.381 448.836C370.127 445.082 367.621 448.729 363.863 443.473C360.105 439.827 355.094 440.899 348.33 438.004C345.073 441.972 341.315 439.398 336.805 433.177C332.295 432.641 327.285 429.638 321.522 431.89C315.76 428.565 309.496 427.922 302.982 432.426C296.218 428.136 288.952 428.994 281.436 432.963C275.924 434.786 269.41 428.565 262.896 430.925C256.382 429.959 249.868 427.064 243.855 427.922C237.843 426.206 232.581 428.243 228.823 424.919C224.815 420.843 222.309 423.095 221.808 422.988C214.793 420.307 209.532 419.985 205.273 419.985C201.013 412.155 197.756 418.376 194.499 414.622C191.242 414.3 188.487 409.367 184.729 409.474C181.221 408.616 176.962 405.613 171.199 407.007C166.69 400.679 161.679 406.471 156.668 406.042C151.407 406.471 146.146 405.72 140.884 408.08C135.623 406.685 130.612 407.543 126.103 407.651C112.824 407.436 105.558 406.578 101.299 405.398C96.7896 401.43 95.2864 401.644 93.0315 402.824C91.0272 404.648 88.5218 402.395 82.5089 402.502C75.7443 401.859 70.7337 405.613 65.9735 404.111C61.2132 405.506 57.2047 404.54 52.695 403.253C48.1853 401.537 43.1746 401.108 36.9111 399.07C21.3778 397.354 -15.2008 395.96 -14.1987 397.569C-28.2288 397.891 -36.9977 388.667 -23.7192 388.559C-26.4751 387.701 -26.4751 373.973 -43.0106 367.001C-52.531 356.598 -54.7858 347.159 -57.5417 341.26C-60.0471 332.895 -59.0451 325.28 -52.7817 319.702C-46.2677 314.125 -34.2417 310.693 -14.1987 310.693C86.0165 310.693 2011.4 310 2011.4 310C2011.4 310 2010.15 380.837 2010.15 443.259C2010.15 455.7 2010.15 467.927 2010.15 479.082C2000.63 494.634 2006.64 500.854 2010.15 509.327C2011.9 513.189 2014.66 527.668 2010.15 530.242C2008.14 535.926 2016.41 540.86 2011.4 538.715Z" fill="#0C0B24"/>
<rect x="-25" y="-32" width="2047" height="360" fill="#0C0B24"/>
</g>
<defs>
<filter id="filter0_d_162_1038" x="-59.5479" y="320.712" width="2087.32" height="244.287" filterUnits="userSpaceOnUse" color-interpolation-filters="sRGB">
<feFlood flood-opacity="0" result="BackgroundImageFix"/>
<feColorMatrix in="SourceAlpha" type="matrix" values="0 0 0 0 0 0 0 0 0 0 0 0 0 0 0 0 0 0 127 0" result="hardAlpha"/>
<feOffset dy="4"/>
<feGaussianBlur stdDeviation="4"/>
<feComposite in2="hardAlpha" operator="out"/>
<feColorMatrix type="matrix" values="0 0 0 0 0 0 0 0 0 0 0 0 0 0 0 0 0 0 0.25 0"/>
<feBlend mode="normal" in2="BackgroundImageFix" result="effect1_dropShadow_162_1038"/>
<feBlend mode="normal" in="SourceGraphic" in2="effect1_dropShadow_162_1038" result="shape"/>
</filter>
<clipPath id="clip0_162_1038">
<rect width="1956" height="563" fill="white"/>
</clipPath>
</defs>
</svg>
