<svg width="1956" height="156" viewBox="0 0 1956 156" fill="none" xmlns="http://www.w3.org/2000/svg">
<g clip-path="url(#clip0_161_1064)">
<rect x="-10" y="-43" width="1992" height="127" fill="white"/>
<rect x="-10" y="84" width="1992" height="157" fill="#0C0B24"/>
<g filter="url(#filter0_d_161_1064)">
<path fill-rule="evenodd" clip-rule="evenodd" d="M2580.91 84.451C2582.11 84.066 2583.23 83.4648 2584.22 82.5888C2583.93 81.3833 2581.54 78.8735 2578.83 76.0293C2574.97 71.9804 2570.46 67.254 2570.47 64.6479C2568.18 65.215 2567.13 65.9754 2566.45 66.4677C2565.67 67.0354 2565.38 67.2468 2564.24 66.3952C2561.91 65.3268 2561.02 66.0309 2560.05 66.8057C2559.15 67.5191 2558.18 68.2923 2555.93 67.7969C2553.88 66.702 2551.6 67.0421 2549.41 67.3698C2547.91 67.5943 2546.45 67.813 2545.13 67.5604C2544.21 67.3289 2543.47 66.6987 2542.76 66.096C2541.57 65.0872 2540.48 64.1555 2538.81 65.2989C2534.77 66.34 2531.04 65.5678 2527.35 64.8043C2526.75 64.6812 2526.16 64.5584 2525.56 64.4434C2523.03 63.5607 2519.63 63.6895 2516.26 63.8169C2511.79 63.9861 2507.39 64.1528 2505.19 61.9356C2505.31 62.5686 2505.12 62.1011 2504.67 60.972C2504.4 60.2821 2504.03 59.3452 2503.57 58.2614C2502.76 56.0166 2502.15 54.7916 2501.33 56.0123C2500.41 57.2276 2499.96 56.2835 2499.28 54.8768C2499.05 54.4001 2498.79 53.8704 2498.48 53.3536C2495.44 47.8405 2490.55 48.8449 2486.87 50.0569C2485.74 49.1419 2484.53 49.5641 2483.37 49.9712C2482.46 50.2925 2481.57 50.6043 2480.76 50.2422C2478.76 50.8494 2477.23 50.305 2475.38 49.6473C2474.77 49.4304 2474.13 49.2012 2473.42 48.9969C2471.87 48.9922 2470.29 48.7855 2468.7 48.5778C2465.51 48.1595 2462.29 47.7372 2459.15 48.9537C2457.23 49.1983 2455.28 48.8958 2453.32 48.5923C2450.49 48.1548 2447.65 47.7153 2444.88 48.9105C2443.49 48.9878 2442.11 48.8695 2440.72 48.7511C2438.64 48.5736 2436.57 48.3961 2434.48 48.879C2428.34 44.945 2422.69 48.3454 2417.55 51.4374C2417.07 51.726 2416.6 52.0119 2416.13 52.2889C2413.67 55.7469 2412.65 56.1515 2409.18 55.7333C2408.62 57.4163 2408 56.6857 2407.38 55.9626C2406.88 55.3732 2406.38 54.7887 2405.92 55.5196C2405.17 53.7515 2404.41 54.9489 2403.7 56.0699C2403.26 56.7608 2402.84 57.4226 2402.45 57.3437C2401.86 57.1936 2401.24 58.014 2400.61 58.8441C2399.5 60.2966 2398.38 61.7788 2397.35 58.1436C2395.78 60.1566 2394.52 60.1364 2393.22 60.1156C2392.17 60.0987 2391.09 60.0814 2389.8 61.1785C2388.64 61.2434 2387.45 60.7108 2386.26 60.1748C2383.9 59.1143 2381.51 58.0406 2379.2 61.5541C2377.87 62.0978 2376.68 63.1527 2375.54 64.1763C2373.69 65.8193 2371.94 67.382 2369.81 66.6219C2368.97 67.4546 2368.05 67.1886 2367.12 66.9204C2366.01 66.5995 2364.89 66.2754 2363.89 67.8271C2363.22 68.1602 2362.59 68.6917 2361.99 69.2043C2360.75 70.2507 2359.61 71.2181 2358.38 70.2566C2357.54 70.4409 2356.65 70.3682 2355.75 70.2936C2354.68 70.2054 2353.57 70.1146 2352.47 70.4425C2352.27 70.5215 2352.08 70.603 2351.89 70.685C2349.6 71.6523 2347.17 72.6817 2344.92 70.4197C2341.45 74.4781 2339.02 71.8393 2336.38 68.9839L2336.37 68.9669C2335.45 68.4615 2335.14 67.958 2334.91 67.5678C2334.58 67.0085 2334.38 66.6822 2332.7 66.9173C2332.02 67.2535 2331.28 66.9229 2330.51 66.5807C2329.42 66.0979 2328.28 65.5917 2327.2 66.9006C2325.97 66.8969 2324.73 67.3289 2323.51 67.7582C2321.08 68.6088 2318.69 69.4489 2316.39 66.8679C2314.99 69.5416 2314.28 68.8401 2313.59 68.1629C2312.96 67.5513 2312.36 66.9595 2311.29 68.8909C2310.37 71.3571 2309.63 71.0074 2308.74 70.5867C2308.23 70.3475 2307.67 70.0852 2307 70.3049C2306.08 70.1598 2305.26 69.8412 2304.45 69.5309C2302.95 68.952 2301.53 68.4017 2299.67 69.0596C2297.89 67.3915 2295.9 68.0754 2293.98 68.7335C2292.61 69.2051 2291.28 69.6635 2290.09 69.2344C2289.28 70.4301 2288.53 70.4523 2287.79 70.4745C2287.01 70.4976 2286.23 70.5207 2285.39 71.8703C2284.52 72.2313 2283.9 72.2557 2283.38 72.2764C2282.44 72.3137 2281.81 72.339 2280.49 74.3016C2276.81 76.9405 2274.16 77.1316 2269.48 75.0789C2267.3 73.7082 2265.66 74.2582 2263.78 74.8912C2262.85 75.2041 2261.86 75.5373 2260.71 75.6687C2259.65 75.6655 2258.57 75.2077 2257.47 74.7467C2255.22 73.793 2252.93 72.8256 2250.72 75.8423C2249.15 76.5115 2247.95 75.2189 2246.75 73.9221C2245.77 72.8657 2244.79 71.8066 2243.6 71.803C2241.75 76.0782 2238.69 76.2728 2237.08 70.764C2235.46 67.4975 2235.46 67.4975 2234.03 66.0663C2233.51 67.036 2232.66 66.8271 2231.7 66.5917C2230.04 66.185 2228.06 65.6993 2226.88 71.0816C2224.53 70.2183 2222.18 70.5349 2219.82 70.8515C2217.69 71.138 2215.56 71.4244 2213.43 70.837C2210.2 67.2968 2206.96 68.8518 2203.8 70.37C2202.58 70.9557 2201.37 71.536 2200.18 71.8161C2198.98 71.5727 2197.68 71.6737 2196.38 71.7754C2194.36 71.9331 2192.33 72.0922 2190.6 70.9717C2189.46 71.9973 2188.39 70.3738 2187.31 68.7495C2186.26 67.1562 2185.2 65.5622 2184.09 66.4673C2182.35 64.0213 2182.1 64.5618 2181.16 66.5521C2181 66.889 2180.82 67.2674 2180.62 67.6799C2177.96 70.1181 2176.53 70.1137 2173.48 69.9006C2170.62 68.6689 2167.57 68.252 2164.3 68.6498C2161.24 71.4944 2158.79 73.1178 2156.34 74.1296C2154.27 77.0835 2152.29 76.7873 2150.19 76.4726C2148.96 76.2888 2147.7 76.0987 2146.34 76.5455C2144.15 76.382 2143.65 75.9183 2142.25 74.5954C2141.82 74.1986 2141.32 73.7247 2140.66 73.1583C2140.66 72.7506 2135.55 72.8435 2135.34 74.8814C2134.74 73.7775 2134.19 73.5601 2133.61 73.3335C2133.02 73.0991 2132.4 72.8548 2131.68 71.6087C2126.98 73.4292 2121.89 71.9868 2116.6 69.3207C2114.57 69.4706 2112.57 70.068 2110.6 70.6564C2107.42 71.6063 2104.32 72.5328 2101.3 71.5168C2100.27 71.4564 2099.26 71.3155 2098.25 71.1755C2095.67 70.8177 2093.14 70.4662 2090.5 71.4841C2086.63 68.4146 2082.15 67.178 2078.67 71.2444C2076.64 70.0152 2075.62 69.6044 2072.97 68.9848C2072.53 69.2191 2072.17 69.437 2071.87 69.6227C2070.31 70.5618 2070.12 70.68 2068.08 67.9508C2066.58 67.8151 2065.03 67.5315 2063.45 67.2427C2060.12 66.6339 2056.66 66.0018 2053.21 66.6826C2049.32 63.7493 2045.05 64.9089 2040.76 66.073C2040.56 66.1273 2040.36 66.1816 2040.16 66.2354C2037.77 68.1771 2035.45 68.2212 2033.3 68.2619C2031.41 68.2978 2029.65 68.331 2028.12 69.6644C2027.28 69.3824 2026.53 70.1653 2025.74 70.9811C2024.8 71.9501 2023.82 72.9655 2022.61 72.2978C2021.69 72.9593 2020.91 71.9976 2020.16 71.0658C2019.06 69.7102 2018.01 68.418 2016.67 72.2798C2013.54 74.8714 2011.08 73.7773 2007.66 72.255C2007.06 71.9878 2006.43 71.7074 2005.76 71.4314C2002.91 68.9766 1999.86 67.1327 1996.79 71.4042C1996.04 71.7298 1995.15 72.196 1994.19 72.6938C1990.99 74.3626 1987.11 76.3859 1985.7 74.6545C1984.85 73.2267 1984.69 73.0855 1984.05 72.5009C1983.77 72.2493 1983.41 71.9157 1982.86 71.362C1981.44 69.5231 1979.19 69.3125 1977.56 70.9383C1976.59 70.6365 1975.64 70.9647 1974.71 71.2904C1973.08 71.8532 1971.49 72.4084 1969.82 69.6918C1966.65 67.966 1963.4 68.8902 1960.16 69.8073C1958.41 70.3063 1956.65 70.8032 1954.93 70.8698C1953.82 70.2308 1953.17 70.0887 1952.64 69.9717C1951.8 69.7885 1951.25 69.6669 1949.64 67.796C1948.83 67.4892 1948.07 67.536 1947.28 67.5843C1946.49 67.6331 1945.67 67.6835 1944.75 67.3735C1938.12 70.7538 1931.69 69.233 1925.11 67.6768C1924.59 67.5538 1924.07 67.4305 1923.55 67.3093C1922.33 67.0903 1920.98 67.4521 1919.62 67.8168C1917.12 68.4879 1914.58 69.1687 1912.74 66.2574C1911.53 64.2152 1910.31 63.1923 1908.47 62.779C1906.33 61.6286 1905.39 62.9894 1904.17 64.7462C1903.65 65.4938 1903.08 66.3132 1902.34 67.0413C1900.71 69.6359 1899.22 68.3462 1897.65 66.9901C1897.25 66.6447 1896.85 66.2951 1896.44 66.0042C1894.69 63.3678 1892.62 63.77 1890.76 64.131C1890.03 64.2735 1889.33 64.4095 1888.69 64.3499C1887.9 60.9592 1887.09 61.3997 1886.48 61.7299C1886.32 61.8168 1886.18 61.8961 1886.05 61.8957C1885.66 61.8946 1885.26 62.0829 1884.87 62.2713C1884.04 62.6689 1883.21 63.0666 1882.38 61.6808C1880.9 62.5837 1879.94 61.7211 1878.88 60.7767C1878.03 60.0237 1877.13 59.2187 1875.87 59.2149C1874.34 57.2655 1872.62 57.8714 1870.97 58.4531C1870.2 58.725 1869.45 58.9916 1868.73 58.9894C1866.91 54.4992 1866.1 54.2929 1864.46 55.9188C1860.21 53.2458 1853.64 53.8057 1848.38 54.2539C1847.59 54.3209 1846.83 54.3854 1846.12 54.4363C1844.87 53.8082 1843.62 54.2727 1842.37 54.7371C1840.76 55.3342 1839.16 55.9313 1837.55 54.2065C1837.07 54.5061 1836.61 54.8101 1836.16 55.1056C1833.55 56.8107 1831.38 58.2278 1828.78 56.83C1827.45 57.8841 1826.1 56.9547 1824.73 56.0218C1822.95 54.798 1821.15 53.5681 1819.4 56.8016C1817.15 56.457 1815.45 58.1666 1813.66 59.9701C1812.21 61.4316 1810.7 62.9548 1808.78 63.4965C1803.68 65.1118 1798.58 66.1156 1793.07 67.1182C1792.46 67.4218 1791.87 67.8527 1791.3 68.2742C1789.58 69.5403 1787.97 70.7219 1786.14 68.1164C1782.28 70.6199 1778.76 70.1178 1775.09 69.2583C1773.97 67.7058 1773.24 66.3144 1773.25 65.266C1770.96 65.8331 1769.91 66.5935 1769.23 67.0858C1768.45 67.6535 1768.16 67.8649 1767.02 67.0133C1764.69 65.945 1763.8 66.6491 1762.83 67.4238C1761.93 68.1372 1760.96 68.9105 1758.71 68.4151C1756.66 67.3201 1754.38 67.6602 1752.19 67.9879C1750.69 68.2125 1749.23 68.4312 1747.91 68.1785C1746.99 67.947 1746.25 67.3168 1745.54 66.7141C1744.35 65.7054 1743.26 64.7736 1741.59 65.9171C1737.55 66.9581 1733.82 66.186 1730.13 65.4225L1730.12 65.4213C1729.53 65.2986 1728.94 65.1762 1728.35 65.0616C1725.81 64.1789 1722.41 64.3077 1719.05 64.435C1714.57 64.6043 1710.17 64.771 1707.97 62.5537C1708.09 63.1862 1707.91 62.72 1707.46 61.5928L1707.46 61.5897C1707.18 60.8998 1706.81 59.9631 1706.35 58.8795C1705.54 56.6347 1704.93 55.4098 1704.11 56.6304C1703.19 57.8457 1702.74 56.9015 1702.06 55.4947C1701.83 55.0182 1701.57 54.4885 1701.27 53.9717C1698.22 48.4586 1693.33 49.463 1689.65 50.675C1688.52 49.76 1687.31 50.1823 1686.15 50.5893C1685.24 50.9106 1684.35 51.2224 1683.54 50.8603C1681.54 51.4675 1680.01 50.9231 1678.16 50.2654C1677.55 50.0485 1676.91 49.8193 1676.2 49.615C1674.65 49.6103 1673.07 49.4037 1671.49 49.196C1668.29 48.7776 1665.07 48.3553 1661.93 49.5718C1660.01 49.8165 1658.06 49.5139 1656.1 49.2104C1653.27 48.7729 1650.43 48.3334 1647.66 49.5286C1646.28 49.606 1644.89 49.4876 1643.5 49.3693C1641.43 49.1917 1639.35 49.0142 1637.27 49.4971C1631.12 45.5631 1625.47 48.9635 1620.33 52.0556C1619.85 52.3441 1619.38 52.63 1618.91 52.907C1616.45 56.365 1615.43 56.7696 1611.97 56.3514C1611.4 58.0344 1610.78 57.3038 1610.16 56.5807C1609.66 55.9913 1609.16 55.4068 1608.7 56.1377C1607.95 54.3698 1607.19 55.5668 1606.48 56.6878L1606.48 56.6882C1606.04 57.3789 1605.62 58.0407 1605.23 57.9618C1604.64 57.8118 1604.02 58.6321 1603.39 59.4622C1602.29 60.9147 1601.16 62.397 1600.13 58.7618C1598.56 60.7747 1597.3 60.7545 1596.01 60.7338C1594.95 60.7168 1593.87 60.6995 1592.58 61.7966C1591.42 61.8616 1590.23 61.3289 1589.04 60.7929C1586.68 59.7324 1584.29 58.6587 1581.98 62.1722C1580.65 62.716 1579.46 63.7708 1578.32 64.7944C1576.47 66.4374 1574.72 68.0001 1572.59 67.24C1571.75 68.0727 1570.83 67.8067 1569.9 67.5385C1568.79 67.2176 1567.68 66.8936 1566.67 68.4452C1566 68.7781 1565.37 69.3091 1564.77 69.8214L1564.77 69.8224C1563.53 70.8688 1562.39 71.8362 1561.16 70.8747C1560.32 71.059 1559.43 70.9863 1558.53 70.9117C1557.46 70.8235 1556.35 70.7327 1555.25 71.0606C1555.06 71.1384 1554.87 71.2186 1554.68 71.2992L1554.68 71.2999L1554.67 71.3008L1554.67 71.3031C1552.38 72.2704 1549.95 73.2998 1547.7 71.0378C1544.23 75.0961 1541.8 72.4575 1539.16 69.6022L1539.15 69.585C1538.23 69.0796 1537.93 68.5761 1537.69 68.186C1537.36 67.6267 1537.16 67.3003 1535.48 67.5354C1534.81 67.8716 1534.06 67.5411 1533.29 67.1988C1532.2 66.716 1531.06 66.2099 1529.98 67.5187C1528.75 67.515 1527.52 67.947 1526.29 68.3763C1523.86 69.227 1521.47 70.067 1519.17 67.486C1517.77 70.1597 1517.06 69.4582 1516.37 68.781C1515.74 68.1695 1515.14 67.5776 1514.07 69.5091C1513.15 71.9752 1512.41 71.6256 1511.52 71.2049C1511.01 70.9656 1510.45 70.7033 1509.79 70.923C1508.86 70.7779 1508.04 70.4594 1507.23 70.149C1505.73 69.5701 1504.31 69.0198 1502.45 69.6777C1500.67 68.0096 1498.68 68.6935 1496.77 69.3517C1495.39 69.8232 1494.06 70.2816 1492.87 69.8526C1492.07 71.0482 1491.32 71.0704 1490.57 71.0926C1489.79 71.1157 1489.01 71.1388 1488.17 72.4884C1487.3 72.8495 1486.68 72.8738 1486.16 72.8946C1485.22 72.9319 1484.59 72.9572 1483.27 74.9197C1479.59 77.5586 1476.94 77.7497 1472.26 75.697C1470.08 74.3263 1468.44 74.8764 1466.56 75.5093C1465.63 75.8222 1464.64 76.1554 1463.49 76.2868C1462.43 76.2836 1461.35 75.8258 1460.26 75.3648C1458 74.4111 1455.71 73.4437 1453.5 76.4604C1451.93 77.1297 1450.73 75.837 1449.53 74.5402C1448.55 73.4838 1447.57 72.4247 1446.38 72.4211C1444.53 76.6963 1441.47 76.8909 1439.86 71.3821L1439.86 71.3813L1439.86 71.3805C1438.24 68.1156 1438.24 68.1154 1436.82 66.6844C1436.29 67.6542 1435.44 67.4452 1434.48 67.2099C1432.82 66.8031 1430.84 66.3174 1429.66 71.6997C1427.31 70.8364 1424.96 71.153 1422.6 71.4696C1420.47 71.7561 1418.34 72.0425 1416.21 71.4551C1412.98 67.9149 1409.74 69.47 1406.58 70.9882C1405.36 71.5739 1404.15 72.1541 1402.96 72.4342C1401.76 72.1908 1400.46 72.2919 1399.16 72.3936C1397.15 72.5512 1395.11 72.7103 1393.38 71.5898C1392.24 72.6155 1391.17 70.9919 1390.09 69.3677C1389.04 67.7744 1387.98 66.1803 1386.87 67.0855C1385.13 64.6394 1384.88 65.18 1383.94 67.1702C1383.78 67.5071 1383.61 67.8855 1383.4 68.298C1380.74 70.7362 1379.31 70.7319 1376.26 70.5188C1373.41 69.287 1370.35 68.8701 1367.09 69.2679C1364.02 72.1125 1361.57 73.7359 1359.12 74.7477C1357.05 77.7016 1355.07 77.4055 1352.97 77.0907C1351.74 76.9069 1350.48 76.7169 1349.12 77.1636C1346.93 77.0002 1346.43 76.5364 1345.03 75.2134C1344.6 74.8167 1344.1 74.3427 1343.44 73.7765C1343.45 73.3688 1338.33 73.4617 1338.12 75.4995C1337.52 74.3956 1336.97 74.1782 1336.39 73.9516C1335.8 73.7172 1335.18 73.4729 1334.46 72.2269C1329.76 74.0473 1324.67 72.6049 1319.38 69.9389C1317.35 70.0887 1315.35 70.6861 1313.38 71.2746C1310.2 72.2244 1307.1 73.151 1304.08 72.1349C1303.05 72.0745 1302.04 71.9336 1301.03 71.7937C1298.45 71.4358 1295.92 71.0843 1293.28 72.1022C1289.41 69.0328 1284.93 67.7961 1281.46 71.8625C1279.42 70.6333 1278.4 70.2225 1275.75 69.6029C1275.32 69.8372 1274.96 70.0551 1274.65 70.2408C1273.09 71.18 1272.9 71.2981 1270.86 68.5689C1269.36 68.4332 1267.81 68.1496 1266.23 67.8608C1262.9 67.252 1259.44 66.6199 1255.99 67.3008C1252.1 64.3675 1247.83 65.527 1243.54 66.6911C1243.34 66.7454 1243.14 66.7997 1242.94 66.8536C1240.55 68.7953 1238.23 68.8393 1236.08 68.88C1234.19 68.9159 1232.44 68.9492 1230.9 70.2826C1230.06 70.0005 1229.31 70.7834 1228.52 71.5993C1227.59 72.5683 1226.6 73.5836 1225.39 72.9159C1224.47 73.5774 1223.69 72.6157 1222.94 71.6839C1221.84 70.3283 1220.79 69.0361 1219.45 72.8979C1216.32 75.4896 1213.86 74.3954 1210.44 72.8731C1209.84 72.6059 1209.21 72.3255 1208.54 72.0495C1205.7 69.5947 1202.64 67.7508 1199.57 72.0223C1198.82 72.3479 1197.93 72.8142 1196.97 73.312C1193.77 74.9807 1189.89 77.004 1188.48 75.2726C1187.63 73.8448 1187.47 73.7036 1186.83 73.119C1186.56 72.8675 1186.19 72.5338 1185.64 71.9802C1184.22 70.1412 1181.98 69.9306 1180.34 71.5564C1179.37 71.2546 1178.42 71.5828 1177.49 71.9085C1175.87 72.4713 1174.27 73.0266 1172.6 70.3099C1169.43 68.5841 1166.18 69.5083 1162.94 70.4254C1161.19 70.9244 1159.44 71.4213 1157.71 71.4879C1156.6 70.8489 1155.95 70.7068 1155.42 70.5898C1154.59 70.4066 1154.03 70.285 1152.42 68.4142C1151.61 68.1073 1150.85 68.1541 1150.06 68.2025C1149.27 68.2513 1148.45 68.3016 1147.53 67.9917C1140.91 71.3719 1134.47 69.8511 1127.89 68.295L1127.88 68.2921C1127.36 68.17 1126.85 68.0477 1126.33 67.9275C1125.11 67.7085 1123.76 68.0703 1122.4 68.4349C1119.9 69.106 1117.37 69.7868 1115.53 66.8755C1114.31 64.8333 1113.09 63.8104 1111.25 63.3971C1109.11 62.2467 1108.17 63.6075 1106.95 65.3643C1106.43 66.1119 1105.86 66.9313 1105.13 67.6594C1103.49 70.254 1102 68.9643 1100.43 67.6082C1100.03 67.2629 1099.63 66.9132 1099.22 66.6223C1097.47 63.986 1095.4 64.3881 1093.54 64.7491C1092.81 64.8916 1092.11 65.0277 1091.47 64.9681C1090.68 61.5773 1089.87 62.0178 1089.26 62.348C1089.11 62.435 1088.96 62.5143 1088.83 62.5139C1088.44 62.5127 1088.05 62.701 1087.65 62.8894C1086.82 63.287 1085.99 63.6847 1085.16 62.2989C1083.69 63.2018 1082.72 62.3393 1081.66 61.3948C1080.82 60.6419 1079.91 59.8368 1078.65 59.833C1077.12 57.8836 1075.41 58.4895 1073.75 59.0712C1072.98 59.3431 1072.23 59.6097 1071.51 59.6076C1069.69 55.1174 1068.88 54.9111 1067.24 56.5369C1062.99 53.8639 1056.42 54.4238 1051.16 54.872C1050.37 54.939 1049.61 55.0036 1048.9 55.0544C1047.65 54.4263 1046.4 54.8908 1045.15 55.3552C1043.54 55.9523 1041.94 56.5495 1040.34 54.8246C1039.85 55.1242 1039.39 55.4283 1038.94 55.7237C1036.33 57.4288 1034.16 58.846 1031.56 57.4481C1030.24 58.5023 1028.88 57.5728 1027.51 56.6399C1025.73 55.4161 1023.93 54.1862 1022.18 57.4197C1019.93 57.0751 1018.24 58.7847 1016.44 60.5882L1016.44 60.5885C1014.99 62.0499 1013.48 63.5729 1011.56 64.1146C1006.46 65.7299 1001.36 66.7337 995.854 67.7363C995.243 68.0398 994.656 68.4705 994.082 68.8919L994.081 68.8923C992.357 70.1584 990.747 71.34 988.92 68.7346C984.616 71.5296 980.726 70.5782 976.586 69.5658C975.617 69.3288 974.635 69.0885 973.63 68.8921C967.722 67.4473 962.823 69.4709 957.713 73.9401C955.607 74.4122 953.456 74.5697 951.282 74.729C948.823 74.909 946.335 75.0913 943.845 75.7328C939.165 72.6609 934.279 70.4038 929.793 71.0017C929.39 71.2017 928.973 71.4126 928.545 71.6292C923.769 74.0465 917.598 77.1695 913.679 73.603C909.41 69.7169 906.15 69.2993 900.85 69.0795C900.418 69.5326 900.006 69.9017 899.609 70.1978C899.431 69.7311 899.335 69.3014 899.336 68.9178C897.045 69.4848 896 70.2452 895.323 70.7376C895.253 70.7885 895.187 70.8365 895.124 70.8812C894.494 70.651 893.86 70.3292 893.196 69.9919C892.709 69.7449 892.206 69.4894 891.675 69.2555C888.627 66.1886 885.361 67.4018 882.298 69.0233C880.327 67.3042 878.773 68.2272 877.039 69.2573C876.091 69.8207 875.089 70.4161 873.935 70.6288C873.608 70.9535 873.214 71.1532 872.774 71.2626C872.372 70.9955 871.997 70.677 871.63 70.3659C870.443 69.3571 869.346 68.4254 867.683 69.5688C863.642 70.6099 859.909 69.8377 856.217 69.0742C855.622 68.9511 855.028 68.8283 854.434 68.7133C851.899 67.8306 848.497 67.9594 845.134 68.0867C840.663 68.256 836.26 68.4227 834.056 66.2054C834.18 66.8384 833.994 66.3711 833.545 65.2422L833.544 65.2414C833.27 64.5515 832.897 63.6148 832.436 62.5312C831.627 60.2864 831.019 59.0615 830.2 60.2821C829.283 61.4975 828.827 60.5532 828.148 59.1465L828.147 59.1451C827.917 58.6689 827.662 58.1397 827.354 57.6235C824.313 52.1103 819.417 53.1148 815.744 54.3267C814.607 53.4118 813.403 53.834 812.242 54.2411C811.325 54.5623 810.436 54.8741 809.628 54.5121C807.633 55.1192 806.102 54.5749 804.253 53.9171C803.643 53.7003 802.999 53.4711 802.292 53.2668C800.737 53.2621 799.159 53.0554 797.575 52.8477C794.382 52.4294 791.159 52.007 788.022 53.2236C786.101 53.4682 784.147 53.1657 782.187 52.8622C779.362 52.4246 776.524 51.9851 773.751 53.1804C772.365 53.2577 770.979 53.1393 769.593 53.021C767.514 52.8435 765.435 52.6659 763.354 53.1489C757.213 49.2149 751.561 52.6153 746.422 55.7073C745.942 55.9959 745.467 56.2817 744.996 56.5587C742.54 60.0167 741.519 60.4213 738.055 60.0031C737.488 61.6862 736.867 60.9556 736.252 60.2324C735.75 59.643 735.253 59.0586 734.794 59.7894C734.042 58.0213 733.282 59.2188 732.57 60.3399C732.131 61.0307 731.711 61.6924 731.322 61.6135C730.73 61.4635 730.107 62.2838 729.477 63.1139C728.375 64.5664 727.25 66.0487 726.223 62.4135C724.648 64.4264 723.387 64.4062 722.095 64.3855C721.037 64.3685 719.959 64.3512 718.671 65.4484C717.507 65.5133 716.322 64.9807 715.13 64.4446C712.77 63.3842 710.382 62.3105 708.069 65.824C706.737 66.3677 705.554 67.4225 704.405 68.4461C702.562 70.0891 700.809 71.6518 698.676 70.8918C697.838 71.7244 696.919 71.4584 695.993 71.1903C694.884 70.8694 693.764 70.5453 692.76 72.0969C692.089 72.43 691.461 72.9616 690.856 73.4741C689.62 74.5206 688.477 75.4879 687.249 74.5264C686.407 74.7107 685.524 74.638 684.617 74.5634C683.546 74.4753 682.441 74.3844 681.336 74.7124C681.226 74.7578 681.116 74.804 681.005 74.8507L680.759 74.9548C678.473 75.9222 676.041 76.9515 673.793 74.6896C670.322 78.7478 667.886 76.1092 665.251 73.2539L665.235 73.2367C664.315 72.7313 664.015 72.2278 663.782 71.8377C663.448 71.2784 663.254 70.952 661.572 71.1871C660.894 71.5233 660.148 71.1928 659.376 70.8505C658.287 70.3677 657.145 69.8616 656.068 71.1705C654.837 71.1667 653.605 71.5987 652.38 72.0281C649.954 72.8787 647.558 73.7187 645.263 71.1378C643.862 73.8114 643.147 73.11 642.457 72.4328C641.833 71.8212 641.23 71.2294 640.16 73.1608C639.243 75.627 638.5 75.2773 637.606 74.8566C637.098 74.6173 636.541 74.3551 635.875 74.5748C634.95 74.4297 634.126 74.1111 633.322 73.8007C631.824 73.2218 630.399 72.6716 628.539 73.3295C626.763 71.6614 624.772 72.3452 622.855 73.0034C621.482 73.4749 620.147 73.9333 618.957 73.5043C618.155 74.7 617.405 74.7222 616.656 74.7444C615.876 74.7675 615.097 74.7906 614.26 76.1401C613.386 76.5012 612.773 76.5256 612.252 76.5463C611.314 76.5836 610.677 76.6089 609.36 78.5715C605.683 81.2104 603.032 81.4014 598.349 79.3488C596.171 77.978 594.534 78.5281 592.651 79.1611C591.72 79.474 590.728 79.8071 589.581 79.9385C588.518 79.9353 587.435 79.4775 586.345 79.0165C584.088 78.0628 581.8 77.0955 579.591 80.1121C578.017 80.7814 576.819 79.4887 575.618 78.1919C574.639 77.1355 573.658 76.0764 572.469 76.0728C570.621 80.3481 567.562 80.5427 565.948 75.0339L565.948 75.033C564.327 71.7674 564.327 71.7672 562.904 70.3361C562.378 71.3059 561.527 71.097 560.568 70.8616C558.911 70.4549 556.932 69.9691 555.754 75.3514C553.402 74.4882 551.046 74.8048 548.691 75.1214C546.559 75.4078 544.428 75.6943 542.3 75.1069C539.074 71.5666 535.833 73.1217 532.668 74.64C531.447 75.2257 530.238 75.8059 529.045 76.086C527.847 75.8425 526.554 75.9436 525.252 76.0453C523.235 76.2029 521.198 76.3621 519.466 75.2416C518.331 76.2672 517.256 74.6437 516.18 73.0194C515.125 71.4261 514.07 69.8321 512.956 70.7372C511.22 68.2912 510.966 68.8317 510.031 70.822C509.873 71.1589 509.695 71.5373 509.487 71.9498C506.829 74.3879 505.402 74.3836 502.345 74.1705C499.495 72.9388 496.438 72.5218 493.175 72.9196C490.108 75.7642 487.657 77.3876 485.208 78.3994C483.139 81.3534 481.162 81.0572 479.061 80.7424C477.834 80.5587 476.565 80.3686 475.211 80.8154C473.016 80.6519 472.523 80.1881 471.116 78.8651C470.694 78.4684 470.19 77.9945 469.533 77.4282C469.535 77.0205 464.417 77.1134 464.207 79.1513C463.61 78.0473 463.058 77.83 462.484 77.6034C461.889 77.3689 461.27 77.1247 460.548 75.8786C455.853 77.699 450.761 76.2567 445.469 73.5906C443.441 73.7404 441.441 74.3378 439.471 74.9263C436.292 75.8761 433.19 76.8027 430.172 75.7866C429.141 75.7262 428.126 75.5853 427.118 75.4454C424.541 75.0875 422.009 74.7361 419.368 75.7539C415.504 72.6845 411.022 71.4478 407.544 75.5143C405.509 74.285 404.491 73.8742 401.843 73.2547C401.405 73.489 401.044 73.7068 400.737 73.8925C399.183 74.8317 398.988 74.9498 396.953 72.2206C395.445 72.0849 393.895 71.8014 392.317 71.5126C388.989 70.9037 385.534 70.2716 382.075 70.9525C378.188 68.0192 373.917 69.1788 369.629 70.3429L369.416 70.4008C369.287 70.4357 369.158 70.4706 369.029 70.5053C366.641 72.447 364.316 72.4911 362.171 72.5317C360.278 72.5676 358.524 72.6009 356.991 73.9343C356.153 73.6522 355.397 74.4352 354.61 75.251C353.674 76.22 352.694 77.2353 351.479 76.5676C350.563 77.2292 349.784 76.2674 349.029 75.3357C347.931 73.98 346.884 72.6878 345.543 76.5497C342.414 79.1413 339.954 78.0471 336.531 76.5249L336.531 76.5245C335.93 76.2574 335.3 75.9771 334.631 75.7012C331.785 73.2464 328.732 71.4025 325.661 75.6741C324.911 75.9995 324.017 76.4655 323.062 76.9631L323.061 76.9635L323.061 76.9637C319.858 78.6324 315.975 80.6557 314.567 78.9243C313.716 77.4966 313.562 77.3554 312.92 76.7708L312.92 76.7705C312.644 76.519 312.278 76.1854 311.728 75.6319C310.306 73.7929 308.065 73.5823 306.429 75.2081C305.458 74.9063 304.513 75.2346 303.575 75.5603C301.955 76.1231 300.356 76.6783 298.686 73.9616C295.522 72.2359 292.266 73.1601 289.034 74.0771C287.275 74.5761 285.524 75.073 283.8 75.1396C282.69 74.5007 282.042 74.3586 281.509 74.2416C280.675 74.0584 280.12 73.9368 278.509 72.0659C277.698 71.7591 276.937 71.8059 276.15 71.8542C275.357 71.903 274.538 71.9533 273.617 71.6434C266.995 75.0237 260.562 73.5028 253.981 71.9467C253.46 71.8236 252.938 71.7003 252.416 71.5792C251.196 71.3602 249.849 71.722 248.49 72.0867C245.991 72.7577 243.455 73.4385 241.614 70.5273C240.397 68.4851 239.177 67.4621 237.344 67.0489C235.202 65.8985 234.257 67.2592 233.036 69.016L233.036 69.0161C232.516 69.7638 231.947 70.5831 231.215 71.3112C229.582 73.9057 228.091 72.616 226.523 71.26C226.123 70.9146 225.719 70.5649 225.306 70.274C223.56 67.6377 221.49 68.0399 219.632 68.4009C218.899 68.5433 218.198 68.6794 217.564 68.6198C216.767 65.229 215.959 65.6696 215.354 65.9997L215.354 65.9998C215.194 66.0867 215.049 66.166 214.921 66.1656C214.528 66.1644 214.134 66.3528 213.741 66.5411C212.909 66.9388 212.078 67.3364 211.252 65.9506C209.775 66.8535 208.808 65.991 207.749 65.0466C206.905 64.2936 206.002 63.4886 204.736 63.4847C203.214 61.5353 201.494 62.1413 199.844 62.7229C199.072 62.9948 198.316 63.2615 197.602 63.2593C195.78 58.7691 194.966 58.5628 193.33 60.1886C189.081 57.5156 182.509 58.0755 177.246 58.5238C176.46 58.5908 175.702 58.6553 174.986 58.7061C173.74 58.0781 172.49 58.5425 171.24 59.0069C169.632 59.6041 168.025 60.2012 166.425 58.4764C165.943 58.7758 165.478 59.0797 165.027 59.375L165.026 59.3754C162.419 61.0805 160.253 62.4977 157.651 61.0999C156.325 62.154 154.967 61.2246 153.603 60.2916C151.815 59.0678 150.018 57.838 148.273 61.0715C146.022 60.7268 144.324 62.4364 142.534 64.2399C141.082 65.7014 139.57 67.2246 137.652 67.7663C132.55 69.3817 127.451 70.3855 121.943 71.388C121.332 71.6916 120.745 72.1225 120.171 72.5439L120.171 72.544C118.446 73.8101 116.837 74.9917 115.009 72.3863C110.706 75.1813 106.815 74.2299 102.675 73.2175C101.706 72.9805 100.724 72.7402 99.7188 72.5438C93.8111 71.099 88.9123 73.1227 83.8021 77.5919C81.6956 78.0639 79.5451 78.2214 77.3708 78.3807C74.9126 78.5608 72.424 78.7431 69.934 79.3845C65.2544 76.3126 60.3685 74.0555 55.8817 74.6535C55.4787 74.8534 55.0619 75.0643 54.6339 75.2809C49.8576 77.6982 43.6868 80.8212 39.7685 77.2547C35.4992 73.3687 32.2386 72.9511 26.9388 72.7312C23.8568 75.9645 21.7881 74.9144 19.2847 73.6437C18.7979 73.3966 18.2947 73.1412 17.7644 72.9073C14.7157 69.8403 11.4502 71.0535 8.38737 72.675C6.41574 70.9559 4.86209 71.879 3.12826 72.9091L3.12824 72.9091C2.18003 73.4724 1.17793 74.0678 0.0240927 74.2805C-1.16827 75.4656 -3.25674 74.9844 -5.19551 74.5377L-5.19554 74.5377C-6.58157 74.2183 -7.89109 73.9166 -8.74197 74.254C-8.92771 74.3276 -9.06932 74.4249 -9.187 74.5058C-9.52303 74.7367 -9.66393 74.8336 -10.08 73.8619L-10.1027 81.3658C-10.103 81.4678 -10.1031 81.5675 -10.1029 81.6649L-10.1245 88.819C-10.1259 89.2566 -10.1223 89.65 -10.1157 90.0126L-10.1296 90.2245L-10.1117 90.2131C-10.0995 90.7762 -10.0803 91.2674 -10.0618 91.7425C-10.0022 93.2676 -9.9491 94.6284 -10.1514 97.6777C-9.92991 97.5369 -9.6979 97.3565 -9.44873 97.1628C-8.01948 96.0515 -6.02525 94.501 -2.21505 97.4635C-0.940862 98.4542 0.154302 98.8575 1.37686 99.0651C1.98536 100.086 3.00158 101.108 3.6181 99.4795C4.71983 99.4829 5.75934 99.972 6.78501 100.455C8.41638 101.222 10.0128 101.974 11.7689 100.727L11.8867 100.724C17.9508 100.54 23.0073 100.386 26.8405 105.461C29.6822 109.547 35.795 110.585 40.6926 108.969C41.2836 108.676 41.8752 108.194 42.4668 107.713C43.9189 106.532 45.371 105.351 46.8146 106.949C48.6171 108.623 50.3316 108.021 52.0807 107.406C52.8961 107.12 53.7191 106.831 54.562 106.768L54.8637 106.721C59.7832 105.951 62.8096 105.477 67.2193 100.895C68.4624 99.1969 70.6391 99.4981 72.4183 99.7442C72.9831 99.8224 73.5078 99.895 73.9499 99.8963C76.1441 97.8713 78.3301 98.602 80.516 99.3327C81.1813 99.5551 81.8466 99.7775 82.5121 99.9222C84.1428 99.6013 85.7142 99.7433 87.2894 99.8857H87.2894C88.6699 100.01 90.0532 100.135 91.482 99.9494C93.5381 101.558 95.3445 100.659 97.1827 99.7438C98.6175 99.0295 100.072 98.3055 101.679 98.7572C103.942 99.8432 106.21 99.3867 108.478 98.9301C110.494 98.5243 112.51 98.1185 114.522 98.7961C121.052 96.7773 124.318 95.3603 129.626 92.7263C131.736 89.6631 132.937 90.5664 134.561 91.7871C134.986 92.1066 135.44 92.4479 135.946 92.7455C138.179 95.81 139.401 96.4252 141.442 95.4121C142.084 95.4141 142.888 95.2347 143.765 95.039L143.765 95.039L143.765 95.0389C145.673 94.6132 147.925 94.1106 149.597 95.233C150.884 93.5284 152.163 94.2848 153.442 95.0412C154.605 95.7289 155.768 96.4165 156.937 95.2552C158.089 95.8885 159.191 95.6028 160.294 95.3167C161.333 95.0471 162.374 94.7772 163.46 95.2749C163.854 94.9704 164.192 94.6282 164.494 94.3226C165.601 93.2024 166.22 92.575 167.331 96.1021C168.547 98.3481 169.156 99.3692 170.787 99.1703C172.1 100.851 172.927 100.278 173.84 99.6454C174.481 99.2012 175.164 98.7275 176.088 98.9825C177.723 97.8662 179.2 98.0746 180.677 98.2829C182.155 98.4912 183.632 98.6995 185.267 97.5833C185.947 97.2941 186.674 96.9125 187.42 96.5211C189.806 95.269 192.384 93.9162 194.244 95.1643C196.329 93.0924 196.789 92.9283 198.883 92.1819L198.883 92.1817L198.884 92.1814C199.254 92.0493 199.676 91.8991 200.166 91.7168C201.843 90.6068 203.555 91.3607 205.291 92.1248C207.363 93.0369 209.468 93.9634 211.583 91.7514C212.569 92.3835 213.916 91.9071 215.288 91.422C217.027 90.8068 218.806 90.1777 219.941 91.7767C221.211 91.8712 221.632 92.246 222.068 92.6338C222.611 93.1173 223.177 93.6211 225.44 93.6279C226.997 93.9248 228.603 93.6171 230.233 93.3046C232.015 92.9631 233.826 92.6159 235.635 93.0473C238.265 91.1597 240.052 92.3985 242.048 93.7828C242.843 94.3337 243.67 94.9077 244.598 95.3167C246.28 95.8268 247.684 96.0581 249.5 96.3569L249.502 96.3573C249.884 96.4202 250.285 96.4862 250.71 96.5583C254.166 97.573 257.565 97.1828 260.97 96.792C263.786 96.4688 266.606 96.1451 269.465 96.6151C271.083 98.4935 272.786 97.8468 274.471 97.2066C275.536 96.8019 276.594 96.3999 277.62 96.6398C279.522 95.9457 281.369 97.0167 283.191 98.0732C285.085 99.1709 286.952 100.253 288.824 99.3238C289.138 99.7443 289.072 100.542 288.989 101.55C288.911 102.501 288.817 103.64 289.011 104.828C289.55 104.776 290.097 104.717 290.648 104.657C294.265 104.264 298.089 103.848 301.446 105.274C301.285 107.581 303.571 107.457 305.578 107.348C306.23 107.312 306.852 107.278 307.352 107.33C308.447 107.272 309.561 107.033 310.687 106.792C313.336 106.223 316.055 105.64 318.768 107.365C321.339 106.992 323.863 107.241 326.385 107.489C329.265 107.773 332.14 108.057 335.077 107.414C336.057 107.262 337.155 106.915 338.309 106.551C341.714 105.475 345.596 104.248 348.328 107.454C349.266 107.379 350.143 107.843 351.04 108.318C352.483 109.081 353.978 109.873 355.868 108.496C357.434 109.104 358.649 107.713 359.803 106.392C360.599 105.48 361.367 104.602 362.2 104.438C363.453 103.192 364.122 101.998 364.638 101.073C365.133 100.189 365.49 99.5514 366.088 99.3538C366.537 98.9085 367.01 98.8983 367.561 98.8864C368.519 98.8658 369.708 98.8401 371.398 96.516C371.739 96.3966 372.112 96.2595 372.511 96.1131L372.512 96.1128C376.163 94.772 381.944 92.6488 385.058 96.1497C387.179 97.8575 387.629 97.9824 389.077 98.3844C389.711 98.5604 390.536 98.7895 391.776 99.2278C393.052 98.2769 393.991 99.0362 394.915 99.7832C395.767 100.472 396.606 101.15 397.684 100.469C399.783 101.977 402.527 101.274 405.235 100.58C408.039 99.8615 410.803 99.1531 412.769 100.922C413.563 101.482 414.077 102.196 414.555 102.86C415.3 103.894 415.955 104.805 417.446 104.809C418.238 104.812 419.081 104.916 419.948 105.023C421.534 105.22 423.201 105.426 424.784 105.035C430.485 107.295 436.808 106.295 442.52 105.089C443.603 105.237 444.631 106.356 445.654 107.469C447.519 109.498 449.364 111.506 451.483 107.562C452.715 108.183 453.951 107.584 455.187 106.985C456.809 106.199 458.431 105.413 460.045 107.385C462.895 109.024 465.954 108.626 468.811 107.411C469.423 106.077 470.028 106.769 470.633 107.461C471.044 107.93 471.454 108.399 471.867 108.236C472.503 108.45 472.992 108.443 473.453 108.436C474.322 108.423 475.091 108.412 476.551 109.881C478.069 109.961 479.698 110.551 481.367 111.155C484.18 112.172 487.105 113.231 489.796 111.959C493.783 110.061 498.011 110.401 502.295 110.747C503.495 110.843 504.699 110.941 505.904 110.989C507.468 110.747 508.967 110.073 510.413 109.422C512.549 108.462 514.57 107.553 516.513 108.167C517.591 106.62 518.595 106.398 519.693 106.156C520.472 105.983 521.298 105.801 522.231 105.127C523.501 105.767 524.896 105.313 526.323 104.85C528.096 104.273 529.918 103.681 531.608 105.155C531.766 104.998 531.951 104.573 532.15 104.117L532.15 104.116L532.151 104.115C532.725 102.796 533.409 101.224 533.851 105.162C534.162 105.132 534.401 105.101 534.591 105.077C534.975 105.029 535.154 105.006 535.3 105.064C535.428 105.114 535.531 105.225 535.724 105.433L535.724 105.433L535.725 105.434C535.92 105.644 536.207 105.951 536.701 106.394C539.752 108.645 541.995 108.652 545.464 107.643C547.521 106.793 549.502 107.489 551.456 108.176C554.155 109.124 556.803 110.054 559.533 106.87C561.712 106.877 563.862 106.021 566.018 105.162C569.307 103.852 572.611 102.536 576.053 104.27C577.777 106.293 582.496 105.835 586.939 105.403C591.923 104.919 596.559 104.468 596.226 107.593C600.913 108.015 605.608 106.194 610.099 104.17C613.446 102.324 616.859 103.332 620.21 104.322C622.38 104.963 624.524 105.597 626.608 105.443C627.637 104.829 628.612 105.096 629.561 105.356C630.495 105.611 631.405 105.86 632.317 105.256C633.482 104.292 634.368 104.062 635.197 103.847C636.114 103.609 636.96 103.39 638.034 102.216C638.785 102.218 639.634 102.27 640.53 102.324C642.797 102.462 645.365 102.618 647.413 102.04C647.919 101.812 648.425 101.48 648.929 101.15L648.93 101.149C650.662 100.014 652.367 98.8977 653.936 102.06C656.407 100.946 658.316 101.804 660.314 102.703C661.949 103.437 663.644 104.199 665.755 103.93C666.163 103.728 666.572 103.412 666.98 103.096C667.798 102.464 668.615 101.833 669.43 102.107C671.156 103.686 672.042 102.103 673.015 100.364C673.302 99.8501 673.598 99.3227 673.924 98.8589C675.876 96.0469 678.697 96.9892 681.713 97.9968C685.025 99.1031 688.572 100.288 691.463 96.6696C693.613 96.0626 695.965 96.3282 698.291 96.5909C700.601 96.8519 702.885 97.1099 704.919 96.5065C708.074 95.9059 711.328 96.0159 714.633 96.1276C717.952 96.2398 721.323 96.3537 724.696 95.751C725.584 95.4212 726.23 95.2262 726.754 95.0682C728.157 94.6449 728.682 94.4865 730.617 92.7112C731.088 92.6764 731.641 92.6291 732.25 92.5771C735.072 92.3359 739.076 91.9937 741.423 92.3362C742.111 92.1091 742.798 92.5404 743.473 92.965C744.6 93.6735 745.698 94.3632 746.725 91.9446C748.302 89.6651 751.34 90.7895 753.719 91.6702C754.737 92.047 755.634 92.3792 756.245 92.3811C762.167 89.1374 764.264 89.6937 770.374 91.7507C775.07 89.3187 777.902 90.2043 781.971 92.8667C782.431 92.8023 783.318 92.5062 784.329 92.1687C786.454 91.4593 789.126 90.5669 789.538 91.2588C789.797 91.6928 789.799 91.7209 789.809 91.8606C789.823 92.0494 789.851 92.4424 790.548 94.3196C792.58 96.5681 800.734 96.7966 802.779 94.7643C805.228 96.9206 806.532 95.7218 808.073 94.305C808.579 93.8401 809.11 93.3517 809.716 92.9507C812.371 91.1241 814.616 90.3155 817.468 91.1395C818.162 91.0722 819.162 91.2656 820.261 91.4779C822.389 91.8895 824.886 92.3722 826.234 91.166C826.952 93.1581 827.194 93.0618 827.667 92.8737C827.698 92.8614 827.73 92.8488 827.763 92.8363C827.794 92.8245 827.826 92.8128 827.86 92.8018C828.496 93.122 828.884 93.193 829.508 93.3072C829.683 93.3392 829.877 93.3747 830.101 93.4201C832.104 92.4925 834.014 93.6592 835.894 94.8075C836.888 95.4141 837.872 96.0156 838.858 96.3005C840.614 96.8918 842.443 96.4176 844.297 95.9367C846.959 95.2464 849.675 94.542 852.311 96.9528C856.61 97.1311 860.377 95.6984 864.37 94.18C865.299 93.8265 866.241 93.4683 867.205 93.1247C867.995 92.864 868.802 92.6735 869.622 92.5381C870.248 92.8092 870.936 93.2206 871.696 93.8118C872.97 94.8025 874.065 95.2058 875.288 95.4133C875.896 96.4344 876.912 97.4567 877.529 95.8278C878.631 95.8312 879.67 96.3203 880.696 96.803C882.327 97.5706 883.924 98.3218 885.68 97.0756L885.798 97.072C891.862 96.888 896.918 96.7346 900.751 101.81C903.593 105.895 909.706 106.933 914.604 105.317C915.195 105.024 915.786 104.543 916.378 104.062C917.83 102.881 919.282 101.7 920.726 103.297C922.528 104.971 924.242 104.369 925.992 103.754C926.807 103.468 927.63 103.179 928.473 103.117L928.775 103.069C933.694 102.299 936.721 101.825 941.13 97.2435C942.373 95.5452 944.55 95.8463 946.329 96.0925C946.894 96.1707 947.419 96.2433 947.861 96.2446C950.055 94.2195 952.241 94.9503 954.427 95.681C955.092 95.9034 955.757 96.1258 956.423 96.2705C958.054 95.9495 959.625 96.0916 961.2 96.2339C962.581 96.3587 963.964 96.4838 965.393 96.2977C967.449 97.9067 969.255 97.0073 971.094 96.0921C972.528 95.3778 973.982 94.6538 975.59 95.1054C977.853 96.1915 980.121 95.7349 982.389 95.2784C984.405 94.8726 986.42 94.4667 988.433 95.1443C994.963 93.1256 998.229 91.7086 1003.54 89.0746C1005.65 86.0113 1006.85 86.9147 1008.47 88.1354L1008.47 88.1357C1008.9 88.4552 1009.35 88.7963 1009.86 89.0937C1012.09 92.1582 1013.31 92.7735 1015.35 91.7604C1016 91.7623 1016.8 91.5829 1017.68 91.3872C1019.58 90.9614 1021.84 90.4589 1023.51 91.5812C1024.79 89.8767 1026.07 90.6331 1027.35 91.3895C1028.52 92.0771 1029.68 92.7648 1030.85 91.6035C1032 92.2367 1033.1 91.9511 1034.2 91.6649C1035.24 91.3954 1036.28 91.1255 1037.37 91.6232C1037.77 91.3186 1038.1 90.9764 1038.4 90.6709C1039.51 89.5506 1040.13 88.9233 1041.24 92.4503C1042.46 94.6963 1043.07 95.7174 1044.7 95.5185C1046.01 97.1995 1046.84 96.6266 1047.75 95.9936C1048.39 95.5494 1049.08 95.0757 1050 95.3307C1051.63 94.2145 1053.11 94.4228 1054.59 94.6311C1056.07 94.8395 1057.54 95.0478 1059.18 93.9316C1059.86 93.6425 1060.58 93.2611 1061.33 92.8699L1061.33 92.8694C1063.72 91.6173 1066.29 90.2645 1068.15 91.5126C1070.24 89.4407 1070.7 89.2766 1072.79 88.5301C1073.16 88.398 1073.59 88.2476 1074.08 88.0651C1075.75 86.955 1077.47 87.709 1079.2 88.4731C1081.27 89.3852 1083.38 90.3117 1085.49 88.0996C1086.48 88.7318 1087.83 88.2554 1089.2 87.7703C1090.94 87.1551 1092.72 86.5259 1093.85 88.1249C1095.12 88.2195 1095.54 88.5942 1095.98 88.9821C1096.52 89.4655 1097.09 89.9694 1099.35 89.9762C1100.91 90.2731 1102.51 89.9653 1104.14 89.6529C1105.93 89.3113 1107.74 88.9642 1109.55 89.3955C1112.18 87.5079 1113.96 88.7468 1115.96 90.131L1115.96 90.1317C1116.75 90.6824 1117.58 91.2561 1118.51 91.665C1120.19 92.1751 1121.6 92.4063 1123.41 92.7052L1123.43 92.7076C1123.8 92.7699 1124.2 92.8352 1124.62 92.9066C1128.08 93.9213 1131.48 93.5311 1134.88 93.1403C1137.7 92.817 1140.52 92.4934 1143.38 92.9634C1144.99 94.8418 1146.7 94.195 1148.38 93.5548C1149.45 93.1502 1150.51 92.7481 1151.53 92.9881C1153.43 92.294 1155.28 93.365 1157.1 94.4215C1159 95.5192 1160.86 96.6012 1162.74 95.672C1163.05 96.0926 1162.98 96.8899 1162.9 97.8984C1162.82 98.8495 1162.73 99.9886 1162.92 101.177C1163.46 101.124 1164.01 101.065 1164.56 101.005C1168.18 100.612 1172 100.196 1175.36 101.622C1175.2 103.93 1177.48 103.805 1179.49 103.696C1180.14 103.661 1180.76 103.627 1181.26 103.678C1182.36 103.621 1183.47 103.382 1184.6 103.14C1187.25 102.572 1189.97 101.988 1192.68 103.713C1195.25 103.34 1197.77 103.589 1200.3 103.838C1203.18 104.122 1206.05 104.405 1208.99 103.762C1209.97 103.61 1211.07 103.263 1212.22 102.899C1215.62 101.823 1219.51 100.596 1222.24 103.802C1223.18 103.727 1224.05 104.191 1224.95 104.666C1226.39 105.43 1227.89 106.221 1229.78 104.844C1231.34 105.452 1232.56 104.061 1233.71 102.74C1234.51 101.829 1235.28 100.951 1236.11 100.787C1237.36 99.5405 1238.03 98.3459 1238.55 97.4216C1239.04 96.5368 1239.4 95.8997 1240 95.7021C1240.45 95.2568 1240.92 95.2465 1241.47 95.2347C1242.43 95.214 1243.62 95.1884 1245.31 92.8643C1245.65 92.7452 1246.02 92.6085 1246.42 92.4625L1246.42 92.461C1250.07 91.1203 1255.85 88.9971 1258.97 92.4979C1261.09 94.2057 1261.54 94.3307 1262.99 94.7327C1263.62 94.9087 1264.45 95.1378 1265.69 95.576C1266.96 94.6252 1267.9 95.3845 1268.83 96.1315C1269.68 96.82 1270.52 97.4982 1271.59 96.817C1273.69 98.3255 1276.44 97.6221 1279.15 96.9283C1281.95 96.2097 1284.71 95.5014 1286.68 97.2704C1287.47 97.8301 1287.99 98.5446 1288.47 99.2079C1289.21 100.243 1289.87 101.153 1291.36 101.158C1292.15 101.16 1292.99 101.264 1293.86 101.372C1295.45 101.568 1297.11 101.774 1298.69 101.384C1304.4 103.643 1310.72 102.643 1316.43 101.437C1317.51 101.585 1318.54 102.704 1319.56 103.817C1321.43 105.846 1323.27 107.854 1325.39 103.911C1326.63 104.532 1327.86 103.933 1329.1 103.333C1330.72 102.547 1332.34 101.761 1333.96 103.733C1336.81 105.372 1339.86 104.974 1342.72 103.759C1343.33 102.425 1343.94 103.117 1344.54 103.809C1344.95 104.278 1345.37 104.748 1345.78 104.584C1346.41 104.798 1346.9 104.791 1347.36 104.784C1348.23 104.771 1349 104.76 1350.46 106.229C1351.98 106.309 1353.61 106.899 1355.28 107.503C1358.09 108.521 1361.02 109.579 1363.71 108.308C1367.69 106.409 1371.92 106.75 1376.21 107.095C1377.41 107.192 1378.61 107.289 1379.81 107.337C1381.38 107.095 1382.88 106.421 1384.32 105.771C1386.46 104.81 1388.48 103.902 1390.42 104.515C1391.5 102.969 1392.51 102.747 1393.6 102.504C1394.38 102.332 1395.21 102.149 1396.14 101.475C1397.41 102.115 1398.81 101.661 1400.23 101.198C1402.01 100.622 1403.83 100.029 1405.52 101.503C1405.68 101.347 1405.86 100.921 1406.06 100.465L1406.06 100.463C1406.64 99.144 1407.32 97.572 1407.76 101.51C1408.07 101.48 1408.31 101.45 1408.5 101.426C1408.89 101.377 1409.06 101.354 1409.21 101.412C1409.34 101.463 1409.44 101.574 1409.63 101.781C1409.83 101.991 1410.12 102.299 1410.61 102.742C1413.66 104.993 1415.91 105 1419.37 103.991C1421.43 103.142 1423.41 103.837 1425.37 104.524C1428.07 105.472 1430.71 106.403 1433.44 103.219C1435.62 103.225 1437.77 102.369 1439.93 101.51C1443.22 100.2 1446.52 98.8843 1449.96 100.619C1451.69 102.641 1456.41 102.183 1460.85 101.751C1465.83 101.267 1470.47 100.817 1470.14 103.941C1474.82 104.363 1479.52 102.543 1484.01 100.518C1487.36 98.672 1490.77 99.6802 1494.12 100.67C1496.29 101.311 1498.44 101.945 1500.52 101.791C1501.55 101.178 1502.52 101.444 1503.47 101.704C1504.41 101.96 1505.32 102.208 1506.23 101.604C1507.39 100.64 1508.28 100.41 1509.11 100.195C1510.02 99.9575 1510.87 99.7381 1511.95 98.5639C1512.7 98.5662 1513.54 98.6178 1514.44 98.6724C1516.71 98.8103 1519.28 98.9666 1521.32 98.3885C1521.83 98.1603 1522.34 97.8287 1522.84 97.4985L1522.84 97.4976C1524.57 96.3627 1526.28 95.2459 1527.85 98.4082C1530.32 97.2944 1532.23 98.1525 1534.23 99.0509C1535.86 99.7857 1537.55 100.547 1539.67 100.279C1540.07 100.076 1540.48 99.7601 1540.89 99.4443C1541.71 98.8126 1542.53 98.1808 1543.34 98.4551C1545.07 100.034 1545.95 98.4517 1546.93 96.7122C1547.21 96.1984 1547.51 95.6709 1547.84 95.2071C1549.79 92.3952 1552.61 93.3375 1555.62 94.3451C1558.94 95.4514 1562.48 96.6363 1565.37 93.0179C1567.52 92.4108 1569.88 92.6765 1572.2 92.9392C1574.51 93.2001 1576.8 93.4581 1578.83 92.8548C1581.98 92.2541 1585.24 92.3641 1588.54 92.4758C1591.86 92.588 1595.23 92.7019 1598.61 92.0993C1599.49 91.7694 1600.14 91.5745 1600.66 91.4164C1602.07 90.9932 1602.59 90.8348 1604.53 89.0595C1604.66 89.0498 1604.8 89.0391 1604.94 89.0276C1605.07 89.0172 1605.2 89.0062 1605.34 88.9946L1605.84 88.9525L1606.16 88.9255L1606.16 88.9254C1608.98 88.6842 1612.99 88.342 1615.33 88.6845C1616.02 88.4574 1616.71 88.8887 1617.38 89.3133C1618.51 90.0217 1619.61 90.7114 1620.64 88.2928C1622.21 86.0134 1625.25 87.1378 1627.63 88.0185C1628.65 88.3953 1629.54 88.7275 1630.16 88.7293C1636.08 85.4857 1638.17 86.042 1644.28 88.099C1648.98 85.667 1651.81 86.5526 1655.88 89.2149C1656.34 89.1506 1657.23 88.8547 1658.24 88.5173L1658.24 88.5169C1659.18 88.2034 1660.22 87.8542 1661.14 87.6218C1661.16 88.7359 1661.14 90.0423 1661 92.1734C1661.22 92.0326 1661.45 91.8522 1661.7 91.6585C1662.4 91.1197 1663.22 90.4776 1664.32 90.2968L1664.41 90.5272L1664.46 90.6678C1665.35 91.6501 1667.4 92.2468 1669.61 92.438C1670.61 93.0884 1671.53 93.3905 1672.53 93.5608C1673.14 94.5819 1674.15 95.6042 1674.77 93.9753C1675.87 93.9786 1676.91 94.4678 1677.94 94.9504C1679.57 95.7181 1681.16 96.4693 1682.92 95.223L1683.04 95.2195C1689.1 95.0355 1694.16 94.8821 1697.99 99.9572C1700.83 104.043 1706.95 105.081 1711.84 103.465C1712.44 103.171 1713.03 102.69 1713.62 102.209C1715.07 101.028 1716.52 99.847 1717.97 101.445C1719.77 103.118 1721.48 102.516 1723.23 101.902C1724.05 101.616 1724.87 101.326 1725.71 101.264L1726.02 101.217C1730.93 100.447 1733.96 99.9729 1738.37 95.3909C1739.61 93.6926 1741.79 93.9938 1743.57 94.24C1744.13 94.3181 1744.66 94.3907 1745.1 94.392C1747.3 92.367 1749.48 93.0977 1751.67 93.8285C1752.33 94.0509 1753 94.2733 1753.66 94.418C1755.29 94.097 1756.87 94.239 1758.44 94.3814C1759.82 94.5062 1761.2 94.6312 1762.63 94.4451C1764.69 96.0542 1766.5 95.1548 1768.33 94.2396C1769.77 93.5252 1771.22 92.8012 1772.83 93.2529C1775.09 94.339 1777.36 93.8824 1779.63 93.4258C1781.65 93.02 1783.66 92.6142 1785.67 93.2918C1792.2 91.2731 1795.47 89.856 1800.78 87.222C1802.89 84.1588 1804.09 85.0622 1805.71 86.2828C1806.14 86.6024 1806.59 86.9436 1807.1 87.2412C1809.33 90.3057 1810.55 90.9209 1812.59 89.9078C1813.24 89.9098 1814.04 89.7303 1814.92 89.5346C1816.82 89.1089 1819.08 88.6064 1820.75 89.7287C1822.04 88.0241 1823.31 88.7805 1824.59 89.5369C1825.76 90.2246 1826.92 90.9122 1828.09 89.7509C1829.24 90.3842 1830.34 90.0985 1831.45 89.8124C1832.48 89.5429 1833.53 89.273 1834.61 89.7707C1835.01 89.4661 1835.34 89.1239 1835.65 88.8184C1836.75 87.6981 1837.37 87.0707 1838.48 90.5978C1839.7 92.8438 1840.31 93.8649 1841.94 93.666C1843.25 95.347 1844.08 94.774 1844.99 94.1411C1845.63 93.6969 1846.32 93.2232 1847.24 93.4782C1848.87 92.362 1850.35 92.5703 1851.83 92.7786C1853.31 92.9869 1854.78 93.1952 1856.42 92.079C1857.1 91.7898 1857.83 91.4082 1858.57 91.0168C1860.96 89.7647 1863.54 88.412 1865.4 89.66C1867.48 87.5881 1867.94 87.424 1870.03 86.6776C1870.41 86.5454 1870.83 86.395 1871.32 86.2125C1872.99 85.1025 1874.71 85.8564 1876.44 86.6205C1878.52 87.5326 1880.62 88.4591 1882.73 86.2471C1883.72 86.8792 1885.07 86.4028 1886.44 85.9177C1888.18 85.3026 1889.96 84.6734 1891.09 86.2724C1892.36 86.367 1892.78 86.7417 1893.22 87.1295C1893.76 87.613 1894.33 88.1168 1896.59 88.1237C1898.15 88.4205 1899.75 88.1128 1901.38 87.8003C1903.17 87.4588 1904.98 87.1116 1906.79 87.543C1909.42 85.6554 1911.2 86.8942 1913.2 88.2785C1913.99 88.8294 1914.82 89.4034 1915.75 89.8125C1917.43 90.3225 1918.84 90.5538 1920.65 90.8526L1921.23 90.9476C1921.43 90.9818 1921.64 91.0171 1921.86 91.0541C1925.32 92.0687 1928.72 91.6785 1932.12 91.2877C1934.94 90.9645 1937.76 90.6408 1940.62 91.1108C1942.24 92.9893 1943.94 92.3425 1945.62 91.7023C1946.69 91.2976 1947.75 90.8956 1948.77 91.1355C1950.67 90.4414 1952.52 91.5124 1954.34 92.5689C1956.24 93.6666 1958.1 94.7487 1959.98 93.8195C1960.29 94.2401 1960.22 95.0374 1960.14 96.0459C1960.06 96.9971 1959.97 98.1361 1960.16 99.324C1960.7 99.2717 1961.25 99.2124 1961.8 99.1525C1965.42 98.7594 1969.24 98.3439 1972.6 99.7693C1972.44 102.077 1974.72 101.953 1976.73 101.844C1977.38 101.808 1978 101.774 1978.5 101.826C1979.6 101.768 1980.71 101.529 1981.84 101.287C1984.49 100.719 1987.21 100.136 1989.92 101.86C1992.49 101.487 1995.02 101.736 1997.54 101.985C2000.42 102.269 2003.29 102.553 2006.23 101.91C2007.21 101.758 2008.31 101.411 2009.46 101.046C2012.87 99.9705 2016.75 98.7436 2019.48 101.95C2020.42 101.874 2021.29 102.338 2022.19 102.813C2023.63 103.577 2025.13 104.369 2027.02 102.992C2028.59 103.6 2029.8 102.209 2030.95 100.888C2031.75 99.9761 2032.52 99.098 2033.35 98.934C2034.61 97.6879 2035.27 96.4933 2035.79 95.569C2036.29 94.6842 2036.64 94.0471 2037.24 93.8495C2037.69 93.4042 2038.16 93.394 2038.71 93.3821C2039.67 93.3615 2040.86 93.3358 2042.55 91.0117C2042.89 90.8923 2043.26 90.7551 2043.66 90.6085C2047.31 89.2678 2053.1 87.1445 2056.21 90.6454C2058.33 92.3532 2058.78 92.4781 2060.23 92.8802C2060.86 93.0561 2061.69 93.2852 2062.93 93.7235C2064.2 92.7727 2065.14 93.5319 2066.07 94.2789C2066.92 94.9675 2067.76 95.6456 2068.84 94.9645C2070.93 96.4729 2073.68 95.7696 2076.39 95.0757C2079.19 94.3572 2081.96 93.6489 2083.92 95.4178C2084.71 95.9776 2085.23 96.692 2085.71 97.3553C2086.45 98.3901 2087.11 99.3006 2088.6 99.3051C2089.39 99.3075 2090.23 99.4118 2091.1 99.5191C2092.69 99.7155 2094.35 99.9219 2095.94 99.5312C2101.64 101.791 2107.96 100.791 2113.67 99.5849C2114.75 99.7325 2115.78 100.852 2116.81 101.964C2118.67 103.993 2120.52 106.001 2122.63 102.058C2123.87 102.679 2125.1 102.08 2126.34 101.481C2127.96 100.695 2129.58 99.9085 2131.2 101.88C2134.05 103.52 2137.11 103.121 2139.96 101.907C2140.57 100.573 2141.18 101.265 2141.78 101.956C2142.2 102.426 2142.61 102.895 2143.02 102.731C2143.65 102.946 2144.14 102.938 2144.6 102.932C2145.47 102.919 2146.24 102.908 2147.7 104.376C2149.22 104.457 2150.85 105.046 2152.52 105.65C2155.33 106.668 2158.26 107.726 2160.95 106.455C2164.93 104.556 2169.16 104.897 2173.45 105.242C2174.65 105.339 2175.85 105.436 2177.06 105.485C2178.62 105.242 2180.12 104.568 2181.56 103.918C2183.7 102.958 2185.72 102.049 2187.67 102.663C2188.74 101.116 2189.75 100.894 2190.84 100.651C2191.62 100.479 2192.45 100.297 2193.38 99.6223C2194.65 100.262 2196.05 99.8089 2197.47 99.3453C2199.25 98.769 2201.07 98.1769 2202.76 99.6507C2202.92 99.4939 2203.1 99.0675 2203.3 98.6107C2203.88 97.2915 2204.56 95.7193 2205 99.6575C2205.31 99.6274 2205.55 99.5971 2205.74 99.5731C2206.13 99.5244 2206.31 99.5019 2206.45 99.5598C2206.58 99.6101 2206.68 99.7211 2206.88 99.9283C2207.07 100.138 2207.36 100.446 2207.85 100.889C2210.9 103.141 2213.15 103.148 2216.62 102.139C2218.67 101.289 2220.65 101.985 2222.61 102.672C2225.31 103.62 2227.96 104.55 2230.68 101.366C2232.86 101.373 2235.01 100.516 2237.17 99.6576C2240.46 98.3474 2243.76 97.0317 2247.21 98.7661C2248.93 100.789 2253.65 100.33 2258.09 99.8987C2263.07 99.4145 2267.71 98.9642 2267.38 102.089C2272.07 102.511 2276.76 100.69 2281.25 98.6653C2284.6 96.8194 2288.01 97.8277 2291.36 98.8178C2293.53 99.4588 2295.68 100.092 2297.76 99.9384C2298.79 99.3251 2299.76 99.5917 2300.71 99.8514C2301.65 100.107 2302.56 100.356 2303.47 99.7518C2304.63 98.7872 2305.52 98.5574 2306.35 98.3425C2307.27 98.1049 2308.11 97.8856 2309.19 96.7114C2309.94 96.7136 2310.79 96.7653 2311.68 96.8198C2313.95 96.9578 2316.52 97.1141 2318.56 96.5359C2319.07 96.3076 2319.58 95.9755 2320.08 95.6451C2321.81 94.5102 2323.52 93.3934 2325.09 96.5557C2327.56 95.4419 2329.47 96.3 2331.47 97.1983C2333.1 97.9331 2334.8 98.6949 2336.91 98.4261C2337.31 98.2235 2337.72 97.9076 2338.13 97.5917C2338.95 96.96 2339.77 96.3283 2340.58 96.6026C2342.31 98.1816 2343.19 96.599 2344.17 94.8594C2344.45 94.3457 2344.75 93.8183 2345.08 93.3546C2347.03 90.5426 2349.85 91.4849 2352.86 92.4925C2356.18 93.5988 2359.72 94.7838 2362.62 91.1653C2364.76 90.5583 2367.12 90.8239 2369.44 91.0866C2371.75 91.3476 2374.04 91.6056 2376.07 91.0022C2379.23 90.4016 2382.48 90.5116 2385.78 90.6233C2389.1 90.7355 2392.47 90.8494 2395.85 90.2467C2396.74 89.9169 2397.38 89.7219 2397.91 89.5639C2399.31 89.1406 2399.83 88.9822 2401.77 87.2069C2402.24 87.1722 2402.79 87.1248 2403.4 87.0728C2406.22 86.8316 2410.23 86.4895 2412.57 86.8319C2413.26 86.6048 2413.95 87.0362 2414.62 87.4608C2415.75 88.1692 2416.85 88.8589 2417.88 86.4403C2419.45 84.1608 2422.49 85.2853 2424.87 86.1659C2425.89 86.5428 2426.79 86.8749 2427.4 86.8768C2433.32 83.6331 2435.42 84.1894 2441.53 86.2464C2446.22 83.8144 2449.05 84.7 2453.12 87.3624C2453.58 87.2981 2454.47 87.0024 2455.48 86.6652L2455.48 86.6644C2457.61 85.955 2460.28 85.0626 2460.69 85.7545C2460.95 86.1885 2460.95 86.2166 2460.96 86.3563C2460.97 86.5451 2461 86.938 2461.7 88.8153C2463.73 91.0638 2471.89 91.2923 2473.93 89.26C2476.38 91.4163 2477.68 90.2175 2479.23 88.8007C2479.73 88.3358 2480.26 87.8474 2480.87 87.4464C2483.52 85.6198 2485.77 84.8112 2488.62 85.6352C2489.31 85.5679 2490.31 85.7613 2491.41 85.9737C2493.54 86.3852 2496.04 86.8679 2497.39 85.6618C2498.1 87.6538 2498.35 87.5575 2498.82 87.3694C2498.88 87.3455 2498.94 87.3202 2499.01 87.2975C2499.65 87.6177 2500.04 87.6887 2500.66 87.8029C2500.84 87.835 2501.03 87.8704 2501.25 87.9158C2503.26 86.9882 2505.17 88.1549 2507.05 89.3032C2508.04 89.9098 2509.02 90.5113 2510.01 90.7962C2511.77 91.3875 2513.59 90.9134 2515.45 90.4324C2518.11 89.7421 2520.83 89.0377 2523.46 91.4485C2527.76 91.6268 2531.53 90.1942 2535.52 88.6758C2536.45 88.3223 2537.39 87.964 2538.36 87.6204C2542.01 86.4148 2546.02 86.7106 2550.06 87.009C2553.47 87.2606 2556.91 87.5139 2560.17 86.8711C2560.83 86.8731 2562.19 87.3866 2563.97 88.0606C2569.4 90.109 2578.76 93.6403 2584.22 88.8076C2584.01 87.9262 2582.67 86.3477 2580.91 84.451Z" fill="white"/>
</g>
</g>
<defs>
<filter id="filter0_d_161_1064" x="-20.1514" y="37.105" width="2614.37" height="85.437" filterUnits="userSpaceOnUse" color-interpolation-filters="sRGB">
<feFlood flood-opacity="0" result="BackgroundImageFix"/>
<feColorMatrix in="SourceAlpha" type="matrix" values="0 0 0 0 0 0 0 0 0 0 0 0 0 0 0 0 0 0 127 0" result="hardAlpha"/>
<feOffset/>
<feGaussianBlur stdDeviation="5"/>
<feComposite in2="hardAlpha" operator="out"/>
<feColorMatrix type="matrix" values="0 0 0 0 0 0 0 0 0 0 0 0 0 0 0 0 0 0 0.25 0"/>
<feBlend mode="normal" in2="BackgroundImageFix" result="effect1_dropShadow_161_1064"/>
<feBlend mode="normal" in="SourceGraphic" in2="effect1_dropShadow_161_1064" result="shape"/>
</filter>
<clipPath id="clip0_161_1064">
<rect width="1956" height="156" fill="white"/>
</clipPath>
</defs>
</svg>
