<svg width="1920" height="165" viewBox="0 0 1920 165" fill="none" xmlns="http://www.w3.org/2000/svg">
<g clip-path="url(#clip0_303_1589)">
<rect width="1920" height="165" fill="white"/>
<rect x="11" y="-1558.78" width="1920" height="2110" fill="white"/>
<rect y="53.2246" width="1932" height="1003" fill="#0C0B24"/>
<path d="M1976.9 60.1807C1961.4 73.978 1931.08 56.1908 1925.41 56.1908C1910.13 59.2456 1893.11 53.136 1878.71 57.9364C1867.8 61.864 1858.2 66.6644 1846.85 66.228C1837.25 57.5 1827.21 67.9736 1818.04 64.9188C1811.93 63.1732 1805.82 55.7545 1799.28 58.8092C1797.1 58.3728 1796.22 58.3728 1794.48 57.5C1793.17 57.9364 1792.73 58.8092 1790.99 54.0089C1786.62 57.9365 1776.58 53.5725 1772.22 54.0089C1766.11 52.2633 1761.31 54.0089 1755.64 57.9364C1750.4 61.4276 1747.78 67.9736 1740.8 61.864C1736.43 66.228 1718.98 65.7916 1714.61 60.9912C1711.99 54.0089 1713.74 56.6273 1712.43 54.4453C1711.12 52.2633 1699.29 57.5 1696.24 57.9364C1687.51 52.2633 1681.44 50.3858 1671.4 55.6225C1658.31 51.2586 1653.82 50.0813 1641.16 57.0637C1636.8 57.0637 1625.58 49.2085 1620.78 56.1909C1617.29 64.4824 1613.36 55.7545 1609.43 57.0637C1603.32 56.1909 1591.97 57.5001 1586.3 57.9365C1580.63 63.1732 1580.63 61.864 1573.64 64.4824C1559.24 67.1008 1544.84 63.6096 1531.31 66.228C1522.58 68.8464 1511.67 64.046 1502.51 66.6644C1490.72 81.502 1473.7 58.8093 1464.97 71.4648C1461.92 75.8288 1460.17 82.8112 1455.37 78.4472C1452.75 77.5744 1450.13 81.0656 1447.52 82.3748C1437.48 83.684 1431.8 74.0832 1422.2 78.4472C1417.84 69.7192 1413.04 76.2652 1408.24 78.4472C1402.13 80.1928 1393.83 78.8836 1388.16 78.8836C1383.8 83.684 1381.18 81.0656 1375.94 85.4296C1372.01 88.048 1368.09 83.2476 1363.72 85.866C1352.37 86.7388 1340.15 76.7016 1328.37 83.2476C1318.77 87.6116 1308.73 91.5391 1298.69 90.6664C1300 78.0108 1263.34 92.8484 1255.49 83.684C1243.27 77.5744 1231.92 89.3572 1220.14 89.3572C1210.1 101.14 1200.5 86.7388 1190.02 91.1028C1182.6 93.2848 1177.8 93.2848 1171.25 88.4844C1167.33 84.9932 1169.51 85.4296 1165.14 85.866C1163.84 74.5196 1161.65 84.5568 1160.34 85.866C1153.8 80.1928 1146.38 88.9208 1140.27 85.866C1135.47 89.3572 1131.98 86.7388 1128.05 92.412C1121.07 90.23 1113.65 97.2123 1105.35 98.5215C1093.57 98.0851 1081.79 95.4667 1070.88 100.704C1061.71 105.068 1051.24 96.7759 1042.51 96.3395C1037.71 91.5392 1036.4 94.1576 1032.47 92.8484C1030.29 93.7212 1028.11 86.3024 1025.92 91.1028C1019.81 93.7212 1013.27 94.594 1007.16 91.1028C1001.05 83.684 994.937 94.594 988.827 91.5392C981.844 104.631 976.17 87.1752 969.624 86.3024C957.404 88.9208 943.875 91.1028 931.655 86.3024C926.417 87.6116 920.744 85.866 915.943 85.866C910.706 85.866 910.269 80.6292 905.905 77.5744C897.613 70.1557 882.774 83.2476 873.609 76.7016C868.808 79.7564 866.19 70.1557 860.953 74.0833C852.224 71.0285 853.097 72.7741 846.551 67.5373C839.131 59.2457 824.729 65.7917 817.31 68.4101C811.636 76.2653 808.581 71.9013 805.963 74.5197C803.344 75.3925 802.908 80.1928 797.67 85.4296C793.306 86.3024 789.815 96.3396 784.141 94.1576C777.595 98.958 773.23 91.5392 767.993 91.9756C760.137 82.8112 747.917 90.6664 739.625 91.9756C727.841 94.594 716.494 90.23 704.711 91.9756C696.418 86.7388 688.126 91.5392 680.271 91.9756C675.906 91.5392 667.178 94.1576 667.614 87.6116C659.322 84.1204 649.72 85.866 640.992 86.7388C640.119 81.5021 641.865 76.7017 640.555 74.9561C632.7 78.8837 624.844 66.2281 616.552 69.2829C610.878 67.9737 604.768 75.8289 599.095 69.2829C585.565 67.1009 572.472 73.2105 558.943 69.2829C553.706 68.4101 550.214 67.9737 545.85 66.6645C538.867 63.6097 534.503 56.191 526.647 61.8641C519.228 60.1186 511.808 64.4825 504.826 63.1733C496.097 63.1733 499.152 59.6821 493.042 59.2457C488.678 53.1362 479.949 62.3005 475.148 59.2457C466.856 67.9737 458.564 54.009 450.708 59.2457C443.725 61.8641 443.289 61.4277 438.052 66.6645C432.814 63.1733 424.959 69.2829 418.849 71.9013C411.866 76.7017 406.192 70.1557 399.209 74.9561C394.409 73.6469 392.663 81.5021 387.862 75.3925C384.371 75.8289 383.061 73.6469 380.443 68.8465C377.388 59.2458 376.079 64.0462 372.151 67.1009C367.35 64.9189 362.986 69.7193 358.185 67.1009C352.948 72.3377 347.711 60.1186 342.473 67.1009C337.236 63.6098 329.38 67.5373 325.016 67.5373C320.652 69.7193 318.033 68.4101 313.233 61.8642C307.995 58.8094 305.377 53.5726 299.703 61.8642C288.356 67.5373 281.373 70.5921 267.407 74.9561C258.242 71.9013 249.077 79.3201 239.912 74.9561C232.057 72.7741 225.947 83.6841 218.091 77.5745C211.544 78.4473 205.434 76.2653 198.888 77.5745C192.778 76.2653 186.668 71.9013 180.558 77.5745C176.63 77.5745 169.647 74.9561 166.156 79.7565C156.554 89.7937 150.008 90.6665 139.097 92.4121C133.423 92.8485 128.186 98.0852 122.513 92.8484C118.148 88.0481 113.784 95.0304 109.42 97.2124C98.9453 100.704 85.8524 98.5216 79.7423 89.7937C71.4502 78.8837 60.5394 79.3201 47.4465 79.7565C41.3365 84.1205 36.0993 77.1381 29.9893 77.1381C28.68 80.6293 26.4978 78.4473 25.1885 76.2653C22.57 75.8289 20.2228 74.9726 17.4886 72.86C7.88715 65.4412 3.68736 71.3301 0.499997 73.37C1.13747 63.2979 0.499996 61.8317 0.499996 54.4052C0.499995 43.1538 0.499995 39.6501 0.499994 38.3409C1.71119 41.1458 1.83579 39.7839 3.36701 39.1715C7.73131 37.4259 17.7692 43.5355 22.1335 39.1715C29.1164 37.8623 33.4807 30.0071 40.0272 35.6803C46.5736 32.1891 53.5565 29.5707 60.103 36.1167C67.0858 39.1715 71.8866 43.9718 79.7423 35.6803C91.0895 36.1167 98.0724 36.9895 107.237 45.281C116.402 53.5726 131.241 44.8446 141.715 39.6079C151.317 38.2987 161.791 43.0991 171.829 49.645C181.867 47.0266 191.905 47.8994 201.506 45.7174C212.417 36.1167 222.892 31.7527 235.548 34.8075C246.895 36.9895 256.933 41.7898 268.28 34.3711C273.517 41.7898 277.882 34.8075 283.119 32.1891C294.902 30.0071 305.813 27.8251 316.724 24.3339C325.889 21.7155 330.69 8.62358 339.418 9.93278C345.965 -2.28637 352.948 15.1696 359.494 9.93278C366.041 13.424 371.278 8.62356 378.261 4.25958C384.371 10.8056 390.481 1.64118 396.591 4.69597C408.374 3.82317 425.395 1.2048 435.87 7.75077C439.361 4.25958 441.107 4.69599 445.035 14.2968C449.835 14.2968 455.509 8.62356 460.31 14.7331C466.42 14.7331 468.602 23.4611 474.275 19.9699C476.894 24.3339 479.513 20.4063 482.131 20.4063C483.44 20.4063 485.623 16.4787 487.805 25.6431C492.605 26.0795 499.152 21.2791 504.389 29.1343C508.753 32.189 512.681 38.2986 517.046 31.3162C522.283 26.0795 523.592 18.6607 530.138 22.1519C534.066 23.0247 536.685 25.2067 539.304 29.5707C545.414 39.1714 555.015 30.4435 562.434 31.7527C577.709 35.2439 592.548 39.6078 607.823 31.7527C611.751 33.0619 614.806 31.3163 618.297 32.6254C623.971 39.1714 623.535 35.6802 629.645 39.1714C640.119 38.735 651.03 30.8799 661.504 36.553C667.178 45.7174 672.415 37.4258 678.088 39.1714C681.58 35.6802 686.381 36.1166 689.436 40.0442C693.363 43.9718 692.917 42.7103 695.536 47.0743C699.463 51.8747 712.282 43.099 719.265 40.0442C725.811 30.8798 732.358 34.8074 738.468 40.0442C748.069 43.9718 753.977 48.3358 761.833 41.7898C766.633 27.825 769.739 45.281 774.54 41.7898C779.34 44.4082 782.395 34.8074 786.323 36.1166C793.306 30.0071 802.471 36.553 812.073 28.6978C821.674 26.0794 831.275 23.0247 840.004 29.5707C850.915 27.3887 861.826 31.3162 871.864 32.189C877.101 39.1714 876.664 37.4258 882.338 34.371C888.011 35.6802 890.194 36.553 894.558 39.1714C901.977 30.4434 911.579 33.0618 919.871 39.6078C927.727 36.553 935.146 39.1714 943.002 39.6078C953.476 43.099 964.387 35.6802 975.734 34.8074C987.081 40.4806 997.992 43.5354 1008.03 39.6078C1011.08 44.8446 1013.27 41.7898 1015.89 46.5902C1016.32 42.2262 1027.28 41.9941 1027.28 42.8669C1033.39 48.1037 1033.34 49.6449 1039.45 50.0813C1047.31 47.4629 1053.85 54.8817 1060.84 44.8446C1066.08 42.6626 1071.31 39.1714 1077.86 33.0618C1084.84 32.189 1091.39 33.0618 1097.5 35.6802C1104.04 36.1166 1107.1 36.1166 1112.77 30.8798C1115.83 24.7702 1115.83 22.1518 1120.19 28.2614C1124.99 24.3338 1129.36 42.2262 1134.16 37.8622C1140.27 41.7898 1148.12 38.2986 1154.67 39.6078C1163.84 37.4258 1173.44 26.9522 1183.04 37.4258C1192.64 40.0442 1202.24 34.371 1211.84 37.8622C1215.77 19.6603 1224.06 32.7522 1227.12 27.0791C1230.17 30.1339 1230.17 30.1338 1233.66 37.1162C1237.16 48.899 1243.7 48.4626 1247.63 39.2982C1253.3 39.2982 1256.8 50.5177 1262.91 47.8993C1269.89 38.2986 1277.31 47.4629 1284.29 47.4629C1291.71 46.5901 1296.07 41.7796 1303.06 46.1436C1313.09 50.5076 1318.77 50.0813 1326.62 44.4081C1330.99 37.8622 1331.86 41.3533 1337.1 39.1714C1340.59 33.4982 1343.64 38.7349 1347.14 33.4982C1353.25 35.6802 1361.1 26.9522 1367.65 33.0618C1373.76 30.8798 1377.69 34.8074 1383.36 35.6801C1387.29 34.371 1389.47 40.9169 1392.53 32.6254C1397.33 23.8974 1397.76 39.1713 1403.44 28.2614C1410.86 36.553 1418.71 28.2614 1426.57 28.2614C1430.49 23.461 1434.86 30.007 1438.35 28.2614C1444.46 27.3886 1441.41 30.007 1446.21 32.6254C1451.88 38.735 1457.12 44.4081 1464.54 35.6801C1469.77 40.9169 1475.45 37.8621 1480.68 35.6801C1485.05 34.3709 1489.41 36.1165 1493.34 35.2438C1497.27 38.2985 1500.76 32.189 1505.12 30.007C1509.05 23.8974 1513.85 31.3162 1517.78 27.3886C1525.2 30.007 1530.44 19.5334 1537.86 16.4786C1545.28 5.13229 1553.13 16.0422 1560.55 15.6058C1566.66 10.369 1570.59 16.915 1576.7 9.05985C1580.19 21.279 1584.12 6.44145 1587.61 7.31425C1589.79 7.75064 1592.41 -2.72289 1595.03 3.38669C1597.21 -0.1045 1599.83 10.3691 1602.01 3.82309C1609.43 4.69588 1611.61 3.82306 1616.85 -3.59571C1628.63 -10.5781 1641.73 -20.1788 1656.13 -11.0145C1663.55 -12.7601 1670.97 -10.5781 1678.39 -11.0145C1688.42 -15.3785 1698.9 -9.70528 1708.94 -11.0145C1718.98 -14.9421 1729.45 -11.0145 1739.49 -11.0145C1745.6 -9.26889 1749.53 -6.65051 1755.2 -8.3961C1759.13 -6.65051 1763.93 -12.3237 1768.29 -8.83249C1776.15 -11.4509 1786.62 -13.6329 1793.17 -1.85013C1795.79 2.51385 1796.66 7.31426 1799.28 3.82307C1801.02 1.20468 1802.33 3.82305 1804.08 8.62343C1806.7 14.733 1808.01 18.6606 1807.57 16.4786C1815.86 24.7702 1838.56 17.3514 1851.21 21.7154C1860.38 23.461 1869.54 26.0794 1879.58 23.461C1885.26 19.5334 1887.87 26.9522 1893.11 28.2613C1900.09 29.5705 1908.82 24.7702 1916.24 28.6977C1926.28 30.8797 1924.41 21.279 1934.02 25.643C1938.61 29.0337 1936.79 24.5076 1947.34 21.8621C1947.34 31.3604 1975.4 53.9307 1976.9 60.1807Z" fill="white"/>
</g>
<defs>
<clipPath id="clip0_303_1589">
<rect width="1920" height="165" fill="white"/>
</clipPath>
</defs>
</svg>
