<svg width="556" height="82" viewBox="0 0 556 82" fill="none" xmlns="http://www.w3.org/2000/svg">
<path d="M318.007 45.1451L334.746 68.7624C335.266 69.6829 338.505 69.7798 344.44 69.0773C350.374 68.3748 353.306 67.3575 353.282 66.001L352.762 41.1483L318.007 45.1451ZM301.456 72.5896C301.456 73.7523 304.412 73.9945 310.228 73.3163C316.044 72.6381 318.976 71.6934 318.952 70.5307L318.432 45.2177L300.889 47.2282L301.456 72.5896Z" fill="white"/>
<path d="M370.53 52.74V24.26H364.85C363.943 24.26 363.303 23.1133 362.93 20.82C362.77 19.7 362.69 18.5533 362.69 17.38C362.69 16.2067 362.77 15.06 362.93 13.94C363.303 11.6467 363.943 10.5 364.85 10.5H391.73C392.637 10.5 393.25 11.6467 393.57 13.94C393.783 15.06 393.89 16.2067 393.89 17.38C393.89 18.5533 393.783 19.7 393.57 20.82C393.25 23.1133 392.637 24.26 391.73 24.26H386.37V52.74H391.97C392.877 52.74 393.517 53.8867 393.89 56.18C394.103 57.3 394.21 58.4467 394.21 59.62C394.21 60.7933 394.103 61.94 393.89 63.06C393.517 65.3533 392.877 66.5 391.97 66.5H365.01C364.103 66.5 363.49 65.3533 363.17 63.06C362.957 61.94 362.85 60.7933 362.85 59.62C362.85 58.4467 362.957 57.3 363.17 56.18C363.49 53.8867 364.103 52.74 365.01 52.74H370.53Z" fill="white"/>
<path d="M443.387 64.74C443.387 65.86 440.88 66.42 435.867 66.42C430.854 66.42 428.134 66.02 427.707 65.22L414.347 40.26V65.14C414.347 66.1 411.867 66.58 406.907 66.58C402 66.58 399.547 66.1 399.547 65.14V11.62C399.547 10.82 401.654 10.42 405.867 10.42C407.52 10.42 409.44 10.58 411.627 10.9C413.867 11.1667 415.227 11.7 415.707 12.5L428.507 37.14V12.02C428.507 11.0067 430.987 10.5 435.947 10.5C440.907 10.5 443.387 11.0067 443.387 12.02V64.74Z" fill="white"/>
<path d="M448.142 59.3C448.142 57.7533 448.595 55.9667 449.502 53.94C450.409 51.86 451.395 50.4467 452.462 49.7C454.489 51.1933 456.542 51.94 458.622 51.94L461.102 51.54C463.982 50.6867 465.475 48.3933 465.582 44.66V24.26H459.182C458.275 24.26 457.635 23.1133 457.262 20.82C457.102 19.7 457.022 18.5533 457.022 17.38C457.022 16.2067 457.102 15.06 457.262 13.94C457.635 11.6467 458.275 10.5 459.182 10.5H478.222C479.289 10.5 480.089 10.82 480.622 11.46C481.155 12.0467 481.422 12.7667 481.422 13.62V51.38C481.422 56.6067 479.662 60.58 476.142 63.3C472.675 66.02 468.489 67.38 463.582 67.38C458.729 67.38 454.942 66.66 452.222 65.22C449.502 63.78 448.142 61.8067 448.142 59.3Z" fill="white"/>
<path d="M525.975 66.66C521.335 66.66 518.828 65.9133 518.455 64.42L515.815 54.1H503.095L500.775 64.02C500.455 65.6733 497.895 66.5 493.095 66.5C490.535 66.5 488.642 66.3667 487.415 66.1C486.188 65.78 485.575 65.54 485.575 65.38L499.735 11.22C499.735 10.7933 503.388 10.58 510.695 10.58C518.002 10.58 521.655 10.7933 521.655 11.22L535.495 65.46C535.495 65.8333 534.268 66.1267 531.815 66.34C529.362 66.5533 527.415 66.66 525.975 66.66ZM505.095 43.94H513.495L509.895 27.38H509.415L505.095 43.94Z" fill="white"/>
<path d="M553.597 49.7C553.597 50.02 551.677 50.18 547.837 50.18C544.05 50.18 542.157 50.0467 542.157 49.78L540.557 10.34C540.557 9.91333 542.984 9.7 547.837 9.7C552.744 9.7 555.197 9.88666 555.197 10.26L553.597 49.7ZM540.397 54.5C540.397 54.1267 542.85 53.94 547.757 53.94C552.717 53.94 555.197 54.1 555.197 54.42V65.94C555.197 66.4733 552.717 66.74 547.757 66.74C542.85 66.74 540.397 66.58 540.397 66.26V54.5Z" fill="white"/>
<path d="M354.433 1.67806L355.25 41.1535L323.845 45.0986L321.37 45.3927L304.067 47.5L303.25 7.36293C303.25 6.38278 305.702 5.56599 310.605 4.91255C312.855 4.67392 315.116 4.5839 317.377 4.64301C319.969 4.64301 321.556 5.15759 322.047 6.06423L337.738 34.562L337.084 3.78538C337.084 2.53569 339.956 1.55554 345.747 0.869441C351.537 0.183337 354.433 0.452877 354.433 1.67806Z" fill="white"/>
<path d="M1.8876 42.3C1.8876 41.98 3.78093 41.82 7.5676 41.82C11.4076 41.82 13.3276 41.9533 13.3276 42.22L14.9276 80.7C14.9276 81.1267 12.4743 81.34 7.5676 81.34C2.71426 81.34 0.287598 81.1533 0.287598 80.78L1.8876 42.3ZM15.0876 37.5C15.0876 37.8733 12.6076 38.06 7.6476 38.06C2.74093 38.06 0.287598 37.9 0.287598 37.58V26.06C0.287598 25.5267 2.74093 25.26 7.6476 25.26C12.6076 25.26 15.0876 25.42 15.0876 25.74V37.5Z" fill="white"/>
<path d="M51.4963 12.14C52.1897 10.2733 55.603 9.34 61.7364 9.34C63.283 9.34 65.0964 9.44667 67.1764 9.66C69.3097 9.87333 70.2964 10.14 70.1364 10.46L53.4963 43.9V63.42C53.4963 64.3267 52.0297 64.9667 49.0964 65.34C47.603 65.5533 46.1363 65.66 44.6964 65.66C43.2563 65.66 41.8163 65.58 40.3763 65.42C37.443 65.0467 35.9763 64.38 35.9763 63.42V44.38L18.7763 10.62C18.563 10.3 19.6563 10.0067 22.0563 9.74C24.4563 9.42 26.483 9.26 28.1363 9.26C34.6963 9.26 38.2963 10.22 38.9363 12.14L44.7763 28.46L51.4963 12.14Z" fill="white"/>
<path d="M106.491 65.66C101.851 65.66 99.3441 64.9133 98.9707 63.42L96.3307 53.1H83.6107L81.2907 63.02C80.9707 64.6733 78.4107 65.5 73.6107 65.5C71.0507 65.5 69.1574 65.3667 67.9307 65.1C66.7041 64.78 66.0907 64.54 66.0907 64.38L80.2507 10.22C80.2507 9.79333 83.9041 9.58 91.2107 9.58C98.5174 9.58 102.171 9.79333 102.171 10.22L116.011 64.46C116.011 64.8333 114.784 65.1267 112.331 65.34C109.877 65.5533 107.931 65.66 106.491 65.66ZM85.6107 42.94H94.0107L90.4107 26.38H89.9307L85.6107 42.94Z" fill="white"/>
<path d="M138.471 45.98C139.484 46.78 141.217 47.8733 143.671 49.26C146.177 50.6467 148.551 51.34 150.791 51.34C153.084 51.34 154.231 50.46 154.231 48.7C154.231 47.9 153.911 47.2067 153.271 46.62C152.631 45.98 151.457 45.26 149.751 44.46C148.044 43.66 146.764 43.0467 145.911 42.62C145.057 42.14 143.911 41.3933 142.471 40.38C141.084 39.3133 140.017 38.22 139.271 37.1C137.137 34.06 136.071 30.1933 136.071 25.5C136.071 20.8067 137.804 16.86 141.271 13.66C144.791 10.4067 149.377 8.78 155.031 8.78C158.871 8.78 162.417 9.20666 165.671 10.06C168.924 10.86 170.604 11.9267 170.711 13.26C170.711 13.42 170.711 13.58 170.711 13.74C170.711 15.6067 170.124 17.98 168.951 20.86C167.777 23.6867 166.951 25.26 166.471 25.58C163.057 23.82 159.991 22.94 157.271 22.94C154.604 22.94 153.271 23.9 153.271 25.82C153.271 26.9933 154.257 28.0333 156.231 28.94C156.657 29.1533 157.271 29.4467 158.071 29.82C158.871 30.1933 159.777 30.6467 160.791 31.18C161.857 31.66 162.977 32.3 164.151 33.1C165.377 33.8467 166.684 34.86 168.071 36.14C170.897 38.8067 172.311 42.3267 172.311 46.7C172.311 52.4067 170.737 57.0733 167.591 60.7C164.444 64.3267 159.591 66.1933 153.031 66.3C149.831 66.3 146.924 66.0333 144.311 65.5C141.751 64.9667 139.511 63.9267 137.591 62.38C135.671 60.8333 134.711 58.9667 134.711 56.78C134.711 54.5933 135.111 52.4333 135.911 50.3C136.711 48.1133 137.564 46.6733 138.471 45.98Z" fill="white"/>
<path d="M202.651 66.3C195.184 66.3 189.077 63.8467 184.331 58.94C179.637 54.0333 177.291 46.8867 177.291 37.5C177.291 28.06 179.664 20.9133 184.411 16.06C189.211 11.2067 195.371 8.78 202.891 8.78C210.464 8.78 216.571 11.18 221.211 15.98C225.851 20.7267 228.171 27.9533 228.171 37.66C228.171 47.3133 225.797 54.5133 221.051 59.26C216.304 63.9533 210.171 66.3 202.651 66.3ZM202.731 24.14C200.171 24.14 198.011 25.3133 196.251 27.66C194.544 30.0067 193.691 33.3133 193.691 37.58C193.691 41.7933 194.517 45.0467 196.171 47.34C197.824 49.58 199.984 50.7 202.651 50.7C205.371 50.7 207.557 49.5533 209.211 47.26C210.917 44.9667 211.771 41.6867 211.771 37.42C211.771 33.1533 210.891 29.8733 209.131 27.58C207.424 25.2867 205.291 24.14 202.731 24.14Z" fill="white"/>
<path d="M262.434 12.14C263.127 10.2733 266.541 9.34 272.674 9.34C274.221 9.34 276.034 9.44667 278.114 9.66C280.247 9.87333 281.234 10.14 281.074 10.46L264.434 43.9V63.42C264.434 64.3267 262.967 64.9667 260.034 65.34C258.541 65.5533 257.074 65.66 255.634 65.66C254.194 65.66 252.754 65.58 251.314 65.42C248.381 65.0467 246.914 64.38 246.914 63.42V44.38L229.714 10.62C229.501 10.3 230.594 10.0067 232.994 9.74C235.394 9.42 237.421 9.26 239.074 9.26C245.634 9.26 249.234 10.22 249.874 12.14L255.714 28.46L262.434 12.14Z" fill="white"/>
</svg>
